<svg id="Filled_Expand" viewBox="0 0 64 64" xmlns="http://www.w3.org/2000/svg" data-name="Filled Expand"><rect fill="#d7e6ff" height="28" rx="3" width="62" x="1" y="7"/><rect fill="#c8dcff" height="26" rx="3" width="59" x="4" y="9"/><path d="m6 27h52v8h-52z" fill="#6c818f"/><path d="m6 27h52v4h-52z" fill="#5f7682"/><path d="m4 7h56a3 3 0 0 1 3 3v7a6 6 0 0 1 -6 6h-50a6 6 0 0 1 -6-6v-7a3 3 0 0 1 3-3z" fill="#fafafb"/><path d="m60 9h-53a3 3 0 0 0 -3 3v7.866a3.083 3.083 0 0 0 2.967 3.134h50.033a6 6 0 0 0 6-6v-5a3 3 0 0 0 -3-3z" fill="#eef2f9"/><path d="m24 13h16v6h-16z" fill="#c8dcff"/><path d="m60 6.25h-56a3.755 3.755 0 0 0 -3.75 3.75v22a3.755 3.755 0 0 0 3.75 3.75h56a3.755 3.755 0 0 0 3.75-3.75v-22a3.755 3.755 0 0 0 -3.75-3.75zm-2.75 28h-50.5v-2.5h50.5zm0-4h-50.5v-2.5h50.5zm5 1.75a2.253 2.253 0 0 1 -2.25 2.25h-1.25v-7.25a.75.75 0 0 0 -.75-.75h-52a.75.75 0 0 0 -.75.75v7.25h-1.25a2.253 2.253 0 0 1 -2.25-2.25v-10.763a6.74 6.74 0 0 0 5.25 2.513h50a6.74 6.74 0 0 0 5.25-2.513zm0-15a5.256 5.256 0 0 1 -5.25 5.25h-50a5.256 5.256 0 0 1 -5.25-5.25v-7a2.253 2.253 0 0 1 2.25-2.25h56a2.253 2.253 0 0 1 2.25 2.25z"/><path d="m40 12.25h-16a.75.75 0 0 0 -.75.75v6a.75.75 0 0 0 .75.75h16a.75.75 0 0 0 .75-.75v-6a.75.75 0 0 0 -.75-.75zm-.75 6h-14.5v-4.5h14.5z"/><path d="m59 10.25h-10a.75.75 0 0 0 0 1.5h10a.75.75 0 0 0 0-1.5z"/><path d="m59 14.25h-10a.75.75 0 0 0 0 1.5h10a.75.75 0 0 0 0-1.5z"/><path d="m15.272 47.5a6.024 6.024 0 0 1 0-8 .75.75 0 1 0 -1.121-1 7.522 7.522 0 0 0 0 10 6.024 6.024 0 0 1 0 8 .75.75 0 1 0 1.121 1 7.522 7.522 0 0 0 0-10z"/><path d="m26.8 47.5a6.024 6.024 0 0 1 0-8 .75.75 0 1 0 -1.121-1 7.523 7.523 0 0 0 0 10 6.025 6.025 0 0 1 0 8 .75.75 0 1 0 1.121 1 7.522 7.522 0 0 0 0-10z"/><path d="m38.323 47.5a6.025 6.025 0 0 1 0-8 .75.75 0 1 0 -1.121-1 7.522 7.522 0 0 0 0 10 6.024 6.024 0 0 1 0 8 .75.75 0 1 0 1.121 1 7.523 7.523 0 0 0 0-10z"/><path d="m49.85 47.5a6.024 6.024 0 0 1 0-8 .75.75 0 1 0 -1.121-1 7.522 7.522 0 0 0 0 10 6.024 6.024 0 0 1 0 8 .75.75 0 1 0 1.121 1 7.522 7.522 0 0 0 0-10z"/></svg>