<svg width="52" height="52" viewBox="0 0 52 52" fill="none" xmlns="http://www.w3.org/2000/svg">
<g clip-path="url(#clip0_154_1084)">
<path d="M44.6875 49.5625H33.3125V26.8125H46.3125V39.8125" fill="#3E88DE"/>
<path d="M34.9375 36.5625C34.938 39.347 35.9598 42.0345 37.8093 44.116C39.6589 46.1975 42.2076 47.5283 44.9727 47.8563L46.3125 39.8125V26.8125H34.9375V36.5625Z" fill="#7AB0E5"/>
<path d="M34.9375 28.4375H44.6875V38.1875H34.9375V28.4375Z" fill="#F4F5F4"/>
<path d="M50.375 1.625H1.625V15.4651C1.625 16.5426 2.05301 17.5759 2.81488 18.3377C3.57675 19.0996 4.61006 19.5276 5.6875 19.5276H46.3125C47.3899 19.5276 48.4233 19.0996 49.1851 18.3377C49.947 17.5759 50.375 16.5426 50.375 15.4651V1.625Z" fill="#BCBDBC"/>
<path d="M21.1524 17.9026H49.5436C50.08 17.203 50.372 16.3467 50.3748 15.4651V1.625H3.33105C3.7362 6.07213 5.7888 10.2073 9.08599 13.2189C12.3832 16.2304 16.6869 17.901 21.1524 17.9026Z" fill="#DFE0DF"/>
<path d="M6.5 15.4375H45.5V19.5H6.5V15.4375Z" fill="#3E88DE"/>
<path d="M41.4375 9.75C41.8862 9.75 42.25 9.38623 42.25 8.9375C42.25 8.48877 41.8862 8.125 41.4375 8.125C40.9888 8.125 40.625 8.48877 40.625 8.9375C40.625 9.38623 40.9888 9.75 41.4375 9.75Z" fill="#98C05C"/>
<path d="M46.3125 9.75C46.7612 9.75 47.125 9.38623 47.125 8.9375C47.125 8.48877 46.7612 8.125 46.3125 8.125C45.8638 8.125 45.5 8.48877 45.5 8.9375C45.5 9.38623 45.8638 9.75 46.3125 9.75Z" fill="#E15240"/>
<path d="M46.3125 39.8124L45.1921 38.692C45.032 38.532 44.842 38.405 44.6329 38.3184C44.4238 38.2319 44.1996 38.1874 43.9733 38.1874C43.5163 38.1877 43.0781 38.3693 42.755 38.6924C42.4318 39.0156 42.2502 39.4538 42.25 39.9108C42.2499 40.1371 42.2944 40.3612 42.381 40.5703C42.4676 40.7795 42.5945 40.9695 42.7546 41.1295L44.6875 43.0624C44.1674 43.5827 43.8751 44.2882 43.875 45.0238V45.6576C43.8749 46.0882 43.975 46.513 44.1675 46.8983L44.6875 47.9374V51.1874H49.5625V47.9374C50.0969 46.8689 50.3751 45.6905 50.375 44.4957V39.355C50.3751 38.2268 50.1271 37.1123 49.6486 36.0905C49.17 35.0688 48.4727 34.1648 47.606 33.4424L46.3125 32.3643V39.8124Z" fill="#EEB8AB"/>
<path d="M43.875 32.5H41.7739L43.6369 30.6369L42.4881 29.4881L40.625 31.3511V29.25H39V31.3511L37.1369 29.4881L35.9881 30.6369L37.8511 32.5H35.75V34.125H37.8503L35.9872 35.9872L37.1369 37.1361L39 35.2731V37.375H40.625V35.2739L42.4881 37.1369L43.6369 35.9881L41.7739 34.125H43.875V32.5Z" fill="#1B489C"/>
<path d="M37.375 42.25C38.2725 42.25 39 41.5225 39 40.625C39 39.7275 38.2725 39 37.375 39C36.4775 39 35.75 39.7275 35.75 40.625C35.75 41.5225 36.4775 42.25 37.375 42.25Z" fill="#FBEC70"/>
<path d="M37.375 47.125C38.2725 47.125 39 46.3975 39 45.5C39 44.6025 38.2725 43.875 37.375 43.875C36.4775 43.875 35.75 44.6025 35.75 45.5C35.75 46.3975 36.4775 47.125 37.375 47.125Z" fill="#FBEC70"/>
<path d="M10.5625 21.9375V23.2375C10.5621 24.8604 10.1968 26.4625 9.49356 27.9251C8.79036 29.3878 7.76727 30.6736 6.5 31.6875L4.0625 29.25L2.4375 36.5625H10.5625L8.9375 34.125C12.1606 31.9762 14.9663 29.2595 17.2177 26.1073L17.875 25.1875" fill="#1B489C"/>
<path d="M30.0625 25.1875L27.625 34.125H30.875L26 40.625L21.125 34.125H24.375L21.9375 25.1875" fill="#1B489C"/>
<path d="M1.625 14.6461V15.4651C1.62675 15.7287 1.65396 15.9916 1.70625 16.25H50.2986C50.3509 15.9916 50.3781 15.7287 50.3799 15.4651V14.625H2.17263C1.98984 14.6226 1.80706 14.6296 1.625 14.6461Z" fill="#B9AAA5"/>
<path d="M1.625 11.3961V13H50.375V11.375H2.17263C1.98984 11.3726 1.80706 11.3796 1.625 11.3961Z" fill="#B9AAA5"/>
<path d="M8.86054 13H50.3752V11.375H7.35498C7.82327 11.9468 8.32606 12.4895 8.86054 13Z" fill="#D5CCC8"/>
<path d="M13.6745 16.25H50.2882C50.2882 16.2337 50.298 16.2191 50.3012 16.2029C50.3482 15.9597 50.3729 15.7128 50.3751 15.4651V14.625H10.8584C11.7457 15.2513 12.6883 15.7952 13.6745 16.25Z" fill="#D5CCC8"/>
<path d="M16.9862 26.4176L10.5626 23.5625V24.8625C10.5622 26.4854 10.1969 28.0875 9.49365 29.5501C8.79045 31.0128 7.76736 32.2986 6.50009 33.3125L4.06259 30.875L2.79834 36.5625H10.5626L9.67615 35.2332L8.93759 34.125C12.0511 32.047 14.7753 29.4382 16.9862 26.4176Z" fill="#3E88DE"/>
<path d="M28.0678 32.5L30.0625 25.1875H29.6197H22.3803H21.9375L23.9322 32.5L24.375 34.125H22.3438L26 39L29.6562 34.125H27.625L28.0678 32.5Z" fill="#3E88DE"/>
<path d="M46.3126 33.7512V39.8125L45.1921 38.692C44.8651 38.3746 44.4291 38.1941 43.9734 38.1875C43.689 38.1892 43.4096 38.2624 43.1609 38.4003C42.9238 38.5262 42.7195 38.7059 42.5645 38.9251C42.4095 39.1443 42.3082 39.3968 42.2687 39.6624C42.2292 39.9279 42.2525 40.199 42.337 40.4538C42.4214 40.7087 42.5644 40.9401 42.7546 41.1295L44.6876 43.0625C44.1675 43.5827 43.8752 44.2882 43.8751 45.0238V45.6576C43.875 46.0883 43.9751 46.513 44.1676 46.8983L44.6876 47.9375V51.1875H47.9376V47.9375C48.472 46.8689 48.7502 45.6905 48.7501 44.4957V39.3542C48.7483 38.3033 48.5311 37.2639 48.1119 36.3002C47.6926 35.3365 47.0803 34.469 46.3126 33.7512Z" fill="#FFE1D3"/>
<path d="M50.375 0.8125H1.625C1.40951 0.8125 1.20285 0.898102 1.05048 1.05048C0.898102 1.20285 0.8125 1.40951 0.8125 1.625V15.4651C0.813791 16.7577 1.32782 17.9969 2.24178 18.9108C3.15574 19.8248 4.39497 20.3388 5.6875 20.3401H46.3125C47.605 20.3388 48.8443 19.8248 49.7582 18.9108C50.6722 17.9969 51.1862 16.7577 51.1875 15.4651V1.625C51.1875 1.40951 51.1019 1.20285 50.9495 1.05048C50.7972 0.898102 50.5905 0.8125 50.375 0.8125ZM49.5625 2.4375V11.375H2.4375V2.4375H49.5625ZM2.4375 14.625V13H49.5625V14.625H2.4375ZM44.6875 16.25V18.7151H7.3125V16.25H44.6875ZM2.54394 16.25H5.6875V18.7151C4.96386 18.7128 4.26168 18.4691 3.69225 18.0226C3.12281 17.576 2.71869 16.9522 2.54394 16.25ZM46.3125 18.7151V16.25H49.4561C49.2813 16.9522 48.8772 17.576 48.3078 18.0226C47.7383 18.4691 47.0361 18.7128 46.3125 18.7151Z" fill="black"/>
<path d="M41.4375 10.5625C42.335 10.5625 43.0625 9.83496 43.0625 8.9375C43.0625 8.04004 42.335 7.3125 41.4375 7.3125C40.54 7.3125 39.8125 8.04004 39.8125 8.9375C39.8125 9.83496 40.54 10.5625 41.4375 10.5625Z" fill="black"/>
<path d="M46.3125 10.5625C47.21 10.5625 47.9375 9.83496 47.9375 8.9375C47.9375 8.04004 47.21 7.3125 46.3125 7.3125C45.415 7.3125 44.6875 8.04004 44.6875 8.9375C44.6875 9.83496 45.415 10.5625 46.3125 10.5625Z" fill="black"/>
<path d="M48.126 32.8185L47.125 31.9841V26.8125C47.125 26.597 47.0394 26.3903 46.887 26.238C46.7347 26.0856 46.528 26 46.3125 26H33.3125C33.097 26 32.8903 26.0856 32.738 26.238C32.5856 26.3903 32.5 26.597 32.5 26.8125V49.5625C32.5 49.778 32.5856 49.9847 32.738 50.137C32.8903 50.2894 33.097 50.375 33.3125 50.375H43.875V51.1875H45.5V47.9375C45.5014 47.8118 45.4736 47.6875 45.4188 47.5743L44.8987 46.5343C44.7613 46.2624 44.689 45.9623 44.6875 45.6576V45.0239C44.687 44.7662 44.7375 44.5109 44.8363 44.2728C44.935 44.0348 45.08 43.8186 45.2628 43.6369C45.4151 43.4846 45.5006 43.2779 45.5006 43.0625C45.5006 42.8471 45.4151 42.6404 45.2628 42.4881L43.3298 40.5551C43.2024 40.4278 43.1156 40.2655 43.0803 40.0889C43.0451 39.9122 43.0631 39.729 43.132 39.5626C43.2009 39.3961 43.3176 39.2538 43.4673 39.1537C43.6171 39.0535 43.7932 39.0001 43.9733 39C44.093 38.9995 44.2116 39.0228 44.3222 39.0686C44.4328 39.1143 44.5332 39.1816 44.6176 39.2665L45.7381 40.3869L47.3631 42.0119L48.5119 40.8631L47.125 39.4761V34.1039C47.8896 34.7485 48.5039 35.5526 48.925 36.4597C49.3461 37.3668 49.5636 38.355 49.5625 39.3551V44.4958C49.5601 45.5647 49.3098 46.6185 48.8312 47.5743C48.7764 47.6875 48.7486 47.8118 48.75 47.9375V51.1875H50.375V48.1236C50.9088 46.9886 51.1862 45.75 51.1875 44.4958V39.3551C51.1891 38.1075 50.9156 36.8748 50.3865 35.745C49.8573 34.6152 49.0855 33.616 48.126 32.8185ZM43.9733 37.375C43.4717 37.375 42.9814 37.5237 42.5644 37.8023C42.1473 38.0809 41.8223 38.477 41.6303 38.9404C41.4384 39.4038 41.3882 39.9137 41.486 40.4056C41.5839 40.8975 41.8254 41.3494 42.1801 41.704L43.6036 43.1275C43.2483 43.696 43.0607 44.3534 43.0625 45.0239V45.6576C43.063 46.2143 43.1926 46.7633 43.4411 47.2615L43.875 48.1292V48.75H34.125V27.625H45.5V37.8983C45.0626 37.5605 44.5259 37.3765 43.9733 37.375Z" fill="black"/>
<path d="M43.6369 30.6369L42.4881 29.4881L40.625 31.3511V29.25H39V31.3511L37.1369 29.4881L35.9881 30.6369L37.8511 32.5H35.75V34.125H37.8503L35.9872 35.9872L37.1369 37.1361L39 35.2731V37.375H40.625V35.2739L42.4881 37.1369L43.6369 35.9881L41.7739 34.125H43.875V32.5H41.7739L43.6369 30.6369Z" fill="black"/>
<path d="M37.375 42.25C38.2725 42.25 39 41.5225 39 40.625C39 39.7275 38.2725 39 37.375 39C36.4775 39 35.75 39.7275 35.75 40.625C35.75 41.5225 36.4775 42.25 37.375 42.25Z" fill="black"/>
<path d="M37.375 47.125C38.2725 47.125 39 46.3975 39 45.5C39 44.6025 38.2725 43.875 37.375 43.875C36.4775 43.875 35.75 44.6025 35.75 45.5C35.75 46.3975 36.4775 47.125 37.375 47.125Z" fill="black"/>
<path d="M5.92542 32.2619C6.06679 32.4034 6.25537 32.4877 6.45506 32.4988C6.65474 32.5099 6.8515 32.447 7.00767 32.3221C8.37323 31.2349 9.47534 29.853 10.2316 28.2799C10.9878 26.7067 11.3787 24.983 11.3749 23.2375V21.9375H9.74986V23.2375C9.75336 24.6174 9.47001 25.9829 8.91781 27.2474C8.36561 28.512 7.5566 29.648 6.54211 30.5833L4.6368 28.6756C4.53385 28.5727 4.40515 28.4993 4.26416 28.4632C4.12317 28.4271 3.97506 28.4295 3.83532 28.4701C3.69557 28.5108 3.56932 28.5883 3.46976 28.6945C3.3702 28.8007 3.30099 28.9316 3.26936 29.0737L1.64436 36.3862C1.61796 36.505 1.61857 36.6281 1.64614 36.7466C1.67371 36.8651 1.72754 36.9759 1.80365 37.0708C1.87977 37.1657 1.97623 37.2423 2.08591 37.295C2.19559 37.3476 2.3157 37.375 2.43736 37.375H10.5624C10.7095 37.375 10.8538 37.3351 10.98 37.2595C11.1062 37.1839 11.2095 37.0755 11.2789 36.9458C11.3483 36.8161 11.3812 36.67 11.374 36.5231C11.3669 36.3762 11.32 36.2339 11.2384 36.1116L10.0586 34.3428C13.0865 32.2169 15.731 29.5916 17.8789 26.5793L18.5354 25.6596L17.2143 24.7154L16.5562 25.6352C14.3639 28.7089 11.6292 31.3569 8.48642 33.449C8.39764 33.5082 8.32139 33.5843 8.26203 33.673C8.20266 33.7617 8.16135 33.8612 8.14045 33.9658C8.11955 34.0705 8.11948 34.1782 8.14022 34.2829C8.16097 34.3876 8.20213 34.4872 8.26136 34.5759L9.0438 35.75H3.45055L4.53442 30.8709L5.92542 32.2619Z" fill="black"/>
<path d="M20.398 33.7619C20.3307 33.8969 20.3022 34.0479 20.3158 34.1982C20.3295 34.3484 20.3847 34.4919 20.4752 34.6126L25.3502 41.1126C25.4259 41.2135 25.524 41.2954 25.6369 41.3518C25.7497 41.4082 25.8741 41.4376 26.0002 41.4376C26.1264 41.4376 26.2508 41.4082 26.3636 41.3518C26.4764 41.2954 26.5745 41.2135 26.6502 41.1126L31.5252 34.6126C31.6158 34.4919 31.6709 34.3483 31.6844 34.198C31.698 34.0478 31.6694 33.8967 31.6019 33.7617C31.5345 33.6267 31.4307 33.5132 31.3024 33.4339C31.174 33.3546 31.0261 33.3126 30.8752 33.3126H28.6888L30.8468 25.4013L29.2787 24.9739L26.8412 33.9114C26.8083 34.0319 26.8037 34.1584 26.8277 34.281C26.8517 34.4036 26.9036 34.5191 26.9794 34.6184C27.0553 34.7176 27.153 34.7981 27.265 34.8534C27.377 34.9088 27.5003 34.9376 27.6252 34.9376H29.2502L26.0002 39.2706L22.7502 34.9376H24.3752C24.5002 34.9376 24.6234 34.9088 24.7354 34.8534C24.8474 34.7981 24.9452 34.7176 25.021 34.6184C25.0969 34.5191 25.1488 34.4036 25.1728 34.281C25.1968 34.1584 25.1921 34.0319 25.1593 33.9114L22.7218 24.9739L21.1537 25.4013L23.3117 33.3126H21.1252C20.9742 33.3125 20.8262 33.3545 20.6978 33.4339C20.5693 33.5132 20.4655 33.6268 20.398 33.7619Z" fill="black"/>
</g>
<defs>
<clipPath id="clip0_154_1084">
<rect width="52" height="52" fill="white"/>
</clipPath>
</defs>
</svg>
