<?xml version="1.0" encoding="UTF-8"?>
<svg xmlns="http://www.w3.org/2000/svg" viewBox="0 0 64 64" width="512" height="512"><g id="Layer_28" data-name="Layer 28"><polygon points="12.452 57 30.414 17.296 27.647 14.759 8 57 12.452 57" style="fill:#e2bd3b"/><path d="M28,43H27a7,7,0,0,0,0,14h5V53H27a3,3,0,0,1,0-6h1Z" style="fill:#ccc"/><path d="M42.264,24l6.349-12.7A3.662,3.662,0,0,0,45.337,6a10.158,10.158,0,0,0-7.469,3.286l-7.394,8.066-2.948-2.7,7.393-8.065A14.173,14.173,0,0,1,45.337,2a7.663,7.663,0,0,1,6.854,11.09L46.5,24.469Z" style="fill:#66c3e9"/><path d="M60,53V40a2,2,0,0,0-2-2H34a2,2,0,0,0-2,2V57a2,2,0,0,0,.21.894L38,59H52.417Z" style="fill:#66c3e9"/><path d="M36,56H56.209L60,53V40a2,2,0,0,0-2-2H34V54A2,2,0,0,0,36,56Z" style="fill:#8adef9"/><path d="M32,36a2,2,0,0,0,2,2H58a2,2,0,0,0,2-2V29h0a2.41,2.41,0,0,0-1.966-2.369L44,24H34.41A2.41,2.41,0,0,0,32,26.41Z" style="fill:#ccc"/><path d="M58.034,26.631,44,24H34.41a2.4,2.4,0,0,0-.41.041v2.922A9.037,9.037,0,0,0,43.037,36H60V29A2.41,2.41,0,0,0,58.034,26.631Z" style="fill:#e6e6e6"/><circle cx="57" cy="57" r="5" style="fill:#ccc"/><circle cx="35" cy="59" r="3" style="fill:#ccc"/><circle cx="57" cy="57" r="2" style="fill:#fff"/><path d="M54,48H46a2,2,0,0,1-2-2V44h0a2,2,0,0,1,2-2h8a2,2,0,0,1,2,2v2A2,2,0,0,1,54,48Z" style="fill:#43b6e5"/><path d="M32,28h6a2,2,0,0,1,2,2v2a2,2,0,0,1-2,2H32" style="fill:#f3ca4c"/><polyline points="44 38 44 30 56 30 56 38" style="fill:#ccc"/><polygon points="56 33 53 33 53 30 51 30 51 33 49 33 49 30 47 30 47 33 44 33 44 35 47 35 47 38 49 38 49 35 51 35 51 38 53 38 53 35 56 35 56 33" style="fill:#e6e6e6"/><polyline points="32 42 28 42 28 48 32 48" style="fill:#3693cf"/><path d="M14,57H6a4,4,0,0,0-4,4H2v1H18V61A4,4,0,0,0,14,57Z" style="fill:#f3ca4c"/><path d="M38,28H34.064a9.019,9.019,0,0,0,3.31,6H38a2,2,0,0,0,2-2V30A2,2,0,0,0,38,28Z" style="fill:#fcde6e"/><path d="M30,42v2a2,2,0,0,0,2,2V42Z" style="fill:#43b6e5"/><path d="M27.647,14.759,8.908,55.047a1.977,1.977,0,0,0,.833.194,2.013,2.013,0,0,0,1.833-1.183L28.852,15.864Z" style="fill:#f3ca4c"/><path d="M61,52.54V40a2.981,2.981,0,0,0-.78-2A2.981,2.981,0,0,0,61,36V29a3.409,3.409,0,0,0-2.782-3.351L47.989,23.731l5.1-10.194A8.664,8.664,0,0,0,45.337,1,15.176,15.176,0,0,0,34.182,5.907l-7.393,8.066a.984.984,0,0,0-.246.788L7.362,56H6a5.006,5.006,0,0,0-5,5v1a1,1,0,0,0,1,1H18a1,1,0,0,0,1-1V61a5.006,5.006,0,0,0-5-5L31.165,18.061c.014-.013.033-.019.046-.034L38.6,9.962A9.162,9.162,0,0,1,45.337,7a2.663,2.663,0,0,1,2.382,3.854L41.646,23H34.41A3.414,3.414,0,0,0,31,26.41V36a2.981,2.981,0,0,0,.78,2A2.981,2.981,0,0,0,31,40v1H28a1,1,0,0,0-1,1,8,8,0,0,0,0,16h4.142A3.939,3.939,0,0,0,31,59a3.992,3.992,0,0,0,7.858,1H51.812A5.994,5.994,0,1,0,61,52.54ZM27.978,16.42,29.2,17.544,11.807,56H9.568ZM17,61H3a3,3,0,0,1,3-3h8A3,3,0,0,1,17,61ZM49.508,11.748A4.663,4.663,0,0,0,45.337,5,11.165,11.165,0,0,0,37.13,8.61l-6.717,7.328-1.475-1.351,6.718-7.328A13.171,13.171,0,0,1,45.337,3a6.664,6.664,0,0,1,5.96,9.643l-5.353,10.7-1.76-.33A.941.941,0,0,0,44,23h-.118ZM34.41,25h9.5l13.944,2.615A1.409,1.409,0,0,1,59,29v7a1,1,0,0,1-1,1H57V30a1,1,0,0,0-1-1H44a1,1,0,0,0-1,1v7H34a1,1,0,0,1-1-1V35h5a3,3,0,0,0,3-3V30a3,3,0,0,0-3-3H33v-.59A1.412,1.412,0,0,1,34.41,25ZM55,33H53V31h2Zm-4,0H49V31h2Zm-4,0H45V31h2Zm-2,2h2v2H45Zm4,0h2v2H49Zm4,0h2v2H53ZM33,33V29h5a1,1,0,0,1,1,1v2a1,1,0,0,1-1,1ZM29,43h2v4H29Zm2,6v3H27a2,2,0,0,1,0-4,1,1,0,0,0,1,1ZM21,50a6.006,6.006,0,0,1,6-6v2a4,4,0,0,0,0,8h4v2H27A6.006,6.006,0,0,1,21,50ZM35,61a2,2,0,1,1,2-2A2,2,0,0,1,35,61Zm16-4a6,6,0,0,0,.09,1H38.858A3.953,3.953,0,0,0,33,55.556V40a1,1,0,0,1,1-1H58a1,1,0,0,1,1,1V51.35A5.984,5.984,0,0,0,51,57Zm6,4a4,4,0,1,1,4-4A4,4,0,0,1,57,61Z"/><path d="M57,54a3,3,0,1,0,3,3A3,3,0,0,0,57,54Zm0,4a1,1,0,1,1,1-1A1,1,0,0,1,57,58Z"/><path d="M57,44a3,3,0,0,0-3-3H46a3,3,0,0,0-3,3v2a3,3,0,0,0,3,3h8a3,3,0,0,0,3-3Zm-2,2a1,1,0,0,1-1,1H46a1,1,0,0,1-1-1V44a1,1,0,0,1,1-1h8a1,1,0,0,1,1,1Z"/></g></svg>
