<svg width="53" height="52" viewBox="0 0 53 52" fill="none" xmlns="http://www.w3.org/2000/svg">
<g clip-path="url(#clip0_155_1135)">
<path d="M2.65933 44.0566H26.0678C27.1681 44.0566 28.0601 44.9487 28.0601 46.049C28.0601 47.1492 27.1681 48.0413 26.0678 48.0413H2.65933C1.55907 48.0413 0.666992 47.1494 0.666992 46.049C0.666992 44.9487 1.55907 44.0566 2.65933 44.0566Z" fill="#E9C46A"/>
<path d="M52.6671 51.6663H34.6533C34.6502 49.4701 36.4281 47.6872 38.6242 47.6841H38.6418H48.6849C50.8837 47.6852 52.666 49.4675 52.6671 51.6663Z" fill="#218E7E"/>
<path d="M2.65933 13.3872H26.0678C27.1681 13.3872 28.0601 14.2793 28.0601 15.3795C28.0601 16.4798 27.1681 17.3719 26.0678 17.3719H2.65933C1.55907 17.3719 0.666992 16.4798 0.666992 15.3795C0.666992 14.2793 1.55907 13.3872 2.65933 13.3872Z" fill="#E9C46A"/>
<path d="M2.71436 17.373H26.0126V44.0587H2.71436V17.373Z" fill="#2A9D8F"/>
<path d="M7.53492 8.56665H21.192C23.8547 8.56665 26.0132 10.7252 26.0132 13.3878H2.71436C2.71436 10.7254 4.87246 8.56696 7.53492 8.56665Z" fill="#F4A261"/>
<path d="M2.94984 48.0415H7.128V49.5774C7.128 50.7314 6.19257 51.6668 5.03861 51.6668C3.88466 51.6668 2.94922 50.7314 2.94922 49.5774V48.0415H2.94984Z" fill="#218E7E"/>
<path d="M21.5993 48.0415H25.775V49.5774C25.775 50.7314 24.8395 51.6668 23.6856 51.6668C22.5316 51.6668 21.5962 50.7314 21.5962 49.5774V48.0415H21.5993Z" fill="#218E7E"/>
<path d="M45.8547 7.12338V44.065H41.4718V7.12338C41.4718 5.79379 40.3939 4.71591 39.0644 4.71591C37.7348 4.71591 36.6569 5.79379 36.6569 7.12338V19.9653C36.65 24.3299 33.1135 27.8664 28.7489 27.8733H26.0127V23.4904H28.7489C30.6939 23.4863 32.2699 21.9103 32.274 19.9653V7.12338C32.274 3.37318 35.3142 0.333008 39.0644 0.333008C42.8146 0.333008 45.8547 3.37318 45.8547 7.12338Z" fill="#E9C46A"/>
<path d="M40.4144 44.0649H46.9061C47.6285 44.0649 48.2141 44.6505 48.2141 45.3729V47.684H39.1064V45.3729C39.1064 44.6505 39.692 44.0649 40.4144 44.0649Z" fill="#2A9D8F"/>
<path d="M41.4717 34.2104H45.8546V44.0651H41.4717V34.2104Z" fill="#F4A261"/>
<path d="M10.8326 41.2569H6.66701C6.06186 41.2569 5.57129 40.7663 5.57129 40.1612C5.57129 39.556 6.06186 39.0654 6.66701 39.0654H10.8326C11.4378 39.0654 11.9284 39.556 11.9284 40.1612C11.9284 40.7663 11.4378 41.2569 10.8326 41.2569Z" fill="#FCF7ED"/>
<path d="M10.8326 37.7349H6.66701C6.06186 37.7349 5.57129 37.2443 5.57129 36.6392C5.57129 36.034 6.06186 35.5435 6.66701 35.5435H10.8326C11.4378 35.5435 11.9284 36.034 11.9284 36.6392C11.9284 37.2443 11.4378 37.7349 10.8326 37.7349Z" fill="#FCF7ED"/>
<path d="M21.9728 22.8643H17.8072C17.202 22.8643 16.7114 22.3737 16.7114 21.7686C16.7114 21.1634 17.202 20.6729 17.8072 20.6729H21.9728C22.5779 20.6729 23.0685 21.1634 23.0685 21.7686C23.0685 22.3737 22.5779 22.8643 21.9728 22.8643Z" fill="#FCF7ED"/>
</g>
<defs>
<clipPath id="clip0_155_1135">
<rect width="52" height="52" fill="white" transform="translate(0.666992)"/>
</clipPath>
</defs>
</svg>
