<svg enable-background="new 0 0 2048 2048" viewBox="0 0 2048 2048" xmlns="http://www.w3.org/2000/svg"><g id="_x31_4217_-_Backyard"><g id="XMLID_3_"><g><g id="XMLID_4_"><g><g><path d="m1520 996.4v5.6c0 46.39-37.61 84-84 84h-89.6v-89.6c0-46.39 37.61-84 84-84h5.6c46.39 0 84 37.61 84 84z" fill="#2cbfae"/></g><g><path d="m701.6 996.4v89.6h-89.6c-46.39 0-84-37.61-84-84v-5.6c0-46.39 37.61-84 84-84h5.6c46.39 0 84 37.61 84 84z" fill="#2cbfae"/></g><g><circle cx="1024" cy="590" fill="#ef5261" r="99.2"/></g><g><path d="m900 838h248v248h-248z" fill="#575b6d"/></g><g><path d="m1346.4 996.4v89.6h-198.4v-248h-248v248h-198.4v-89.6-464.27l322.4-214.93 322.4 232.84zm-223.2-406.4c0-54.79-44.41-99.2-99.2-99.2s-99.2 44.41-99.2 99.2 44.41 99.2 99.2 99.2 99.2-44.41 99.2-99.2z" fill="#eeefee"/></g><g><path d="m1768 1358.8v372h-165.33v-148.8-148.8-74.4l82.66-124z" fill="#f2b15a"/></g><g><path d="m1437.33 1433.2h165.34v148.8h-165.34z" fill="#eaa14e"/></g><g><path d="m1437.33 1582v148.8h-165.33v-148.8-148.8-74.4l82.67-124 82.66 124v74.4z" fill="#f2b15a"/></g><g><path d="m1106.67 1433.2h165.33v148.8h-165.33z" fill="#eaa14e"/></g><g><path d="m1106.67 1582v148.8h-165.34v-148.8-148.8-74.4l82.67-124 82.67 124v74.4z" fill="#f2b15a"/></g><g><path d="m776 1433.2h165.33v148.8h-165.33z" fill="#eaa14e"/></g><g><path d="m776 1582v148.8h-165.33v-148.8-148.8-74.4l82.66-124 82.67 124v74.4z" fill="#f2b15a"/></g><g><path d="m445.33 1433.2h165.34v148.8h-165.34z" fill="#eaa14e"/></g><g><path d="m445.33 1582v148.8h-165.33v-372l82.67-124 82.66 124v74.4z" fill="#f2b15a"/></g></g><g><g><path d="m445.33 1754.8h-165.33c-13.255 0-24-10.745-24-24v-372c0-4.738 1.402-9.371 4.031-13.313l82.669-124c4.451-6.676 11.945-10.687 19.969-10.687 8.025 0 15.518 4.011 19.969 10.688l82.66 124c2.628 3.942 4.03 8.574 4.03 13.312v372c.002 13.255-10.743 24-23.998 24zm-141.33-48h117.33v-340.733l-58.661-87.999-58.669 87.998z" fill="#333"/></g><g><path d="m776 1754.8h-165.33c-13.255 0-24-10.745-24-24v-372c0-4.738 1.402-9.37 4.03-13.312l82.66-124c4.451-6.677 11.944-10.688 19.969-10.688 8.024 0 15.518 4.01 19.97 10.687l82.669 124c2.629 3.942 4.031 8.575 4.031 13.313v372c.001 13.255-10.744 24-23.999 24zm-141.33-48h117.33v-340.733l-58.669-87.999-58.661 87.999z" fill="#333"/></g><g><path d="m1106.67 1754.8h-165.34c-13.255 0-24-10.745-24-24v-372c0-4.738 1.403-9.371 4.031-13.313l82.67-124c4.451-6.677 11.944-10.687 19.969-10.687s15.518 4.01 19.969 10.687l82.67 124c2.629 3.942 4.031 8.575 4.031 13.313v372c0 13.255-10.745 24-24 24zm-141.34-48h117.34v-340.733l-58.67-88.001-58.67 88.001z" fill="#333"/></g><g><path d="m1437.33 1754.8h-165.33c-13.255 0-24-10.745-24-24v-372c0-4.738 1.402-9.371 4.031-13.313l82.67-124c4.451-6.676 11.944-10.687 19.969-10.687h.001c8.024 0 15.518 4.011 19.969 10.688l82.66 124c2.628 3.942 4.03 8.574 4.03 13.312v372c0 13.255-10.745 24-24 24zm-141.33-48h117.33v-340.733l-58.661-87.999-58.669 87.998z" fill="#333"/></g><g><path d="m1768 1754.8h-165.33c-13.255 0-24-10.745-24-24v-372c0-4.738 1.402-9.37 4.03-13.312l82.66-124c4.451-6.677 11.944-10.688 19.969-10.688s15.519 4.01 19.97 10.687l82.67 124c2.629 3.942 4.031 8.575 4.031 13.313v372c0 13.255-10.745 24-24 24zm-141.33-48h117.33v-340.733l-58.669-87.999-58.661 87.999z" fill="#333"/></g><g><path d="m610.67 1457.2h-165.34c-13.255 0-24-10.745-24-24s10.745-24 24-24h165.34c13.255 0 24 10.745 24 24s-10.745 24-24 24z" fill="#333"/></g><g><path d="m610.67 1606h-165.34c-13.255 0-24-10.745-24-24s10.745-24 24-24h165.34c13.255 0 24 10.745 24 24s-10.745 24-24 24z" fill="#333"/></g><g><path d="m941.33 1457.2h-165.33c-13.255 0-24-10.745-24-24s10.745-24 24-24h165.33c13.255 0 24 10.745 24 24s-10.745 24-24 24z" fill="#333"/></g><g><path d="m941.33 1606h-165.33c-13.255 0-24-10.745-24-24s10.745-24 24-24h165.33c13.255 0 24 10.745 24 24s-10.745 24-24 24z" fill="#333"/></g><g><path d="m1272 1457.2h-165.33c-13.255 0-24-10.745-24-24s10.745-24 24-24h165.33c13.255 0 24 10.745 24 24s-10.745 24-24 24z" fill="#333"/></g><g><path d="m1272 1606h-165.33c-13.255 0-24-10.745-24-24s10.745-24 24-24h165.33c13.255 0 24 10.745 24 24s-10.745 24-24 24z" fill="#333"/></g><g><path d="m1602.67 1457.2h-165.34c-13.255 0-24-10.745-24-24s10.745-24 24-24h165.34c13.255 0 24 10.745 24 24s-10.745 24-24 24z" fill="#333"/></g><g><path d="m1602.67 1606h-165.34c-13.255 0-24-10.745-24-24s10.745-24 24-24h165.34c13.255 0 24 10.745 24 24s-10.745 24-24 24z" fill="#333"/></g><g><path d="m1582 1110h-146c-13.255 0-24-10.745-24-24s10.745-24 24-24h146c13.255 0 24 10.745 24 24s-10.745 24-24 24z" fill="#333"/></g><g><path d="m612 1110h-146c-13.255 0-24-10.745-24-24s10.745-24 24-24h146c13.255 0 24 10.745 24 24s-10.745 24-24 24z" fill="#333"/></g><g><path d="m701.6 1020.4c-13.255 0-24-10.746-24-24v-464.27c0-13.255 10.745-24 24-24s24 10.745 24 24v464.27c0 13.255-10.745 24-24 24z" fill="#333"/></g><g><path d="m900 1110h-198.4c-13.255 0-24-10.745-24-24s10.745-24 24-24h198.4c13.255 0 24 10.745 24 24s-10.745 24-24 24z" fill="#333"/></g><g><path d="m1346.4 1110h-198.4c-13.255 0-24-10.745-24-24s10.745-24 24-24h198.4c13.255 0 24 10.745 24 24s-10.745 24-24 24z" fill="#333"/></g><g><path d="m1346.4 1020.399c-13.255 0-24-10.745-24-24v-446.359c0-13.255 10.745-24 24-24s24 10.745 24 24v446.36c0 13.255-10.745 23.999-24 23.999z" fill="#333"/></g><g><path d="m1470.381 663.602c-4.87 0-9.783-1.477-14.032-4.546l-124-89.56-308.896-223.087-308.541 205.69-123.999 82.669c-11.03 7.353-25.93 4.373-33.282-6.656-7.353-11.028-4.373-25.929 6.656-33.282l124-82.67 322.4-214.93c8.334-5.557 19.242-5.352 27.364.513l322.4 232.84 124.001 89.561c10.745 7.761 13.164 22.763 5.403 33.508-4.691 6.496-12.03 9.95-19.474 9.95z" fill="#333"/></g><g><path d="m1247.2 490c-13.255 0-24-10.745-24-24v-124c0-13.255 10.745-24 24-24s24 10.745 24 24v124c0 13.255-10.745 24-24 24z" fill="#333"/></g><g><path d="m1148 1110h-248c-13.255 0-24-10.745-24-24v-248c0-13.255 10.745-24 24-24h248c13.255 0 24 10.745 24 24v248c0 13.255-10.745 24-24 24zm-224-48h200v-200h-200z" fill="#333"/></g><g><path d="m1024 713.2c-67.933 0-123.2-55.268-123.2-123.2s55.268-123.2 123.2-123.2 123.2 55.268 123.2 123.2-55.267 123.2-123.2 123.2zm0-198.4c-41.465 0-75.2 33.735-75.2 75.2s33.735 75.2 75.2 75.2c41.466 0 75.2-33.735 75.2-75.2s-33.734-75.2-75.2-75.2z" fill="#333"/></g><g><path d="m701.6 1110h-89.6c-59.551 0-108-48.448-108-108v-5.6c0-59.551 48.449-108 108-108h5.6c59.551 0 108 48.449 108 108v89.6c0 13.255-10.745 24-24 24zm-89.6-173.6c-33.084 0-60 26.916-60 60v5.6c0 33.084 26.916 60 60 60h65.6v-65.6c0-33.084-26.916-60-60-60z" fill="#333"/></g><g><path d="m1436 1110h-89.6c-13.255 0-24-10.745-24-24v-89.6c0-59.551 48.448-108 108-108h5.6c59.552 0 108 48.449 108 108v5.6c0 59.552-48.448 108-108 108zm-65.6-48h65.6c33.084 0 60-26.916 60-60v-5.6c0-33.084-26.916-60-60-60h-5.6c-33.084 0-60 26.916-60 60z" fill="#333"/></g></g></g></g></g></g><g id="Layer_1"/></svg>