<svg width="183" height="33" viewBox="0 0 183 33" fill="none" xmlns="http://www.w3.org/2000/svg">
<path d="M21.9751 1.77539H27.8501V10.2154H21.9751V1.77539Z" fill="#EFEFED"/>
<path d="M27.8501 10.4595H21.9751C21.8351 10.4595 21.7251 10.3495 21.7251 10.2095V1.76953C21.7251 1.62953 21.8351 1.51953 21.9751 1.51953H27.8501C27.9901 1.51953 28.1001 1.62953 28.1001 1.76953V10.2095C28.1001 10.3495 27.9901 10.4595 27.8501 10.4595ZM22.2251 9.95953H27.6001V2.01953H22.2251V9.95953Z" fill="black"/>
<path d="M29.375 29.0841V12.8891L16.25 5.11914L3.125 12.8891V29.0841H29.375Z" fill="#EFEFED"/>
<path d="M29.375 29.3348H3.125C2.985 29.3348 2.875 29.2248 2.875 29.0848V12.8898C2.875 12.7998 2.92 12.7198 3 12.6748L16.125 4.90484C16.205 4.85984 16.3 4.85984 16.38 4.90484L29.5 12.6748C29.575 12.7198 29.625 12.7998 29.625 12.8898V29.0848C29.625 29.2248 29.51 29.3348 29.375 29.3348ZM3.375 28.8348H29.12V13.0348L16.25 5.40984L3.375 13.0348V28.8348Z" fill="black"/>
<path d="M2.21 14.8452C1.56 14.8452 0.920005 14.5102 0.565005 13.9102C0.0300049 13.0052 0.330005 11.8302 1.235 11.2952L15.28 2.97523C15.88 2.62023 16.625 2.62023 17.225 2.97523L31.27 11.2902C32.175 11.8252 32.475 13.0002 31.94 13.9052C31.405 14.8102 30.23 15.1102 29.325 14.5752L16.25 6.83523L3.18 14.5802C2.875 14.7602 2.54 14.8452 2.21 14.8452Z" fill="#1F509A"/>
<path d="M2.20983 15.095C1.44983 15.095 0.739832 14.69 0.349832 14.035C0.0548317 13.54 -0.0251683 12.96 0.114832 12.4C0.259832 11.84 0.609832 11.37 1.10483 11.08L15.1498 2.75996C15.8298 2.35996 16.6698 2.35996 17.3498 2.75996L31.3948 11.075C32.4198 11.68 32.7598 13.01 32.1498 14.035C31.5448 15.06 30.2148 15.4 29.1898 14.795L16.2498 7.12996L3.30483 14.795C2.97483 14.99 2.59483 15.095 2.20983 15.095ZM16.2498 6.58496C16.2948 6.58496 16.3398 6.59496 16.3748 6.61996L29.4498 14.365C29.8298 14.59 30.2798 14.655 30.7048 14.545C31.1348 14.435 31.4948 14.165 31.7198 13.785C32.1848 13 31.9248 11.98 31.1398 11.51L17.0948 3.18996C16.5748 2.87996 15.9248 2.87996 15.4048 3.18996L1.35983 11.51C0.979832 11.735 0.709832 12.095 0.599832 12.525C0.489832 12.955 0.549832 13.4 0.779832 13.78C1.07483 14.28 1.62483 14.595 2.20983 14.595C2.50483 14.595 2.79483 14.515 3.05483 14.365L16.1298 6.62496C16.1648 6.59996 16.2048 6.58496 16.2498 6.58496Z" fill="black"/>
<path d="M32.25 30.355C32.25 30.875 32.04 31.35 31.695 31.695C31.355 32.035 30.88 32.25 30.355 32.25H2.145C1.1 32.25 0.25 31.4 0.25 30.355C0.25 29.835 0.465 29.36 0.805 29.015C1.15 28.675 1.625 28.46 2.145 28.46H30.355C31.405 28.46 32.25 29.31 32.25 30.355Z" fill="#1F509A"/>
<path d="M30.355 32.5H2.145C0.96 32.5 0 31.54 0 30.355C0 29.79 0.225 29.25 0.625 28.84C1.04 28.435 1.575 28.21 2.145 28.21H30.355C31.54 28.21 32.5 29.17 32.5 30.355C32.5 30.93 32.275 31.465 31.87 31.87C31.465 32.275 30.93 32.5 30.355 32.5ZM2.145 28.71C1.71 28.71 1.295 28.88 0.98 29.195C0.67 29.51 0.5 29.92 0.5 30.355C0.5 31.26 1.24 32 2.145 32H30.355C30.795 32 31.21 31.83 31.52 31.52C31.83 31.21 32 30.795 32 30.355C32 29.45 31.26 28.71 30.355 28.71H2.145Z" fill="black"/>
<path d="M29.0801 1.325C29.0801 1.62 28.9601 1.885 28.7651 2.08C28.5701 2.275 28.3051 2.395 28.0051 2.395H21.8201C21.2251 2.395 20.7451 1.915 20.7451 1.325C20.7451 1.025 20.8651 0.76 21.0601 0.565C21.2551 0.37 21.5251 0.25 21.8201 0.25H28.0051C28.6001 0.25 29.0801 0.73 29.0801 1.325Z" fill="#1F509A"/>
<path d="M28.0051 2.645H21.8201C21.0901 2.645 20.4951 2.055 20.4951 1.325C20.4951 0.97 20.6351 0.64 20.8851 0.39C21.1351 0.14 21.4701 0 21.8201 0H28.0051C28.7351 0 29.3301 0.595 29.3301 1.325C29.3301 1.675 29.1901 2.005 28.9401 2.255C28.6901 2.505 28.3601 2.645 28.0051 2.645ZM21.8201 0.5C21.6001 0.5 21.3951 0.585 21.2351 0.74C21.0751 0.9 20.9951 1.1 20.9951 1.325C20.9951 1.775 21.3651 2.145 21.8201 2.145H28.0051C28.2251 2.145 28.4301 2.06 28.5901 1.905C28.7451 1.75 28.8301 1.545 28.8301 1.325C28.8301 0.87 28.4601 0.5 28.0051 0.5H21.8201Z" fill="black"/>
<path d="M21.3899 24.3099V28.4599H11.1099V24.3099C11.1099 21.4699 13.4099 19.1699 16.2499 19.1699C17.6699 19.1699 18.9549 19.7449 19.8849 20.6749C20.8149 21.6049 21.3899 22.8899 21.3899 24.3099Z" fill="#495E66"/>
<path d="M21.3899 28.7099H11.1099C10.9699 28.7099 10.8599 28.5999 10.8599 28.4599V24.3099C10.8599 21.3399 13.2799 18.9199 16.2499 18.9199C17.6899 18.9199 19.0449 19.4799 20.0599 20.4999C21.0799 21.5199 21.6399 22.8699 21.6399 24.3099V28.4599C21.6399 28.5999 21.5299 28.7099 21.3899 28.7099ZM11.3599 28.2099H21.1399V24.3099C21.1399 23.0049 20.6299 21.7749 19.7099 20.8499C18.7849 19.9249 17.5599 19.4199 16.2499 19.4199C13.5549 19.4199 11.3599 21.6149 11.3599 24.3099V28.2099Z" fill="black"/>
<path d="M16.25 16.6249C18.067 16.6249 19.54 15.1519 19.54 13.3349C19.54 11.5179 18.067 10.0449 16.25 10.0449C14.4329 10.0449 12.96 11.5179 12.96 13.3349C12.96 15.1519 14.4329 16.6249 16.25 16.6249Z" fill="#FBE063"/>
<path d="M16.25 16.8749C14.295 16.8749 12.71 15.2849 12.71 13.3349C12.71 11.3799 14.3 9.79492 16.25 9.79492C18.205 9.79492 19.79 11.3849 19.79 13.3349C19.79 15.2899 18.205 16.8749 16.25 16.8749ZM16.25 10.2949C14.575 10.2949 13.21 11.6599 13.21 13.3349C13.21 15.0099 14.575 16.3749 16.25 16.3749C17.925 16.3749 19.29 15.0099 19.29 13.3349C19.29 11.6599 17.925 10.2949 16.25 10.2949Z" fill="black"/>
<path d="M51.102 23.97C49.958 23.97 48.902 23.772 47.934 23.376C46.966 22.9653 46.1227 22.3933 45.404 21.66C44.7 20.9267 44.15 20.0613 43.754 19.064C43.358 18.052 43.16 16.952 43.16 15.764C43.16 14.576 43.3507 13.4907 43.732 12.508C44.128 11.5253 44.678 10.6747 45.382 9.956C46.1007 9.22267 46.944 8.66533 47.912 8.284C48.88 7.888 49.9433 7.69 51.102 7.69C52.4073 7.69 53.5807 7.94667 54.622 8.46C55.678 8.95867 56.536 9.67 57.196 10.594C57.8707 11.5033 58.2813 12.574 58.428 13.806H55.128C54.9373 12.6767 54.4753 11.826 53.742 11.254C53.0087 10.6673 52.136 10.374 51.124 10.374C50.2293 10.374 49.4373 10.5867 48.748 11.012C48.0733 11.4373 47.5453 12.0533 47.164 12.86C46.7827 13.652 46.592 14.6127 46.592 15.742C46.592 16.886 46.7827 17.876 47.164 18.712C47.56 19.5333 48.1027 20.1713 48.792 20.626C49.4813 21.066 50.2733 21.286 51.168 21.286C52.1213 21.286 52.9647 21 53.698 20.428C54.4313 19.856 54.908 19.0053 55.128 17.876H58.472C58.2813 19.108 57.8487 20.186 57.174 21.11C56.4993 22.0193 55.6413 22.7233 54.6 23.222C53.5587 23.7207 52.3927 23.97 51.102 23.97ZM60.32 23.75V12.53H63.554V15.17H63.62V23.75H60.32ZM63.62 17.898L63.334 15.236C63.598 14.2827 64.0307 13.5567 64.632 13.058C65.2333 12.5593 65.9813 12.31 66.876 12.31C67.1547 12.31 67.36 12.3393 67.492 12.398V15.478C67.4187 15.4487 67.316 15.434 67.184 15.434C67.052 15.4193 66.8907 15.412 66.7 15.412C65.644 15.412 64.8667 15.6027 64.368 15.984C63.8693 16.3507 63.62 16.9887 63.62 17.898ZM75.7394 23.75C75.6514 23.4273 75.5854 23.0827 75.5414 22.716C75.5121 22.3493 75.4974 21.924 75.4974 21.44H75.4094V16.138C75.4094 15.6833 75.2554 15.3313 74.9474 15.082C74.6541 14.818 74.2141 14.686 73.6274 14.686C73.0701 14.686 72.6228 14.7813 72.2854 14.972C71.9628 15.1627 71.7501 15.4413 71.6474 15.808H68.5014C68.6481 14.796 69.1688 13.96 70.0634 13.3C70.9581 12.64 72.1828 12.31 73.7374 12.31C75.3508 12.31 76.5828 12.6693 77.4334 13.388C78.2841 14.1067 78.7094 15.1407 78.7094 16.49V21.44C78.7094 21.8067 78.7314 22.1807 78.7754 22.562C78.8341 22.9287 78.9221 23.3247 79.0394 23.75H75.7394ZM71.8234 23.97C70.7088 23.97 69.8214 23.6913 69.1614 23.134C68.5014 22.562 68.1714 21.8067 68.1714 20.868C68.1714 19.8267 68.5601 18.9907 69.3374 18.36C70.1294 17.7147 71.2294 17.2967 72.6374 17.106L75.9154 16.644V18.558L73.1874 18.976C72.6008 19.064 72.1681 19.2253 71.8894 19.46C71.6108 19.6947 71.4714 20.0173 71.4714 20.428C71.4714 20.7947 71.6034 21.0733 71.8674 21.264C72.1314 21.4547 72.4834 21.55 72.9234 21.55C73.6128 21.55 74.1994 21.3667 74.6834 21C75.1674 20.6187 75.4094 20.1787 75.4094 19.68L75.7174 21.44C75.3948 22.276 74.9034 22.9067 74.2434 23.332C73.5834 23.7573 72.7768 23.97 71.8234 23.97ZM81.4378 23.75V11.782C81.4378 10.4327 81.8044 9.41333 82.5378 8.724C83.2711 8.03467 84.3564 7.69 85.7938 7.69C86.1018 7.69 86.3658 7.70467 86.5858 7.734C86.8204 7.76333 87.0478 7.81467 87.2678 7.888V10.418C87.1651 10.374 87.0404 10.3447 86.8938 10.33C86.7471 10.3007 86.5711 10.286 86.3658 10.286C85.8084 10.286 85.3978 10.418 85.1338 10.682C84.8698 10.946 84.7378 11.3273 84.7378 11.826V23.75H81.4378ZM79.5678 15.038V12.53H87.0258V15.038H79.5678ZM94.2827 23.992C92.8453 23.992 91.7747 23.6473 91.0707 22.958C90.3813 22.254 90.0367 21.1907 90.0367 19.768V10.022L93.3367 8.79V19.878C93.3367 20.3767 93.476 20.7507 93.7547 21C94.0333 21.2493 94.466 21.374 95.0527 21.374C95.2727 21.374 95.478 21.352 95.6687 21.308C95.8593 21.264 96.05 21.2127 96.2407 21.154V23.662C96.05 23.7647 95.7787 23.8453 95.4267 23.904C95.0893 23.9627 94.708 23.992 94.2827 23.992ZM87.9467 15.038V12.53H96.2407V15.038H87.9467ZM98.7904 28.26L101.892 21.396L102.464 20.45L105.368 12.53H108.888L102.09 28.26H98.7904ZM101.166 23.53L96.8544 12.53H100.418L103.96 22.562L101.166 23.53ZM114.133 23.75V7.91H117.521V23.75H114.133ZM115.717 17.612V15.016H124.803V17.612H115.717ZM115.717 10.506V7.91H125.309V10.506H115.717ZM130.208 23.97C129.416 23.97 128.734 23.8013 128.162 23.464C127.604 23.112 127.179 22.65 126.886 22.078C126.592 21.4913 126.446 20.8387 126.446 20.12V12.53H129.746V19.482C129.746 20.098 129.9 20.56 130.208 20.868C130.516 21.176 130.948 21.33 131.506 21.33C132.004 21.33 132.444 21.2127 132.826 20.978C133.207 20.7433 133.508 20.4207 133.728 20.01C133.962 19.5847 134.08 19.1007 134.08 18.558L134.366 21.264C133.999 22.0707 133.464 22.7233 132.76 23.222C132.056 23.7207 131.205 23.97 130.208 23.97ZM134.146 23.75V21.11H134.08V12.53H137.38V23.75H134.146ZM145.136 23.992C143.699 23.992 142.628 23.6473 141.924 22.958C141.235 22.254 140.89 21.1907 140.89 19.768V10.022L144.19 8.79V19.878C144.19 20.3767 144.33 20.7507 144.608 21C144.887 21.2493 145.32 21.374 145.906 21.374C146.126 21.374 146.332 21.352 146.522 21.308C146.713 21.264 146.904 21.2127 147.094 21.154V23.662C146.904 23.7647 146.632 23.8453 146.28 23.904C145.943 23.9627 145.562 23.992 145.136 23.992ZM138.8 15.038V12.53H147.094V15.038H138.8ZM152.444 23.97C151.652 23.97 150.97 23.8013 150.398 23.464C149.841 23.112 149.415 22.65 149.122 22.078C148.829 21.4913 148.682 20.8387 148.682 20.12V12.53H151.982V19.482C151.982 20.098 152.136 20.56 152.444 20.868C152.752 21.176 153.185 21.33 153.742 21.33C154.241 21.33 154.681 21.2127 155.062 20.978C155.443 20.7433 155.744 20.4207 155.964 20.01C156.199 19.5847 156.316 19.1007 156.316 18.558L156.602 21.264C156.235 22.0707 155.7 22.7233 154.996 23.222C154.292 23.7207 153.441 23.97 152.444 23.97ZM156.382 23.75V21.11H156.316V12.53H159.616V23.75H156.382ZM162.263 23.75V12.53H165.497V15.17H165.563V23.75H162.263ZM165.563 17.898L165.277 15.236C165.541 14.2827 165.974 13.5567 166.575 13.058C167.177 12.5593 167.925 12.31 168.819 12.31C169.098 12.31 169.303 12.3393 169.435 12.398V15.478C169.362 15.4487 169.259 15.434 169.127 15.434C168.995 15.4193 168.834 15.412 168.643 15.412C167.587 15.412 166.81 15.6027 166.311 15.984C165.813 16.3507 165.563 16.9887 165.563 17.898ZM176.137 23.97C174.89 23.97 173.805 23.728 172.881 23.244C171.957 22.7453 171.238 22.056 170.725 21.176C170.226 20.296 169.977 19.284 169.977 18.14C169.977 16.9813 170.226 15.9693 170.725 15.104C171.238 14.224 171.95 13.542 172.859 13.058C173.768 12.5593 174.824 12.31 176.027 12.31C177.186 12.31 178.19 12.5447 179.041 13.014C179.892 13.4833 180.552 14.136 181.021 14.972C181.49 15.808 181.725 16.7907 181.725 17.92C181.725 18.1547 181.718 18.3747 181.703 18.58C181.688 18.7707 181.666 18.954 181.637 19.13H171.913V16.952H178.975L178.403 17.348C178.403 16.4387 178.183 15.7713 177.743 15.346C177.318 14.906 176.731 14.686 175.983 14.686C175.118 14.686 174.443 14.9793 173.959 15.566C173.49 16.1527 173.255 17.0327 173.255 18.206C173.255 19.35 173.49 20.2007 173.959 20.758C174.443 21.3153 175.162 21.594 176.115 21.594C176.643 21.594 177.098 21.506 177.479 21.33C177.86 21.154 178.146 20.868 178.337 20.472H181.439C181.072 21.5573 180.442 22.4153 179.547 23.046C178.667 23.662 177.53 23.97 176.137 23.97Z" fill="#1F509A"/>
</svg>
