<svg viewBox="0 0 512 512" xmlns="http://www.w3.org/2000/svg" xmlns:xlink="http://www.w3.org/1999/xlink"><linearGradient id="linear-gradient" gradientUnits="userSpaceOnUse" x1="74.98" x2="437.02" y1="74.98" y2="437.02"><stop offset="0" stop-color="#b5dc8d"/><stop offset="1" stop-color="#7cac6d"/></linearGradient><linearGradient id="linear-gradient-2" gradientUnits="userSpaceOnUse" x1="139.99" x2="439.9" y1="134.23" y2="434.14"><stop offset="0" stop-color="#5f8e4d"/><stop offset="1" stop-color="#5f8e4d" stop-opacity="0"/></linearGradient><g id="Layer_2" data-name="Layer 2"><g id="Layer_2_copy_6" data-name="Layer 2 copy 6"><g id="_1" data-name="1"><circle id="background" cx="256" cy="256" fill="url(#linear-gradient)" r="256"/><path d="m510.57 283.21c-12.28 116.22-102.33 209.25-217.13 226.07l-141.32-141.28-6.82-15.79.37-157.73-22.34-22.34-4-11.84 4-9.36 15.51-10.16h221.23l14.65 6.63z" fill="url(#linear-gradient-2)"/><g fill="#fff"><path d="m275.81 254.05c6.7 0 12.14-5.7 12.14-12.74v-57.54h-121.45v42.36c0 7 5.43 12.74 12.14 12.74s12.15-5.7 12.15-12.74v-6a13.08 13.08 0 0 1 3.55-9 11.88 11.88 0 0 1 8.59-3.73c6.71 0 12.15 5.71 12.15 12.74v40.67c0 7 5.44 12.74 12.14 12.74s12.15-5.7 12.15-12.74v-27.63a13 13 0 0 1 3.56-9 11.81 11.81 0 0 1 8.59-3.73c6.7 0 12.14 5.7 12.14 12.74v8.13c0 7.03 5.44 12.73 12.15 12.73z"/><rect height="39.04" rx="19.52" width="260.26" x="119.32" y="140.73"/><path d="m309.72 227.94a21.35 21.35 0 1 1 36.43-15.52l7.46 7.45v-36.1h-61.61v57.54c0 9.23-7.24 16.74-16.14 16.74s-16.15-7.51-16.15-16.74v-8.13c0-4.82-3.65-8.74-8.14-8.74a7.82 7.82 0 0 0 -5.7 2.49 9 9 0 0 0 -2.45 6.25v27.65c0 9.23-7.24 16.74-16.15 16.74s-16.14-7.51-16.14-16.74v-40.67c0-4.82-3.66-8.74-8.15-8.74a7.87 7.87 0 0 0 -5.7 2.5 9 9 0 0 0 -2.44 6.24v6c0 9.23-7.25 16.74-16.15 16.74s-16.14-7.51-16.14-16.74v-42.39h-17.25v168.39a21.72 21.72 0 0 0 21.7 21.72h164.88a21.72 21.72 0 0 0 21.73-21.72v-88.77l-29.22-29.21a21.19 21.19 0 0 1 -14.67-6.24z"/><path d="m392 263.87-49.88-49.87a17.35 17.35 0 1 0 -16.12 16.14l49.85 49.86a11.4 11.4 0 0 0 16.1 0 11.39 11.39 0 0 0 .05-16.13z"/></g></g></g></g></svg>