<svg clip-rule="evenodd" fill-rule="evenodd" height="512" image-rendering="optimizeQuality" shape-rendering="geometricPrecision" text-rendering="geometricPrecision" viewBox="0 0 173.397 173.397" width="512" xmlns="http://www.w3.org/2000/svg"><g id="Layer_x0020_1"><path d="m78.7715 22.9956c.1559-.1313.2877-.2966.3819-.4918.3481-.7331.0365-1.6067-.6933-1.955l-.8222-.3926-6.4568-3.0835-2.2973-5.9747c-.2902-.7545-1.1391-1.1302-1.8939-.84-.7575.2902-1.1331 1.1394-.8424 1.8938l2.5072 6.5185c.1344.3512.3972.6353.7368.7972l5.9054 2.8201 1.8984.9065c.2046.0978.4215.1436.6325.1436.3435 0 .6786-.1219.9437-.3421zm-.9837 9.457 17.824-.0001c1.1808 0 2.3349.1057 3.4515.3071v-.2979c0-3.7377-1.6672-7.0934-4.297-9.3627-.0987-.0642-.1904-.1406-.2723-.2283-2.1287-1.7335-4.8431-2.7739-7.7959-2.7739-2.8862 0-5.7029 1.0294-7.9266 2.8988-2.8193 2.3672-4.4384 5.8159-4.4384 9.4661l.0001.2984c1.1175-.2017 2.2727-.3075 3.4546-.3075z" fill="#e7e7e8"/><g id="_415280608" fill="#1865c1"><path id="_415281760" d="m86.6985 155.5c-27.1001 0-49.1486-26.1166-49.1486-58.2172.0006-10.0495 2.1962-19.9555 6.3474-28.6458 4.0387-8.4551 9.8542-15.6424 16.8155-20.7863.6512-.4796 1.567-.3421 2.0496.3085s.3422 1.57-.3086 2.0496c-13.7571 10.1687-21.9714 27.766-21.9714 47.074 0 30.4816 20.7314 55.2848 46.2157 55.2848 25.4847 0 46.2157-24.8032 46.2157-55.2848.0001-19.311-8.2137-36.9084-21.9715-47.074-.6502-.4797-.7912-1.399-.3085-2.0496.4796-.6507 1.3989-.7881 2.0496-.3085 6.9619 5.1438 12.7772 12.3312 16.8154 20.7863 4.1512 8.6903 6.3473 18.5963 6.3473 28.6458.0004 32.1005-22.0479 58.2172-49.1476 58.2172z"/><path id="_415281952" d="m86.6985 155.5c-.8096 0-1.4666-.6567-1.4666-1.4662l.0006-94.53c0-.8094.6561-1.4662 1.4656-1.4662.81 0 1.4662.6568 1.4662 1.4663l.0001 94.5299c0 .8095-.6569 1.4662-1.4659 1.4662z"/><path id="_415282120" d="m111.813 55.7375h.0027zm-48.7632-1.0844c4.7897 1.396 26.0612 6.8088 47.2967.0245l.0005-6.1977c0-7.2211-6.6105-13.0949-14.7358-13.0949l-17.8234-.0001c-8.1278 0-14.7384 5.874-14.7384 13.095zm24.4947 6.3109c-3.8825 0-7.4201-.2505-10.4288-.5896-9.4659-1.063-15.7402-3.1584-16.0029-3.247-.5956-.2016-.9958-.7606-.9958-1.3899l.0002-7.2576c0-8.8369 7.9265-16.0273 17.6705-16.0273l17.824-.0001c9.7408 0 17.6671 7.1905 17.6671 16.0274l.0001 7.2576c0 .6293-.4002 1.1884-.9958 1.3899-8.6749 2.9293-17.3378 3.8366-24.7386 3.8366z"/><path id="_415282360" d="m100.529 36.1149c-.8096 0-1.4663-.6567-1.4663-1.4661l.0003-2.1871c0-6.8179-5.5473-12.3649-12.3652-12.3649-2.8862 0-5.7029 1.0294-7.9266 2.8988-2.8193 2.3672-4.4384 5.8159-4.4384 9.4661l.0005 2.1473c0 .8095-.6571 1.4663-1.4666 1.4663-.8089 0-1.4663-.6568-1.4663-1.4662l.0003-2.1474c0-4.5178 2.0005-8.788 5.4857-11.7142 2.7528-2.3094 6.2344-3.5831 9.8114-3.5831 8.4367 0 15.2973 6.8637 15.2973 15.2973l.0006 2.1871c0 .8094-.6574 1.4662-1.4667 1.4661z"/><path id="_415281040" d="m63.1935 65.8727c-1.6831 0-3.0489 1.3685-3.0489 3.0484.0001 1.68 1.3654 3.0454 3.0486 3.0454 1.68 0 3.0453-1.3654 3.0453-3.0454.0004-1.68-1.3654-3.0484-3.045-3.0484zm0 9.0262c-3.2989 0-5.9812-2.6819-5.9812-5.9778.0005-3.2989 2.6819-5.9809 5.9809-5.9809 3.2958 0 5.9777 2.682 5.9777 5.9809.0006 3.2959-2.6819 5.9778-5.9774 5.9778z"/><path id="_415281496" d="m56.8616 88.8002c-1.6803 0-3.049 1.3686-3.049 3.0486.0002 1.68 1.3685 3.0485 3.0484 3.0485 1.6803 0 3.0454-1.3685 3.0454-3.0485.0006-1.68-1.3653-3.0485-3.0448-3.0486zm0 9.0294c-3.2996 0-5.9814-2.6849-5.9814-5.9808.0001-3.2959 2.6818-5.9809 5.9808-5.9809 3.2961 0 5.9778 2.685 5.9778 5.9809.0001 3.2958-2.6819 5.9808-5.9772 5.9808z"/><path id="_415280968" d="m59.8698 111.368c-1.6797 0-3.0485 1.3685-3.0485 3.0484.0005 1.6801 1.3683 3.0486 3.0483 3.0486 1.6807 0 3.0456-1.3685 3.0456-3.0486 0-1.6799-1.3654-3.0484-3.0454-3.0484zm0 9.0263c-3.2989 0-5.9808-2.682-5.9808-5.9779.0001-3.2989 2.6818-5.9808 5.9806-5.9808 3.2965 0 5.978 2.6819 5.978 5.9808.0002 3.2959-2.682 5.9779-5.9778 5.9779z"/><path id="_415281712" d="m72.9069 133.935c-1.6797 0-3.0457 1.3684-3.0457 3.0484.0003 1.6801 1.3655 3.0455 3.0455 3.0455 1.6806 0 3.0484-1.3654 3.0484-3.0455.0006-1.68-1.3685-3.0484-3.0482-3.0484zm0 9.0263c-3.2955 0-5.978-2.682-5.978-5.9779 0-3.2988 2.6819-5.9808 5.9778-5.9808 3.2991 0 5.9809 2.682 5.9809 5.9808 0 3.2959-2.682 5.9779-5.9807 5.9779z"/><path id="_415281232" d="m110.206 65.8727c-1.6797 0-3.0486 1.3685-3.0486 3.0484.0005 1.68 1.3685 3.0454 3.0484 3.0454 1.6806 0 3.0455-1.3654 3.0455-3.0454s-1.3654-3.0484-3.0453-3.0484zm0 9.0262c-3.2989 0-5.981-2.6819-5.981-5.9778.0003-3.2989 2.682-5.9809 5.9808-5.9809 3.2964 0 5.9779 2.682 5.9779 5.9809.0002 3.2959-2.682 5.9778-5.9777 5.9778z"/><path id="_415281088" d="m116.535 88.8002c-1.6797 0-3.0457 1.3686-3.0457 3.0486.0004 1.68 1.3655 3.0485 3.0456 3.0485 1.6806 0 3.0484-1.3685 3.0484-3.0485.0005-1.68-1.3683-3.0485-3.0483-3.0486zm0 9.0294c-3.2955 0-5.9779-2.6849-5.9779-5.9808s2.6818-5.9809 5.9778-5.9809c3.2991 0 5.9808 2.685 5.9808 5.9809 0 3.2958-2.682 5.9808-5.9807 5.9808z"/><path id="_415281184" d="m113.526 111.368c-1.6796 0-3.0453 1.3685-3.0453 3.0484 0 1.6801 1.3653 3.0486 3.0453 3.0486 1.6804 0 3.0485-1.3685 3.0485-3.0486.0003-1.6799-1.3685-3.0484-3.0485-3.0484zm0 9.0263c-3.2954 0-5.9777-2.682-5.9777-5.9779.0005-3.2989 2.6818-5.9808 5.9777-5.9808 3.299 0 5.9809 2.6819 5.9809 5.9808.0005 3.2959-2.682 5.9779-5.9809 5.9779z"/><path id="_415281568" d="m100.489 133.935c-1.6798 0-3.0486 1.3684-3.0486 3.0484.0005 1.6801 1.3685 3.0455 3.0486 3.0455 1.6804 0 3.0454-1.3654 3.0454-3.0455.0006-1.68-1.3655-3.0484-3.0454-3.0484zm0 9.0263c-3.299 0-5.9809-2.682-5.9809-5.9779.0001-3.2988 2.6819-5.9808 5.9809-5.9808 3.2962 0 5.9778 2.682 5.9778 5.9808.0001 3.2959-2.682 5.9779-5.9778 5.9779z"/><path id="_415281520" d="m77.8278 23.3377c-.211 0-.4279-.0458-.6325-.1436l-7.8038-3.7266c-.3396-.1619-.6024-.446-.7368-.7972l-2.5072-6.5185c-.2907-.7544.0849-1.6036.8424-1.8938.7548-.2902 1.6037.0855 1.8939.84l2.2973 5.9747 7.279 3.4761c.7298.3483 1.0414 1.2219.6933 1.955-.2535.5253-.779.8339-1.3256.8339z"/><path id="_415281064" d="m95.5685 23.3377c-.5463 0-1.0721-.3085-1.3255-.8339-.348-.7331-.0367-1.6067.6933-1.955l7.2796-3.4761 2.2969-5.9748c.29-.7544 1.139-1.1301 1.8933-.8399.7582.2901 1.1332 1.1394.8432 1.8939l-2.5076 6.5184c-.1341.3512-.3974.6353-.7364.7973l-7.8072 3.7265c-.2014.0977-.4188.1436-.6296.1436z"/><path id="_415281160" d="m51.5284 60.4233c-.2846 0-.5688-.0794-.8224-.2505l-8.6105-5.8342c-.4035-.275-.6449-.7301-.6449-1.2157.0001-.9745.0062-1.8511.0123-2.6484.025-3.5769.0367-5.373-.5926-6.7659-.647-1.4294-2.123-2.8437-5.0645-5.66l-.8519-.8156c-.5835-.5621-.6021-1.4907-.04-2.0741.5596-.5834 1.4876-.6018 2.071-.0428l.8494.8156c6.4357 6.161 6.619 6.5704 6.5611 14.5643-.0058.5712-.0094 1.1881-.0123 1.851l7.9693 5.3974c.6694.4551.8461 1.3654.391 2.0374-.2838.4154-.7454.6415-1.215.6415z"/><path id="_415280416" d="m121.869 60.4233c-.4701 0-.9317-.223-1.2158-.6415-.455-.6721-.2781-1.5823.3908-2.0374l7.97-5.3974c-.0034-.663-.0065-1.2798-.0127-1.851-.0574-7.994.1251-8.4033 6.5613-14.5643l.8493-.8157c.5835-.5589 1.5118-.5405 2.0708.0429.5621.5833.5437 1.512-.0398 2.0741l-.8551.8155c-2.9381 2.8163-4.4141 4.2307-5.0615 5.6601-.6292 1.3929-.6171 3.189-.5926 6.7659.0067.7973.0121 1.674.0121 2.6484.0001.4856-.2412.9408-.6444 1.2157l-8.6103 5.8342c-.2536.1711-.5412.2505-.8221.2505z"/><path id="_415280344" d="m14.9466 114.279c-.5375 0-1.0543-.2993-1.3109-.8125-.3634-.724-.0703-1.6037.6537-1.9672 11.0577-5.5287 11.088-6.0633 11.6104-15.0101.138-2.3643.3085-5.3089.7178-9.0049.0615-.5468.4215-1.0141.9378-1.2096.5133-.1956 1.0935-.0855 1.4998.281l10.942 9.8479c.6014.5407.6501 1.4693.1095 2.0711-.5404.6017-1.4693.6506-2.0711.1068l-8.7875-7.9083c-.2075 2.3276-.3242 4.307-.4221 5.987-.5737 9.9091-1.1148 11.4088-13.2262 17.4631-.2072.1037-.4337.1557-.6532.1557z"/><path id="_415280944" d="m158.451 114.279c-.2199 0-.4465-.0519-.6541-.1557-12.1108-6.0543-12.649-7.554-13.2264-17.4631-.0974-1.68-.2138-3.6594-.4184-5.987l-8.791 7.9083c-.6014.5437-1.5303.4949-2.071-.1068-.5406-.6018-.492-1.5304.1099-2.071l10.9418-9.848c.4062-.3665.9862-.4766 1.5025-.281.5133.1955.8737.6628.9347 1.2096.4095 3.696.5804 6.6406.7179 9.0049.5225 8.9468.5528 9.4814 11.6104 15.0101.7244.3634 1.0171 1.2432.6567 1.9672-.2594.5132-.7758.8125-1.313.8125z"/><path id="_415280536" d="m34.5203 163.237c-.4646 0-.9168-.2168-1.2039-.6262-.4642-.6628-.3025-1.5761.3603-2.0404.9012-.6292 1.7076-1.1852 2.4314-1.683 2.8045-1.9306 4.3498-2.9935 4.9333-4.0382.553-.9897.51-2.4833.4245-5.4555-.0302-1.121-.0671-2.3887-.0794-3.916-.003-.1832-.0092-.3298-.0122-.452-.0548-1.3318.4185-1.9519 1.7472-2.2849.0949-.0244.2047-.0518.3298-.0855l12.2522-3.2806c.7822-.2108 1.5852.2535 1.7959 1.0356.2083.7818-.2565 1.5853-1.0386 1.796l-12.1413 3.2531c.0116 1.4968.0482 2.7462.0787 3.8519.1989 7.0163-.0486 7.4653-6.6283 11.9922-.7178.4918-1.5182 1.0446-2.4101 1.6678-.256.1803-.5499.2657-.8395.2657z"/><path id="_415280776" d="m129.811 145.652h.0028zm9.066 17.5851c-.2901 0-.5839-.0854-.8404-.2657-.8916-.6232-1.6923-1.176-2.4102-1.6678-6.5789-4.5269-6.827-4.9759-6.6284-11.9922.0309-1.1057.0673-2.3551.0795-3.8519l-12.1419-3.2531c-.7815-.2107-1.2464-1.0142-1.0387-1.796.2111-.7821 1.0141-1.2464 1.7962-1.0356l12.252 3.2806c.1257.0337.2351.0611.3298.0855 1.3293.333 1.8021.9531 1.7471 2.2849-.0028.1221-.0091.2688-.0121.452-.012 1.5273-.0488 2.795-.0795 3.916-.085 2.9722-.1282 4.4658.4246 5.4555.5839 1.0447 2.129 2.1076 4.9331 4.0382.7242.4978 1.5303 1.0538 2.4314 1.683.6633.4643.8249 1.3776.3606 2.0404-.287.4094-.7423.6262-1.2031.6262z"/></g><path d="m85.2319 152.54.0006-91.6056c-2.9799-.0756-5.7166-.2897-8.1167-.5602-9.4659-1.063-15.7402-3.1584-16.0029-3.247-.5956-.2016-.9958-.7606-.9958-1.3899l.0001-3.6861c-2.6688 2.2423-5.1013 4.7789-7.2749 7.5615-.0288.0576-.0618.1141-.0989.1689-.0717.1049-.1547.1978-.2464.278-7.6668 10.0343-12.0146 23.1759-12.0146 37.223 0 29.8949 19.941 54.3279 44.7495 55.2574zm-22.3931-60.6914c.0001 3.2958-2.6819 5.9808-5.9772 5.9808-3.2996 0-5.9814-2.6849-5.9814-5.9808.0001-3.2959 2.6818-5.9809 5.9808-5.9809 3.2961 0 5.9778 2.685 5.9778 5.9809zm6.3321-22.9277c.0006 3.2959-2.6819 5.9778-5.9774 5.9778-3.2989 0-5.9812-2.6819-5.9812-5.9778.0005-3.2989 2.6819-5.9809 5.9809-5.9809 3.2958 0 5.9777 2.682 5.9777 5.9809zm-2.242 68.062c0-3.2988 2.6819-5.9808 5.9778-5.9808 3.2991 0 5.9809 2.682 5.9809 5.9808 0 3.2959-2.682 5.9779-5.9807 5.9779-3.2955 0-5.978-2.682-5.978-5.9779zm-7.0593-28.548c3.2965 0 5.978 2.6819 5.978 5.9808.0002 3.2959-2.682 5.9779-5.9778 5.9779-3.2989 0-5.9808-2.682-5.9808-5.9779.0001-3.2989 2.6818-5.9808 5.9806-5.9808z" fill="#83dbf2"/><path d="m56.861 94.8973c1.6803 0 3.0454-1.3685 3.0454-3.0485.0006-1.68-1.3653-3.0485-3.0448-3.0486-1.6803 0-3.049 1.3686-3.049 3.0486.0002 1.68 1.3685 3.0485 3.0484 3.0485z" fill="#e7e7e8"/><path d="m62.9152 114.416c0-1.6799-1.3654-3.0484-3.0454-3.0484-1.6797 0-3.0485 1.3685-3.0485 3.0484.0005 1.6801 1.3683 3.0486 3.0483 3.0486 1.6807 0 3.0456-1.3685 3.0456-3.0486z" fill="#e7e7e8"/><path d="m75.9551 136.983c.0006-1.68-1.3685-3.0484-3.0482-3.0484s-3.0457 1.3684-3.0457 3.0484c.0003 1.6801 1.3655 3.0455 3.0455 3.0455 1.6806 0 3.0484-1.3654 3.0484-3.0455z" fill="#e7e7e8"/><path d="m63.1932 71.9665c1.68 0 3.0453-1.3654 3.0453-3.0454.0004-1.68-1.3654-3.0484-3.045-3.0484-1.6831 0-3.0489 1.3685-3.0489 3.0484.0001 1.68 1.3654 3.0454 3.0486 3.0454z" fill="#e7e7e8"/><path d="m88.1643 60.9619.0001 91.5783c24.8088-.9296 44.7494-25.3626 44.7494-55.2574.0001-14.0448-4.3447-27.1832-12.0071-37.2154-.0946-.0817-.1802-.1771-.2539-.2856-.0383-.0566-.0722-.1149-.1016-.1745-2.173-2.7808-4.6045-5.3157-7.2723-7.5564l.0001 3.6866c0 .6293-.4002 1.1884-.9958 1.3899-8.4339 2.8479-16.8565 3.7846-24.1189 3.8345zm22.3931 30.8869c0-3.2959 2.6818-5.9809 5.9778-5.9809 3.2991 0 5.9808 2.685 5.9808 5.9809 0 3.2958-2.682 5.9808-5.9807 5.9808-3.2955 0-5.9779-2.6849-5.9779-5.9808zm-.3512-16.9499c-3.2989 0-5.981-2.6819-5.981-5.9778.0003-3.2989 2.682-5.9809 5.9808-5.9809 3.2964 0 5.9779 2.682 5.9779 5.9809.0002 3.2959-2.682 5.9778-5.9777 5.9778zm-15.6976 62.0842c.0001-3.2988 2.6819-5.9808 5.9809-5.9808 3.2962 0 5.9778 2.682 5.9778 5.9808.0001 3.2959-2.682 5.9779-5.9778 5.9779-3.299 0-5.9809-2.682-5.9809-5.9779zm13.0401-22.5672c.0005-3.2989 2.6818-5.9808 5.9777-5.9808 3.299 0 5.9809 2.6819 5.9809 5.9808.0005 3.2959-2.682 5.9779-5.9809 5.9779-3.2954 0-5.9777-2.682-5.9777-5.9779z" fill="#83dbf2"/><g fill="#e7e7e8"><path d="m110.206 71.9665c1.6806 0 3.0455-1.3654 3.0455-3.0454s-1.3654-3.0484-3.0453-3.0484c-1.6797 0-3.0486 1.3685-3.0486 3.0484.0005 1.68 1.3685 3.0454 3.0484 3.0454z"/><path d="m116.535 88.8002c-1.6797 0-3.0457 1.3686-3.0457 3.0486.0004 1.68 1.3655 3.0485 3.0456 3.0485 1.6806 0 3.0484-1.3685 3.0484-3.0485.0005-1.68-1.3683-3.0485-3.0483-3.0486z"/><path d="m113.526 111.368c-1.6796 0-3.0453 1.3685-3.0453 3.0484 0 1.6801 1.3653 3.0486 3.0453 3.0486 1.6804 0 3.0485-1.3685 3.0485-3.0486.0003-1.6799-1.3685-3.0484-3.0485-3.0484z"/><path d="m103.535 136.983c.0006-1.68-1.3655-3.0484-3.0454-3.0484-1.6798 0-3.0486 1.3684-3.0486 3.0484.0005 1.6801 1.3685 3.0455 3.0486 3.0455 1.6804 0 3.0454-1.3654 3.0454-3.0455z"/><path d="m63.0499 54.6531c4.7897 1.396 26.0612 6.8088 47.2967.0245l.0005-5.6136c-.0006-.0243-.0006-.0487 0-.073v-.5111c0-5.712-4.1362-10.5809-9.8865-12.3666-.2359-.0109-.4573-.0776-.6513-.1871-1.3309-.3521-2.7401-.5412-4.198-.5412l-17.8234-.0001c-1.5342 0-3.0143.2093-4.4061.5974-.0718.027-.1463.0484-.2229.0639-5.8666 1.7283-10.1094 6.6487-10.1094 12.4337v.5264c.0002.0143.0002.0287 0 .043z"/></g></g></svg>