<svg id="Layer_1" enable-background="new 0 0 468 468" height="512" viewBox="0 0 468 468" width="512" xmlns="http://www.w3.org/2000/svg"><g><g><g><g><g><path d="m157.767 296.438c5.676-5.718 5.676-14.989 0-20.707l-84.26-84.889c-15.672-15.789-41.081-15.789-56.753 0-15.672 15.789-15.672 41.388 0 57.177l36.322-36.345 84.137 84.765c5.676 5.717 14.878 5.717 20.554-.001z" fill="#e6e6e6"/></g><g><path d="m16.754 213.842c15.672-15.789 41.081-15.789 56.753 0l83.056 83.676c.415-.335.819-.692 1.204-1.08 5.676-5.718 5.676-14.989 0-20.707l-84.26-84.889c-15.672-15.789-41.081-15.789-56.753 0-10.772 10.852-14.139 26.338-10.104 40.088 1.836-6.255 5.204-12.151 10.104-17.088z" fill="#cecece"/></g></g><g><g><path d="m118.588 301.06 32.16-32.4-28.27-28.481-32.16 32.399z" fill="#ed4848"/></g><g><path d="m105.813 268.189-5.569-5.611-9.926 10 28.27 28.481 32.16-32.4-9.926-10-9.459 9.529c-7.04 7.094-18.51 7.094-25.55.001z" fill="#cc4040"/></g></g><g><g><path d="m70.234 252.345 40.655 40.958.202-3.848c.443-8.418 10.571-12.331 16.487-6.371 1.466 1.477 2.421 3.389 2.726 5.454l2.558 17.34c1.076 7.293 4.45 14.045 9.625 19.259l45.813 46.155c6.291 6.338 6.291 16.615 0 22.953-6.291 6.338-16.492 6.338-22.783 0l-118.066-118.947z" fill="#ed4848"/></g><g><path d="m175.518 384.246-75.215-75.777c-6.966-7.018-6.585-18.453.833-24.992l-30.902-31.132-22.783 22.953 118.066 118.948c6.291 6.338 16.492 6.338 22.783 0 1.774-1.787 3.029-3.892 3.803-6.129-5.627 1.928-12.098.65-16.585-3.871z" fill="#cc4040"/></g></g><g><g><path d="m67.535 295.532 54.943-55.353c3.998-4.028 3.998-10.559 0-14.588l-5.604-5.646c-3.998-4.028-10.481-4.028-14.48 0l-54.943 55.353z" fill="#e6e6e6"/></g><g><path d="m77.535 265.14 42.099-42.414-2.76-2.781c-3.99-4.019-10.49-4.019-14.48 0l-54.943 55.353 20.083 20.233 10-10.075c-5.58-5.622-5.58-14.694.001-20.316z" fill="#cecece"/></g></g></g><g><g><g><path d="m308.233 296.438c-5.676-5.718-5.676-14.989 0-20.707l84.26-84.889c15.672-15.789 41.081-15.789 56.753 0 15.672 15.789 15.672 41.388 0 57.177l-36.322-36.345-84.137 84.765c-5.676 5.717-14.878 5.717-20.554-.001z" fill="#e6e6e6"/></g><g><path d="m449.246 213.842c-15.672-15.789-41.081-15.789-56.753 0l-83.056 83.676c-.415-.335-.819-.692-1.204-1.08-5.676-5.718-5.676-14.989 0-20.707l84.26-84.889c15.672-15.789 41.081-15.789 56.753 0 10.772 10.852 14.139 26.338 10.104 40.088-1.836-6.255-5.204-12.151-10.104-17.088z" fill="#cecece"/></g></g><g><g><path d="m347.412 301.06-32.16-32.4 28.27-28.481 32.16 32.399z" fill="#ed4848"/></g><g><path d="m360.187 268.189 5.569-5.611 9.926 10-28.27 28.481-32.16-32.4 9.926-10 9.459 9.529c7.04 7.094 18.51 7.094 25.55.001z" fill="#cc4040"/></g></g><g><g><path d="m395.766 252.345-40.655 40.958-.202-3.848c-.443-8.418-10.571-12.331-16.487-6.371-1.466 1.477-2.421 3.389-2.726 5.454l-2.558 17.34c-1.076 7.293-4.45 14.045-9.625 19.259l-45.813 46.155c-6.291 6.338-6.291 16.615 0 22.953 6.291 6.338 16.492 6.338 22.783 0l118.066-118.948z" fill="#ed4848"/></g><g><path d="m290.482 384.246 75.215-75.777c6.966-7.018 6.585-18.453-.833-24.992l30.902-31.132 22.783 22.953-118.067 118.948c-6.291 6.338-16.492 6.338-22.783 0-1.774-1.787-3.029-3.892-3.803-6.129 5.628 1.928 12.099.65 16.586-3.871z" fill="#cc4040"/></g></g><g><g><path d="m398.465 295.532-54.943-55.353c-3.998-4.028-3.998-10.559 0-14.588l5.604-5.646c3.998-4.028 10.481-4.028 14.48 0l54.943 55.353z" fill="#e6e6e6"/></g><g><path d="m388.465 265.14-42.099-42.414 2.76-2.781c3.99-4.019 10.49-4.019 14.48 0l54.943 55.353-20.083 20.233-10-10.075c5.58-5.622 5.58-14.694-.001-20.316z" fill="#cecece"/></g></g></g><g><g><g><g><path d="m123.882 342.482v105.839h220v-105.839c0-60.775-49.249-110.042-110-110.042-60.751 0-110 49.267-110 110.042z" fill="#fbab68"/></g><g><path d="m328.801 286.848c-19.106-32.551-54.458-54.408-94.918-54.408-60.751 0-110 49.268-110 110.042v105.839h30.406v-121.473c0-22.091 17.909-40 40-40z" fill="#ea8e49"/></g></g><g><g><path d="m233.882 279.72c-18.353 0-33.231-14.878-33.231-33.231v-89.637h66.461v89.637c.001 18.353-14.877 33.231-33.23 33.231z" fill="#fdd2b5"/></g><g><path d="m216.652 246.489v-16.637h50.461v-73h-66.461v89.637c0 18.353 14.878 33.231 33.231 33.231 2.759 0 5.437-.342 8-.976-14.488-3.582-25.231-16.661-25.231-32.255z" fill="#f9b995"/></g></g><g><g><path d="m294.882 304.965h-124c-6.627 0-12 5.373-12 12v131.361h150v-129.361c0-7.732-6.268-14-14-14z" fill="#5c6bc0"/></g><g><path d="m198.882 324.965h110v-6c0-7.732-6.268-14-14-14h-124c-6.627 0-12 5.373-12 12v131.361h20v-103.361c0-11.045 8.955-20 20-20z" fill="#5060a3"/></g><g><path d="m165.882 361.98c-3.866 0-7 3.134-7 7v11.58c0 3.866 3.134 7 7 7 3.866 0 7-3.134 7-7v-11.58c0-3.866-3.134-7-7-7z" fill="#fff"/></g></g><path d="m194 367.018h80" fill="#fff"/></g><g><ellipse cx="306" cy="131.123" fill="#f9b995" rx="20" ry="20.008"/><ellipse cx="162" cy="131.123" fill="#f9b995" rx="20" ry="20.008"/><g><g><path d="m233.882 218.069c-39.643 0-71.78-32.137-71.78-71.78v-55.863c0-22.091 17.909-40 40-40h63.559c22.091 0 40 17.909 40 40v55.863c.001 39.643-32.136 71.78-71.779 71.78z" fill="#fdd2b5"/></g><g><path d="m182.103 146.289c0-8.761 7.102-15.863 15.863-15.863h107.697v-40c0-22.091-17.909-40-40-40h-63.559c-22.091 0-40 17.909-40 40v55.863c0 39.643 32.137 71.78 71.78 71.78 3.395 0 6.73-.253 10-.709-34.908-4.868-61.781-34.823-61.781-71.071z" fill="#f9b995"/></g></g><g><g><ellipse cx="201.882" cy="146.894" fill="#333" rx="7" ry="8"/></g><g><ellipse cx="265.882" cy="146.894" fill="#333" rx="7" ry="8"/></g><g><path d="m233.882 192.79c-5.545 0-11.09-1.834-15.717-5.503-2.164-1.716-2.527-4.861-.812-7.024 1.716-2.165 4.86-2.527 7.024-.812 5.596 4.438 13.412 4.438 19.008 0 2.163-1.716 5.309-1.353 7.024.812 1.715 2.163 1.353 5.309-.812 7.024-4.625 3.669-10.17 5.503-15.715 5.503z" fill="#333"/></g></g><g><g><g><path d="m153.5 85.055h161c0-44.213-35.842-80.055-80.055-80.055h-.891c-44.212 0-80.054 35.842-80.054 80.055z" fill="#5c6bc0"/></g><g><path d="m189.155 22.521c2.151-2.908 4.494-5.665 7.01-8.252-25.371 13.429-42.665 40.081-42.665 70.786h161c0-5.129-.502-10.139-1.424-15h-99.578c-24.455 0-38.888-27.874-24.343-47.534z" fill="#5060a3"/></g><g><path d="m294.461 44.002.004-.003c3.413-2.34 4.049-7.109 1.392-10.283-4.601-5.496-9.926-10.363-15.828-14.458-3.401-2.36-8.094-1.297-10.117 2.315-1.776 3.172-.793 7.131 2.191 9.209 4.821 3.358 9.204 7.363 12.987 11.869 2.339 2.785 6.372 3.407 9.371 1.351z" fill="#fff"/></g></g><g><g><path d="m134.844 112.65h179.818v-27.595h-179.818c-7.62 0-13.798 6.177-13.798 13.798.001 7.62 6.178 13.797 13.798 13.797z" fill="#5c6bc0"/></g><g><path d="m131.047 90.65v-5.054c-6.01 1.72-10.348 7.401-9.978 14.045.411 7.37 6.773 13.009 14.155 13.009h179.439v-12h-173.616c-5.523 0-10-4.477-10-10z" fill="#5060a3"/></g></g></g></g></g><g id="XMLID_172_"><g><g id="XMLID_337_"><path d="m383.693 423.751h79.307l-50.356-40.958 50.356-40.957h-79.318z" fill="#e6e6e6"/></g><g><path d="m399.691 389.754-.007-47.918h-16.002l.012 81.915h79.306l-17.213-14h-26.097c-11.044 0-19.998-8.953-19.999-19.997z" fill="#cecece"/></g></g><g><g id="XMLID_335_"><path d="m84.584 423.751h-79.584l50.356-40.958-50.356-40.957h79.318z" fill="#e6e6e6"/></g><g><path d="m84.318 341.836h-15.954l.155 47.85c.036 11.071-8.929 20.065-20 20.065h-26.306l-17.213 14h79.584z" fill="#cecece"/></g></g><g><g><g id="XMLID_174_"><path d="m84.584 388.186h299.109v74.814h-299.109z" fill="#ffbd29"/></g><g><path d="m102.584 446.186v16.814h-18v-74.814h299.109v18h-241.109c-22.091 0-40 17.909-40 40z" fill="#e5a628"/></g></g><g><path d="m295.5 431.986h-123c-2.761 0-5-2.238-5-5s2.239-5 5-5h123c2.761 0 5 2.238 5 5s-2.239 5-5 5z" fill="#333"/></g></g></g><path d="m466.155 419.872-45.587-37.079 45.587-37.078c3.576-2.908 1.454-8.879-3.155-8.879h-79.318c-3.048.286-4.714 1.953-5 5.001l.006 41.35h-29.805v-40.705c0-16.139-3.359-31.5-9.386-45.45l1.145-7.762c.404-2.739 3.676-4.724 6.255-3.734.67.256 2.868 1.313 3.019 4.184l.203 3.848c.224 4.25 5.544 6.279 8.542 3.26l17.023-17.15 15.738 15.855-29.966 30.19c-1.945 1.96-1.934 5.126.026 7.071 1.959 1.944 5.125 1.933 7.071-.026l53.545-53.946c1.935-1.95 1.935-5.096 0-7.045l-30.893-31.123 21.732-21.894 32.773 32.795c1.958 1.959 5.133 1.954 7.085-.012 17.574-17.706 17.574-46.516 0-64.222-17.39-17.519-46.461-17.519-63.851 0l-25.948 26.141c-5.729-2.79-12.915-1.576-17.419 2.962l-5.604 5.646c-4.695 4.729-5.651 11.806-2.9 17.51l-21.691 21.853c-12.068-12.14-26.813-21.609-43.269-27.433v-21.168c20.396-11.772 34.911-32.641 37.939-57.033 11.865-1.946 20.948-12.267 20.948-24.676 0-8.745-4.521-16.441-11.338-20.91v-25.158c0-.456-.081-.89-.195-1.31-.706-46.296-38.562-83.745-85.022-83.745h-.891c-45.22 0-82.297 35.475-84.896 80.055h-13.815c-10.365 0-18.797 8.433-18.797 18.798s8.433 18.798 18.797 18.798h6.115c-2.501 3.891-3.96 8.512-3.96 13.473 0 12.324 8.961 22.587 20.707 24.63 3.016 24.411 17.537 45.297 37.945 57.076v21.156c-16.863 5.964-31.936 15.749-44.165 28.321l-22.561-22.729c2.751-5.703 1.794-12.78-2.9-17.51l-5.604-5.646c-5.825-5.869-15.738-5.882-21.577 0l-17.005 17.132-25.213-25.404c-1.952-1.965-5.128-1.971-7.085-.012l-32.522 32.543c-10.329-13.875-9.233-33.705 3.286-46.317 13.525-13.627 36.12-13.637 49.655 0l12.958 13.055c1.946 1.96 5.112 1.971 7.071.026 1.96-1.945 1.972-5.111.026-7.071l-12.958-13.055c-17.39-17.519-46.461-17.519-63.851 0-17.574 17.706-17.574 46.516 0 64.222 1.952 1.966 5.128 1.971 7.085.012l32.773-32.795 21.732 21.894-30.893 31.123c-1.935 1.949-1.935 5.095 0 7.045l74.979 75.54v28.827h-29.43l-.134-41.367c-.009-2.755-2.245-4.983-5-4.983h-79.317c-4.608 0-6.73 5.971-3.155 8.879l45.587 37.078-45.587 37.078c-3.576 2.908-1.454 8.879 3.155 8.879h74.584v34.249c0 2.762 2.239 5 5 5h299.109c2.761 0 5-2.238 5-5v-34.249h74.307c4.608 0 6.73-5.971 3.155-8.879zm-155.493-302.222h1.904c4.985 2.442 8.434 7.555 8.434 13.473 0 6.646-4.344 12.288-10.338 14.255zm-291.591 301.101 39.439-32.079c2.425-1.971 2.425-5.786 0-7.758l-39.439-32.078h60.263l.234 71.915zm376.971-224.387c13.525-13.627 36.12-13.637 49.655 0 12.519 12.612 13.615 32.442 3.286 46.317l-32.522-32.543c-1.958-1.959-5.133-1.954-7.085.012l-25.216 25.404-13.509-13.609zm-48.971 34.749 5.604-5.646c2.461-2.059 4.921-2.059 7.382 0l51.447 51.83-13.038 13.136-51.394-51.777c-2.065-2.079-2.065-5.464-.001-7.543zm-3.549 18.163 25.115 25.302-10.396 10.474c-1.619-3.097-4.327-5.543-7.778-6.859-6.796-2.593-14.781.459-18.155 6.895-3.444-5.687-5.895-10.448-10.01-14.429zm-46.64 11.247c25.481 19.183 42 49.671 42 83.958v40.705h-25v-64.221c0-9.801-7.46-17.89-17-18.893zm7 60.443v64.221h-24.882v-43.93c0-2.762-2.239-5-5-5h-80c-2.761 0-5 2.238-5 5v43.93h-25.118v-66.221c0-3.859 3.14-7 7-7h124c4.963 0 9 4.037 9 9zm-34.882 43.052h-70v-17.761h70zm0 10v11.169h-70v-11.169zm-35.445-362.018h.891c39.706 0 72.309 30.991 74.89 70.055h-150.671c2.581-39.064 35.184-70.055 74.89-70.055zm-76.452 135.292c-5.87-2.038-10.103-7.612-10.103-14.169 0-5.926 3.461-11.04 8.459-13.473h1.644zm10 .997v-28.639h105.779c2.761 0 5-2.238 5-5s-2.239-5-5-5h-138.038c-4.851 0-8.797-3.946-8.797-8.798s3.946-8.798 8.797-8.798h174.818v17.596h-10.983c-2.761 0-5 2.238-5 5s2.239 5 5 5h1.983v28.639c0 36.822-29.958 66.779-66.78 66.779s-66.779-29.957-66.779-66.779zm95.01 71.39v28.811c0 15.566-12.665 28.23-28.231 28.23s-28.23-12.664-28.23-28.23v-28.81c8.742 3.471 18.265 5.389 28.23 5.389 9.966-.001 19.489-1.919 28.231-5.39zm-81.231 34.176c4.705-2.764 9.638-5.181 14.77-7.2v1.834c0 21.08 17.15 38.23 38.23 38.23s38.231-17.15 38.231-38.23v-1.825c5.129 2.019 10.066 4.423 14.769 7.186v48.115h-106zm-10 6.67v41.441c-9.374 0-17 7.626-17 17v66.221h-25v-40.705c0-34.288 16.519-64.775 42-83.957zm-27.179 10.134-.652 3.363c-3.14 4.041-6.015 8.295-8.603 12.739-2.811-7.439-11.407-11.434-18.91-8.567-3.451 1.316-6.16 3.763-7.778 6.859l-10.396-10.474 25.115-25.302zm-76.169 19.773-13.037-13.135 51.447-51.83c2.461-2.059 4.921-2.059 7.382 0l5.604 5.646c2.064 2.079 2.064 5.464 0 7.543l-51.394 51.777zm7.046 7.099 15.738-15.855 17.022 17.15c2.998 3.018 8.318.99 8.542-3.26l.203-3.848c.151-2.87 2.349-3.928 3.019-4.184 2.579-.99 5.852.997 6.255 3.734l1.603 10.87c-4.943 12.445-7.757 25.952-8.032 40.073zm304.113 162.469h-289.109v-64.813h289.109zm10-39.249v-30.564c0-.017-.005-.033-.005-.05l-.006-41.3h60.247l-39.439 32.078c-2.425 1.971-2.425 5.786 0 7.758l39.439 32.079h-60.236z" fill="#333"/><g><g><path d="m351.925 446.134c-1.28 0-2.56-.488-3.536-1.465l-4.272-4.274c-1.952-1.953-1.952-5.119.001-7.071 1.952-1.953 5.119-1.952 7.071.001l4.272 4.274c3.079 3.081.833 8.535-3.536 8.535z" fill="#333"/></g><g><path d="m327.913 422.113c-1.28 0-2.56-.488-3.536-1.465l-4.272-4.274c-1.952-1.953-1.952-5.119.001-7.071 1.954-1.952 5.119-1.951 7.071.001l4.272 4.274c3.079 3.081.833 8.535-3.536 8.535z" fill="#333"/></g><g><path d="m323.641 446.134c-4.369 0-6.615-5.454-3.536-8.535l4.272-4.274c1.952-1.954 5.118-1.954 7.071-.001 1.953 1.952 1.954 5.118.001 7.071l-4.272 4.274c-.976.977-2.257 1.465-3.536 1.465z" fill="#333"/></g><g><path d="m347.652 422.113c-4.369 0-6.616-5.454-3.536-8.535l4.272-4.274c1.952-1.953 5.118-1.953 7.071-.001s1.953 5.118.001 7.071l-4.272 4.274c-.976.977-2.256 1.465-3.536 1.465z" fill="#333"/></g></g><g><g><path d="m144.414 446.134c-1.28 0-2.56-.488-3.536-1.465l-4.272-4.274c-1.952-1.953-1.952-5.119.001-7.071 1.953-1.953 5.119-1.952 7.071.001l4.272 4.274c3.079 3.081.833 8.535-3.536 8.535z" fill="#333"/></g><g><path d="m120.402 422.113c-1.28 0-2.56-.488-3.536-1.465l-4.272-4.274c-1.952-1.953-1.952-5.119.001-7.071 1.954-1.952 5.119-1.951 7.071.001l4.272 4.274c3.08 3.081.833 8.535-3.536 8.535z" fill="#333"/></g><g><path d="m116.13 446.134c-4.369 0-6.615-5.454-3.536-8.535l4.272-4.274c1.952-1.954 5.118-1.954 7.071-.001 1.953 1.952 1.954 5.118.001 7.071l-4.272 4.274c-.976.977-2.257 1.465-3.536 1.465z" fill="#333"/></g><g><path d="m140.141 422.113c-4.369 0-6.615-5.454-3.536-8.535l4.272-4.274c1.952-1.953 5.118-1.953 7.071-.001s1.953 5.118.001 7.071l-4.272 4.274c-.976.977-2.256 1.465-3.536 1.465z" fill="#333"/></g></g></g><g id="XMLID_209_"><path d="m102.132 14.868 14.868 8.132-14.868 8.132-8.132 14.868-8.132-14.868-14.868-8.132 14.868-8.132 8.132-14.868z" fill="#cecece"/></g><g id="XMLID_208_"><path d="m31.132 113.868 14.868 8.132-14.868 8.132-8.132 14.868-8.132-14.868-14.868-8.132 14.868-8.132 8.132-14.868z" fill="#e6e6e6"/></g><g id="XMLID_207_"><path d="m365.868 14.868-14.868 8.132 14.868 8.132 8.132 14.868 8.132-14.868 14.868-8.132-14.868-8.132-8.132-14.868z" fill="#e6e6e6"/></g><g id="XMLID_206_"><path d="m436.868 113.868-14.868 8.132 14.868 8.132 8.132 14.868 8.132-14.868 14.868-8.132-14.868-8.132-8.132-14.868z" fill="#cecece"/></g></g></svg>