<svg width="53" height="52" viewBox="0 0 53 52" fill="none" xmlns="http://www.w3.org/2000/svg">
<g clip-path="url(#clip0_155_1173)">
<path d="M21.8808 51.0504H30.2549L30.1245 41.3888C30.0884 38.7166 30.9411 36.1082 32.5485 33.9731L41.9579 21.475L29.0902 30.5034C28.6653 25.4052 26.3332 14.3926 26.3332 14.3926C26.3332 14.3926 24.001 25.4052 23.5762 30.5034L10.7085 21.475L19.658 33.5278C21.2387 35.6566 22.0737 38.2471 22.0337 40.8984L21.8808 51.0504Z" fill="#FCC862"/>
<path d="M16.4267 20.5932C16.4267 24.196 13.503 27.1197 9.89493 27.1197C8.53653 27.1197 7.2737 26.7058 6.22842 25.9948C5.51738 24.9495 5.10352 23.6867 5.10352 22.3283C5.10352 18.7254 8.0272 15.8018 11.63 15.8018C12.9831 15.8018 14.2407 16.2156 15.286 16.916L15.2913 16.9213C16.0075 17.9667 16.4267 19.2295 16.4267 20.5932Z" fill="#7AC753"/>
<path opacity="0.12" d="M15.2913 16.9211L15.286 16.9159C14.86 16.6304 14.3971 16.3956 13.9083 16.2139V16.7225C13.9083 21.2761 10.2168 24.9677 5.66309 24.9677C5.82234 25.3276 6.00931 25.6725 6.22848 25.9946C7.45546 26.8293 8.98215 27.2544 10.6113 27.0815C13.6403 26.7598 16.0923 24.2917 16.3937 21.2606C16.5543 19.6425 16.1232 18.1351 15.2913 16.9211Z" fill="black"/>
<path d="M49.2978 20.7099C49.2978 24.3127 46.3741 27.2364 42.7659 27.2364C41.4075 27.2364 40.1447 26.8225 39.0994 26.1115C38.3831 25.0662 37.9692 23.8033 37.9692 22.445C37.9692 18.8421 40.8982 15.9185 44.501 15.9185C45.8647 15.9185 47.1329 16.3376 48.1782 17.0486C48.1782 17.0539 48.1782 17.0593 48.1835 17.0593C48.884 18.1045 49.2978 19.3568 49.2978 20.7099Z" fill="#7AC753"/>
<path opacity="0.12" d="M48.1837 17.059C48.1784 17.059 48.1784 17.0537 48.1784 17.0483C47.5382 16.6128 46.8138 16.2884 46.0357 16.1011V17.3432C46.0357 21.528 42.6433 24.9204 38.4585 24.9204C38.6316 25.3406 38.8456 25.7402 39.0998 26.1112C40.145 26.8222 41.4079 27.2361 42.7663 27.2361C46.3745 27.2361 49.2982 24.3124 49.2982 20.7096C49.2981 19.3566 48.8842 18.1043 48.1837 17.059Z" fill="black"/>
<path d="M34.5948 9.21148C34.5948 13.7695 30.8964 17.4731 26.3278 17.4731C24.4971 17.4731 22.7992 16.8735 21.4302 15.8653C20.4062 14.4857 19.8013 12.7878 19.8013 10.9413C19.8013 6.38337 23.5049 2.67969 28.0629 2.67969C29.9041 2.67969 31.602 3.27931 32.9764 4.29809C33.9951 5.67223 34.5948 7.37025 34.5948 9.21148Z" fill="#7AC753"/>
<path opacity="0.12" d="M32.9765 4.29802C32.4428 3.90234 31.8591 3.57205 31.2383 3.31348V4.08474C31.2383 9.91534 26.5117 14.6419 20.6812 14.6419C20.8972 15.0712 21.1456 15.4816 21.4305 15.8654C22.7994 16.8735 24.4974 17.4731 26.328 17.4731C30.8966 17.4731 34.595 13.7694 34.595 9.21152C34.5949 7.37029 33.9953 5.67227 32.9765 4.29802Z" fill="black"/>
<path d="M38.4223 49.9892H31.3018L31.1886 41.373C31.1544 38.9463 31.9379 36.5461 33.3944 34.6139L37.629 28.989C37.9813 28.5206 37.8876 27.8553 37.4197 27.5029C36.9503 27.1494 36.2854 27.2453 35.9335 27.7122L31.6995 33.3365C29.961 35.6424 29.0256 38.5074 29.0661 41.4019L29.179 49.9891H22.9588L23.0964 40.9148C23.1365 38.043 22.2181 35.1952 20.5104 32.8976L16.6371 27.676C16.2877 27.205 15.6225 27.1061 15.1526 27.4559C14.6819 27.8051 14.5833 28.47 14.9324 28.9404L18.8063 34.163C20.2382 36.0896 21.0081 38.4768 20.9741 40.8837L20.836 49.9891H14.2443C13.6583 49.9891 13.1831 50.4643 13.1831 51.0504C13.1831 51.6364 13.6583 52.1116 14.2443 52.1116H38.4224C39.0084 52.1116 39.4836 51.6364 39.4836 51.0504C39.4835 50.4644 39.0084 49.9892 38.4223 49.9892Z" fill="black"/>
<path d="M28.6074 20.3928C28.4996 19.8166 27.9477 19.4336 27.3695 19.5445C26.7933 19.6518 26.4134 20.2062 26.5212 20.7825C27.3539 25.2419 27.8632 28.5432 28.0348 30.5936C28.1029 31.4105 29.0344 31.8416 29.7022 31.3735L35.5281 27.2825C36.008 26.9457 36.1234 26.2839 35.7866 25.8041C35.4499 25.3243 34.7886 25.2088 34.3083 25.5455L29.9541 28.6033C29.694 26.5461 29.2432 23.7961 28.6074 20.3928Z" fill="black"/>
<path d="M24.0593 20.3982C23.4237 23.7995 22.973 26.5474 22.7122 28.6035L18.3049 25.5084C17.8252 25.1721 17.1632 25.2871 16.8266 25.767C16.4898 26.2468 16.6056 26.9086 17.0852 27.2453L22.9641 31.3737C23.6311 31.8411 24.5627 31.4131 24.6316 30.5938C24.8036 28.5443 25.313 25.2452 26.1455 20.7878C26.2532 20.2116 25.8734 19.6576 25.2972 19.5498C24.7223 19.4427 24.1671 19.8219 24.0593 20.3982Z" fill="black"/>
<path d="M17.4879 20.593C17.4879 16.4565 14.1313 13.0054 9.89476 13.0054C5.711 13.0054 2.30713 16.4092 2.30713 20.593C2.30713 24.7518 5.67321 28.1811 9.89476 28.1811C14.0817 28.1811 17.4879 24.7773 17.4879 20.593ZM9.89476 26.0588C6.85489 26.0588 4.42958 23.5894 4.42958 20.5931C4.42958 17.5794 6.8813 15.1279 9.89476 15.1279C12.9514 15.1279 15.3654 17.6197 15.3654 20.5931C15.3654 23.6068 12.9114 26.0588 9.89476 26.0588Z" fill="black"/>
<path d="M42.7659 13.1221C38.5821 13.1221 35.1782 16.5259 35.1782 20.7102C35.1782 24.8879 38.5625 28.2978 42.7659 28.2978C46.9527 28.2978 50.3592 24.894 50.3592 20.7102C50.3592 16.5261 46.9736 13.1221 42.7659 13.1221ZM42.7659 26.1754C39.726 26.1754 37.3007 23.7065 37.3007 20.7102C37.3007 17.6965 39.7522 15.2445 42.7659 15.2445C45.7569 15.2445 48.2367 17.6573 48.2367 20.7102C48.2367 23.724 45.7827 26.1754 42.7659 26.1754Z" fill="black"/>
<path d="M26.3278 18.5342C31.4712 18.5342 35.656 14.352 35.656 9.2117C35.656 4.19441 31.6284 -0.111328 26.3278 -0.111328C21.1901 -0.111328 17.0103 4.07091 17.0103 9.2117C17.0102 14.3206 21.1421 18.5342 26.3278 18.5342ZM26.3278 2.01113C30.4179 2.01113 33.5336 5.32958 33.5336 9.2117C33.5336 13.182 30.3011 16.4118 26.3278 16.4118C22.3967 16.4118 19.1327 13.2466 19.1327 9.2117C19.1326 5.24142 22.3604 2.01113 26.3278 2.01113Z" fill="black"/>
</g>
<defs>
<clipPath id="clip0_155_1173">
<rect width="52" height="52" fill="white" transform="translate(0.333496)"/>
</clipPath>
</defs>
</svg>
