<svg enable-background="new 0 0 512 512" height="512" viewBox="0 0 512 512" width="512" xmlns="http://www.w3.org/2000/svg"><g id="Tree_28"><g><path d="m212.16 502.648h82.453l-1.284-95.13c-.355-26.311 8.04-51.994 23.867-73.016l92.646-123.058-126.697 88.895c-4.184-50.198-27.146-158.63-27.146-158.63s-22.963 108.432-27.146 158.63l-126.697-88.895 88.118 118.673c15.564 20.961 23.786 46.467 23.392 72.572z" fill="#fcc862"/><path d="m158.458 202.762c0 35.474-28.787 64.261-64.313 64.261-13.375 0-25.809-4.075-36.101-11.076-7.001-10.292-11.076-22.726-11.076-36.101 0-35.474 28.787-64.261 64.261-64.261 13.323 0 25.705 4.075 35.997 10.971l.052.052c7.052 10.293 11.18 22.727 11.18 36.154z" fill="#7ac753"/><path d="m147.277 166.609-.052-.052c-4.195-2.811-8.753-5.123-13.565-6.912v5.008c0 44.836-36.347 81.184-81.184 81.184 1.568 3.543 3.409 6.939 5.567 10.111 12.081 8.218 27.113 12.404 43.154 10.701 29.824-3.167 53.967-27.468 56.934-57.313 1.582-15.932-2.663-30.774-10.854-42.727z" opacity=".12"/><path d="m482.115 203.912c0 35.474-28.787 64.261-64.314 64.261-13.375 0-25.809-4.075-36.101-11.076-7.053-10.292-11.128-22.727-11.128-36.101 0-35.474 28.839-64.261 64.313-64.261 13.427 0 25.914 4.127 36.206 11.128 0 .052 0 .105.052.105 6.897 10.291 10.972 22.621 10.972 35.944z" fill="#7ac753"/><path d="m471.143 167.967c-.052 0-.052-.052-.052-.105-6.304-4.288-13.436-7.483-21.098-9.327v12.23c0 41.204-33.402 74.606-74.606 74.606 1.704 4.138 3.811 8.072 6.314 11.725 10.292 7.001 22.726 11.076 36.101 11.076 35.527 0 64.314-28.787 64.314-64.261-.001-13.322-4.076-25.652-10.973-35.944z" opacity=".12"/><path d="m337.344 90.697c0 44.879-36.415 81.345-81.398 81.345-18.025 0-34.743-5.904-48.222-15.83-10.083-13.584-16.039-30.302-16.039-48.483 0-44.878 36.467-81.345 81.345-81.345 18.129 0 34.847 5.904 48.379 15.935 10.031 13.53 15.935 30.249 15.935 48.378z" fill="#7ac753"/><path d="m321.409 42.318c-5.255-3.896-11.002-7.148-17.115-9.694v7.594c0 57.409-46.539 103.947-103.947 103.947 2.127 4.227 4.573 8.268 7.378 12.047 13.479 9.926 30.197 15.83 48.222 15.83 44.983 0 81.398-36.467 81.398-81.345-.001-18.129-5.905-34.848-15.936-48.379z" opacity=".12"/><g><path d="m375.029 492.199h-70.11l-1.114-84.837c-.337-23.893 7.378-47.526 21.719-66.551l41.694-55.383c3.469-4.612 2.546-11.163-2.061-14.633-4.622-3.48-11.168-2.536-14.633 2.061l-41.689 55.378c-17.117 22.704-26.327 50.913-25.929 79.413l1.112 84.551h-61.245l1.355-89.347c.395-28.276-8.648-56.316-25.462-78.939l-38.137-51.412c-3.441-4.638-9.99-5.612-14.617-2.168-4.635 3.439-5.605 9.985-2.168 14.617l38.143 51.423c14.099 18.969 21.679 42.474 21.344 66.173l-1.359 89.653h-64.903c-5.77 0-10.449 4.679-10.449 10.449s4.679 10.449 10.449 10.449h238.061c5.77 0 10.449-4.679 10.449-10.449-.001-5.769-4.679-10.448-10.45-10.448z"/><path d="m278.392 200.791c-1.061-5.673-6.495-9.444-12.189-8.352-5.673 1.056-9.413 6.515-8.352 12.189 8.199 43.908 13.214 76.413 14.903 96.602.671 8.043 9.842 12.288 16.418 7.679l57.362-40.281c4.725-3.316 5.862-9.832 2.546-14.556s-9.827-5.862-14.556-2.546l-42.872 30.107c-2.561-20.255-7-47.332-13.26-80.842z"/><path d="m233.608 200.842c-6.258 33.49-10.696 60.546-13.263 80.791l-43.395-30.475c-4.724-3.311-11.242-2.179-14.556 2.546-3.316 4.724-2.176 11.24 2.546 14.556l57.885 40.648c6.567 4.603 15.74.388 16.418-7.679 1.694-20.179 6.709-52.663 14.906-96.551 1.061-5.673-2.679-11.128-8.352-12.189-5.661-1.055-11.127 2.679-12.189 8.353z"/><path d="m168.907 202.76c0-40.729-33.049-74.709-74.763-74.709-41.194 0-74.709 33.515-74.709 74.709 0 40.948 33.143 74.714 74.709 74.714 41.225 0 74.763-33.515 74.763-74.714zm-74.763 53.817c-29.931 0-53.811-24.314-53.811-53.816 0-29.673 24.14-53.811 53.811-53.811 30.096 0 53.865 24.534 53.865 53.811 0 29.673-24.163 53.816-53.865 53.816z"/><path d="m417.8 129.199c-41.194 0-74.709 33.515-74.709 74.714 0 41.134 33.322 74.709 74.709 74.709 41.224 0 74.765-33.515 74.765-74.709 0-41.197-33.335-74.714-74.765-74.714zm0 128.525c-29.931 0-53.811-24.309-53.811-53.811 0-29.673 24.138-53.816 53.811-53.816 29.45 0 53.867 23.757 53.867 53.816 0 29.674-24.163 53.811-53.867 53.811z"/><path d="m255.948 182.49c50.643 0 91.847-41.179 91.847-91.791 0-49.401-39.656-91.796-91.847-91.796-50.587 0-91.742 41.179-91.742 91.796-.001 50.303 40.683 91.791 91.742 91.791zm0-162.689c40.272 0 70.949 32.674 70.949 70.898 0 39.092-31.827 70.893-70.949 70.893-38.706 0-70.844-31.165-70.844-70.893-.001-39.092 31.78-70.898 70.844-70.898z"/></g></g></g></svg>