<svg id="Layer_1" enable-background="new 0 0 256 256" viewBox="0 0 256 256" xmlns="http://www.w3.org/2000/svg"><g><g><path d="m249.915 218.897c1.67 0 3.024-1.354 3.024-3.024v-162.237c0-1.67-1.354-3.024-3.024-3.024-4.367 0-224.953 0-225.48 0v125.445c-12.089 0-21.838 10.014-21.406 22.2.412 11.607 10.304 20.639 21.919 20.639 7.734 0 208.192.001 224.967.001z" fill="#e0ebfc"/></g><g><path d="m249.915 220.897c-16.774 0-217.232-.001-224.967-.002-12.746 0-23.475-10.124-23.917-22.568-.229-6.421 2.098-12.499 6.551-17.112 3.987-4.133 9.203-6.603 14.854-7.075v-123.528c0-1.104.896-2 2-2h225.479c2.77 0 5.023 2.254 5.023 5.024v162.237c0 2.771-2.253 5.024-5.023 5.024zm-223.479-168.285v123.445c0 1.104-.896 2-2 2-5.318 0-10.281 2.108-13.976 5.936-3.691 3.825-5.62 8.866-5.431 14.192.366 10.317 9.302 18.71 19.919 18.71 7.734 0 208.192.002 224.967.002.564 0 1.023-.459 1.023-1.024v-162.237c0-.564-.459-1.024-1.023-1.024z" fill="#3762cc"/></g><g><g><path d="m45.858 199.398v-1.922c0 .648-.034 1.288-.09 1.922z" fill="#a4c9ff"/></g><g><path d="m45.858 50.612c0-11.83-9.59-21.419-21.419-21.419-11.83 0-21.419 9.59-21.419 21.419v146.864c0-11.83 9.59-21.419 21.419-21.419 11.83 0 21.419 9.59 21.419 21.419z" fill="#a4c9ff"/></g></g><g><g><path d="m45.857 201.398h-.09c-.562 0-1.097-.236-1.476-.65s-.566-.968-.517-1.528c.056-.617.082-1.187.082-1.744 0-1.104.896-2 2-2s2 .896 2 2v1.922c.001 1.105-.894 2-1.999 2z" fill="#3762cc"/></g><g><path d="m45.857 199.477c-1.104 0-2-.896-2-2 0-10.708-8.711-19.419-19.419-19.419s-19.42 8.711-19.42 19.419c0 1.104-.896 2-2 2s-2-.896-2-2v-146.865c0-12.913 10.506-23.419 23.42-23.419 12.913 0 23.419 10.506 23.419 23.419v146.864c0 1.105-.895 2.001-2 2.001zm-21.419-168.284c-10.708 0-19.42 8.711-19.42 19.419v133.787c4.212-6.235 11.346-10.342 19.42-10.342s15.207 4.107 19.419 10.342v-133.787c0-10.707-8.711-19.419-19.419-19.419z" fill="#3762cc"/></g></g><g><path d="m141.604 245.391-82.947-82.947c-1.8-1.8-4.878-.525-4.878 2.02v82.947c0 1.578 1.279 2.857 2.857 2.857h82.947c2.546.001 3.821-3.077 2.021-4.877zm-71.343-11.605v-39.534l39.533 39.534z" fill="#ffea92"/></g><g><path d="m139.583 252.269h-82.947c-2.678 0-4.856-2.179-4.856-4.857v-82.947c0-1.972 1.177-3.733 2.999-4.488 1.819-.754 3.898-.34 5.292 1.054l82.947 82.947c1.395 1.395 1.808 3.473 1.053 5.294-.755 1.82-2.516 2.997-4.488 2.997zm-82.927-88.669c-.14 0-.262.037-.348.072-.198.082-.529.293-.529.792v82.947c0 .473.384.857.856.857h82.947c.498 0 .71-.332.792-.529.082-.198.167-.583-.186-.935l-82.947-82.947c-.197-.197-.405-.257-.585-.257zm53.139 72.187h-39.533c-1.104 0-2-.896-2-2v-39.534c0-.809.487-1.538 1.234-1.848s1.606-.139 2.18.434l39.533 39.534c.572.572.743 1.432.434 2.179-.31.747-1.039 1.235-1.848 1.235zm-37.533-4h32.705l-32.705-32.705z" fill="#3762cc"/></g><g><path d="m201.295 193.809h-63.553c-2.609 0-4.724-2.115-4.724-4.724 0-2.609 2.115-4.724 4.724-4.724h63.553c2.609 0 4.724 2.115 4.724 4.724 0 2.609-2.115 4.724-4.724 4.724z" fill="#a4c9ff"/></g><g><path d="m152.019 203.086c0-2.609-2.115-4.724-4.724-4.724h-9.553c-2.609 0-4.724 2.115-4.724 4.724s2.115 4.724 4.724 4.724h9.553c2.609-.001 4.724-2.116 4.724-4.724z" fill="#a4c9ff"/></g><g><path d="m137.823 29.012h57.333v139.896h-57.333z" fill="#a4c9ff" transform="matrix(-1 0 0 -1 332.98 197.919)"/></g><g><path d="m195.156 170.908h-57.333c-1.104 0-2-.896-2-2v-139.896c0-1.104.896-2 2-2h57.333c1.104 0 2 .896 2 2v139.896c0 1.104-.895 2-2 2zm-55.333-4h53.333v-135.896h-53.333z" fill="#3762cc"/></g><g><path d="m113.657 29.012v-13.948l81.5-9.333v23.281z" fill="#4671c6"/></g><g><path d="m195.156 31.012h-81.5c-1.104 0-2-.896-2-2v-13.948c0-1.017.763-1.872 1.772-1.987l81.5-9.333c.571-.065 1.134.115 1.559.494.426.38.669.923.669 1.493v23.281c0 1.104-.895 2-2 2zm-79.5-4h77.5v-19.039l-77.5 8.875z" fill="#3762cc"/></g><g><path d="m113.657 29.012h24.167v139.896h-24.167z" fill="#4671c6"/></g><g><path d="m137.823 170.908h-24.167c-1.104 0-2-.896-2-2v-139.896c0-1.104.896-2 2-2h24.167c1.104 0 2 .896 2 2v139.896c0 1.104-.895 2-2 2zm-22.167-4h20.167v-135.896h-20.167z" fill="#3762cc"/></g><g><path d="m229.806 170.908c-1.104 0-2-.896-2-2v-105.51c0-1.104.896-2 2-2s2 .896 2 2v105.51c0 1.104-.896 2-2 2z" fill="#3762cc"/></g><g><path d="m232.01 65.398h-4.409c-1.104 0-2-.896-2-2s.896-2 2-2h4.409c1.104 0 2 .896 2 2s-.896 2-2 2z" fill="#3762cc"/></g><g><path d="m232.01 170.908h-4.409c-1.104 0-2-.896-2-2s.896-2 2-2h4.409c1.104 0 2 .896 2 2s-.896 2-2 2z" fill="#3762cc"/></g><g><path d="m205.073 170.908h-101.333c-1.104 0-2-.896-2-2s.896-2 2-2h101.333c1.104 0 2 .896 2 2s-.895 2-2 2z" fill="#3762cc"/></g><g><path d="m198.08 34.626h-87.347c-.552 0-1-.448-1-1v-9.228c0-.552.448-1 1-1h87.347c.552 0 1 .448 1 1v9.228c0 .552-.447 1-1 1z" fill="#6bdddd"/></g><g><path d="m198.08 36.625h-87.347c-1.654 0-3-1.346-3-3v-9.228c0-1.654 1.346-3 3-3h87.347c1.654 0 3 1.346 3 3v9.228c0 1.655-1.346 3-3 3zm-86.347-4h85.347v-7.228h-85.347z" fill="#3762cc"/></g><g><path d="m198.08 154.626h-87.347c-.552 0-1-.448-1-1v-9.228c0-.552.448-1 1-1h87.347c.552 0 1 .448 1 1v9.228c0 .552-.447 1-1 1z" fill="#6bdddd"/></g><g><path d="m198.08 114.626h-87.347c-.552 0-1-.448-1-1v-9.228c0-.552.448-1 1-1h87.347c.552 0 1 .448 1 1v9.228c0 .552-.447 1-1 1z" fill="#6bdddd"/></g><g><path d="m198.08 74.626h-87.347c-.552 0-1-.448-1-1v-9.228c0-.552.448-1 1-1h87.347c.552 0 1 .448 1 1v9.228c0 .552-.447 1-1 1z" fill="#6bdddd"/></g><g><path d="m198.08 156.625h-87.347c-1.654 0-3-1.346-3-3v-9.228c0-1.654 1.346-3 3-3h87.347c1.654 0 3 1.346 3 3v9.228c0 1.655-1.346 3-3 3zm-86.347-4h85.347v-7.228h-85.347z" fill="#3762cc"/></g><g><path d="m198.08 116.625h-87.347c-1.654 0-3-1.346-3-3v-9.228c0-1.654 1.346-3 3-3h87.347c1.654 0 3 1.346 3 3v9.228c0 1.655-1.346 3-3 3zm-86.347-4h85.347v-7.228h-85.347z" fill="#3762cc"/></g><g><path d="m198.08 76.625h-87.347c-1.654 0-3-1.346-3-3v-9.228c0-1.654 1.346-3 3-3h87.347c1.654 0 3 1.346 3 3v9.228c0 1.655-1.346 3-3 3zm-86.347-4h85.347v-7.228h-85.347z" fill="#3762cc"/></g><g><g><path d="m113.657 95.75c-40.673 49.804 0 65.851 0 65.851s40.673-16.047 0-65.851z" fill="#6bdddd"/></g><g><path d="m113.656 163.602c-.249 0-.498-.046-.734-.14-.59-.233-14.495-5.873-18.37-20.731-3.508-13.453 2.398-29.685 17.556-48.246.76-.93 2.338-.93 3.098 0 15.157 18.561 21.064 34.792 17.557 48.245-3.875 14.859-17.781 20.499-18.371 20.732-.238.093-.487.14-.736.14zm0-64.657c-13.142 16.67-18.271 31.038-15.246 42.729 2.862 11.063 12.497 16.41 15.246 17.733 2.745-1.321 12.384-6.668 15.246-17.734 3.026-11.69-2.103-26.058-15.246-42.728z" fill="#3762cc"/></g><g><path d="m113.656 163.602c-1.104 0-2-.896-2-2v-29.17c0-1.104.896-2 2-2s2 .896 2 2v29.17c0 1.104-.895 2-2 2z" fill="#3762cc"/></g></g><g><path d="m167.046 170.908h-14.611c-1.104 0-2-.896-2-2v-134.283c0-1.104.896-2 2-2h14.611c1.104 0 2 .896 2 2v134.282c0 1.105-.896 2.001-2 2.001zm-12.611-4h10.611v-130.283h-10.611z" fill="#3762cc"/></g><g><path d="m181.656 170.908h-14.61c-1.104 0-2-.896-2-2v-134.283c0-1.104.896-2 2-2h14.61c1.104 0 2 .896 2 2v134.282c0 1.105-.895 2.001-2 2.001zm-12.61-4h10.61v-130.283h-10.61z" fill="#3762cc"/></g><g><path d="m152.435 170.908h-14.611c-1.104 0-2-.896-2-2v-134.283c0-1.104.896-2 2-2h14.611c1.104 0 2 .896 2 2v134.282c0 1.105-.896 2.001-2 2.001zm-12.612-4h10.611v-130.283h-10.611z" fill="#3762cc"/></g></g></svg>