<svg enable-background="new 0 0 128 128" viewBox="0 0 128 128" xmlns="http://www.w3.org/2000/svg"><g id="Icon" display="none"><g display="inline"><g><path d="m3.001 17.969v52.117c0 1.572 1.274 2.846 2.846 2.846h116.306c1.572 0 2.846-1.274 2.846-2.846v-52.117c0-1.572-1.274-2.846-2.846-2.846h-116.305c-1.572 0-2.847 1.274-2.847 2.846z" style="fill:none;stroke:#000;stroke-width:2;stroke-linecap:round;stroke-linejoin:round;stroke-miterlimit:10"/><g><path d="m102.46 15.121-57.813 57.813h-20.533l57.812-57.813z" style="fill:none;stroke:#000;stroke-width:2;stroke-linecap:round;stroke-linejoin:round;stroke-miterlimit:10"/></g><g><path d="m60.832 15.121-56.976 56.996c-.531-.512-.856-1.24-.856-2.027v-17.65l37.308-37.318h20.524z" style="fill:none;stroke:#000;stroke-width:2;stroke-linecap:round;stroke-linejoin:round;stroke-miterlimit:10"/></g><g><path d="m19.214 15.121-16.214 16.224v-13.38c0-1.564 1.279-2.843 2.843-2.843h13.371z" style="fill:none;stroke:#000;stroke-width:2;stroke-linecap:round;stroke-linejoin:round;stroke-miterlimit:10"/></g><g style="fill:none;stroke:#000;stroke-width:2;stroke-linecap:round;stroke-linejoin:round;stroke-miterlimit:10"><path d="m105.272 72.932h9.226v30.328h-9.226z"/><path d="m100.536 111.805v-7.472c0-.593.481-1.074 1.074-1.074h16.55c.593 0 1.074.481 1.074 1.074v7.472c0 .593-.481 1.074-1.074 1.074h-16.55c-.593 0-1.074-.481-1.074-1.074z"/><path d="m13.503 72.932h9.226v30.328h-9.226z"/><path d="m8.768 111.805v-7.472c0-.593.481-1.074 1.074-1.074h16.55c.593 0 1.074.481 1.074 1.074v7.472c0 .593-.481 1.074-1.074 1.074h-16.551c-.593 0-1.073-.481-1.073-1.074z"/></g><g><path d="m125 17.965v16.224l-38.735 38.745h-20.524l57.566-57.566c.994.442 1.693 1.446 1.693 2.597z" style="fill:none;stroke:#000;stroke-width:2;stroke-linecap:round;stroke-linejoin:round;stroke-miterlimit:10"/></g><g><path d="m125 55.283v14.807c0 1.564-1.279 2.843-2.843 2.843h-14.797z" style="fill:none;stroke:#000;stroke-width:2;stroke-linecap:round;stroke-linejoin:round;stroke-miterlimit:10"/></g></g></g></g><g id="Glyph" display="none"><g display="inline"><path d="m37.07 14.12-35.07 35.07v-15.02c.33.12.66.18 1 .18.79 0 1.56-.32 2.12-.89l16.21-16.22c.82-.81 1.09-2.01.71-3.12z"/><path d="m22.02 70.79c-.84.81-1.12 2.02-.73 3.14h-15.02l56.68-56.69c.82-.81 1.1-2.02.7-3.12h15.04z"/><path d="m63.62 70.81c-.83.83-1.1 2.04-.7 3.12h-15.04l56.73-56.71c.82-.85 1.07-2.07.67-3.1h15.04z"/><path d="m126 37.44v15.02c-.32-.12-.65-.18-1-.18-.8 0-1.55.32-2.12.89l-17.64 17.65c-.83.82-1.1 2.03-.7 3.11h-15.04z"/><path d="m12.5 75.93h11.23v24.33h-11.23z"/><path d="m104.27 75.93h11.23v24.33h-11.23z"/><path d="m120.23 104.33v7.47c0 1.15-.93 2.08-2.07 2.08h-16.55c-1.14 0-2.07-.93-2.07-2.08v-7.47c0-1.14.93-2.07 2.07-2.07h16.55c1.14 0 2.07.93 2.07 2.07z"/><path d="m28.46 104.33v7.47c0 1.15-.93 2.08-2.07 2.08h-16.55c-1.14 0-2.07-.93-2.07-2.08v-7.47c0-1.14.93-2.07 2.07-2.07h16.55c1.14 0 2.07.93 2.07 2.07z"/><path d="m2 31.35v-13.39c0-2.11 1.72-3.84 3.84-3.84h13.37c.41 0 .77.24.93.62.15.37.07.8-.22 1.09l-16.21 16.22c-.19.19-.45.3-.71.3-.13 0-.26-.03-.38-.08-.38-.16-.62-.52-.62-.92z"/><path d="m61.54 15.83-56.98 56.99c-.19.2-.45.3-.7.3s-.5-.1-.7-.28c-.74-.71-1.16-1.72-1.16-2.75v-17.65c0-.27.11-.52.29-.71l37.31-37.32c.19-.18.44-.29.71-.29h20.52c.41 0 .77.24.93.62.15.37.07.8-.22 1.09z"/><path d="m126 17.96v16.23c0 .26-.11.52-.29.71l-38.74 38.74c-.19.19-.44.29-.7.29h-20.53c-.4 0-.77-.24-.92-.61-.16-.38-.07-.81.21-1.09l57.57-57.57c.29-.29.74-.38 1.11-.21 1.39.62 2.29 2 2.29 3.51z"/><path d="m126 55.28v14.81c0 2.12-1.72 3.84-3.84 3.84h-14.8c-.4 0-.77-.24-.92-.61-.16-.38-.07-.81.21-1.09l17.64-17.65c.29-.29.72-.38 1.09-.22.38.15.62.52.62.92z"/><path d="m103.17 15.83-57.82 57.81c-.18.19-.44.29-.7.29h-20.54c-.4 0-.77-.24-.92-.61-.15-.38-.07-.81.22-1.09l57.81-57.82c.19-.18.44-.29.71-.29h20.53c.4 0 .77.24.92.62.16.37.07.8-.21 1.09z"/></g></g><g id="Line_color"><g><g><path d="m3.001 17.969v52.117c0 1.572 1.274 2.846 2.846 2.846h116.306c1.572 0 2.846-1.274 2.846-2.846v-52.117c0-1.572-1.274-2.846-2.846-2.846h-116.305c-1.572 0-2.847 1.274-2.847 2.846z" fill="#58595b"/><g><path d="m1.501 17.969v13.107 24.677c0 4.752-.182 9.544 0 14.293.105 2.74 2.219 4.371 4.818 4.386 1.17.007 2.341 0 3.511 0h15.231 22.519 25.509 23.815 17.822c2.462 0 4.948.1 7.409 0 2.44-.099 4.26-1.905 4.364-4.348.015-.351 0-.705 0-1.056 0-2.315 0-4.63 0-6.946 0-8.001 0-16.002 0-24.002 0-6.256 0-12.511 0-18.767 0-.436.017-.876 0-1.312-.096-2.446-1.896-4.275-4.348-4.379-.622-.026-1.251 0-1.873 0-4.261 0-8.522 0-12.784 0-7.088 0-14.177 0-21.265 0-8.367 0-16.735 0-25.102 0-8.202 0-16.404 0-24.607 0-6.564 0-13.127 0-19.691 0-3.452 0-6.904 0-10.356 0-2.637.001-4.809 1.524-4.972 4.347-.111 1.929 2.889 1.922 3 0 .087-1.51 1.5-1.346 2.559-1.346h4.374 16.073 22.617 24.816 23.113 17.06c2.314 0 4.72-.191 7.029 0 1.743.144 1.358 2.231 1.358 3.464v7.924 23.897 17.269c0 1.141-.146 2.2-1.574 2.255-.953.036-1.915 0-2.868 0-4.624 0-9.249 0-13.873 0-7.14 0-14.28 0-21.42 0-8.252 0-16.505 0-24.757 0-7.939 0-15.878 0-23.818 0-6.323 0-12.645 0-18.968 0-3.269 0-6.539 0-9.808 0-1.063 0-1.888-.406-1.912-1.629-.035-1.786 0-3.577 0-5.363 0-7.428 0-14.856 0-22.284 0-6.94 0-13.88 0-20.82 0-1.122 0-2.244 0-3.366-.001-1.931-3.001-1.935-3.001-.001z" fill="#3c3c59"/></g></g><g><path d="m102.46 15.121-57.813 57.813h-20.533l57.812-57.813z" fill="#e8cc56"/><g><path d="m101.399 14.061c-6.536 6.536-13.071 13.071-19.607 19.607-10.348 10.348-20.696 20.696-31.045 31.044-2.387 2.387-4.774 4.774-7.161 7.161.354-.146.707-.293 1.061-.439-6.844 0-13.689 0-20.533 0 .354.854.707 1.707 1.061 2.561l19.607-19.607c10.348-10.349 20.696-20.697 31.044-31.045 2.387-2.387 4.774-4.774 7.161-7.161-.354.146-.707.293-1.061.439h20.533c1.93 0 1.934-3 0-3-3.298 0-6.596 0-9.894 0-2.317 0-4.635 0-6.952 0-1.194 0-2.447-.11-3.638 0-1.227.114-2.239 1.569-3.054 2.383-1.986 1.986-3.972 3.972-5.958 5.958-6.383 6.383-12.767 12.767-19.15 19.15-6.66 6.66-13.321 13.321-19.981 19.981-3.532 3.532-7.217 6.963-10.62 10.62-.051.055-.106.106-.159.159-.919.919-.239 2.561 1.061 2.561h9.894 6.952c1.194 0 2.447.11 3.638 0 1.227-.114 2.239-1.569 3.054-2.383 1.986-1.986 3.972-3.972 5.958-5.958 6.383-6.383 12.767-12.767 19.15-19.15 6.66-6.66 13.321-13.321 19.981-19.981 3.532-3.532 7.217-6.963 10.62-10.62.051-.055.106-.106.159-.159 1.367-1.367-.754-3.489-2.121-2.121z" fill="#3c3c59"/></g></g><g><path d="m60.832 15.121-56.976 56.996c-.531-.512-.856-1.24-.856-2.027v-17.65l37.308-37.318h20.524z" fill="#e8cc56"/><g><path d="m59.771 14.061c-6.426 6.429-12.853 12.857-19.279 19.286-10.232 10.235-20.463 20.47-30.695 30.705-2.334 2.335-4.668 4.669-7.001 7.004h2.121c-.696-.766-.417-2.322-.417-3.271 0-2.049 0-4.097 0-6.146 0-3.067 0-6.133 0-9.2-.146.354-.293.707-.439 1.061 4.22-4.221 8.44-8.442 12.66-12.663 6.665-6.667 13.33-13.333 19.994-20 1.551-1.552 3.103-3.104 4.654-4.655-.354.146-.707.293-1.061.439h20.524c1.93 0 1.934-3 0-3-6.582 0-13.164 0-19.747 0-.746 0-1.348 0-1.947.548-.462.423-.891.891-1.334 1.334-2.078 2.078-4.155 4.157-6.233 6.235-6.155 6.156-12.31 12.313-18.465 18.469-2.555 2.555-5.109 5.111-7.664 7.666-1.138 1.138-2.445 2.228-3.47 3.471-.62.754-.472 1.676-.472 2.594v5.712c0 3.442-.118 6.907 0 10.347.043 1.242.458 2.259 1.295 3.181.545.6 1.569.552 2.121 0 6.426-6.429 12.853-12.857 19.279-19.286 10.232-10.235 20.464-20.471 30.696-30.706 2.334-2.335 4.668-4.669 7.001-7.004 1.367-1.367-.753-3.489-2.121-2.121z" fill="#3c3c59"/></g></g><g><path d="m19.214 15.121-16.214 16.224v-13.38c0-1.564 1.279-2.843 2.843-2.843h13.371z" fill="#e8cc56"/><g><path d="m18.154 14.061c-4.731 4.734-9.463 9.469-14.194 14.203-.673.674-1.347 1.347-2.02 2.021.854.354 1.707.707 2.561 1.061 0-4.104 0-8.209 0-12.313 0-.476-.089-1.103.085-1.558.31-.809 1.075-.853 1.798-.853h6.792 6.039c1.93 0 1.934-3 0-3-4.229 0-8.457 0-12.686 0-1.073 0-2.122.083-3.051.707-1.333.893-1.968 2.31-1.978 3.883-.014 2.228 0 4.458 0 6.686v6.448c0 1.299 1.642 1.98 2.561 1.061 4.731-4.734 9.463-9.469 14.194-14.203.673-.674 1.347-1.347 2.02-2.021 1.366-1.368-.754-3.49-2.121-2.122z" fill="#3c3c59"/></g></g><g><path d="m105.272 72.932h9.226v30.328h-9.226z" fill="#ccc"/><g><path d="m103.772 72.932v26.577 3.751c0 .811.687 1.5 1.5 1.5h9.226c.811 0 1.5-.687 1.5-1.5 0-8.859 0-17.718 0-26.577 0-1.25 0-2.501 0-3.751 0-.811-.687-1.5-1.5-1.5-3.075 0-6.151 0-9.226 0-1.93 0-1.934 3 0 3h9.226c-.5-.5-1-1-1.5-1.5v26.577 3.751l1.5-1.5c-3.075 0-6.151 0-9.226 0l1.5 1.5c0-8.859 0-17.718 0-26.577 0-1.25 0-2.501 0-3.751 0-1.93-3-1.933-3 0z" fill="#3c3c59"/></g></g><g><path d="m100.536 111.805v-7.472c0-.593.481-1.074 1.074-1.074h16.55c.593 0 1.074.481 1.074 1.074v7.472c0 .593-.481 1.074-1.074 1.074h-16.55c-.593 0-1.074-.481-1.074-1.074z" fill="#9e9e9e"/><g><path d="m102.036 111.805c0-1.732 0-3.463 0-5.195 0-.479 0-.959 0-1.438 0-.156.086-.647 0-.784-.106-.171-.567.246-.343.372.097.054.393 0 .501 0h12.057 2.595c.243 0 1.059.143 1.27 0 .1-.068-.254-.598-.382-.305-.092.21 0 .684 0 .909v3.264c0 .923-.087 1.895 0 2.814.006.059-.034.255 0 .309-.001-.002-.004.044 0 .048.103.106.535-.32.425-.42-.036-.033-.22.007-.265 0-.555-.084-1.191 0-1.751 0-.965 0-1.929 0-2.894 0-2.577 0-5.153 0-7.73 0-.934 0-1.868 0-2.801 0-.269 0-.575-.041-.841 0-.556.086.076-.297.159.426-.093-.805-.623-1.5-1.5-1.5-.739 0-1.593.69-1.5 1.5.182 1.583 1.198 2.53 2.791 2.574.642.018 1.287 0 1.929 0h7.338 6.238c.707 0 1.405.041 2.057-.314 1.191-.648 1.344-1.839 1.344-3.037 0-2.178.08-4.371 0-6.548-.056-1.515-1.043-2.648-2.598-2.721-.482-.022-.971 0-1.453 0-4.586 0-9.172 0-13.758 0-.52 0-1.043-.025-1.56.028-1.836.188-2.327 1.763-2.327 3.322v6.695c-.001 1.931 2.999 1.935 2.999.001z" fill="#3c3c59"/></g></g><g><path d="m13.503 72.932h9.226v30.328h-9.226z" fill="#ccc"/><g><path d="m12.003 72.932v26.577 3.751c0 .811.687 1.5 1.5 1.5h9.226c.811 0 1.5-.687 1.5-1.5 0-8.859 0-17.718 0-26.577 0-1.25 0-2.501 0-3.751 0-.811-.687-1.5-1.5-1.5-3.075 0-6.151 0-9.226 0-1.93 0-1.934 3 0 3h9.226c-.5-.5-1-1-1.5-1.5v26.577 3.751l1.5-1.5c-3.075 0-6.151 0-9.226 0l1.5 1.5c0-8.859 0-17.718 0-26.577 0-1.25 0-2.501 0-3.751 0-1.93-3-1.933-3 0z" fill="#3c3c59"/></g></g><g><path d="m8.768 111.805v-7.472c0-.593.481-1.074 1.074-1.074h16.55c.593 0 1.074.481 1.074 1.074v7.472c0 .593-.481 1.074-1.074 1.074h-16.551c-.593 0-1.073-.481-1.073-1.074z" fill="#9e9e9e"/><g><path d="m10.268 111.805c0-1.732 0-3.463 0-5.195 0-.479 0-.959 0-1.438 0-.156.086-.647 0-.784-.106-.171-.567.246-.343.372.097.054.393 0 .501 0h12.057 2.595c.243 0 1.059.143 1.27 0 .1-.068-.254-.598-.382-.305-.092.21 0 .684 0 .909v3.264c0 .923-.087 1.895 0 2.814.006.059-.034.255 0 .309-.001-.002-.004.044 0 .048.103.106.535-.32.425-.42-.036-.033-.22.007-.265 0-.555-.084-1.191 0-1.751 0-.965 0-1.929 0-2.894 0-2.577 0-5.153 0-7.73 0-.934 0-1.868 0-2.801 0-.269 0-.575-.041-.841 0-.557.086.075-.297.159.426-.093-.805-.623-1.5-1.5-1.5-.739 0-1.593.69-1.5 1.5.182 1.583 1.198 2.53 2.791 2.574.642.018 1.287 0 1.929 0h7.338 6.238c.707 0 1.405.041 2.057-.314 1.191-.648 1.344-1.839 1.344-3.037 0-2.178.08-4.371 0-6.548-.056-1.515-1.043-2.648-2.598-2.721-.482-.022-.971 0-1.453 0-4.586 0-9.172 0-13.758 0-.52 0-1.043-.025-1.56.028-1.836.188-2.327 1.763-2.327 3.322v6.695c-.001 1.931 2.999 1.935 2.999.001z" fill="#3c3c59"/></g></g><g><path d="m125 17.965v16.224l-38.735 38.745h-20.524l57.566-57.566c.994.442 1.693 1.446 1.693 2.597z" fill="#e8cc56"/><g><path d="m123.5 17.965v16.224c.146-.354.293-.707.439-1.061-4.37 4.372-8.741 8.743-13.111 13.115-6.937 6.938-13.873 13.877-20.81 20.815-1.605 1.605-3.209 3.21-4.814 4.815.354-.146.707-.293 1.061-.439-6.841 0-13.682 0-20.524 0 .354.854.707 1.707 1.061 2.561l19.487-19.487 31.017-31.017c2.354-2.354 4.708-4.708 7.063-7.063-.606.078-1.212.156-1.818.235.555.286.909.646.949 1.302.116 1.918 3.117 1.932 3 0-.102-1.682-.912-3.106-2.435-3.893-.596-.308-1.33-.253-1.818.235-6.496 6.496-12.991 12.991-19.487 19.487-10.339 10.338-20.678 20.677-31.017 31.016-2.354 2.354-4.708 4.708-7.063 7.063-.919.919-.239 2.561 1.061 2.561h19.641c.77 0 1.404.041 2.029-.525.419-.38.805-.805 1.204-1.205 1.964-1.964 3.927-3.928 5.891-5.892 6.063-6.065 12.127-12.13 18.19-18.195 4.304-4.305 8.607-8.609 12.911-12.914.471-.471.824-.816.893-1.559.109-1.173 0-2.409 0-3.586 0-3.918 0-7.836 0-11.754 0-.28 0-.56 0-.84 0-1.93-3-1.933-3 .001z" fill="#3c3c59"/></g></g><g><path d="m125 55.283v14.807c0 1.564-1.279 2.843-2.843 2.843h-14.797z" fill="#e8cc56"/><g><path d="m123.5 55.283v13.559c0 .535.116 1.286-.107 1.79-.361.818-1.15.801-1.891.801-2.512 0-5.023 0-7.535 0-2.202 0-4.405 0-6.607 0 .354.854.707 1.707 1.061 2.561 5.148-5.151 10.295-10.301 15.443-15.452.733-.733 1.465-1.466 2.198-2.199 1.367-1.367-.754-3.489-2.121-2.121-5.148 5.151-10.295 10.301-15.443 15.452-.733.733-1.465 1.466-2.198 2.199-.918.919-.24 2.561 1.061 2.561h13.978c1.101 0 2.171-.048 3.14-.676 1.394-.903 2.015-2.374 2.023-3.986.012-2.479 0-4.958 0-7.437 0-2.35 0-4.701 0-7.051-.002-1.931-3.002-1.935-3.002-.001z" fill="#3c3c59"/></g></g></g></g><g id="Flat" display="none"><g display="inline"><path d="m2.001 17.214v52.971c0 1.598 1.295 2.893 2.893 2.893h118.213c1.598 0 2.893-1.295 2.893-2.893v-52.971c0-1.598-1.295-2.893-2.893-2.893h-118.213c-1.597 0-2.893 1.296-2.893 2.893z" fill="#58595b"/><g fill="#e8cc56"><path d="m103.09 14.32-58.76 58.76h-20.87l58.76-58.76z"/><path d="m60.78 14.32-57.91 57.93c-.54-.52-.87-1.26-.87-2.06v-17.94l37.92-37.93z"/><path d="m18.48 14.32-16.48 16.49v-13.6c0-1.59 1.3-2.89 2.89-2.89z"/></g><path d="m105.949 73.079h9.377v30.825h-9.377z" fill="#ccc"/><path d="m101.135 112.589v-7.594c0-.603.489-1.091 1.091-1.091h16.822c.603 0 1.091.489 1.091 1.091v7.594c0 .603-.489 1.091-1.091 1.091h-16.822c-.602 0-1.091-.489-1.091-1.091z" fill="#9e9e9e"/><path d="m12.675 73.079h9.377v30.825h-9.377z" fill="#ccc"/><path d="m7.862 112.589v-7.594c0-.603.489-1.091 1.091-1.091h16.822c.603 0 1.091.489 1.091 1.091v7.594c0 .603-.489 1.091-1.091 1.091h-16.822c-.602 0-1.091-.489-1.091-1.091z" fill="#9e9e9e"/><path d="m126 17.21v16.49l-39.37 39.38h-20.86l58.51-58.51c1.01.45 1.72 1.47 1.72 2.64z" fill="#e8cc56"/><path d="m126 55.14v15.05c0 1.59-1.3 2.89-2.89 2.89h-15.04z" fill="#e8cc56"/></g></g></svg>