<svg id="Icons" viewBox="0 0 60 60" xmlns="http://www.w3.org/2000/svg"><path d="m42.483 44h6.517v-4h-6.56z" fill="#e5b634"/><path d="m40 32.496 9-1.492v4.06l-9 1.492z" fill="#e5b634"/><path d="m30 25v-7c0-1.657 1.343-3 3-3h2c.552 0 1 .448 1 1v2c0 .552-.448 1-1 1h-1v6z" fill="#e5b634"/><path d="m26 30h-7l-3-5h-11v-1l.91-9.1c.05-.51.48-.9.99-.9h15.28c.48 0 .89.34.98.8l1.84 9.2z" fill="#cdf0f4"/><path d="m41 26v13h-36v-8h-3c-.55 0-1-.45-1-1v-5c0-.55.45-1 1-1h14c.62 0 1.2.33 1.52.86l2.07 3.46c.25.42.71.68 1.21.68h2.79c.78 0 1.41-.63 1.41-1.41v-3.59h14c1.1 0 2 .9 2 2z" fill="#f2c63a"/><path d="m50 46h8c.552 0 1-.448 1-1v-1.506c0-.302-.131-.581-.365-.772-1.25-1.018-5.299-4.902-5.615-12.743-.022-.544-.454-.98-.998-.98h-3.021c-.552 0-1 .448-1 1v14c0 1.105.895 2 2 2z" fill="#f2c63a"/><path d="m1 41.251c0-1.424.639-2.774 1.742-3.676l6.582-5.385c1.677-1.372 3.919-1.84 6.005-1.254l25.767 7.247c1.718.483 2.904 2.05 2.904 3.834 0 2.2-1.783 3.983-3.983 3.983h-34.268c-2.623 0-4.749-2.126-4.749-4.749z" fill="#596466"/><g fill="#1e1e1e"><path d="m54.019 29.941c-.043-1.089-.92-1.941-1.997-1.941h-3.021c-1.103 0-2 .897-2 2v.322l-5 .829v-5.151c0-1.654-1.346-3-3-3h-4v-3c1.103 0 2-.897 2-2v-2c0-1.103-.897-2-2-2h-2c-2.206 0-4 1.794-4 4v5h-3.181l-1.678-8.392c-.182-.932-1.007-1.608-1.962-1.608h-15.28c-1.031 0-1.886.775-1.985 1.801l-.82 8.199h-2.095c-1.103 0-2 .897-2 2v5c0 1.103.897 2 2 2h2v3.254l-1.891 1.547c-1.341 1.096-2.109 2.718-2.109 4.45 0 3.17 2.579 5.749 5.749 5.749h2.251c.553 0 1-.447 1-1s-.447-1-1-1h-2.251c-2.067 0-3.749-1.682-3.749-3.749 0-1.13.501-2.188 1.376-2.902l6.58-5.385c1.425-1.164 3.329-1.564 5.103-1.064l25.767 7.247c1.28.359 2.175 1.54 2.175 2.871 0 1.645-1.338 2.982-2.982 2.982h-28.019c-.553 0-1 .447-1 1s.447 1 1 1h28.018c1.624 0 3.056-.793 3.966-2h3.201c.414 1.161 1.514 2 2.816 2h8c1.103 0 2-.897 2-2v-1.506c0-.604-.268-1.168-.734-1.547-1.155-.94-4.948-4.587-5.247-12.006zm-7.019 2.408v2.034l-5 .828v-2.033zm-16-14.349c0-1.103.897-2 2-2h2v2h-1c-.553 0-1 .447-1 1v4h-2zm-7 6.099v3.493c0 .225-.184.408-.408.408h-2.794c-.143 0-.277-.075-.351-.198l-2.073-3.455c-.497-.829-1.406-1.344-2.374-1.346v-8.003l6.18-.002zm-10-9.1v8.002h-7.896l.796-8zm-5.311 16.418-2.689 2.201v-2.617c0-.553-.447-1-1-1h-3v-5h13.995c.271 0 .525.144.664.376l2.073 3.454c.432.722 1.224 1.17 2.065 1.17h2.794c1.328 0 2.408-1.08 2.408-2.408v-2.592h13c.552 0 1 .448 1 1v10.836l-24.4-6.863c-2.401-.677-4.982-.135-6.91 1.442zm33.311 6.041v-.22l5-.828v2.591h-3.024c-.508-.667-1.187-1.199-1.976-1.543zm2.882 3.543h2.118v2h-2.099c.064-.318.099-.646.099-.982 0-.348-.048-.686-.118-1.018zm13.118 4h-8c-.552 0-1-.448-1-1v-14l3.021.021c.332 8.257 4.663 12.403 5.979 13.474v1.506z"/><path d="m29 27c-.553 0-1 .447-1 1v2c0 .553.447 1 1 1s1-.447 1-1v-2c0-.553-.447-1-1-1z"/><path d="m33 27c-.553 0-1 .447-1 1v2c0 .553.447 1 1 1s1-.447 1-1v-2c0-.553-.447-1-1-1z"/><path d="m37 27c-.553 0-1 .447-1 1v2c0 .553.447 1 1 1s1-.447 1-1v-2c0-.553-.447-1-1-1z"/></g></svg>