<svg id="Layer_1" viewBox="0 0 64 64" xmlns="http://www.w3.org/2000/svg"><path d="m61 54v6c0 1.66-1.34 3-3 3h-10c-1.66 0-3-1.34-3-3v-10c0-.55.22-1.05.59-1.41.36-.37.86-.59 1.41-.59h8l2 2zm-4 5v-3l-4-4h-4v7z" fill="#ae672b"/><path d="m60 46-3 4-2-2h-8v-3-29h6l2 2-2 3 3 2-2 3 3 2-2 3 2.97 2.77-1.97 3.23 3 3-2 3z" fill="#999"/><path d="m48 63h-39v-4l5-2h26l5 3c0 1.66 1.34 3 3 3z" fill="#c4804d"/><path d="m47 45v3c-.55 0-1.05.22-1.41.59-.37.36-.59.86-.59 1.41v10l-5-3v-13.17z" fill="#228ab2"/><path d="m43 21v3c0 5-5 6-5 6v-9z" fill="#e09b8d"/><path d="m40 43.83v13.17h-5v-14z" fill="#ae672b"/><path d="m35 37.55c-2 2.13-4.84 3.45-8 3.45-5 0-7.93-3.37-8-3.45-1.86-1.97-3-4.63-3-7.55v-9h22v9c0 2.92-1.14 5.58-3 7.55z" fill="#f4baa6"/><path d="m35 43v14h-16v-14s1.14 5 8 7c6.86-2 8-7 8-7z" fill="#228ab2"/><path d="m35 37.55v5.45s-1.14 5-8 7c-6.86-2-8-7-8-7v-5.45c.07.08 3 3.45 8 3.45 3.16 0 6-1.32 8-3.45z" fill="#e09b8d"/><path d="m19 43v14h-5v-12.89z" fill="#ae672b"/><path d="m16 21v9s-5-1-5-6v-3z" fill="#e09b8d"/><path d="m14 44.11v12.89l-5 2v4h-8v-7c0-5.67 3.63-9.21 9-11z" fill="#228ab2"/><path d="m43 18v3h-32v-3c0-.55.22-1.05.59-1.41.36-.37.86-.59 1.41-.59h28c1.1 0 2 .9 2 2z" fill="#ae672b"/><path d="m41 16h-11l1.27-12.52c5.9 1.53 9.73 5.64 9.73 12.52z" fill="#c4804d"/><path d="m29.01 1c1.34 0 2.38 1.15 2.26 2.48l-1.27 12.52h-6l-1.27-12.52c-.12-1.33.93-2.48 2.26-2.48z" fill="#ae672b"/><path d="m22.73 3.48 1.27 12.52h-11c0-6.88 3.83-10.99 9.73-12.52z" fill="#c4804d"/><g fill="#252525"><circle cx="30.5" cy="25.5" r="1.5"/><circle cx="23.5" cy="25.5" r="1.5"/><path d="m27 32c.552 0 1-.448 1-1v-3c0-.552-.448-1-1-1s-1 .448-1 1v3c0 .552.448 1 1 1z"/><path d="m29.304 33.282c-.031.029-.786.718-2.304.718-1.497 0-2.251-.669-2.303-.717-.391-.381-1.017-.377-1.404.01-.391.391-.391 1.023 0 1.414.132.132 1.36 1.293 3.707 1.293s3.575-1.161 3.707-1.293c.386-.386.385-1.004.005-1.396-.379-.392-1.009-.403-1.408-.029z"/><path d="m61.707 53.293-3.387-3.387 2.48-3.306c.299-.398.259-.955-.093-1.307l-2.42-2.42 1.545-2.318c.264-.397.212-.925-.125-1.262l-2.444-2.444 1.561-2.559c.247-.405.175-.929-.172-1.252l-2.349-2.19 1.529-2.293c.306-.46.182-1.08-.277-1.387l-2.168-1.445 1.445-2.168c.306-.46.182-1.08-.277-1.387l-2.168-1.445 1.445-2.168c.264-.397.212-.925-.125-1.262l-2-2c-.188-.188-.442-.293-.707-.293h-6c-.552 0-1 .448-1 1v27.819l-10-1.667v-4.234c1.761-1.999 2.794-4.496 2.964-7.146 2.075-.691 5.036-2.705 5.036-6.772v-6c0-1.312-.852-2.418-2.028-2.824-.277-6.258-3.708-10.64-9.754-12.457-.106-.612-.371-1.191-.796-1.656-.617-.676-1.496-1.063-2.412-1.063h-4.02c-.913 0-1.792.388-2.41 1.065-.424.464-.689 1.041-.796 1.653-6.047 1.816-9.478 6.198-9.756 12.455-.428.146-.821.377-1.137.701-.575.561-.892 1.315-.892 2.126v6c0 4.067 2.962 6.081 5.036 6.772.17 2.663 1.209 5.168 2.964 7.148v4.278l-8.268 1.837c-6.367 2.107-9.732 6.245-9.732 11.965v7c0 .552.448 1 1 1h57c2.209 0 4-1.791 4-4v-6c0-.265-.105-.519-.293-.707zm-9.121-36.293 1.127 1.127-1.545 2.318c-.306.459-.182 1.081.277 1.387l2.168 1.445-1.445 2.168c-.306.459-.182 1.081.277 1.387l2.168 1.445-1.445 2.168c-.272.408-.208.952.15 1.286l2.374 2.214-1.545 2.534c-.241.394-.18.901.146 1.228l2.42 2.42-1.545 2.318c-.265.396-.212.925.125 1.262l2.387 2.387-1.788 2.384-1.185-1.185c-.188-.188-.442-.293-.707-.293h-7v-30zm-6.586 30.181c-.417.147-.799.376-1.108.693-.575.561-.892 1.315-.892 2.126v8.234l-3-1.8v-11.42l5 .833zm-26 8.819v-9.188c1.29 1.526 3.373 3.172 6.72 4.148.091.027.468.027.56 0 3.347-.976 5.43-2.622 6.72-4.148v9.188zm14-13.133c-.189.651-1.494 4.373-7 6.088-5.514-1.718-6.815-5.449-7-6.087v-3.126c1.483 1.057 3.854 2.258 7 2.258 2.567 0 4.984-.792 7-2.251v3.119zm-16 13.133h-3v-11.087l3-.667v11.753zm-3.808 2h25.531l4.338 2.603c.077.504.248.973.495 1.397h-34.556v-2.323zm24.808-13.32v11.32h-3v-11.82zm0-16.086v-6.594h3v2c0 2.709-1.757 4.01-3 4.594zm.959-13.594h-8.853l1.036-10.213c3.624 1.22 7.443 3.992 7.817 10.213zm-15.903-12.586c.244-.267.576-.414.934-.414h4.02c.361 0 .693.146.936.412.245.268.361.615.33.967l-1.179 11.621h-4.192l-1.178-11.61c-.033-.361.084-.708.33-.976zm-2.199 2.373 1.036 10.213h-8.853c.374-6.221 4.192-8.992 7.817-10.213zm-9.857 13.213c0-.267.102-.513.306-.712.181-.186.428-.288.694-.288h28c.551 0 1 .449 1 1v2h-30zm0 6v-2h3v6.603c-1.242-.576-3-1.869-3-4.603zm5-2h20v8c0 2.563-.968 5.001-2.729 6.865-1.898 2.021-4.48 3.135-7.271 3.135-4.486 0-7.135-2.98-7.273-3.137-1.759-1.862-2.727-4.3-2.727-6.863zm-15 34c0-5.991 4.484-8.763 8.268-10.035l2.732-.607v10.965l-4.372 1.749c-.379.152-.628.52-.628.929v3h-6v-6zm58 4c0 1.103-.897 2-2 2h-10c-1.103 0-2-.897-2-2v-10c0-.267.102-.513.306-.712.181-.186.428-.288.694-.288h7.586l5.414 5.414z"/><path d="m53 51h-4c-.552 0-1 .448-1 1v7c0 .552.448 1 1 1h8c.552 0 1-.448 1-1v-3c0-.265-.105-.52-.293-.707l-4-4c-.188-.188-.442-.293-.707-.293zm3 7h-6v-5h2.586l3.414 3.414z"/></g></svg>