<?xml version="1.0" encoding="iso-8859-1"?>
<!-- Generator: Adobe Illustrator 19.0.0, SVG Export Plug-In . SVG Version: 6.00 Build 0)  -->
<svg version="1.1" id="Capa_1" xmlns="http://www.w3.org/2000/svg" xmlns:xlink="http://www.w3.org/1999/xlink" x="0px" y="0px"
	 viewBox="0 0 512 512" style="enable-background:new 0 0 512 512;" xml:space="preserve">
<path style="fill:#E7ECED;" d="M208,420h96c0,26.48-21.52,48-48,48S208,446.48,208,420z"/>
<polygon style="fill:#AFB6BB;" points="404.24,380 440,420 304,420 208,420 72,420 107.76,380 "/>
<polygon style="fill:#7E8488;" points="304,188 304,268 404.24,380 107.76,380 208,268 208,188 256,188 "/>
<polygon style="fill:#595E62;" points="480,44 480,76 256,76 32,76 32,44 "/>
<path d="M512,36H0v16h24v24c0,4.424,3.576,8,8,8h216v96h-40c-4.424,0-8,3.576-8,8v76.944L104.216,372H104v0.24l-37.96,42.432
	c-2.112,2.352-2.632,5.72-1.344,8.592C65.984,426.152,68.84,428,72,428h128.64c3.904,27.088,27.208,48,55.36,48
	s51.456-20.912,55.36-48H440c3.16,0,6.016-1.848,7.304-4.736c1.288-2.872,0.768-6.24-1.344-8.592L408,372.24V372h-0.216L312,264.944
	V188c0-4.424-3.576-8-8-8h-40V84h216c4.424,0,8-3.576,8-8V52h24V36z M256,460c-19.312,0-35.472-13.768-39.192-32h78.384
	C291.472,446.232,275.312,460,256,460z M89.88,412l21.472-24h289.28l21.472,24H89.88z M298.04,273.336L386.328,372H125.672
	l85.904-96H280v-16h-64v-64h80v72C296,269.968,296.728,271.864,298.04,273.336z M472,68H40V52h432V68z"/>
<rect x="232" y="212" width="16" height="16"/>
<rect x="264" y="212" width="16" height="16"/>
<g>
</g>
<g>
</g>
<g>
</g>
<g>
</g>
<g>
</g>
<g>
</g>
<g>
</g>
<g>
</g>
<g>
</g>
<g>
</g>
<g>
</g>
<g>
</g>
<g>
</g>
<g>
</g>
<g>
</g>
</svg>
