<svg id="Layer_40" viewBox="0 0 50 50" xmlns="http://www.w3.org/2000/svg" data-name="Layer 40"><g><rect fill="#98ccfd" height="33.971" rx="3.746" transform="matrix(.707 .707 -.707 .707 25 -10.355)" width="33.971" x="8.014" y="8.014"/><g><rect fill="#4788c7" height="6.979" rx=".915" transform="matrix(.707 -.707 .707 .707 -13.143 29.378)" width="4" x="26.891" y="27.065"/><path d="m30.84134887 22.08098013c1.37178888-1.37178888 1.6546057-3.42237265.84853677-5.06286556l-2.29455907 2.29455907c-.5643099.5643099-1.47923701.5643099-2.04354691 0l-.00000204-.00000204c-.56430989-.56430989-.5643099-1.47923701 0-2.0435469l2.29455908-2.29455908c-1.64757088-.8131469-3.69107668-.52325211-5.06286556.84853677-1.21482188 1.21482188-1.55551408 2.95798856-1.05707803 4.49067186l-7.33420583 7.33420583c-.7810478.7810478-.7810478 2.04737649 0 2.8284243l.00000283.00000283c.7810478.7810478 2.04737649.7810478 2.8284243 0l7.33511215-7.33511215c1.52957589.49472443 3.27144782.1538596 4.48562233-1.0603149z" fill="#fff"/></g></g><path d="m47.07910156 21.64331055-18.72265625-18.72265625c-1.8515625-1.84960938-4.86132812-1.84960938-6.71289062 0l-18.72265625 18.72265625c-1.84960938 1.85058594-1.84960938 4.86230469 0 6.71289062l18.72265625 18.72265625c.92578125.92480469 2.140625 1.38769531 3.35644531 1.38769531s2.43066406-.46289062 3.35644531-1.38769531l18.72265625-18.72265625c1.84960938-1.85058594 1.84960938-4.86230469 0-6.71289062zm-1.4140625 5.29882812-18.72265625 18.72265625c-1.0703125 1.0703125-2.81445312 1.0703125-3.88476562 0l-18.72265625-18.72265625c-1.0703125-1.07128906-1.0703125-2.81347656 0-3.88476562l18.72265625-18.72265625c1.0703125-1.0703125 2.81445312-1.0703125 3.88476562 0l18.72265625 18.72265625c1.0703125 1.07128906 1.0703125 2.81347656 0 3.88476562zm-38.19824219-2.52539062-.58398438.58300781.58398438.58300781c.06835938.06835938.06835938.1796875 0 .24804688-.03417969.03417969-.07910156.05078125-.12402344.05078125s-.08984375-.01660156-.12402344-.05078125l-.70703125-.70703125c-.06835938-.06835938-.06835938-.1796875 0-.24804688l.70703125-.70703125c.06835938-.06835938.1796875-.06835938.24804688 0s.06835938.1796875 0 .24804688zm3.68457031-3.93261719c.06835938.06835938.06835938.1796875 0 .24804688l-1.47363281 1.47363281c-.03417969.03417969-.07910156.05078125-.12402344.05078125s-.08984375-.01660156-.12402344-.05078125c-.06835938-.06835938-.06835938-.1796875 0-.24804688l1.47363281-1.47363281c.06835938-.06835938.1796875-.06835938.24804688 0zm1.96289062-1.96289062c-.06835938-.06835938-.06835938-.1796875 0-.24804688l1.47460938-1.47460938c.06835938-.06835938.1796875-.06835938.24804688 0s.06835938.1796875 0 .24804688l-1.47460938 1.47460938c-.03417969.03417969-.07910156.05078125-.12402344.05078125s-.08984375-.01660156-.12402344-.05078125zm7.37011719-7.37011719c-.06835938-.06835938-.06835938-.1796875 0-.24804688l1.47363281-1.47363281c.06835938-.06835938.1796875-.06835938.24804688 0s.06835938.1796875 0 .24804688l-1.47363281 1.47363281c-.03417969.03417969-.07910156.05078125-.12402344.05078125s-.08984375-.01660156-.12402344-.05078125zm-3.68554688 3.68554688c-.06835938-.06835938-.06835938-.1796875 0-.24804688l1.47460938-1.47460938c.06835938-.06835938.1796875-.06835938.24804688 0s.06835938.1796875 0 .24804688l-1.47460938 1.47460938c-.03417969.03417969-.07910156.05078125-.12402344.05078125s-.08984375-.01660156-.12402344-.05078125zm7.37011719-7.37011719c-.06835938-.06835938-.06835938-.1796875 0-.24804688l.70703125-.70703125c.06835938-.06835938.1796875-.06835938.24804688 0l.70703125.70703125c.06835938.06835938.06835938.1796875 0 .24804688-.03417969.03417969-.07910156.05078125-.12402344.05078125s-.08984375-.01660156-.12402344-.05078125l-.58300781-.58398438-.58300781.58398438c-.06835938.06835938-.1796875.06835938-.24804688 0zm3.625 2.2109375c-.06835938-.06835938-.06835938-.1796875 0-.24804688s.1796875-.06835938.24804688 0l1.47363281 1.47363281c.06835938.06835938.06835938.1796875 0 .24804688-.03417969.03417969-.07910156.05078125-.12402344.05078125s-.08984375-.01660156-.12402344-.05078125zm3.68457031 3.68457031c-.06835938-.06835938-.06835938-.1796875 0-.24804688s.1796875-.06835938.24804688 0l1.47460938 1.47460938c.06835938.06835938.06835938.1796875 0 .24804688-.03417969.03417969-.07910156.05078125-.12402344.05078125s-.08984375-.01660156-.12402344-.05078125zm9.09179688 8.59570312c.06835938.06835938.06835938.1796875 0 .24804688-.03417969.03417969-.07910156.05078125-.12402344.05078125s-.08984375-.01660156-.12402344-.05078125l-1.47363281-1.47363281c-.06835938-.06835938-.06835938-.1796875 0-.24804688s.1796875-.06835938.24804688 0zm-3.68457031-3.68457031c.06835938.06835938.06835938.1796875 0 .24804688-.03417969.03417969-.07910156.05078125-.12402344.05078125s-.08984375-.01660156-.12402344-.05078125l-1.47460938-1.47460938c-.06835938-.06835938-.06835938-.1796875 0-.24804688s.1796875-.06835938.24804688 0zm6.60253906 6.60253906c.06835938.06835938.06835938.1796875 0 .24804688l-.70703125.70703125c-.03417969.03417969-.07910156.05078125-.12402344.05078125s-.08984375-.01660156-.12402344-.05078125c-.06835938-.06835938-.06835938-.1796875 0-.24804688l.58398438-.58300781-.58398438-.58300781c-.06835938-.06835938-.06835938-.1796875 0-.24804688s.1796875-.06835938.24804688 0zm-10.28710938 10.28710938c.06835938.06835938.06835938.1796875 0 .24804688l-1.47460938 1.47460938c-.03417969.03417969-.07910156.05078125-.12402344.05078125s-.08984375-.01660156-.12402344-.05078125c-.06835938-.06835938-.06835938-.1796875 0-.24804688l1.47460938-1.47460938c.06835938-.06835938.1796875-.06835938.24804688 0zm-3.68554688 3.68554688c.06835938.06835938.06835938.1796875 0 .24804688l-1.47363281 1.47363281c-.03417969.03417969-.07910156.05078125-.12402344.05078125s-.08984375-.01660156-.12402344-.05078125c-.06835938-.06835938-.06835938-.1796875 0-.24804688l1.47363281-1.47363281c.06835938-.06835938.1796875-.06835938.24804688 0zm11.0546875-11.0546875c.06835938.06835938.06835938.1796875 0 .24804688l-1.47363281 1.47363281c-.03419128.03417969-.07910156.05078125-.12402344.05078125s-.08984375-.01660156-.12402344-.05078125c-.06835938-.06835938-.06835938-.1796875 0-.24804688l1.47363281-1.47363281c.06835938-.06835938.1796875-.06835938.24804688 0zm-3.68457031 3.68457031c.06835938.06835938.06835938.1796875 0 .24804688l-1.47460938 1.47460938c-.03417969.03417969-.07910156.05078125-.12402344.05078125s-.08984375-.01660156-.12402344-.05078125c-.06835938-.06835938-.06835938-.1796875 0-.24804688l1.47460938-1.47460938c.06835938-.06835938.1796875-.06835938.24804688 0zm-11.0546875 11.0546875c.06835938.06835938.06835938.1796875 0 .24804688l-.70703125.70703125c-.03417969.03417969-.07910156.05078125-.12402344.05078125s-.08984375-.01660156-.12402344-.05078125l-.70703125-.70703125c-.06835938-.06835938-.06835938-.1796875 0-.24804688s.1796875-.06835938.24804688 0l.58300781.58398438.58300781-.58398438c.06835938-.06835938.1796875-.06835938.24804688 0zm-3.625-2.2109375c.06835938.06835938.06835938.1796875 0 .24804688-.03417969.03417969-.07910156.05078125-.12402344.05078125s-.08984375-.01660156-.12402344-.05078125l-1.47363281-1.47363281c-.06835938-.06835938-.06835938-.1796875 0-.24804688s.1796875-.06835938.24804688 0zm-11.0546875-11.0546875c.06835938.06835938.06835938.1796875 0 .24804688-.03417969.03417969-.07910156.05078125-.12402344.05078125s-.08985464-.01660156-.12402344-.05078125l-1.47363281-1.47363281c-.06835938-.06835938-.06835938-.1796875 0-.24804688s.1796875-.06835938.24804688 0zm7.37011719 7.37011719c.06835938.06835938.06835938.1796875 0 .24804688-.03417969.03417969-.07910156.05078125-.12402344.05078125s-.08984375-.01660156-.12402344-.05078125l-1.47460938-1.47460938c-.06835938-.06835938-.06835938-.1796875 0-.24804688s.1796875-.06835938.24804688 0zm-3.68457031-3.68457031c.06835938.06835938.06835938.1796875 0 .24804688-.03417969.03417969-.07910156.05078125-.12402344.05078125s-.08984375-.01660156-.12402344-.05078125l-1.47460938-1.47460938c-.06835938-.06835938-.06835938-.1796875 0-.24804688s.1796875-.06835938.24804688 0zm14.35546875-6.33984375c-.36132812-.36230469-.84179688-.56152344-1.35253906-.56152344h-.00195312c-.51074219 0-.9921875.19824219-1.35351562.56054688l-.06054688.06054688-1.0927124-1.09283447 1.3270874-1.3270874c1.77050781.359375 3.6015625-.17578125 4.890625-1.46484375 1.640625-1.64160156 2.05761719-4.13769531 1.03808594-6.2109375-.14257812-.2890625-.41601562-.4921875-.734375-.54492188-.31347656-.05078125-.640625.05078125-.87011719.27929688l-2.29394531 2.29394531c-.17382812.17285156-.45605469.17382812-.62988281 0-.11328125-.11328125-.12988281-.24609375-.12988281-.31445312 0-.06933594.01660156-.20117188.12988281-.31445312l2.29492188-2.29492188c.22753906-.22753906.33203125-.55175781.27929688-.87011719-.05175781-.31738281-.25488281-.59082031-.54394531-.73339844-2.0703125-1.02441406-4.56835938-.60644531-6.21289062 1.03808594-1.29003906 1.29003906-1.82421875 3.11914062-1.46191406 4.89550781l-1.32537842 1.32537842-3.06427002-3.06463623-.00024414.00024414-1.51452637-.73760986-.6373291.63726807.7376709 1.5145874.00036621-.00042725 3.06427002 3.06463623-4.18927002 4.18927002c-.56640625.56640625-.87890625 1.3203125-.87890625 2.12207031 0 .80078125.3125 1.5546875.87890625 2.12109375.58496094.58496094 1.35253906.87695312 2.12109375.87695312s1.53613281-.29199219 2.12109375-.87695312l4.18951416-4.18951416 1.0927124 1.09283447-.05957031.05957031c-.36230469.36132812-.56152344.84179688-.56152344 1.35253906-.00097656.51171875.19824219.99316406.56054688 1.35546875l3.640625 3.640625c.37304688.37304688.86328125.56054688 1.35449219.56054688.49023438 0 .98046875-.1875 1.35351562-.56054688l1.53515625-1.53417969c.74707031-.74609375.74707031-1.96191406 0-2.70800781l-3.640625-3.63964844zm-4.95898438-5.59277344c.265625-.265625.36035156-.65820312.24414062-1.01660156-.40332031-1.23828125-.09179688-2.56933594.8125-3.47363281.65332031-.65234375 1.51757812-1 2.39355469-1.00683594l-1.03808594 1.03808594c-.46289062.46191406-.71679688 1.07617188-.71679688 1.72949219 0 .65234375.25390625 1.26660156.71582031 1.72851562.95410156.95410156 2.50585938.953125 3.45800781 0l1.03710938-1.03710938c-.0078125.87597656-.35449219 1.74023438-1.00488281 2.39160156-.90527344.90234375-2.23535156 1.21386719-3.47167969.81640625-.359375-.1171875-.74902344-.02050781-1.01464844.24414062l-1.73126221 1.73126221-1.41436768-1.41448975 1.73059082-1.73083496zm-5.91992188 8.74902344c-.390625.390625-1.0234375.390625-1.4140625 0-.18847656-.18945312-.29296875-.44042969-.29296875-.70703125 0-.26757812.10351562-.51757812.29296875-.70703125l4.18939209-4.19000244 1.41430664 1.41442871zm11.63085938 3.25097656-3.52050781-3.51953125 1.4140625-1.4140625 3.52050781 3.51953125z" fill="#2a5075"/></svg>