<svg clip-rule="evenodd" fill-rule="evenodd" height="512" image-rendering="optimizeQuality" shape-rendering="geometricPrecision" text-rendering="geometricPrecision" viewBox="0 0 1.70666 1.70666" width="512" xmlns="http://www.w3.org/2000/svg"><g id="Layer_x0020_1"><path d="m.929492 1.02256c-.00002362 0-.00004724 0-.00006693 0l-.16748-.00061024c-.00375591-.00001181-.0074252-.00111024-.0105748-.00315748l-.240744-.156406h-.0185472c-.0057126 0-.0111378-.0025-.0148543-.00684252-.0037126-.00433858-.00533858-.0100906-.00445276-.0157362l.0296535-.188402c.00149213-.00950394.0096811-.0165.0193031-.0165h.309051c.00803937 0 .0152638.0049252.0181929.0124134l.0987165.252067c.00088583.00226772.00134646.0046811.00134646.00712598v.0965039c0 .00519291-.00207087.0101732-.00574803.0138386-.00366535.00365748-.00862598.00570472-.0137953.00570472zm-.161654-.0396654.142118.00051181v-.0732047l-.0925118-.236217h-.279016l-.0235.149323h.00148425c.00377559 0 .00747638.00109449.0106457.00315748l.24078.156429z"/><path d="m.483764 1.45684c-.0465827 0-.0844764-.0378976-.0844764-.0844724 0-.0465787.0378937-.0844724.0844764-.0844724.0465787 0 .0844724.0378937.0844724.0844724 0 .0465748-.0378937.0844724-.0844724.0844724zm0-.129866c-.0250315 0-.0453976.0203622-.0453976.0453898 0 .0250354.0203661.0453937.0453976.0453937.0250276 0 .0453937-.0203622.0453937-.0453937 0-.0250276-.0203661-.0453898-.0453937-.0453898z"/><path d="m.749657 1.45684c-.0465827 0-.0844724-.0378976-.0844724-.0844724 0-.0465787.0378937-.0844724.0844724-.0844724.0465748 0 .0844724.0378937.0844724.0844724 0 .0465748-.0378937.0844724-.0844724.0844724zm0-.129866c-.0250315 0-.0453937.0203622-.0453937.0453898 0 .0250354.0203622.0453937.0453937.0453937.0250276 0 .0453937-.0203622.0453937-.0453937 0-.0250276-.0203661-.0453898-.0453937-.0453898z"/><path d="m.432638 1.04718c-.0107913 0-.0195433-.00874803-.0195433-.0195394v-.103075c0-.0107874.00875197-.0195394.0195433-.0195394.0107874 0 .0195394.00875197.0195394.0195394v.103075c0 .0107913-.00874803.0195394-.0195394.0195394z"/><path d="m.656701.849646c-.00500394 0-.0100039-.00190551-.0138189-.00572047-.00762992-.00762992-.00762992-.0200039 0-.0276339l.0975394-.0975394c.00763386-.00762992.0200039-.00762992.0276339 0 .00762992.00762992.00762992.0200039 0 .0276339l-.0975394.0975394c-.00381496.00381496-.00881496.00572047-.013815.00572047z"/><path d="m.729591.883937c-.005 0-.01-.00190945-.013815-.00572441-.00762992-.00762992-.00762992-.0200039 0-.0276339l.0589291-.0589331c.00763386-.00762992.0200039-.00762992.0276339 0 .00762992.00762992.00762992.0200039 0 .0276339l-.0589331.0589291c-.00381102.00382283-.00881102.00572835-.013815.00572835z"/><path d="m1.46615.810465c-.0107874 0-.0195394-.00874803-.0195394-.0195394v-.569724c0-.0107874.00875197-.0195394.0195394-.0195394.0107913 0 .0195433.00875197.0195433.0195394v.569724c0 .0107913-.00875197.0195394-.0195433.0195394z"/><path d="m1.46615 1.33967c-.132563 0-.240413-.10785-.240413-.240413s.10785-.240409.240413-.240409c.132567 0 .240417.107843.240417.240409 0 .132567-.10785.240413-.240417.240413zm0-.441748c-.111016 0-.201331.090315-.201331.201331 0 .11102.090315.201335.201331.201335.11102 0 .201335-.090315.201335-.201335 0-.111012-.090315-.201331-.201335-.201331z"/><path d="m1.33891 1.11879c-.0107874 0-.0195394-.00875197-.0195394-.0195394 0-.0809331.0658425-.146776.146776-.146776.0107874 0 .0195394.00875197.0195394.0195433 0 .0107874-.00875197.0195394-.0195394.0195394-.0593819 0-.107697.048311-.107697.107693 0 .0107874-.00874803.0195394-.0195394.0195394z"/><path d="m1.55028.914524c-.00251969 0-.00505118-.00048819-.00744882-.00147638-.0243465-.0100394-.0501417-.0151299-.076685-.0151299-.0265394 0-.0523386.00508661-.0766732.015126-.00601969.00248819-.0128976.00180709-.0183189-.00182677-.00541732-.00362598-.00867323-.00971654-.00867323-.0162362v-.0770472c0-.0256654.0208819-.0465472.0465472-.0465472h.113161c.0262638 0 .0476299.0213661.0476299.0476299v.0759685c0 .00651969-.00325197.0126102-.00867323.0162362-.00326378.00218504-.00705512.00330315-.0108661.00330315zm-.0841339-.055685c.0220472 0 .0436732.00294094.0645945.00877953v-.0486063c0-.00463386-.00391339-.00854724-.00855118-.00854724h-.113161c-.00404724 0-.0074685.00341732-.0074685.00746457v.049685c.0209173-.00583071.0425394-.00877559.0645866-.00877559z"/><path d="m.532831 1.27881h-.0981378c-.0107874 0-.0195394-.00874803-.0195394-.0195394v-.149917c0-.0107913.00875197-.0195433.0195394-.0195433h.0981378c.0107913 0 .0195433.00875197.0195433.0195433v.149917c-.00000394.0107913-.00875197.0195394-.0195433.0195394zm-.0785984-.0390787h.0590591v-.110839h-.0590591z"/><path d="m1.26482 1.09925c0 .11102.090315.201335.201331.201335.11102 0 .201335-.090315.201335-.201335 0-.111012-.090315-.201331-.201335-.201331-.027126 0-.0530197.0053937-.0766575.0151614-.0731024.0302126-.124673.10228-.124673.186169zm.0936339.00000394c0 .0107874-.00874803.0195394-.0195394.0195394-.0107874 0-.0195394-.00875197-.0195394-.0195394 0-.0809331.0658425-.146776.146776-.146776.0107874 0 .0195394.00875197.0195394.0195433 0 .0107874-.00875197.0195394-.0195394.0195394-.0593819 0-.107697.048311-.107697.107693z" fill="#47568c"/><path d="m1.46615.858839c.0220472 0 .0436732.00294094.0645945.00877953v-.0486063c0-.00463386-.00391339-.00854724-.00855118-.00854724h-.0560433-.0571181c-.00404724 0-.0074685.00341732-.0074685.00746457l.00001181.0497205c.0205551-.00574016.0422126-.00880709.0645748-.00881102z" fill="#b5ced3"/><path d="m1.2601.743094.16366-.460905-.540508.452657.009968.025453z" fill="#ff9100"/><path d="m.483764 1.32698c-.0180394 0-.0336575.0105787-.0409724.0258543h.0819409c-.00731496-.0152795-.0229291-.0258543-.0409685-.0258543z" fill="#fed843"/><path d="m.749657 1.32698c-.0180394 0-.0336575.0105787-.0409724.0258543h.0409724c.0107874 0 .0195394.00874803.0195394.0195394 0 .0107874-.00874803.0195394-.0195394.0195394h-.0409685c.00731496.0152756.0229291.0258504.0409685.0258504.0250276 0 .0453937-.0203622.0453937-.0453937 0-.0250276-.0203661-.0453898-.0453937-.0453898z" fill="#fed843"/><path d="m.483764 1.41776c.0180354 0 .0336496-.0105748.0409685-.0258504h-.0819409c.00731496.0152756.0229331.0258504.0409724.0258504z" fill="#fed843"/><g fill="#47568c"><path d="m.656091 1.23973.054952.00001v-.11084h-.054952z"/><path d="m.617016 1.23974v-.11084h-.064642v.11083z"/><path d="m.513291 1.23974v-.11084h-.059059v.11084z"/></g><path d="m.527059.826461.24078.156429.142118.00051181v-.0732047l-.0925118-.236217h-.279016l-.0235.149323.0121299.00315748zm.115823-.0101693.0975394-.0975394c.00763386-.00762992.0200039-.00762992.0276339 0 .00762992.00762992.00762992.0200039 0 .0276339l-.0975394.0975394c-.00381496.00381496-.00881496.00572047-.013815.00572047-.00500394 0-.0100039-.00190551-.0138189-.00572047-.00762992-.00762992-.00762992-.0200039 0-.0276339zm.131823-.0246457c.00763386-.00762992.0200039-.00762992.0276339 0 .00762992.00762992.00762992.0200039 0 .0276339l-.0589331.0589291c-.00381102.00382283-.00881102.00572835-.013815.00572835-.005 0-.01-.00190945-.013815-.00572441-.00762992-.00762992-.00762992-.0200039 0-.0276339l.0589291-.0589331z" fill="#0cf"/><path d="m.929492 1.1289h-.891465c-.0107874 0-.0195394-.00875197-.0195394-.0195394v-.266512c0-.0107874.00875197-.0195394.0195394-.0195394h.47839c.00377559 0 .00747638.00109449.0106457.00315748l.24078.156429.161724.00058268c.0107638.00003937.0194685.00877559.0194685.0195433v.106339c-.00000394.0107913-.00875197.0195394-.0195433.0195394zm-.871921-.0390827h.852382v-.0673307l-.148008-.00053937c-.00375591-.00001181-.0074252-.00111024-.0105748-.00315748l-.240744-.156406h-.453055v.227433z"/><path d="m.730583 1.27881h-.493642c-.0107874 0-.0195394-.00874803-.0195394-.0195394v-.149917c0-.0107913.00875197-.0195433.0195394-.0195433h.493642c.0107913 0 .0195394.00875197.0195394.0195433v.149917c0 .0107913-.00875197.0195394-.0195394.0195394zm-.474102-.0390787h.454563v-.110839h-.454563z"/><path d="m.851413 1.505h-.735299c-.0496299 0-.09-.0403701-.09-.09v-.0852756c0-.049622.0403701-.0899961.09-.0899961h.735299c.049622 0 .0899961.0403701.0899961.0899961v.0852756c0 .0496299-.040374.09-.0899961.09zm-.735299-.226189c-.0280787 0-.0509213.0228425-.0509213.0509173v.0852756c0 .0280787.0228425.0509213.0509213.0509213h.735299c.0280748 0 .0509173-.0228425.0509173-.0509213v-.0852756c0-.0280748-.0228425-.0509173-.0509173-.0509173z"/><path d="m.21787 1.45684c-.0465787 0-.0844724-.0378976-.0844724-.0844724 0-.0465787.0378937-.0844724.0844724-.0844724s.0844724.0378937.0844724.0844724c0 .0465748-.0378937.0844724-.0844724.0844724zm0-.129866c-.0250315 0-.0453937.0203622-.0453937.0453898 0 .0250354.0203622.0453937.0453937.0453937s.0453937-.0203622.0453937-.0453937c0-.0250276-.0203622-.0453898-.0453937-.0453898z"/><path d="m.123413 1.04718c-.0107874 0-.0195394-.00874803-.0195394-.0195394v-.103075c0-.0107874.00875197-.0195394.0195394-.0195394.0107913 0 .0195394.00875197.0195394.0195394v.103075c0 .0107913-.00874803.0195394-.0195394.0195394z"/><path d="m.226484 1.04718c-.0107913 0-.0195394-.00874803-.0195394-.0195394v-.103075c0-.0107874.00874803-.0195394.0195394-.0195394.0107913 0 .0195394.00875197.0195394.0195394v.103075c0 .0107913-.00874803.0195394-.0195394.0195394z"/><path d="m.329559 1.04718c-.0107874 0-.0195394-.00874803-.0195394-.0195394v-.103075c0-.0107874.00875197-.0195394.0195394-.0195394.0107913 0 .0195433.00875197.0195433.0195394v.103075c0 .0107913-.00874803.0195394-.0195433.0195394z"/><path d="m.749657 1.39191h-.531787c-.0107874 0-.0195394-.00875197-.0195394-.0195394 0-.0107913.00875197-.0195394.0195394-.0195394h.531787c.0107874 0 .0195394.00874803.0195394.0195394 0 .0107874-.00874803.0195394-.0195394.0195394z"/><path d="m.859941.748429c-.00558268 0-.011122-.00237795-.0149882-.00699606-.00692913-.00827165-.00583858-.0205984.00243307-.0275276l.606217-.507689c.00827953-.00692126.0205945-.00584252.0275276.00243701.00692913.00827559.00583858.0205984-.00243307.0275276l-.606217.507689c-.00366142.00306299-.00811024.00455906-.0125394.00455906z"/><path d="m.880122.800016c-.010374 0-.0190118-.00815354-.0195039-.018626-.00050394-.0107795.00782283-.0199291.0186024-.0204331l.380878-.0178622.187642-.528433c.00361024-.0101654.0147756-.0154803.0249528-.011874.0101654.00361024.0154843.0147835.011874.0249528l-.192035.540799c-.00265354.00747638-.00957087.0126102-.0175.0129764l-.39398.0184764c-.00031102.00001575-.00062598.00002362-.00092913.00002362z"/><path d="m1.33643 1.505h-1.31679c-.0107874 0-.0195394-.00874803-.0195394-.0195394 0-.0107913.00875197-.0195394.0195394-.0195394h1.31679c.0107913 0 .0195433.00874803.0195433.0195394 0 .0107913-.00875197.0195394-.0195433.0195394z"/><path d="m.636551 1.27881h-.305579c-.0107874 0-.0195394-.00874803-.0195394-.0195394v-.149917c0-.0107913.00875197-.0195433.0195394-.0195433h.305579c.0107913 0 .0195394.00875197.0195394.0195433v.149917c0 .0107913-.00874409.0195394-.0195394.0195394zm-.286035-.0390787h.2665v-.110839h-.2665z"/><path d="m.532831 1.08981h.10372.0940315.17937v-.0673307l-.148008-.00053937c-.00375591-.00001181-.0074252-.00111024-.0105748-.00315748l-.240744-.156406h-.00879134c-.00314567.00020472-.00670472.00037795-.0102677 0h-.433996v.227433h.17937.0940315.10372.0981378zm-.0806535-.0621772c0 .0107913-.00874803.0195394-.0195394.0195394-.0107913 0-.0195433-.00874803-.0195433-.0195394v-.103075c0-.0107874.00875197-.0195394.0195433-.0195394.0107874 0 .0195394.00875197.0195394.0195394zm-.103075 0c0 .0107913-.00874803.0195394-.0195433.0195394-.0107874 0-.0195394-.00874803-.0195394-.0195394v-.103075c0-.0107874.00875197-.0195394.0195394-.0195394.0107913 0 .0195433.00875197.0195433.0195394zm-.103079 0c0 .0107913-.00874803.0195394-.0195394.0195394-.0107913 0-.0195394-.00874803-.0195394-.0195394v-.103075c0-.0107874.00874803-.0195394.0195394-.0195394.0107913 0 .0195394.00875197.0195394.0195394zm-.103071 0c0 .0107913-.00874803.0195394-.0195394.0195394-.0107874 0-.0195394-.00874803-.0195394-.0195394v-.103075c0-.0107874.00875197-.0195394.0195394-.0195394.0107913 0 .0195394.00875197.0195394.0195394z" fill="#fed843"/><path d="m.258843 1.35283c-.00731496-.0152756-.0229331-.0258543-.0409724-.0258543-.0250315 0-.0453937.0203622-.0453937.0453898 0 .0250354.0203622.0453937.0453937.0453937.0180394 0 .0336535-.0105748.0409685-.0258504h-.0409685c-.0107874 0-.0195394-.00875197-.0195394-.0195394 0-.0107913.00875197-.0195394.0195394-.0195394z" fill="#fed843"/><path d="m.565957 1.35283h.101508c.00884252-.037189.0423386-.0649331.0821929-.0649331.0465748 0 .0844724.0378937.0844724.0844724 0 .0465748-.0378937.0844724-.0844724.0844724-.0398583 0-.0733504-.0277441-.0821929-.0649331h-.101508c-.00884252.037185-.0423386.0649331-.0821929.0649331-.0398583 0-.0733543-.027748-.0821969-.0649331h-.101504c-.00884252.037185-.0423386.0649331-.0821929.0649331-.0465787 0-.0844724-.0378976-.0844724-.0844724 0-.0465787.0378937-.0844724.0844724-.0844724.0398543 0 .0733504.0277441.0821929.0649331h.101504c.00884252-.037189.0423386-.0649331.0821969-.0649331.0398543 0 .0733504.0277441.0821929.0649331zm-.449843.113098h.735299l.0006378-.00000394c.0277835-.00034252.0502795-.0230512.0502795-.0509173v-.0852756c0-.0280748-.0228425-.0509173-.0509173-.0509173h-.120831-.0940315-.10372-.0981378-.10372-.0940315-.120827c-.0280787 0-.0509213.0228425-.0509213.0509173v.0852756c0 .0278661.0224961.0505748.0502835.0509173l.0006378.00000394z" fill="#deecf1"/><path d="m.415154 1.23974v-.11084h-.064638v.11084z" fill="#47568c"/><path d="m.311433 1.23974v-.11084h-.054953v.11084z" fill="#47568c"/></g></svg>