<svg enable-background="new 0 0 520 520" height="512" viewBox="0 0 520 520" width="512" xmlns="http://www.w3.org/2000/svg"><g id="_x31_61_x2C__Home_x2C__Living_x2C__Sofa_x2C__Image"><g><g><path d="m220.5 39.999v146.959 3.041h79.66 150.34v-32.221-117.779z" fill="#ecf0f1"/><path d="m450.5 157.778v32.221h-150.34l25.04-31.581 62.17-78.419z" fill="#70993f"/><path d="m324.31 157.708.89.71-25.04 31.581h-79.66v-3.041l66.41-66.959z" fill="#80af52"/><path d="m315.5 69.999c8.28 0 15 6.71 15 15 0 8.28-6.72 15-15 15-8.29 0-15-6.72-15-15 0-8.291 6.71-15 15-15z" fill="#fcd884"/><path d="m94.55 149.999h25.45l20 80h-30-30-50l20-80z" fill="#a0cecb"/><path d="m410 429.998v50h-20l-20-50z" fill="#414a56"/><path d="m200 429.998-20 50h-20v-50z" fill="#414a56"/><g fill="#d7deed"><path d="m212.43 328.789-21.22 21.209-21.21-21.209 21.21-21.221z"/><path d="m278.79 307.568 21.21 21.221-21.21 21.209-21.22-21.209z"/><path d="m378.79 307.568 21.21 21.221-21.21 21.209-21.22-21.209z"/></g><path d="m430 363.318-8 26.68h-92v-25c0-8.289 6.72-15 15-15h33.79 51.21z" fill="#afb9d2"/><path d="m330 364.998v25h-100v-25c0-8.289 6.72-15 15-15h33.79 36.21c8.28 0 15 6.711 15 15z" fill="#d7deed"/><path d="m230 364.998v25h-82l-8-26.68v-13.32h51.21 23.79c8.28 0 15 6.711 15 15z" fill="#afb9d2"/><path d="m345 349.998c-8.28 0-15 6.711-15 15 0-8.289-6.72-15-15-15h-36.21l21.21-21.209-21.21-21.221-21.22 21.221 21.22 21.209h-33.79c-8.28 0-15 6.711-15 15 0-8.289-6.72-15-15-15h-23.79l21.22-21.209-21.22-21.221-21.21 21.221 21.21 21.209h-51.21v-49.5c0-16.85 13.66-30.5 30.5-30.5h229c16.84 0 30.5 13.65 30.5 30.5v49.5h-51.21l21.21-21.209-21.21-21.221-21.22 21.221 21.22 21.209z" fill="#414a56"/><path d="m454.25 329.998c12.83 0 22.04 12.371 18.35 24.66l-22.6 75.34h-40-40-170-40-40l-22.6-75.34c-.56-1.859-.82-3.719-.82-5.539 0-10.211 8.27-19.121 19.17-19.121 8.46 0 15.91 5.551 18.35 13.65l5.9 19.67 8 26.68h82 100 92l8-26.68 5.9-19.67c1.22-4.051 3.689-7.459 6.909-9.859 3.231-2.4 7.211-3.791 11.441-3.791z" fill="#57606f"/><path d="m479.95 268.998c.03.34.05.68.05 1.01 0 5.08-3.85 9.42-9 9.941-.34.029-.68.049-1.01.049-5.08 0-9.42-3.85-9.94-9.01-.03-.34-.05-.67-.05-1.01 0-5.07 3.85-9.41 9.01-9.93 5.49-.55 10.39 3.46 10.94 8.95z"/><path d="m359.95 218.999c.03.34.05.68.05 1.01 0 5.08-3.85 9.42-9.01 9.94-.34.03-.67.05-1.01.05-5.07 0-9.41-3.85-9.931-9.01-.03-.34-.05-.67-.05-1.01 0-5.07 3.85-9.41 9-9.93 5.501-.55 10.401 3.459 10.951 8.95z"/><path d="m259.95 238.999c.03.34.05.68.05 1.01 0 5.08-3.85 9.42-9 9.94-.34.03-.68.05-1.01.05-5.08 0-9.42-3.85-9.94-9.01-.03-.34-.05-.67-.05-1.01 0-5.07 3.85-9.41 9.01-9.93 5.49-.55 10.39 3.459 10.94 8.95z"/><path d="m179.9 108.008c.03.34.05.67.05 1.01 0 5.07-3.85 9.41-9 9.93-.34.03-.68.05-1.01.05-5.08 0-9.42-3.85-9.94-9-.03-.34-.05-.68-.05-1.01 0-5.08 3.85-9.42 9.01-9.94 5.49-.549 10.39 3.46 10.94 8.96z"/><path d="m139.9 48.008c.03.34.05.67.05 1.01 0 5.07-3.85 9.41-9 9.93-.34.03-.68.05-1.01.05-5.08 0-9.42-3.85-9.94-9-.03-.34-.05-.68-.05-1.01 0-5.08 3.85-9.42 9.01-9.94 5.49-.549 10.39 3.46 10.94 8.96z"/><path d="m79.95 98.999c.03.34.05.68.05 1.01 0 5.08-3.85 9.42-9.01 9.94-.34.03-.67.05-1.01.05-5.07 0-9.41-3.85-9.93-9.01-.03-.34-.05-.67-.05-1.01 0-5.07 3.85-9.41 9-9.93 5.5-.55 10.4 3.459 10.95 8.95z"/><path d="m230 374.998c-5.523 0-10-4.477-10-10 0-2.756-2.243-5-5-5h-65v3.32c0 5.523-4.477 10-10 10s-10-4.477-10-10v-13.32c0-5.521 4.477-10 10-10h75c13.785 0 25 11.215 25 25 0 5.523-4.477 10-10 10z"/><path d="m230 399.998c-5.523 0-10-4.477-10-10v-25c0-13.785 11.215-25 25-25h70c13.785 0 25 11.215 25 25 0 5.523-4.478 10-10 10s-10-4.477-10-10c0-2.756-2.243-5-5-5h-70c-2.757 0-5 2.244-5 5v25c0 5.523-4.477 10-10 10z"/><path d="m330 399.998c-5.522 0-10-4.477-10-10v-25c0-13.785 11.215-25 25-25h85c5.522 0 10 4.479 10 10v13.32c0 5.523-4.478 10-10 10s-10-4.477-10-10v-3.32h-75c-2.757 0-5 2.244-5 5v25c0 5.523-4.478 10-10 10z"/><path d="m430 359.998c-5.522 0-10-4.477-10-10v-49.5c0-11.303-9.196-20.5-20.5-20.5h-229c-11.304 0-20.5 9.197-20.5 20.5v49.5c0 5.523-4.477 10-10 10s-10-4.477-10-10v-49.5c0-22.332 18.168-40.5 40.5-40.5h229c22.332 0 40.5 18.168 40.5 40.5v49.5c0 5.523-4.478 10-10 10z"/><path d="m370 439.998h-170c-5.523 0-10-4.477-10-10 0-5.521 4.477-10 10-10h170c5.522 0 10 4.479 10 10 0 5.523-4.478 10-10 10z"/><path d="m450 439.998h-40c-5.522 0-10-4.477-10-10 0-5.521 4.478-10 10-10h32.56l20.462-68.213c.841-2.799.322-5.748-1.422-8.094-1.746-2.346-4.425-3.693-7.35-3.693-1.983 0-3.877.629-5.477 1.816-1.579 1.178-2.725 2.813-3.298 4.717l-13.896 46.34c-1.269 4.23-5.162 7.127-9.579 7.127h-274c-4.417 0-8.31-2.896-9.579-7.127l-13.9-46.35c-1.174-3.896-4.7-6.523-8.771-6.523-5.664 0-9.17 4.734-9.17 9.121 0 .891.133 1.785.396 2.656l20.465 68.223h32.559c5.523 0 10 4.479 10 10 0 5.523-4.477 10-10 10h-40c-4.416 0-8.31-2.896-9.578-7.127l-22.6-75.34c-.823-2.732-1.242-5.566-1.242-8.412 0-16.057 13.085-29.121 29.17-29.121 12.961 0 24.184 8.346 27.925 20.768l11.766 39.232h259.117l11.764-39.223c1.821-6.051 5.455-11.234 10.511-15.004 5.087-3.779 11.105-5.773 17.417-5.773 9.312 0 17.839 4.285 23.396 11.758 5.556 7.469 7.207 16.865 4.53 25.779l-22.599 75.336c-1.267 4.231-5.161 7.127-9.577 7.127z"/><path d="m191.21 359.998c-2.56 0-5.118-.977-7.071-2.928l-21.21-21.211c-3.904-3.904-3.905-10.234-.001-14.141l21.21-21.219c1.875-1.877 4.419-2.932 7.072-2.932 2.652 0 5.196 1.055 7.072 2.93l21.22 21.219c1.876 1.877 2.93 4.42 2.929 7.072s-1.055 5.197-2.931 7.072l-21.22 21.211c-1.953 1.952-4.512 2.927-7.07 2.927zm-7.069-31.211 7.071 7.07 7.075-7.07-7.075-7.074z"/><path d="m278.79 359.998c-2.559 0-5.117-.975-7.069-2.928l-21.22-21.209c-1.876-1.875-2.93-4.42-2.931-7.072s1.053-5.195 2.929-7.072l21.22-21.219c1.876-1.875 4.419-2.93 7.071-2.93h.001c2.652 0 5.196 1.055 7.071 2.932l21.21 21.219c3.904 3.906 3.903 10.236-.001 14.141l-21.21 21.211c-1.953 1.95-4.511 2.927-7.071 2.927zm-7.076-31.211 7.074 7.07 7.071-7.07-7.071-7.074z"/><path d="m378.79 359.998c-2.559 0-5.117-.975-7.069-2.928l-21.22-21.209c-1.876-1.875-2.931-4.42-2.931-7.072s1.054-5.195 2.929-7.072l21.22-21.219c1.876-1.875 4.419-2.93 7.071-2.93h.001c2.652 0 5.196 1.055 7.071 2.932l21.21 21.219c3.904 3.906 3.903 10.236-.001 14.141l-21.21 21.211c-1.953 1.95-4.511 2.927-7.071 2.927zm-7.076-31.211 7.074 7.07 7.071-7.07-7.071-7.074z"/><path d="m179.997 490.002c-1.237 0-2.493-.23-3.711-.719-3.855-1.543-6.222-5.215-6.288-9.123-.086 5.449-4.53 9.838-9.999 9.838-5.523 0-10-4.477-10-10v-50c0-5.521 4.477-10 10-10h40c3.318 0 6.42 1.646 8.281 4.395s2.236 6.238 1.004 9.32l-20 50c-1.563 3.91-5.319 6.287-9.287 6.289zm-9.997-50.004v39.768c.027-1.162.258-2.338.715-3.48l14.514-36.287h-15.229z"/><path d="m390.003 490.002c-3.969 0-7.724-2.379-9.288-6.289l-20-50c-1.232-3.082-.855-6.572 1.005-9.32s4.962-4.395 8.28-4.395h40c5.522 0 10 4.479 10 10v50c0 5.523-4.478 10-10 10-5.469 0-9.912-4.389-9.999-9.838-.064 3.908-2.432 7.58-6.287 9.123-1.218.487-2.475.719-3.711.719zm-5.232-50.004 14.515 36.287c.457 1.143.688 2.318.715 3.48v-39.768h-15.23z"/><path d="m490 489.998h-460c-5.523 0-10-4.477-10-10 0-5.521 4.477-10 10-10h460c5.522 0 10 4.479 10 10 0 5.523-4.478 10-10 10z"/><path d="m140.02 239.999c-.007 0-.012.001-.02 0h-110c-3.08 0-5.987-1.419-7.882-3.846-1.896-2.427-2.566-5.592-1.82-8.58l20-80c1.113-4.452 5.113-7.575 9.702-7.575h70c4.589 0 8.588 3.123 9.702 7.575l19.84 79.36c.311.966.479 1.996.479 3.065-.001 5.523-4.478 10.001-10.001 10.001zm-97.212-20h84.385l-15-60h-54.385z"/><path d="m96.58 189.999c-5.214 0-9.608-4.042-9.967-9.322l-2.04-30c-.375-5.51 3.789-10.28 9.299-10.655 5.497-.381 10.28 3.788 10.655 9.299l2.04 30c.375 5.51-3.789 10.28-9.299 10.655-.23.015-.46.023-.688.023z"/><path d="m80 489.998c-5.523 0-10-4.477-10-10v-250c0-5.523 4.477-10 10-10s10 4.477 10 10v250c0 5.523-4.477 10-10 10z"/><path d="m110 269.998c-5.523 0-10-4.477-10-10v-30c0-5.523 4.477-10 10-10s10 4.477 10 10v30c0 5.523-4.477 10-10 10z"/><path d="m450.5 199.999c-5.522 0-10-4.477-10-10v-140h-210v140c0 5.523-4.477 10-10 10s-10-4.477-10-10v-150c0-5.523 4.477-10 10-10h230c5.522 0 10 4.477 10 10v150c0 5.522-4.478 10-10 10z"/><path d="m300.154 197.459c-2.215 0-4.443-.732-6.297-2.236-4.287-3.481-4.942-9.779-1.461-14.066l18.491-22.78-23.978-24.177-59.839 60.331c-3.905 3.905-10.237 3.905-14.143 0s-3.905-10.237 0-14.143l.5-.5 66.381-66.931c1.878-1.893 4.435-2.958 7.101-2.958 2.667 0 5.223 1.065 7.101 2.958l37.399 37.71c3.596 3.626 3.882 9.379.663 13.344l-24.149 29.75c-1.975 2.434-4.86 3.698-7.769 3.698z"/><path d="m300.153 199.999c-2.177 0-4.368-.708-6.206-2.165-4.328-3.432-5.054-9.721-1.623-14.049l87.21-110c1.884-2.377 4.745-3.77 7.778-3.788h.058c3.013 0 5.865 1.358 7.765 3.698l63.13 77.78c3.48 4.288 2.825 10.585-1.463 14.066-4.287 3.48-10.586 2.825-14.066-1.462l-55.273-68.101-79.466 100.232c-1.975 2.491-4.895 3.789-7.844 3.789z"/><path d="m315.5 109.999c-13.785 0-25-11.215-25-25s11.215-25 25-25 25 11.215 25 25-11.215 25-25 25zm0-30c-2.757 0-5 2.243-5 5s2.243 5 5 5 5-2.243 5-5-2.243-5-5-5z"/><path d="m470 199.999h-270c-5.523 0-10-4.477-10-10s4.477-10 10-10h270c5.522 0 10 4.477 10 10s-4.478 10-10 10z"/><path d="m410 169.999c-2.56 0-5.118-.976-7.071-2.929l-10-10c-3.905-3.905-3.905-10.237 0-14.143 3.906-3.905 10.236-3.905 14.143 0l10 10c3.905 3.905 3.905 10.237 0 14.143-1.954 1.952-4.512 2.929-7.072 2.929z"/></g></g></g></svg>