<svg id="Layer_1" enable-background="new 0 0 512 512" height="512" viewBox="0 0 512 512" width="512" xmlns="http://www.w3.org/2000/svg"><g id="dumpster_2"><circle cx="85.334" cy="437.321" fill="#656d78" r="31.999"/><path d="m85.334 479.991c-23.53 0-42.67-19.141-42.67-42.67 0-23.514 19.14-42.654 42.67-42.654 23.515 0 42.67 19.141 42.67 42.654.001 23.53-19.154 42.67-42.67 42.67zm0-63.996c-11.765 0-21.327 9.561-21.327 21.326s9.562 21.344 21.327 21.344c11.766 0 21.328-9.578 21.328-21.344s-9.562-21.326-21.328-21.326z" fill="#434a54"/><circle cx="426.65" cy="437.321" fill="#656d78" r="31.999"/><g fill="#434a54"><path d="m426.65 479.991c-23.53 0-42.655-19.141-42.655-42.67 0-23.514 19.125-42.654 42.655-42.654 23.529 0 42.67 19.141 42.67 42.654 0 23.53-19.14 42.67-42.67 42.67zm0-63.996c-11.766 0-21.327 9.561-21.327 21.326s9.562 21.344 21.327 21.344c11.764 0 21.342-9.578 21.342-21.344s-9.578-21.326-21.342-21.326z"/><path d="m77.788 429.79c-4.156 4.156-4.156 10.906 0 15.078 4.172 4.172 10.921 4.172 15.093 0 4.156-4.172 4.156-10.922 0-15.078-4.172-4.172-10.921-4.172-15.093 0z"/><path d="m434.195 429.79c4.172 4.156 4.172 10.906 0 15.078s-10.92 4.172-15.092 0c-4.156-4.172-4.156-10.922 0-15.078 4.172-4.172 10.92-4.172 15.092 0z"/></g><g fill="#aab2bc"><path d="m128.005 383.995h-53.342c-5.891 0-10.656 4.781-10.656 10.672v31.998c0 5.891 4.765 10.656 10.656 10.656h21.343c2.828 0 5.531-1.125 7.531-3.125l31.999-31.998c3.047-3.047 3.969-7.641 2.312-11.625s-5.531-6.578-9.843-6.578z"/><path d="m437.32 383.995h-53.325c-4.328 0-8.219 2.594-9.859 6.578-1.656 3.984-.734 8.578 2.312 11.625l32 31.998c2 2 4.702 3.125 7.546 3.125h21.326c5.891 0 10.672-4.766 10.672-10.656v-31.998c0-5.891-4.781-10.672-10.672-10.672z"/></g><path d="m479.991 106.678h-447.982c-5.906 0-10.672 4.766-10.672 10.656v277.333c0 5.891 4.766 10.656 10.672 10.656h447.982c5.875 0 10.656-4.766 10.656-10.656v-277.334c0-5.89-4.781-10.655-10.656-10.655z" fill="#967adc"/><g opacity=".1"><g><path d="m405.323 138.676c-5.891 0-10.672-4.781-10.672-10.671v-10.671c0-5.89 4.781-10.656 10.672-10.656s10.655 4.766 10.655 10.656v10.671c.001 5.891-4.764 10.671-10.655 10.671z" fill="#080808"/></g><g><path d="m447.992 138.676c-5.906 0-10.672-4.781-10.672-10.671v-10.671c0-5.89 4.766-10.656 10.672-10.656 5.875 0 10.656 4.766 10.656 10.656v10.671c0 5.891-4.781 10.671-10.656 10.671z" fill="#080808"/></g><g><path d="m362.651 138.676c-5.89 0-10.671-4.781-10.671-10.671v-10.671c0-5.89 4.781-10.656 10.671-10.656 5.891 0 10.672 4.766 10.672 10.656v10.671c0 5.891-4.781 10.671-10.672 10.671z" fill="#080808"/></g><g><path d="m319.997 138.676c-5.906 0-10.671-4.781-10.671-10.671v-10.671c0-5.89 4.765-10.656 10.671-10.656 5.875 0 10.656 4.766 10.656 10.656v10.671c0 5.891-4.781 10.671-10.656 10.671z" fill="#080808"/></g><g><path d="m277.328 138.676c-5.891 0-10.672-4.781-10.672-10.671v-10.671c0-5.89 4.781-10.656 10.672-10.656 5.89 0 10.671 4.766 10.671 10.656v10.671c0 5.891-4.781 10.671-10.671 10.671z" fill="#080808"/></g><g><path d="m234.657 138.676c-5.89 0-10.671-4.781-10.671-10.671v-10.671c0-5.89 4.781-10.656 10.671-10.656 5.891 0 10.672 4.766 10.672 10.656v10.671c0 5.891-4.782 10.671-10.672 10.671z" fill="#080808"/></g><g><path d="m192.002 138.676c-5.906 0-10.672-4.781-10.672-10.671v-10.671c0-5.89 4.766-10.656 10.672-10.656 5.89 0 10.656 4.766 10.656 10.656v10.671c0 5.891-4.765 10.671-10.656 10.671z" fill="#080808"/></g><g><path d="m149.332 138.676c-5.89 0-10.671-4.781-10.671-10.671v-10.671c0-5.89 4.781-10.656 10.671-10.656 5.891 0 10.672 4.766 10.672 10.656v10.671c0 5.891-4.781 10.671-10.672 10.671z" fill="#080808"/></g><g><path d="m106.662 138.676c-5.891 0-10.656-4.781-10.656-10.671v-10.671c0-5.89 4.765-10.656 10.656-10.656s10.671 4.766 10.671 10.656v10.671c0 5.891-4.78 10.671-10.671 10.671z" fill="#080808"/></g><g><path d="m64.007 138.676c-5.906 0-10.671-4.781-10.671-10.671v-10.671c0-5.89 4.766-10.656 10.671-10.656 5.89 0 10.656 4.766 10.656 10.656v10.671c0 5.891-4.766 10.671-10.656 10.671z" fill="#080808"/></g></g><path d="m458.648 32.009h-405.312c-5.89 0-10.671 4.781-10.671 10.671v31.999c0 5.891 4.781 10.656 10.671 10.656h405.312c5.891 0 10.672-4.766 10.672-10.656v-31.999c0-5.89-4.781-10.671-10.672-10.671z" fill="#656d78"/><g><path d="m319.997 74.679h-127.995c-5.906 0-10.672-4.781-10.672-10.671s4.766-10.671 10.672-10.671h127.995c5.875 0 10.656 4.781 10.656 10.671 0 5.889-4.781 10.671-10.656 10.671z" fill="#434a54"/></g><path d="m96.006 319.997c-5.906 0-10.672 4.781-10.672 10.672v74.654h21.328v-74.654c0-5.891-4.781-10.672-10.656-10.672z" fill="#080808" opacity=".1"/><path d="m415.994 319.997c-5.905 0-10.671 4.781-10.671 10.672v74.654h21.327v-74.654c0-5.891-4.781-10.672-10.656-10.672z" fill="#080808" opacity=".1"/><path d="m501.318 64.007h-490.652c-5.891 0-10.656 4.781-10.656 10.671v42.655c0 5.891 4.765 10.671 10.656 10.671h490.653c5.891 0 10.672-4.781 10.672-10.671v-42.654c-.001-5.891-4.782-10.672-10.673-10.672z" fill="#ac92eb"/></g></svg>