<?xml version="1.0" encoding="UTF-8" standalone="no"?>
<!-- Created with Inkscape (http://www.inkscape.org/) -->

<svg
   version="1.1"
   id="svg5160"
   xml:space="preserve"
   width="682.66669"
   height="682.66669"
   viewBox="0 0 682.66669 682.66669"
   xmlns="http://www.w3.org/2000/svg"
   xmlns:svg="http://www.w3.org/2000/svg"><defs
     id="defs5164"><clipPath
       clipPathUnits="userSpaceOnUse"
       id="clipPath5174"><path
         d="M 0,512 H 512 V 0 H 0 Z"
         id="path5172" /></clipPath></defs><g
     id="g5166"
     transform="matrix(1.3333333,0,0,-1.3333333,0,682.66667)"><g
       id="g5168"><g
         id="g5170"
         clip-path="url(#clipPath5174)"><g
           id="g5176"
           transform="translate(438.0273,402.6265)"><path
             d="m 0,0 -44.844,44.845 c -7.37,7.399 -19.474,7.399 -26.844,0 L -87.166,29.368 c -16.526,9.808 -34.526,17.348 -53.603,22.224 v 21.884 c 0,10.432 -8.561,18.964 -18.992,18.964 h -63.411 c -10.46,0 -18.993,-8.532 -18.993,-18.964 V 51.592 c -19.077,-4.876 -37.077,-12.416 -53.603,-22.224 l -15.477,15.477 c -7.399,7.399 -19.474,7.399 -26.844,0 L -382.934,0 c -7.398,-7.37 -7.398,-19.446 0,-26.845 l 15.478,-15.478 c -9.808,-16.526 -17.348,-34.527 -22.224,-53.604 h -21.883 c -10.432,0 -18.964,-8.533 -18.964,-18.993 v -63.413 c 0,-10.432 8.532,-18.993 18.964,-18.993 h 21.883 c 4.876,-19.077 12.416,-37.078 22.224,-53.604 l -15.478,-15.478 c -7.398,-7.37 -7.398,-19.475 0,-26.845 l 44.845,-44.845 c 7.37,-7.399 19.445,-7.399 26.844,0 l 15.477,15.477 c 16.526,-9.808 34.526,-17.348 53.603,-22.224 v -21.884 c 0,-10.432 8.533,-18.964 18.993,-18.964 h 63.411 c 10.431,0 18.992,8.532 18.992,18.964 v 21.884 c 13.493,3.458 26.476,8.249 38.778,14.23 l 136.347,134.197 c 7.654,2.438 13.238,9.638 13.238,18.085 v 63.413 c 0,10.46 -8.532,18.993 -18.964,18.993 H 6.747 C 1.871,-76.85 -5.669,-58.849 -15.477,-42.323 L 0,-26.845 C 7.398,-19.446 7.398,-7.37 0,0"
             style="fill:#375e7d;fill-opacity:1;fill-rule:evenodd;stroke:none"
             id="path5178" /></g><g
           id="g5180"
           transform="translate(485.6211,224.2935)"><path
             d="m 0,0 v 63.413 c 0,10.46 -8.532,18.993 -18.964,18.993 h -21.883 c -4.876,19.077 -12.416,37.078 -22.224,53.604 l 15.477,15.478 c 7.399,7.399 7.399,19.475 0,26.845 l -44.844,44.845 c -7.37,7.399 -19.474,7.399 -26.844,0 l -15.477,-15.477 c -5.811,3.43 -11.764,6.605 -17.915,9.468 23.187,-35.151 38.778,-78.126 43.71,-125.153 8.504,-18.341 13.266,-38.751 13.266,-60.295 0,-9.582 -0.935,-18.908 -2.721,-27.951 17.716,-37.702 53.745,-30.7 85.181,-21.855 C -5.584,-15.647 0,-8.447 0,0"
             style="fill:#2b4d66;fill-opacity:1;fill-rule:evenodd;stroke:none"
             id="path5182" /></g><g
           id="g5184"
           transform="translate(276.2817,115.7231)"><path
             d="m 0,0 c 12.955,2.722 25.257,7.2 36.652,13.182 31.181,8.249 62.533,47.311 74.268,99.158 1.786,9.043 2.722,18.369 2.722,27.951 0,79.174 -64.177,143.353 -143.377,143.353 -79.172,0 -143.349,-64.179 -143.349,-143.353 0,-68.998 48.728,-126.599 113.642,-140.291 z"
             style="fill:#fec165;fill-opacity:1;fill-rule:evenodd;stroke:none"
             id="path5186" /></g><g
           id="g5188"
           transform="translate(389.9233,256.0142)"><path
             d="m 0,0 c 0,21.544 -4.762,41.954 -13.266,60.295 -17.717,38.155 -51.704,67.211 -93.062,78.238 41.499,-34.272 67.947,-86.091 67.947,-144.117 0,-14.684 -1.701,-28.999 -4.904,-42.691 17.064,-21.629 34.554,-0.567 40.564,20.324 C -0.936,-18.908 0,-9.582 0,0"
             style="fill:#fdb441;fill-opacity:1;fill-rule:evenodd;stroke:none"
             id="path5190" /></g><g
           id="g5192"
           transform="translate(327.6743,280.6196)"><path
             d="M 0,0 C 0,26.873 -13.663,50.713 -34.413,64.859 -56.183,79.741 -51.988,56.241 -51.988,52.301 V 5.159 c 0,-16.498 -12.926,-30.105 -29.14,-31.21 -16.214,1.105 -29.14,14.712 -29.14,31.21 v 47.142 c 0,3.94 4.224,27.44 -17.546,12.558 -20.75,-14.146 -34.414,-37.986 -34.414,-64.859 0,-33.648 21.459,-62.534 51.393,-73.618 v -91.278 c 9.581,-2.041 19.531,-3.09 29.707,-3.09 10.205,0 20.154,1.049 29.735,3.09 v 91.278 C -21.458,-62.534 0,-33.648 0,0"
             style="fill:#eff6ff;fill-opacity:1;fill-rule:evenodd;stroke:none"
             id="path5194" /></g><g
           id="g5196"
           transform="translate(276.2817,115.7231)"><path
             d="m 0,0 v 91.278 c 29.934,11.084 51.393,39.97 51.393,73.618 0,26.874 -13.664,50.714 -34.413,64.859 C 0.879,240.754 -1.021,230.747 -0.907,223.207 41.245,182.897 27.185,117.642 -27.978,97.175 V 0 -3.09 C -18.396,-2.976 -9.042,-1.899 0,0"
             style="fill:#d9eeff;fill-opacity:1;fill-rule:evenodd;stroke:none"
             id="path5198" /></g><g
           id="g5200"
           transform="translate(472.3833,206.208)"><path
             d="m 0,0 c -16.951,15.081 -39.288,24.265 -63.751,24.265 -7.371,0 -14.542,-0.822 -21.43,-2.41 -42.633,-9.722 -74.438,-47.878 -74.438,-93.46 0,-1.928 0.057,-3.827 0.17,-5.698 1.275,-21.686 9.751,-41.444 23.102,-56.893 17.575,-20.382 43.569,-33.28 72.596,-33.28 52.951,0 95.868,42.918 95.868,95.871 C 32.117,-43.145 19.701,-17.575 0,0"
             style="fill:#eff6ff;fill-opacity:1;fill-rule:evenodd;stroke:none"
             id="path5202" /></g><g
           id="g5204"
           transform="translate(408.6318,38.7319)"><path
             d="m 0,0 c 52.952,0 95.868,42.918 95.868,95.871 0,28.461 -12.416,54.03 -32.117,71.605 C 46.8,182.557 24.463,191.741 0,191.741 c -1.757,0 -3.515,-0.056 -5.272,-0.141 15.505,-3.77 29.508,-11.311 41.045,-21.573 2.637,-2.353 5.188,-4.876 7.569,-7.54 2.409,-2.665 4.677,-5.5 6.775,-8.447 C 61.285,138.363 67.862,119.172 67.862,98.45 67.862,47.255 27.78,5.443 -22.734,2.721 -15.449,0.964 -7.824,0 0,0 m 63.751,167.476 z"
             style="fill:#d9eeff;fill-opacity:1;fill-rule:evenodd;stroke:none"
             id="path5206" /></g><g
           id="g5208"
           transform="translate(454.3267,174.7993)"><path
             d="m 0,0 c -7.71,6.435 -19.219,5.414 -25.654,-2.268 l -30.954,-36.908 -10.063,8.532 c -7.625,6.463 -19.162,5.528 -25.654,-2.126 -6.463,-7.653 -5.528,-19.163 2.126,-25.654 l 24.01,-20.382 c 3.855,-3.259 8.305,-4.677 13.323,-4.252 5.017,0.425 9.184,2.58 12.415,6.463 l 42.69,50.941 C 8.702,-17.944 7.682,-6.435 0,0"
             style="fill:#3bc3a4;fill-opacity:1;fill-rule:evenodd;stroke:none"
             id="path5210" /></g><g
           id="g5212"
           transform="translate(413.876,98.2046)"><path
             d="m 0,0 42.69,50.94 c 6.463,7.711 5.442,19.22 -2.239,25.655 -2.608,2.182 -5.641,3.514 -8.76,3.996 2.637,-6.094 1.815,-13.465 -2.749,-18.907 l -42.69,-50.969 c -3.26,-3.855 -7.398,-6.009 -12.416,-6.434 -3.203,-0.284 -6.179,0.198 -8.9,1.417 l 9.325,-7.909 c 3.856,-3.26 8.306,-4.677 13.323,-4.252 C -7.398,-6.038 -3.231,-3.883 0,0"
             style="fill:#00a887;fill-opacity:1;fill-rule:evenodd;stroke:none"
             id="path5214" /></g><g
           id="g5216"
           transform="translate(336.0366,72.0117)"><path
             d="m 0,0 c -12.303,-5.981 -25.285,-10.772 -38.778,-14.23 v -21.884 c 0,-10.432 -8.561,-18.965 -18.993,-18.965 h -63.411 c -10.46,0 -18.992,8.533 -18.992,18.965 v 21.884 c -19.077,4.876 -37.077,12.416 -53.603,22.224 l -15.477,-15.477 c -7.399,-7.399 -19.475,-7.399 -26.845,0 l -44.844,44.845 c -7.398,7.37 -7.398,19.474 0,26.845 l 15.478,15.478 c -9.808,16.526 -17.348,34.526 -22.224,53.604 h -21.884 c -10.431,0 -18.964,8.561 -18.964,18.993 v 63.413 c 0,10.46 8.533,18.992 18.964,18.992 h 21.884 c 4.876,19.078 12.416,37.079 22.224,53.605 l -15.478,15.478 c -7.398,7.398 -7.398,19.475 0,26.845 l 44.844,44.845 c 7.37,7.399 19.446,7.399 26.845,0 l 15.477,-15.478 c 16.526,9.809 34.526,17.349 53.603,22.225 v 21.884 c 0,10.432 8.532,18.964 18.992,18.964 h 63.411 c 10.432,0 18.993,-8.532 18.993,-18.964 v -21.884 c 19.077,-4.876 37.077,-12.416 53.603,-22.225 l 15.477,15.478 c 7.37,7.399 19.474,7.399 26.844,0 l 44.845,-44.845 c 7.398,-7.37 7.398,-19.447 0,-26.845 L 86.514,288.292 c 9.807,-16.526 17.348,-34.527 22.223,-53.605 h 21.884 c 10.431,0 18.963,-8.532 18.963,-18.992 v -63.413 c 0,-8.448 -5.584,-15.648 -13.237,-18.086"
             style="fill:none;stroke:#000000;stroke-width:15;stroke-linecap:round;stroke-linejoin:round;stroke-miterlimit:10;stroke-dasharray:none;stroke-opacity:1"
             id="path5218" /></g><g
           id="g5220"
           transform="translate(152.8896,364.5278)"><path
             d="m 0,0 c -30.444,-26.278 -49.692,-65.142 -49.692,-108.514 0,-79.202 64.177,-143.381 143.349,-143.381 23.981,0 46.545,5.869 66.387,16.272 m 74.268,99.159 c 1.786,9.043 2.722,18.369 2.722,27.95 0,79.174 -64.177,143.353 -143.377,143.353 -24.322,0 -47.225,-6.067 -67.295,-16.754"
             style="fill:none;stroke:#000000;stroke-width:15;stroke-linecap:round;stroke-linejoin:round;stroke-miterlimit:10;stroke-dasharray:none;stroke-opacity:1"
             id="path5222" /></g><g
           id="g5224"
           transform="translate(216.8394,115.7231)"><path
             d="m 0,0 v 91.278 c -29.934,11.084 -51.393,39.97 -51.393,73.618 0,26.874 13.664,50.714 34.414,64.859 21.77,14.883 17.546,-8.617 17.546,-12.558 v -47.141 c 0,-16.498 12.926,-30.105 29.14,-31.211 16.214,1.106 29.14,14.713 29.14,31.211 v 47.141 c 0,3.941 -4.195,27.441 17.575,12.558 20.75,-14.145 34.413,-37.985 34.413,-64.859 0,-33.648 -21.459,-62.534 -51.393,-73.618 L 59.442,0"
             style="fill:none;stroke:#000000;stroke-width:15;stroke-linecap:round;stroke-linejoin:round;stroke-miterlimit:10;stroke-dasharray:none;stroke-opacity:1"
             id="path5226" /></g><g
           id="g5228"
           transform="translate(453.7314,49.9858)"><path
             d="m 0,0 c -13.437,-7.172 -28.8,-11.254 -45.1,-11.254 -52.951,0 -95.867,42.918 -95.867,95.871 0,52.952 42.916,95.87 95.867,95.87 52.952,0 95.869,-42.918 95.869,-95.87 0,-24.464 -9.185,-46.773 -24.265,-63.725"
             style="fill:none;stroke:#000000;stroke-width:15;stroke-linecap:round;stroke-linejoin:round;stroke-miterlimit:10;stroke-dasharray:none;stroke-opacity:1"
             id="path5230" /></g><g
           id="g5232"
           transform="translate(397.7187,135.623)"><path
             d="m 0,0 30.954,36.908 c 6.435,7.682 17.943,8.703 25.654,2.268 7.682,-6.435 8.702,-17.944 2.239,-25.654 l -42.69,-50.94 c -3.231,-3.884 -7.398,-6.039 -12.415,-6.463 -5.018,-0.426 -9.468,0.992 -13.324,4.252 l -24.009,20.381 c -7.654,6.492 -8.589,18.001 -2.126,25.655 6.491,7.654 18.029,8.589 25.654,2.126 z"
             style="fill:none;stroke:#000000;stroke-width:15;stroke-linecap:round;stroke-linejoin:round;stroke-miterlimit:10;stroke-dasharray:none;stroke-opacity:1"
             id="path5234" /></g></g></g></g></svg>
