<svg id="Layer_1" enable-background="new 0 0 66 66" height="512" viewBox="0 0 66 66" width="512" xmlns="http://www.w3.org/2000/svg"><g><circle cx="33" cy="33" fill="#5ac6ef" r="31"/><g><path d="m29.56 48.16h6.89v3.44h-6.89z" fill="#314252"/><path d="m31.63 51.6h2.74v3.44h-2.74z" fill="#314252"/><path d="m40.16 48.84c-4.78 0-9.55 0-14.33 0 .15-6.54-1.7-14.12-7.72-20.67h29.76c-6 6.55-7.85 14.13-7.71 20.67z" fill="#395263"/><path d="m26.8 26.11h-4.13v-13.09c0-1.14.93-2.07 2.07-2.07 1.14 0 2.07.93 2.07 2.07v13.09z" fill="#fff"/><path d="m43.33 26.11h-4.13v-13.09c0-1.14.93-2.07 2.07-2.07 1.14 0 2.07.93 2.07 2.07v13.09z" fill="#fff"/><path d="m46.78 25.42h-27.56c-1.14 0-2.07.93-2.07 2.07s.93 2.07 2.07 2.07h27.56c1.14 0 2.07-.93 2.07-2.07-.01-1.14-.93-2.07-2.07-2.07z" fill="#314252"/><path d="m35.87 39.84-1.84-.63 1.9-5.52-5.8 4.87 1.84.63-1.9 5.52z" fill="#ff735a"/></g></g></svg>