<svg id="color_line" height="512" viewBox="0 0 256 256" width="512" xmlns="http://www.w3.org/2000/svg" data-name="color line"><path d="m27.043 72.388h183.053v16.5h-183.053z" fill="#cb8252"/><path d="m39.65 219.23h-13.75v-157.2915a6.875 6.875 0 0 1 6.875-6.875 6.875 6.875 0 0 1 6.875 6.875z" fill="#805333"/><path d="m211.2383 219.23h-13.75v-157.2915a6.875 6.875 0 0 1 6.875-6.875 6.875 6.875 0 0 1 6.875 6.875z" fill="#805333"/><circle cx="50.869" cy="203.575" fill="#fff" r="4.695" transform="matrix(.707 -.707 .707 .707 -129.05 95.596)"/><path d="m50.8691 211.2666a7.6887 7.6887 0 1 1 5.44-2.25 7.6761 7.6761 0 0 1 -5.44 2.25zm0-9.3857a1.6954 1.6954 0 1 0 1.1982.4971 1.6841 1.6841 0 0 0 -1.1982-.4971z"/><path d="m172.5914 122.0782-30.34-30.3406-107.2252 107.2247a10.167 10.167 0 0 0 -.0237 14.3546l12.5222 12.6049 8.2285.8319 2.7541-7.8 8.2287.8317 2.7535-7.7993 8.2295.8314 2.7533-7.7991 8.2295.8313 2.7543-7.8 8.2295.8313 2.7538-7.7994 8.2295.8313 2.7517-7.7982 8.2292.8315 2.7522-7.7984 8.2293.8315 2.7545-7.8 8.2293.8314 2.7538-7.7995 8.23.831 2.7554-7.8 8.23.831 2.7549-7.8 8.2308.8305 2.7533-7.7991 8.23.8308 2.7565-7.8013 8.23.8307 2.7587-7.8025z" fill="#a5a5a4"/><path d="m233.869 95.5434a7.6659 7.6659 0 0 0 -10.8412 0l-2.5288 2.5289-38.6822-24.2181 2.5288-2.5288a7.6659 7.6659 0 0 0 -10.8412-10.8413l-36.0831 36.0832 32.1105 32.1106 37.7046 4.3392 26.6325-26.6325a7.6661 7.6661 0 0 0 .0001-10.8412zm-39.4731 26.4634-36.152-22.411 14.0961-14.0958 36.1519 22.411z" fill="#f29c1f"/><path d="m127.1415 107.5641h-29.5759l5.849 5.233a7.8342 7.8342 0 0 1 2.4166 7.5713l-2.7812 27.1175h18.608l-2.7816-27.1175a7.8342 7.8342 0 0 1 2.4166-7.5713z" fill="#7f8284"/><path d="m97.566 26.056h29.576v81.509h-29.576z" fill="#a5a5a4"/><path d="m107.037 37.121h10.633v70.443h-10.633z" fill="#bdc3c7"/><path d="m106.914 37.023h10.879l9.03-10.967h-28.939z" fill="#ecf0f1"/><path d="m115.9437 189.532h-7.18a5.8757 5.8757 0 0 1 -5.8757-5.8757v-40.7123h18.9318v40.7123a5.8757 5.8757 0 0 1 -5.8761 5.8757z" fill="#a56a43"/><path d="m55.021 34.479h30.22v173.12h-30.22z" fill="#bdc3c7" transform="matrix(.966 -.259 .259 .966 -28.937 22.275)"/><path d="m77.9388 208.5594 29.19-7.8216 53.6585-14.3778a4.4163 4.4163 0 0 0 3.1228-5.4089l-5.5355-20.6587a4.4163 4.4163 0 0 0 -5.4089-3.1228l-53.658 14.3778z" fill="#4482c3"/><path d="m86.55 164.5684a2.9939 2.9939 0 0 0 3.6738 2.1211l7.1875-1.9258c.0251-.0068.0466-.02.0715-.0271l-1.5488-5.78c-.0251.0061-.05.0056-.0754.0125l-7.1875 1.9258a2.9992 2.9992 0 0 0 -2.1211 3.6735z" fill="#7f8284"/><path d="m80.8916 184.35a3 3 0 0 0 -1.5527-5.7949l-8.8074 2.36 1.5527 5.7949z" fill="#7f8284"/><path d="m111.8343 191.4758 43.7531-11.7236-3.8209-14.26-43.7531 11.7236z" fill="#8fb9e1"/><rect fill="#a56a43" height="48.526" rx="11" width="195.433" x="20.853" y="185.554"/><rect fill="#cb8252" height="32.702" rx="11" width="195.433" x="20.853" y="153.118"/><path d="m55.3965 185.7109c-.0205.001-.041.001-.0615.001.0185 0 .039 0 .0615-.001z" fill="#805333"/><path d="m235.6367 108.1523a10.1664 10.1664 0 0 0 -14.3779-14.377l-1.12 1.1211-6.4-4.007v-28.9509a9.375 9.375 0 0 0 -18.75 0v7.9492h-6.7088a10.166 10.166 0 0 0 -16.5425-11.1709l-11.1713 11.1709h-30.9246v-43.832a2.5 2.5 0 0 0 -2.5-2.5h-29.5762a2.5 2.5 0 0 0 -2.5 2.5v43.832h-20.4091l-9.919-37.0177a2.5054 2.5054 0 0 0 -3.0625-1.7676l-29.19 7.8213a2.5012 2.5012 0 0 0 -1.7676 3.0625l2.8447 10.617c-.26-.0217-.5208-.04-.7861-.04a9.3862 9.3862 0 0 0 -9.375 9.375v91.6686a13.4742 13.4742 0 0 0 -5.0479 10.511v10.7022a13.4742 13.4742 0 0 0 5.0471 10.5114v.7113a13.4742 13.4742 0 0 0 -5.0479 10.511v26.5263a13.5148 13.5148 0 0 0 13.5 13.5h173.434a13.5148 13.5148 0 0 0 13.5-13.5v-26.5263a13.4742 13.4742 0 0 0 -5.0479-10.511v-.7113a13.4742 13.4742 0 0 0 5.0479-10.511v-10.7022a13.4742 13.4742 0 0 0 -5.0479-10.511v-23.5564zm-35.6484-46.2138a4.375 4.375 0 0 1 8.75 0v25.8207l-8.75-5.478zm-5 12.9492v4.2631l-6.81-4.2631zm-19.7158-12.6357a5.1659 5.1659 0 1 1 7.3057 7.3057l-2.5293 2.5293a2.4989 2.4989 0 0 0 .4414 3.8867l38.6826 24.2178a2.5015 2.5015 0 0 0 3.0947-.3516l2.5273-2.5293a5.1666 5.1666 0 0 1 7.3066 7.3066l-25.7793 25.7783-35.6387-4.1016-29.7274-29.7265zm24.7158 75.9474a2.4961 2.4961 0 0 0 .9092-1.2014l.7454-2.108 5.3074.6109a2.5688 2.5688 0 0 0 .2861.0166 2.4914 2.4914 0 0 0 1.502-.5148v16.0795a13.4344 13.4344 0 0 0 -3.4521-.4641h-5.2979zm-5 .12v12.2991h-15.9495l1.9875-5.6289 6.2764.6338a2.4926 2.4926 0 0 0 2.6084-1.6543l2.1016-5.95zm-65.3467-63.4317h25.9243l-11.5 11.5h-14.4243zm0 16.5h9.4238l-9.4238 9.4238zm-.833 18.04c.0205-.0183.0366-.04.0562-.0587.0359-.0342.0688-.07.1025-.1068a2.4925 2.4925 0 0 0 .1917-.2324c.0288-.04.0579-.0789.0842-.12a2.4733 2.4733 0 0 0 .1636-.3013c.0139-.03.0313-.0575.0439-.0881a2.4937 2.4937 0 0 0 .1279-.4127c.0093-.0418.0139-.0849.021-.1274.0039-.0225.0081-.0448.0112-.0674l7.81-7.81 30.3438 30.3428a2.4946 2.4946 0 0 0 1.4814.7158l19.4849 2.2427a2.49 2.49 0 0 0 -.7788 1.0971l-2.1016 5.95-6.2764-.6338a2.4818 2.4818 0 0 0 -2.6084 1.6553l-2.1 5.9463-6.2764-.6328a2.4873 2.4873 0 0 0 -2.6084 1.6543l-.769 2.1777h-40.8926v-7.6738a2.4852 2.4852 0 0 0 -.8018-1.8251l-2.1543-21.0059a2.8015 2.8015 0 0 0 -.0488-.2988 5.3342 5.3342 0 0 1 1.6445-5.1543zm-11.1387.6367h2.9268l-.9717.8691a10.3417 10.3417 0 0 0 -3.2217 9.83l2.0186 19.6807h-12.1367l2.0186-19.6807a10.3417 10.3417 0 0 0 -3.2217-9.83l-.9717-.8691h13.56zm-8.1328-5v-65.4433h5.6329v65.4434zm-4.1494 40.38h13.9316v5.1738h-13.9316zm19.2539-40.38h-4.4716v-66.9954l4.4717-5.4317zm-3.1152-76.5088-4.9131 5.9678h-8.52l-4.9131-5.9678zm-21.4609 4.0817 4.4717 5.4317v66.9954h-4.4717zm-4.9919 75.0063a2.4581 2.4581 0 0 0 .0339.3363c.0071.0425.0117.0856.021.1274a2.4791 2.4791 0 0 0 .1282.4131c.0125.03.03.0572.043.0867a2.4555 2.4555 0 0 0 .1643.3025c.0266.0415.0554.0806.0842.12a2.4925 2.4925 0 0 0 .1917.2324c.0337.0363.0667.0726.1025.1068.02.0189.0356.04.0562.0587l5.85 5.2324a5.3342 5.3342 0 0 1 1.6445 5.1543 2.8016 2.8016 0 0 0 -.0488.2988l-.8 7.7956-9.7332 9.7333-12.3941-46.2542h14.6484v16.1768c0 .0271.0071.0523.0081.0792zm6.6628 28.1436-.5469 5.332a2.4852 2.4852 0 0 0 -.8018 1.8251v7.6738h-4.1l-1.9827-7.4zm-6.6709-60.9v11.5h-15.9884l-3.0813-11.5zm-34.5108-38.3081 1.8647 6.9594-7.3032 1.9567a2.5 2.5 0 1 0 1.2949 4.83l7.3025-1.9565 1.5444 5.7639-4.8469 1.2991a2.5 2.5 0 1 0 1.2949 4.83l4.8462-1.299 1.5447 5.7644-7.303 1.9574a2.5 2.5 0 1 0 1.2949 4.83l7.3022-1.9572 1.5447 5.7645-4.8457 1.2982a2.5 2.5 0 1 0 1.293 4.83l4.847-1.2983 1.5444 5.7645-7.3037 1.9568a2.5 2.5 0 1 0 1.2949 4.83l7.3032-1.9567 1.5444 5.7645-4.8466 1.2992a2.5 2.5 0 1 0 1.2949 4.83l4.8462-1.2985 1.5444 5.7645-7.3037 1.9568a2.5 2.5 0 1 0 1.2949 4.83l7.3032-1.9567 1.5445 5.7639-4.8467 1.2986a2.5 2.5 0 1 0 1.2949 4.83l4.8462-1.2985 1.5444 5.7645-7.3037 1.9568a2.5 2.5 0 1 0 1.2949 4.83l7.3032-1.9567 1.5444 5.7639-4.8467 1.2992a2.5 2.5 0 1 0 1.2949 4.83l4.8459-1.299 1.5444 5.7643-4.2319 1.1343h-21.5742l-4.6387-17.312 6.3926-1.7125a2.5 2.5 0 1 0 -1.293-4.83l-6.3938 1.7128-5.7092-21.3057 6.3931-1.7126a2.5 2.5 0 0 0 -1.293-4.83l-6.394 1.7129-5.7093-21.3074 6.3943-1.7136a2.5 2.5 0 1 0 -1.2949-4.83l-6.3936 1.7134-5.7092-21.3066 6.3938-1.7134a2.5 2.5 0 0 0 -1.2949-4.83l-6.3931 1.7133-1.8647-6.9594zm-16.6008 54.8086 15.8708 59.23h-17.6747v-59.23zm-1.8035-5v-1.7306l.4636 1.7306zm-13.7504-24.4492a4.38 4.38 0 0 1 4.375-4.375 4.333 4.333 0 0 1 2.2939.6666l2.0811 7.7667v84.6213h-5.2975a13.4344 13.4344 0 0 0 -3.4521.4641zm3.4525 169.6415a8.4824 8.4824 0 0 1 -6.7324-3.3317c13.2461 1.6757 39.248.7164 65.7393-2.5306 33.94-4.1611 52.0713-4.8135 66.9033-2.4121 17.8977 2.897 24.4341 5.3375 29.7468 8.2744zm181.9336-8.5a8.51 8.51 0 0 1 -8.5 8.5h-7.9692c-1.2534-.7224-2.3884-1.41-3.4839-2.0762-7.0518-4.291-12.1465-7.3906-35.2715-11.1338-15.3437-2.4863-33.8584-1.8369-68.31 2.3848-31.1116 3.813-56.887 3.9738-66.8994 2.17v-5.3885c14.62-.4969 47.4614-2.4246 72.4912-9.8615 22.1094-6.5723 53.624.0137 81.43 5.8223 12.625 2.6367 24.5508 5.1279 35.3574 6.45a2.508 2.508 0 0 0 .3066.0186 2.48 2.48 0 0 0 .8486-.153zm0-26.5264v18.5664a2.4894 2.4894 0 0 0 -.5479-.1359c-10.5986-1.2969-22.4229-3.7666-34.9424-6.3818-29.7705-6.22-60.5547-12.65-83.876-5.7207-24.3921 7.247-56.5759 9.1528-71.0674 9.6512v-15.9791a8.512 8.512 0 0 1 6.8779-8.3405 13.52 13.52 0 0 0 1.6221.1071h7.9276a13.7786 13.7786 0 0 0 -4.3167 4.0635 6.8151 6.8151 0 0 0 -.3906 6.8965c2.8311 5.7744 12.8057 6.6885 18.8359 6.6885 1.7715 0 3.2031-.0791 4.0127-.1367 8.125.49 12.1914-3.4756 12.6016-7.6445a6.7032 6.7032 0 0 0 -5.74-7.41 2.5 2.5 0 1 0 -.6426 4.959 1.6973 1.6973 0 0 1 1.4063 1.9619c-.1768 1.7979-2.5537 3.4658-7.47 3.1338a2.4126 2.4126 0 0 0 -.3564.001c-8.8291.6709-16.7988-.98-18.1572-3.7539a1.8748 1.8748 0 0 1 .1182-2.0088c2.2842-3.7705 12.2539-6.6523 13.9277-6.6982a2.515 2.515 0 0 0 .5034-.0518h38.5144c9.28 1.559 48.8367 8.1252 69.2942 10.2354 16.1162 1.6641 48.1309 3.1953 48.4521 3.2109.041.002.0811.0029.1211.0029a2.5 2.5 0 0 0 .1172-4.9971c-.32-.0156-32.1982-1.54-48.1768-3.1895-10.0957-1.0419-24.9109-3.1822-38.3962-5.2627h81.2478a13.52 13.52 0 0 0 1.6221-.1071 8.512 8.512 0 0 1 6.8779 8.3403zm0-32.4355v10.7019a8.51 8.51 0 0 1 -8.5 8.5h-112.2397c-.9639-.1622-1.5161-.2562-1.5649-.2646a2.5028 2.5028 0 0 0 -1.58.2646h-58.049a8.51 8.51 0 0 1 -8.5-8.5v-10.7018a8.51 8.51 0 0 1 8.5-8.5h82.5947a5.7956 5.7956 0 0 0 -1.7148 3.0293c-.4473 2.4668.9365 4.76 4.1133 6.8184 4.6992 3.043 23.29 3.9 42.7617 3.9 22.6221 0 46.43-1.1572 51.0137-1.3916a2.5 2.5 0 1 0 -.2559-4.9941c-31.5908 1.6143-84.1787 2.5771-90.8008-1.7119-1.6709-1.082-1.8945-1.7256-1.9131-1.7256.2764-.9473 3.9678-2.832 8.1484-3.7559a2.5041 2.5041 0 0 0 .5-.1689h78.9866a8.51 8.51 0 0 1 8.4998 8.5003z"/><path d="m155.7607 99.8828a2.5018 2.5018 0 0 0 1.166 1.8379l36.1514 22.4111a2.5 2.5 0 0 0 3.085-.3574l14.0969-14.0957a2.5 2.5 0 0 0 -.45-3.8926l-36.1528-22.4111a2.5006 2.5006 0 0 0 -3.085.3574l-14.0956 14.0957a2.499 2.499 0 0 0 -.7159 2.0547zm48.7334 8.4912-4.5059 4.5054v-7.2986zm-34.5061-16.9863h7.1047l17.8955 11.0936v15.3977l-.959.9589-31.787-19.7051z"/><path d="m167.0635 174.5811c-20.8437 0-45.6006-.6836-71.1719-5.7539-26.626-5.28-58.9775-3.0078-60.3428-2.9082a2.5 2.5 0 1 0 .3633 4.9863c.3252-.0234 33.0547-2.3213 59.0068 2.8262 25.9961 5.1543 51.0576 5.85 72.1445 5.85a2.5 2.5 0 0 0 0-5z"/></svg>