<svg clip-rule="evenodd" fill-rule="evenodd" stroke-linejoin="round" stroke-miterlimit="2" viewBox="0 0 510 510" xmlns="http://www.w3.org/2000/svg"><path d="m15 418.463 63.711-374.871h352.578l63.711 374.871v47.945h-480z" fill="#d5a889"/><path d="m431.289 43.592h-113.352l28.621 374.871h148.442z" fill="#d5a889"/><path d="m431.289 43.592h-113.352l5.084 66.59h119.585z" fill="#efc7a4"/><path d="m464.366 238.215h-131.57l5.084 66.59h137.803z" fill="#efc7a4"/><path d="m78.711 43.592h119.404l-34.234 374.871h-148.881z" fill="#d5a889"/><path d="m174.845 298.399h-139.44l-20.405 120.064h148.881z" fill="#efc7a4"/><path d="m198.115 43.592h-119.404l-18.309 107.73h127.875z" fill="#efc7a4"/><path d="m15 418.463h480v47.945h-480z" fill="#d5a889"/><path d="m328.964 188.019h-144.038l-12.199 133.571h166.435z" fill="#efc7a4"/><path d="m501.901 417.29c.066.388.099.78.099 1.173v47.945c0 3.866-3.134 7-7 7h-480c-3.866 0-7-3.134-7-7v-47.945c0-.393.033-.785.099-1.173l63.711-374.871c.572-3.365 3.488-5.827 6.901-5.827h352.578c3.413 0 6.329 2.462 6.901 5.827zm-479.901 8.173v33.945h466v-33.945zm168.447-374.871h-105.825l-15.93 93.73h113.195c4.901-53.664 8.56-93.73 8.56-93.73zm-124.134 107.73-22.617 133.077h124.759c3.957-43.326 8.345-91.371 12.154-133.077zm-24.997 147.077-18.026 106.064h134.201c1.398-15.308 5.17-56.61 9.686-106.064zm270.135-254.807h-106.946l-11.911 130.427h128.815zm175.259 360.871-16.937-99.658h-124.338l7.609 99.658zm-19.317-113.658-8.938-52.59h-118.104l4.015 52.59zm-11.317-66.59-19.38-114.033h-106.12l8.706 114.033zm-21.76-128.033-8.938-52.59h-99.886l4.015 52.59zm-255.199 225.408-7.568 82.873h167.454l-6.327-82.873zm12.198-133.571-10.919 119.571h151.211l-9.129-119.571z"/></svg>