<svg id="Layer_1" viewBox="0 0 128 128" xmlns="http://www.w3.org/2000/svg" data-name="Layer 1"><path d="m106 4h12v24h-12z" fill="#ffdb80"/><path d="m102 6v18.13h-3.03a2.02182 2.02182 0 0 0 -1.56.75 29.30173 29.30173 0 0 1 -12.51 9.16 2.02424 2.02424 0 0 0 -.94.61l-8.99 10.59a2.3034 2.3034 0 0 1 -3 .36c-1.64-1.12-1.74-1.6-1.42-3.03a10.20937 10.20937 0 0 1 2.33-4.47l4.98-5.75a2.00564 2.00564 0 0 0 .45-1.73l-1.85-8.7a2.02711 2.02711 0 0 0 -.68-1.12 2.02 2.02 0 0 0 -1.17-.72l-9.29-1.81a1.973 1.973 0 0 0 -1.87.63l-6.61 7.37a2.0176 2.0176 0 0 0 -.51 1.34v8.39h-5.33v-13.33a1.91424 1.91424 0 0 1 .47-1.24l12.99-14.73a2.12321 2.12321 0 0 1 1.59-.7z" fill="#e1ebf4"/><path d="m126 108h-8v-14a2.00587 2.00587 0 0 0 -2-2h-8v-14a2.00587 2.00587 0 0 0 -2-2h-8v-14a2.00587 2.00587 0 0 0 -2-2h-64a2.00587 2.00587 0 0 0 -2 2v14h-8a2.00587 2.00587 0 0 0 -2 2v14h-8a2.00587 2.00587 0 0 0 -2 2v14h-8a2.00587 2.00587 0 0 0 -2 2v16a2.00591 2.00591 0 0 0 2 2h124a2.00591 2.00591 0 0 0 2-2v-16a2.00587 2.00587 0 0 0 -2-2zm-12-12v12h-23v-12zm-35-32h15v12h-15zm-26 0h22v12h-22zm-19 0h15v12h-15zm-10 16h80v12h-80zm63 16v12h-46v-12zm-73 0h23v12h-23zm48 28h-58v-12h58zm62 0h-58v-12h58z" fill="#2d4356"/><path d="m4 112h58v12h-58z" fill="#d68751"/><path d="m66 112h58v12h-58z" fill="#fc785e"/><path d="m91 96h23v12h-23z" fill="#fc785e"/><path d="m41 96h46v12h-46z" fill="#d68751"/><path d="m14 96h23v12h-23z" fill="#fc785e"/><path d="m24 80h80v12h-80z" fill="#fc785e"/><path d="m34 64h15v12h-15z" fill="#d68751"/><path d="m53 64h22v12h-22z" fill="#fc785e"/><path d="m79 64h15v12h-15z" fill="#d68751"/><path d="m118 0h-12a3.98047 3.98047 0 0 0 -3.44 2h-36.51a6.09427 6.09427 0 0 0 -4.59 2.06l-12.99 14.73a5.85834 5.85834 0 0 0 -1.47 3.88v13.33h-5a2.00587 2.00587 0 0 0 -2 2v16a2.00591 2.00591 0 0 0 2 2h44a2.00591 2.00591 0 0 0 2-2v-16a1.84731 1.84731 0 0 0 -.18-.81 33.9048 33.9048 0 0 0 12.1-9.06h2.09a4.00394 4.00394 0 0 0 3.99 3.87h12a3.99891 3.99891 0 0 0 4-4v-24a3.99887 3.99887 0 0 0 -4-4zm-34 52h-40v-12h23.15a13.357 13.357 0 0 0 -.52 1.74c-.84 3.86.98 5.72 3.08 7.16a6.2945 6.2945 0 0 0 8.31-1.07l5.98-7.04zm-23.67-16v-7.63l5.34-5.96 7.1 1.39 1.42 6.68-4.33 5c-.15.17-.29.34-.43.52zm41.67-11.87h-3.03a2.02182 2.02182 0 0 0 -1.56.75 29.30173 29.30173 0 0 1 -12.51 9.16 2.02424 2.02424 0 0 0 -.94.61l-8.99 10.59a2.3034 2.3034 0 0 1 -3 .36c-1.64-1.12-1.74-1.6-1.42-3.03a10.20937 10.20937 0 0 1 2.33-4.47l4.98-5.75a2.00564 2.00564 0 0 0 .45-1.73l-1.85-8.7a2.02711 2.02711 0 0 0 -.68-1.12 2.02 2.02 0 0 0 -1.17-.72l-9.29-1.81a1.973 1.973 0 0 0 -1.87.63l-6.61 7.37a2.0176 2.0176 0 0 0 -.51 1.34v8.39h-5.33v-13.33a1.91424 1.91424 0 0 1 .47-1.24l12.99-14.73a2.12321 2.12321 0 0 1 1.59-.7h35.95zm16 3.87h-12v-24h12z" fill="#2d4356"/><path d="m84 40.79v11.21h-40v-12h23.15a13.357 13.357 0 0 0 -.52 1.74c-.84 3.86.98 5.72 3.08 7.16a6.2945 6.2945 0 0 0 8.31-1.07z" fill="#fc785e"/><path d="m34 74h15v2h-15z" fill="#72492d" opacity=".4"/><path d="m24 90h80v2h-80z" fill="#a54b3f" opacity=".5"/><path d="m4 112h58v2h-58z" fill="#e5d0c3" opacity=".3"/><path d="m102 22.13v2h-3.03a2.02182 2.02182 0 0 0 -1.56.75 29.30173 29.30173 0 0 1 -12.51 9.16 2.02424 2.02424 0 0 0 -.94.61l-8.99 10.59a2.3034 2.3034 0 0 1 -3 .36c-1.64-1.12-1.74-1.6-1.42-3.03a1.808 1.808 0 0 1 .06-.22 4.32921 4.32921 0 0 0 1.36 1.25 2.3034 2.3034 0 0 0 3-.36l8.99-10.59a2.02424 2.02424 0 0 1 .94-.61 29.30173 29.30173 0 0 0 12.51-9.16 2.02182 2.02182 0 0 1 1.56-.75z" fill="#9fa5aa" opacity=".5"/><path d="m79 64h15v2h-15z" fill="#e5d0c3" opacity=".3"/><path d="m53 64h22v2h-22z" fill="#f9dbd7" opacity=".3"/><path d="m34 64h15v2h-15z" fill="#e5d0c3" opacity=".3"/><path d="m53 74h22v2h-22z" fill="#a54b3f" opacity=".5"/><path d="m79 74h15v2h-15z" fill="#72492d" opacity=".4"/><path d="m24 80h80v2h-80z" fill="#f9dbd7" opacity=".3"/><path d="m91 96h23v2h-23z" fill="#f9dbd7" opacity=".3"/><path d="m91 106h23v2h-23z" fill="#a54b3f" opacity=".5"/><path d="m41 96h46v2h-46z" fill="#e5d0c3" opacity=".3"/><path d="m14 96h23v2h-23z" fill="#f9dbd7" opacity=".3"/><path d="m14 106h23v2h-23z" fill="#a54b3f" opacity=".5"/><path d="m41 106h46v2h-46z" fill="#72492d" opacity=".4"/><path d="m66 112h58v2h-58z" fill="#f9dbd7" opacity=".3"/><path d="m66 122h58v2h-58z" fill="#a54b3f" opacity=".5"/><path d="m4 122h58v2h-58z" fill="#72492d" opacity=".4"/><path d="m106 26h12v2h-12z" fill="#ad9359" opacity=".45"/><path d="m106 4h12v2h-12z" fill="#f9edd2" opacity=".5"/><path d="m102 6v2h-35.95a2.12321 2.12321 0 0 0 -1.59.7l-12.99 14.73a1.91424 1.91424 0 0 0 -.47 1.24v-2a1.91424 1.91424 0 0 1 .47-1.24l12.99-14.73a2.12321 2.12321 0 0 1 1.59-.7z" fill="#fff" opacity=".5"/><path d="m67.15 40a13.357 13.357 0 0 0 -.52 1.74c-.02.09-.04.18-.05.26h-22.58v-2z" fill="#f9dbd7" opacity=".3"/><path d="m44 50h40v2h-40z" fill="#a54b3f" opacity=".5"/></svg>