<svg clip-rule="evenodd" fill-rule="evenodd" height="1.707in" image-rendering="optimizeQuality" shape-rendering="geometricPrecision" text-rendering="geometricPrecision" viewBox="0 0 1706.66 1706.66" width="1.707in" xmlns="http://www.w3.org/2000/svg" xmlns:xodm="http://www.corel.com/coreldraw/odm/2003"><g id="Layer_x0020_1"><path d="m1213.3 718.25h-719.94c-26.93 0-48.84-21.91-48.84-48.84v-85.55c0-26.93 21.92-48.84 48.84-48.84h719.96c26.93 0 48.86 21.91 48.86 48.84v85.55c-.01 26.95-21.93 48.85-48.87 48.85zm-719.94-143.23c-4.79 0-8.84 4.06-8.84 8.85v85.55c0 4.79 4.06 8.84 8.84 8.84h719.96c4.8 0 8.85-4.06 8.85-8.84v-85.55c0-4.79-4.04-8.84-8.85-8.84z"/><path d="m915.17 233.97c-4.73 0-9.43-1.68-13.14-4.92-26.97-23.51-70.39-23.51-97.41 0-5.9 5.14-14.28 6.36-21.42 3.13-7.14-3.25-11.7-10.36-11.7-18.21v-193.93c0-11.04 8.96-20 20-20h123.67c11.04 0 20 8.96 20 20v193.95c0 7.83-4.58 14.96-11.72 18.21-2.65 1.19-5.47 1.78-8.28 1.78zm-103.69-193.94v138.75c26.43-10.42 57.26-10.42 83.68 0v-138.75z"/><path d="m853.33 399.21c-62.97 0-114.21-51.22-114.21-114.19s51.22-114.2 114.21-114.2c62.97 0 114.2 51.22 114.2 114.2 0 62.97-51.24 114.19-114.2 114.19zm0-188.39c-40.92 0-74.21 33.29-74.21 74.21 0 40.91 33.29 74.19 74.21 74.19s74.19-33.28 74.19-74.19c0-40.92-33.27-74.21-74.19-74.21z"/><path d="m654.15 414.32c-5.43 0-10.83-2.19-14.78-6.52l-93.57-102.54c-7.44-8.15-6.88-20.82 1.29-28.25 8.15-7.47 20.82-6.87 28.25 1.29l93.57 102.54c7.44 8.15 6.88 20.81-1.29 28.25-3.83 3.49-8.67 5.22-13.47 5.22z"/><path d="m1052.5 414.32c-4.82 0-9.64-1.72-13.49-5.22-8.15-7.44-8.73-20.1-1.29-28.25l93.57-102.54c7.46-8.13 20.1-8.73 28.25-1.29 8.17 7.44 8.73 20.1 1.29 28.25l-93.57 102.54c-3.93 4.32-9.33 6.52-14.76 6.52z"/><path d="m853.33 897.2c-11.04 0-20-8.97-20-20v-178.95c0-11.04 8.96-20 20-20s20 8.96 20 20v178.94c.02 11.05-8.95 20.02-20 20.02z"/><path d="m1442.46 1455.85c-11.04 0-20-8.97-20-20v-231.45c0-116.61-94.84-211.45-211.45-211.45h-261.92c-11.04 0-20-8.97-20-20s8.97-20 20-20h261.92c138.65 0 251.45 112.8 251.45 251.45v231.45c.02 11.04-8.96 20-20 20zm-1178.26 0c-11.04 0-20-8.97-20-20v-231.45c0-138.65 112.8-251.45 251.43-251.45h261.93c11.04 0 20 8.97 20 20s-8.96 20-20 20h-261.93c-116.59 0-211.45 94.84-211.45 211.45v231.45c0 11.04-8.94 20-19.98 20z"/><path d="m264.2 1703.84c-5.31 0-10.39-2.11-14.14-5.86l-124-124c-7.82-7.82-7.82-20.49 0-28.29l124-124c3.75-3.75 8.83-5.86 14.14-5.86 5.31 0 10.39 2.11 14.13 5.86l123.98 124c7.82 7.82 7.82 20.49 0 28.29l-123.98 124c-3.75 3.74-8.84 5.86-14.13 5.86zm-95.72-143.99 95.7 95.72 95.7-95.72-95.7-95.72z"/><path d="m1442.46 1703.84c-5.11 0-10.24-1.96-14.15-5.86l-123.99-124c-7.82-7.82-7.82-20.49 0-28.29l123.99-124c7.82-7.82 20.49-7.82 28.3 0l124 124c7.82 7.82 7.82 20.49 0 28.29l-124 124c-3.89 3.91-9.02 5.86-14.14 5.86zm-95.71-143.99 95.72 95.72 95.72-95.72-95.72-95.72z"/><path d="m853.33 1458.65c-11.04 0-20-8.97-20-20v-369.94c0-11.04 8.96-20 20-20s20 8.97 20 20v369.93c.02 11.04-8.95 20.02-20 20.02z"/><path d="m853.33 1706.63c-5.13 0-10.24-1.96-14.14-5.86l-124-123.99c-7.82-7.82-7.82-20.49 0-28.3l124-124c7.82-7.82 20.46-7.82 28.3 0l123.99 124c7.82 7.82 7.82 20.49 0 28.3l-123.99 123.99c-3.91 3.91-9.03 5.86-14.16 5.86zm-95.7-143.99 95.7 95.72 95.72-95.72-95.72-95.72z"/><path d="m853.33 1088.72c-63.83 0-115.76-51.93-115.76-115.78 0-63.83 51.93-115.74 115.76-115.74s115.76 51.93 115.76 115.74c0 63.85-51.92 115.78-115.76 115.78zm0-191.52c-41.78 0-75.76 33.97-75.76 75.74 0 41.78 33.98 75.76 75.76 75.76s75.74-33.98 75.74-75.76-33.97-75.74-75.74-75.74z"/><path d="m853.33 170.81c14.76 0 28.87 2.81 41.83 7.96v-138.75h-83.68v88.85c.01.29.01.57 0 .85l-.01 49.02c12.96-5.13 27.09-7.94 41.85-7.94z" fill="#ffb800"/><path d="m896.63 224.8c-25.46-18-61.99-17.84-87.28.5-1.62 1.19-3.19 2.45-4.7 3.78-15.63 13.61-25.52 33.65-25.52 55.96 0 40.91 33.29 74.19 74.21 74.19s74.19-33.28 74.19-74.19c0-22.3-9.89-42.34-25.48-55.98-1.75-1.48-3.55-2.91-5.41-4.25z" fill="#89d3e5"/><path d="m967.53 285.02c0 62.97-51.24 114.19-114.2 114.19-62.97 0-114.21-51.22-114.21-114.19 0-30.92 12.35-59.01 32.38-79.59v-51.16c-78.37 20.79-143.89 69.96-186.13 135.01l83.56 91.57c7.44 8.15 6.88 20.81-1.29 28.25-3.83 3.49-8.67 5.22-13.47 5.22-5.43 0-10.83-2.19-14.78-6.52l-74.59-81.74c-19.85 41.73-30.86 88.24-30.86 136.93v72.03h638.81v-72.02c0-48.69-11.01-95.21-30.86-136.94l-74.6 81.76c-3.93 4.32-9.33 6.52-14.76 6.52-4.82 0-9.64-1.72-13.49-5.22-8.15-7.44-8.73-20.1-1.29-28.25l83.57-91.58c-42.24-65.04-107.75-114.21-186.12-135v51.17c20.02 20.58 32.36 48.66 32.36 79.58z" fill="#fc0"/><path d="m929.07 972.95c0-41.78-33.97-75.74-75.74-75.74-41.78 0-75.76 33.97-75.76 75.74 0 41.78 33.98 75.76 75.76 75.76s75.74-33.98 75.74-75.76z" fill="#4a5254"/><path d="m854.07 678.27h359.24c4.8 0 8.85-4.06 8.85-8.84v-85.55c0-4.79-4.04-8.84-8.85-8.84l-719.96-.01c-4.79 0-8.84 4.06-8.84 8.85v85.55c0 4.79 4.06 8.84 8.84 8.84h359.22c.25-.01.5-.01.75-.01s.5 0 .75.02z" fill="#ffb800"/><path d="m1192.73 575.02c-11.04 0-20-8.96-20-20v-92.04c0-153.81-109.86-285.88-261.22-314.05-10.85-2.02-18.03-12.46-16-23.31 2.03-10.86 12.56-18.02 23.33-16 170.3 31.68 293.91 180.3 293.91 353.36v92.04c-.02 11.04-8.97 20-20.02 20zm-678.81 0c-11.04 0-20-8.96-20-20v-92.04c0-173.07 123.61-321.69 293.91-353.36 10.83-2.02 21.29 5.15 23.31 16 2.03 10.84-5.14 21.29-16 23.31-151.35 28.17-261.22 160.25-261.22 314.05v92.04c0 11.04-8.96 20-20 20z"/><path d="m949.04 1562.64-95.71-95.72-95.71 95.72 95.71 95.71z" fill="#fa3c48" stroke="#fa3c48" stroke-miterlimit="2.613" stroke-width="3"/><path d="m359.89 1559.85-95.7-95.72-95.71 95.72 95.71 95.71z" fill="#25a753"/><path d="m1442.47 1464.13-95.72 95.72 95.72 95.71 95.72-95.71z" fill="#ffb800"/></g></svg>