<svg id="Layer_1" enable-background="new 0 0 512 512" height="512" viewBox="0 0 512 512" width="512" xmlns="http://www.w3.org/2000/svg"><g><g><g clip-rule="evenodd" fill-rule="evenodd"><path d="m55.558 100.587h400.884c2.754 0 5 2.246 5 5v385.269c0 2.754-2.246 5-5 5h-400.884c-2.754 0-5-2.246-5-5v-385.269c0-2.754 2.246-5 5-5z" fill="#d4f2f6"/><path d="m254.336 16.443-235 82.967c-2.036.718-3.336 2.555-3.336 4.714v25.971c0 2.754 2.246 5 5 5h470c2.754 0 5-2.246 5-5v-25.971c0-2.159-1.3-3.996-3.335-4.715l-235-82.967c-1.123-.396-2.207-.396-3.329.001z" fill="#f79595"/><path d="m91.29 170.826h329.42c2.754 0 5 2.246 5 5v320.029h-339.42v-320.029c0-2.754 2.246-5 5-5z" fill="#e8eef1"/><path d="m91.29 170.826h329.42c2.754 0 5 2.246 5 5v123.006h-339.42v-123.006c0-2.754 2.246-5 5-5z" fill="#d4dce3"/><path d="m86.29 298.832h339.42v197.023h-339.42z" fill="#b6c4cf"/></g></g><path clip-rule="evenodd" d="m263.999 443.885c0 4.421-3.58 8-7.996 8-4.422 0-8.005-3.579-8.005-8 0-4.417 3.584-8.001 8.005-8.001 4.416 0 7.996 3.584 7.996 8.001zm58.972-66.973c2.342 2.347 2.342 6.143 0 8.49-1.171 1.171-2.709 1.755-4.242 1.755-1.538 0-3.067-.583-4.247-1.755-32.238-32.252-84.719-32.252-116.961 0-2.352 2.342-6.147 2.342-8.49 0-2.338-2.347-2.338-6.143 0-8.49 36.93-36.922 97.008-36.922 133.94 0zm-27.37 27.374c-21.843-21.834-57.364-21.834-79.202 0-2.338 2.342-2.338 6.143 0 8.485 2.352 2.342 6.143 2.342 8.49 0 17.154-17.154 45.073-17.154 62.222 0 1.171 1.171 2.709 1.759 4.247 1.759 1.533 0 3.071-.588 4.243-1.759 2.338-2.342 2.338-6.143 0-8.485zm-149.082 41.974v5.625c0 3.311-2.69 5.997-6.002 5.997-3.307 0-5.997-2.686-5.997-5.997v-5.625c0-3.316 2.69-6.001 5.997-6.001 3.312-.001 6.002 2.685 6.002 6.001zm13.49-92.16c2.352 2.342 2.352 6.143 0 8.485-2.338 2.342-6.138 2.342-8.48 0l-5.009-5.009v66.592c0 3.316-2.69 6.002-6.002 6.002-3.307 0-5.997-2.686-5.997-6.002v-66.592l-5.009 5.009c-2.343 2.342-6.143 2.342-8.48 0-2.352-2.343-2.352-6.143 0-8.485l15.249-15.253c2.337-2.343 6.143-2.343 8.48 0zm205.472-5.386v-5.625c0-3.311 2.691-5.997 6.002-5.997s5.997 2.686 5.997 5.997v5.625c0 3.311-2.686 6.002-5.997 6.002-3.312 0-6.002-2.69-6.002-6.002zm25.488 92.16-15.249 15.254c-1.119 1.124-2.653 1.754-4.238 1.754-1.59 0-3.123-.63-4.243-1.754l-15.249-15.254c-2.342-2.342-2.342-6.143 0-8.485s6.138-2.342 8.48 0l5.009 5.009v-66.592c0-3.316 2.691-6.002 6.002-6.002s5.997 2.686 5.997 6.002v66.592l5.009-5.009c2.342-2.342 6.143-2.342 8.48 0 2.353 2.343 2.353 6.143.002 8.485zm99.032-311.638h-468.001v-24.261l234.003-82.612 233.998 82.612zm-34.562 360.762v-348.759h-398.878v348.758h23.729v-319.027c0-3.316 2.69-6.001 6.002-6.001h339.417c3.311 0 6.001 2.686 6.001 6.001v319.028zm-363.151-185.021v185.021h327.423v-185.021zm0-32.003h327.423v19.999h-327.423zm0-32.002h327.423v19.999h-327.423zm0-32.003h327.423v20.004h-327.423zm327.424-11.998h-327.424v-19.999h327.423v19.999zm78.289-101.897-240-84.733c-1.303-.456-2.7-.456-4.003 0l-240 84.733c-2.399.847-3.998 3.114-3.998 5.658v34.505c0 3.311 2.691 6.002 5.997 6.002h28.564v354.76c0 3.311 2.676 6.002 5.997 6.002h410.882c3.321 0 6.002-2.69 6.002-6.002v-354.76h28.56c3.306 0 5.997-2.69 5.997-6.002v-34.505c0-2.544-1.599-4.811-3.998-5.658z" fill-rule="evenodd"/></g></svg>