<svg id="Layer_1" enable-background="new 0 0 468 468" height="512" viewBox="0 0 468 468" width="512" xmlns="http://www.w3.org/2000/svg"><g><g><g><g><g><g><path d="m272.242 71.448c-.922-.511-1.848-.991-2.774-1.448.926-.457 1.852-.937 2.774-1.448 16.201-8.975 25.347-22.877 20.428-31.052s-22.04-7.526-38.242 1.448c-.922.511-1.819 1.04-2.694 1.581.051-.998.08-2.007.08-3.029-.001-17.949-7.976-32.5-17.814-32.5s-17.813 14.551-17.813 32.5c0 1.022.029 2.031.08 3.029-.875-.541-1.772-1.07-2.694-1.581-16.201-8.975-33.322-9.623-38.242-1.448s4.227 22.077 20.428 31.052c.922.511 1.848.991 2.774 1.448-.926.457-1.852.937-2.774 1.448-16.201 8.975-25.347 22.877-20.428 31.052s22.04 7.526 38.242-1.448c.922-.511 1.819-1.04 2.694-1.581-.051.998-.08 2.007-.08 3.029 0 17.949 7.975 32.5 17.813 32.5s17.813-14.551 17.813-32.5c0-1.022-.029-2.031-.08-3.029.875.541 1.772 1.07 2.694 1.581 16.201 8.975 33.322 9.623 38.242 1.448s-4.226-22.077-20.427-31.052z" fill="#b894dd"/></g><g><ellipse cx="234" cy="70" fill="#ededed" rx="16.034" ry="15.992"/></g><g><path d="m229.966 70c0-6.715 4.154-12.453 10.034-14.823-1.855-.748-3.877-1.169-6-1.169-8.856 0-16.034 7.16-16.034 15.992s7.179 15.992 16.034 15.992c2.123 0 4.145-.421 6-1.169-5.881-2.37-10.034-8.108-10.034-14.823z" fill="#d6d6d6"/></g><g><path d="m234 90.992c-11.599 0-21.035-9.417-21.035-20.992s9.436-20.992 21.035-20.992 21.034 9.417 21.034 20.992-9.435 20.992-21.034 20.992zm0-31.984c-6.084 0-11.035 4.931-11.035 10.992s4.95 10.992 11.035 10.992c6.084 0 11.034-4.931 11.034-10.992s-4.95-10.992-11.034-10.992z" fill="#333"/></g></g></g><g><g><path d="m234 228.436.14-23.845c.269-45.949 59.301-64.548 85.86-27.052-36.051-4.728-70.832 15.162-85.039 48.632z" fill="#59dca6"/></g><g><path d="m234.14 217.591c.227-38.767 42.282-58.065 71.374-40.633 4.775-.232 9.618-.057 14.486.581-26.56-37.496-85.592-18.897-85.86 27.052l-.14 23.845.077-.182z" fill="#00cb8c"/></g></g><g><g><path d="m234 210.436-.14-23.845c-.269-45.949-59.301-64.548-85.86-27.052 36.051-4.728 70.832 15.162 85.039 48.632z" fill="#59dca6"/></g><g><path d="m164.08 159.047c29.009-15.815 69.558 3.479 69.78 41.544l.057 9.649.083.196-.14-23.845c-.269-45.949-59.301-64.548-85.86-27.052 5.411-.709 10.792-.854 16.08-.492z" fill="#00cb8c"/></g></g></g><g><g><path d="m86.027 131.368c-7.078 26.222-2.256 50.288 10.771 53.753s29.325-14.984 36.403-41.206 2.256-50.288-10.771-53.753-29.325 14.984-36.403 41.206z" fill="#ffc480"/></g><g><path d="m87.192 131.056c19.241 19.17 27.098 42.423 17.549 51.937s-32.888 1.686-52.129-17.484-27.098-42.423-17.549-51.937 32.888-1.686 52.129 17.484z" fill="#ffc480"/></g><g><ellipse cx="88.425" cy="137.987" fill="#f9ed99" rx="24.433" ry="49.126" transform="matrix(.966 -.259 .259 .966 -32.701 27.588)"/></g><g><g><path d="m80.3 140.701c.586 2.155-1.067 4.465-3.693 5.158s-5.231-.492-5.817-2.648c-.586-2.155 1.067-4.465 3.693-5.158s5.23.493 5.817 2.648z" fill="#fff"/></g><g><path d="m106.553 133.773c.586 2.155-1.067 4.465-3.693 5.158s-5.231-.492-5.817-2.648c-.586-2.155 1.067-4.465 3.693-5.158s5.231.493 5.817 2.648z" fill="#fff"/></g><g><g><path d="m91.968 150.61c-2.855.753-5.825.125-8.147-1.724-1.065-.847-1.247-2.391-.406-3.448.84-1.056 2.385-1.227 3.45-.378 2.249 1.79 5.667.888 6.706-1.77.492-1.259 1.916-1.872 3.18-1.371s1.891 1.927 1.398 3.186c-1.073 2.745-3.326 4.751-6.181 5.505z" fill="#333"/></g><g><path d="m76.955 139.174c-1.473.389-2.991-.491-3.392-1.964l-.806-2.964c-.401-1.473.468-2.983 1.94-3.371 1.473-.389 2.991.491 3.392 1.964l.806 2.964c.401 1.473-.467 2.982-1.94 3.371z" fill="#333"/></g><g><path d="m99.164 133.313c-1.473.389-2.991-.491-3.392-1.964l-.806-2.964c-.401-1.473.468-2.983 1.94-3.371 1.473-.389 2.991.491 3.392 1.964l.806 2.964c.401 1.473-.468 2.983-1.94 3.371z" fill="#333"/></g></g></g></g><g><g><path d="m381.973 131.368c7.078 26.222 2.256 50.288-10.771 53.753s-29.325-14.984-36.403-41.206-2.256-50.288 10.771-53.753 29.325 14.984 36.403 41.206z" fill="#f46080"/></g><g><path d="m380.808 131.056c-19.241 19.17-27.098 42.423-17.549 51.937s32.888 1.686 52.129-17.484 27.098-42.423 17.549-51.937-32.888-1.686-52.129 17.484z" fill="#f46080"/></g><g><ellipse cx="379.575" cy="137.987" fill="#ff80a1" rx="49.126" ry="24.433" transform="matrix(.259 -.966 .966 .259 148.048 468.915)"/></g><g><g><path d="m387.7 140.701c-.586 2.155 1.067 4.465 3.693 5.158s5.231-.492 5.817-2.648c.586-2.155-1.067-4.465-3.693-5.158s-5.23.493-5.817 2.648z" fill="#ffd2e2"/></g><g><path d="m361.447 133.773c-.586 2.155 1.067 4.465 3.693 5.158s5.231-.492 5.817-2.648c.586-2.155-1.067-4.465-3.693-5.158s-5.231.493-5.817 2.648z" fill="#ffd2e2"/></g><g><g><path d="m376.032 150.61c2.855.753 5.825.125 8.147-1.724 1.065-.847 1.247-2.391.406-3.448-.84-1.056-2.385-1.227-3.45-.378-2.249 1.79-5.667.888-6.706-1.77-.492-1.259-1.916-1.872-3.18-1.371s-1.891 1.927-1.398 3.186c1.073 2.745 3.326 4.751 6.181 5.505z" fill="#333"/></g><g><path d="m391.045 139.174c1.473.389 2.991-.491 3.392-1.964l.806-2.964c.401-1.473-.468-2.983-1.94-3.371-1.473-.389-2.991.491-3.392 1.964l-.806 2.964c-.401 1.473.467 2.982 1.94 3.371z" fill="#333"/></g><g><path d="m368.836 133.313c1.473.389 2.991-.491 3.392-1.964l.806-2.964c.401-1.473-.468-2.983-1.94-3.371-1.473-.389-2.991.491-3.392 1.964l-.806 2.964c-.401 1.473.468 2.983 1.94 3.371z" fill="#333"/></g></g></g></g><g><path d="m427.609 277.553h-8.297c-13.717-22.839-38.423-38.09-66.649-38.09-12.927 0-25.11 3.214-35.846 8.874-21.501-20.647-50.677-33.337-82.817-33.337s-61.316 12.69-82.818 33.337c-10.736-5.66-22.918-8.874-35.846-8.874-28.226 0-52.932 15.251-66.649 38.09h-8.296c-19.546 0-35.391 15.87-35.391 35.447h458c0-19.577-15.845-35.447-35.391-35.447z" fill="#fff"/></g><g><g><path d="m427.609 277.553h-8.297c-13.717-22.839-38.423-38.09-66.649-38.09-12.927 0-25.11 3.214-35.846 8.874-21.501-20.647-50.677-33.337-82.817-33.337s-61.316 12.69-82.818 33.337c-10.736-5.66-22.918-8.874-35.846-8.874-28.226 0-52.932 15.251-66.649 38.09h-8.296c-19.546 0-35.391 15.87-35.391 35.447h458c0-19.577-15.845-35.447-35.391-35.447z" fill="#b2e9cc"/></g><g><path d="m118.411 239.531c-1.02-.04-2.044-.068-3.074-.068-28.226 0-52.932 15.251-66.649 38.09h-8.296c-19.547 0-35.392 15.87-35.392 35.447h84.004c-10.433-20.851 2.391-58.962 29.407-73.469z" fill="#5cd7a8"/></g></g></g><g><g><g><path d="m93.386 463h-50.219v-217.933l25.109-40.067 25.11 40.067z" fill="#df9768"/></g><g><path d="m59.167 247.067 17.736-28.301-8.627-13.766-25.109 40.067v217.933h16z" fill="#d38451"/></g></g><g><g><path d="m203.868 463h-50.219v-217.933l25.11-40.067 25.109 40.067z" fill="#df9768"/></g><g><path d="m169.649 247.067 17.737-28.301-8.627-13.766-25.11 40.067v217.933h16z" fill="#d38451"/></g></g><g><g><path d="m314.351 463h-50.219v-217.933l25.109-40.067 25.11 40.067z" fill="#df9768"/></g><g><path d="m280.132 247.067 17.736-28.301-8.627-13.766-25.109 40.067v217.933h16z" fill="#d38451"/></g></g><g><g><path d="m424.833 463h-50.219v-217.933l25.11-40.067 25.109 40.067z" fill="#df9768"/></g><g><path d="m390.614 247.067 17.736-28.301-8.626-13.766-25.11 40.067v217.933h16z" fill="#d38451"/></g></g><g><g><path d="m5 276.981h458v44.074h-458z" fill="#df9768"/></g><g><path d="m5 276.981h17v44.074h-17z" fill="#d38451"/></g><g><circle cx="68.276" cy="299.019" fill="#333" r="7"/></g><g><circle cx="178.759" cy="299.019" fill="#333" r="7"/></g><g><circle cx="292.816" cy="299.019" fill="#333" r="7"/></g><g><circle cx="399.724" cy="299.019" fill="#333" r="7"/></g></g><g><g><path d="m5 371.981h458v44.074h-458z" fill="#df9768"/></g><g><path d="m5 371.981h17v44.074h-17z" fill="#d38451"/></g><g><circle cx="68.276" cy="394.019" fill="#333" r="7"/></g><g><circle cx="178.759" cy="394.019" fill="#333" r="7"/></g><g><circle cx="292.816" cy="394.019" fill="#333" r="7"/></g><g><circle cx="399.724" cy="394.019" fill="#333" r="7"/></g></g></g><path d="m463 326.056c2.762 0 5-2.239 5-5v-44.074c0-2.761-2.238-5-5-5h-33.167v-26.914c0-.939-.265-1.859-.764-2.655l-25.109-40.067c-1.926-3.075-6.546-3.075-8.473 0l-21.844 34.857c-4.769-1.265-9.64-2.088-14.564-2.477l11.308-43.033c31.538 5.025 71.613-36.651 71.613-66.873-.001-18.338-17.354-22.965-32.217-18.262-2.564-10.929-8.157-18.698-16.199-20.853-8.042-2.156-16.77 1.775-24.455 9.959-10.528-11.511-27.884-16.135-37.031-.292-6.549 11.343-7.363 30.443-2.125 49.847 5.99 22.193 18.079 39.072 30.752 43.898l-11.941 45.441c-10.605.49-20.814 2.99-30.445 7.457l-24.86-39.67c-1.926-3.075-6.546-3.075-8.473 0l-9.295 14.833c-8.432-3-17.12-5.05-25.977-6.168 16.452-20.923 42.99-32.004 69.617-28.512 4.243.562 7.201-4.359 4.73-7.848-13.381-18.89-36.293-26.603-58.371-19.645-11.168 3.519-20.337 10.25-26.709 19.025v-34.904c9.295-3.294 16.31-15.627 17.6-31.359 17.548 8.164 34.379 7.242 40.354-2.688 8.024-13.337-7.531-28.445-17.482-35.078 9.936-6.623 25.506-21.741 17.482-35.078-5.975-9.929-22.805-10.852-40.354-2.687-1.514-18.45-10.898-32.236-22.601-32.236s-21.087 13.786-22.6 32.234c-17.547-8.164-34.378-7.242-40.354 2.688-8.024 13.337 7.531 28.445 17.482 35.078-9.936 6.623-25.506 21.742-17.482 35.078 5.975 9.929 22.805 10.852 40.354 2.688 1.29 15.732 8.306 28.066 17.6 31.359v16.872c-6.372-8.764-15.549-15.477-26.708-18.992-22.078-6.956-44.992.755-58.373 19.645-2.469 3.487.487 8.41 4.73 7.848 33.408-4.378 66.63 14.636 79.786 45.628l.005.013c-12.392.545-24.513 2.898-36.151 7.04l-9.295-14.833c-1.927-3.075-6.546-3.075-8.474 0l-24.859 39.668c-9.631-4.465-19.839-6.962-30.445-7.452l-11.942-45.444c12.673-4.826 24.761-21.706 30.752-43.898 5.238-19.404 4.423-38.504-2.125-49.847-9.147-15.843-26.503-11.219-37.031.292-7.685-8.184-16.413-12.115-24.455-9.959-8.042 2.155-13.635 9.923-16.199 20.853-14.862-4.705-32.215-.077-32.216 18.261 0 30.222 40.075 71.898 71.613 66.873l11.306 43.023c-4.925.385-9.793 1.219-14.563 2.484l-21.843-34.854c-1.927-3.075-6.546-3.075-8.474 0l-25.109 40.066c-.499.796-.763 1.716-.763 2.655v26.914h-33.167c-2.761 0-5 2.239-5 5v44.074c0 2.761 2.239 5 5 5h33.167v40.926h-33.167c-2.761 0-5 2.239-5 5v44.074c0 2.761 2.239 5 5 5h33.167v41.945c0 2.761 2.239 5 5 5h50.219c2.761 0 5-2.239 5-5v-41.944h50.263v41.944c0 2.761 2.239 5 5 5h50.219c2.761 0 5-2.239 5-5v-41.944h50.263v41.944c0 2.761 2.238 5 5 5h50.219c2.762 0 5-2.239 5-5v-41.944h50.264v41.944c0 2.761 2.238 5 5 5h50.219c2.762 0 5-2.239 5-5v-41.944h33.167c2.762 0 5-2.239 5-5v-44.074c0-2.761-2.238-5-5-5h-33.167v-40.926zm-51.78-209.437c8.438-3.011 20.779-3.749 20.78 8.201 0 10.376-7.906 24.958-20.141 37.147-6.008 5.985-12.182 10.588-18.005 13.874 12.325-16.316 18.642-38.901 17.366-59.222zm-62.937 47.026c-3.401-5.758-6.446-12.842-8.657-21.032-4.501-16.674-4.057-33.255 1.131-42.241 5.975-10.35 16.295-3.539 22.096 3.287-11.283 16.989-17.09 39.696-14.57 59.986zm10.513 2.433c-1.905-9.415-1.192-21.177 2.008-33.12 6.259-23.358 19.333-38.484 28.248-37.842 16.944 1.22 11.7 38.923 9.294 47.901-3.2 11.943-8.464 22.486-14.822 29.686-5.456 6.18-11.057 9.061-15.37 7.907-4.311-1.155-7.722-6.452-9.358-14.532zm-231.553-65.706c5.188 8.986 5.632 25.566 1.131 42.241-2.211 8.19-5.256 15.275-8.657 21.032 2.52-20.29-3.287-42.997-14.571-59.986 5.802-6.826 16.122-13.637 22.097-3.287zm-71.102 61.595c-12.235-12.19-20.141-26.771-20.141-37.147.002-11.95 12.342-11.212 20.78-8.201-1.276 20.322 5.041 42.906 17.365 59.223-5.822-3.286-11.997-7.889-18.004-13.875zm43.705 18.643c-4.313 1.154-9.914-1.727-15.37-7.907-6.358-7.2-11.622-17.743-14.822-29.686-2.406-8.978-7.65-46.681 9.294-47.901 8.915-.642 21.989 14.484 28.248 37.842 3.2 11.943 3.913 23.706 2.008 33.12-1.636 8.08-5.047 13.377-9.358 14.532zm279.768 65.894 20.109-32.088 20.109 32.088v25.477h-40.219v-25.477zm-60.263 6.153c15.352-8.035 33.425-10.25 50.264-6.164v25.488h-50.264zm-30.11-38.241 20.109 32.088v25.477h-40.219v-25.477zm-50.122-6.273c.774-19.772 9.25-37.191 29.595-43.601 14.015-4.416 28.446-1.524 39.239 7.314-27.255.453-53.172 14.333-68.836 36.599zm-17.859-108.418c.138-2.714-2.279-5.254-4.994-5.254-.912 0-1.824.249-2.628.747-5.897 3.646-28.137 14.488-34.023 4.705-5.723-9.507 15.156-22.491 21.13-25.438 3.649-1.8 3.649-7.167 0-8.968-5.9-2.91-26.858-15.923-21.13-25.438 5.893-9.793 28.036 1.002 34.023 4.705 3.367 2.082 7.823-.555 7.622-4.507-.363-7.105 1.319-30.277 12.74-30.277 11.426 0 13.107 23.1 12.74 30.275-.201 3.952 4.255 6.589 7.622 4.507 5.898-3.646 28.136-14.488 34.023-4.705 5.724 9.509-15.157 22.49-21.131 25.438-3.647 1.8-3.647 7.167 0 8.967 6.104 3.013 26.848 15.941 21.131 25.438-5.893 9.793-28.036-1.002-34.023-4.705-3.367-2.08-7.823.554-7.622 4.507.364 7.106-1.32 30.278-12.74 30.278-11.427 0-13.107-23.1-12.74-30.275zm-6.222 75.431c-19.038-15.822-37.55-20.972-55.006-21.287 10.793-8.848 25.232-11.745 39.256-7.327 17.856 5.626 29.464 21.357 29.573 40.078 0 .086.008 1.577.019 3.83-4.004-5.69-8.673-10.801-13.842-15.294zm18.962 44.844c12.429 0 24.588 2.001 36.246 5.896l-10.35 16.516c-.499.796-.764 1.716-.764 2.655v26.914h-50.263v-26.914c0-.939-.265-1.859-.763-2.655l-10.361-16.533c11.658-3.897 23.824-5.879 36.255-5.879zm-75.351 26.504 20.109-32.089 20.11 32.089v25.477h-40.219zm-60.263-.01c16.841-4.087 34.909-1.872 50.263 6.164v19.324h-50.263zm-50.219.01 20.109-32.089 20.11 32.089v25.477h-40.219zm-38.167 69.552v-34.074h448v34.074zm359.614 10v40.926h-50.264v-40.926zm-60.263 0v40.926h-40.219v-40.926zm-50.219 0v40.926h-50.263v-40.926zm-60.263 0v40.926h-40.219v-40.926zm-50.22 0v40.926h-50.263v-40.926zm-60.263 0v40.926h-40.219v-40.926zm0 131.944h-40.219v-36.944h40.219zm110.483 0h-40.219v-36.944h40.219zm110.482 0h-40.219v-36.944h40.219zm110.482 0h-40.219v-36.944h40.219zm38.167-81.019v34.074h-448v-34.074zm-38.167-10h-40.219v-40.926h40.219z" fill="#333"/></g></svg>