<svg id="Layer_2" height="512" viewBox="0 0 128 128" width="512" xmlns="http://www.w3.org/2000/svg" data-name="Layer 2"><path d="m126.125 126.25h-124.375l20-42h84.375z" fill="#fb8c00"/><path d="m106.162 115.353 5.189 10.9h14.774l-20-42h-84.375l-4.766 10.005h55.768a37 37 0 0 1 33.41 21.095z" fill="#ef6c00"/><path d="m58.105 23.646 5.895-21.896 5.896 21.896 21.896 5.896-21.896 5.895-5.896 21.896-5.895-21.896-21.897-5.895z" fill="#ffca90"/><path d="m65.892 27.649 16.464 4.433 9.436-2.54-21.896-5.896-5.896-21.896-2.541 9.436z" fill="#dda976"/><path d="m109.836 46.669 2.872-10.669 2.873 10.669 10.669 2.873-10.669 2.872-2.873 10.669-2.872-10.669-10.669-2.872z" fill="#ffca90"/><path d="m113.579 48.671 7.953 2.141 4.718-1.27-10.669-2.873-2.873-10.669-1.27 4.718z" fill="#dda976"/><path d="m18.164 46.669-2.872-10.669-2.873 10.669-10.669 2.873 10.669 2.872 2.873 10.669 2.872-10.669 10.669-2.872z" fill="#ffca90"/><path d="m16.163 48.671 7.952 2.141 4.718-1.27-10.669-2.873-2.872-10.669-1.271 4.718z" fill="#dda976"/><g fill="#28201e"><path d="m30.333 128h-2.666a1.75 1.75 0 1 1 0-3.5h2.667a1.75 1.75 0 0 1 0 3.5z"/><path d="m126.125 128h-88.292a1.75 1.75 0 0 1 0-3.5h85.521l-18.334-38.5h-82.165l-18.334 38.5h15.646a1.75 1.75 0 1 1 0 3.5h-18.417a1.75 1.75 0 0 1 -1.58-2.5l20-42a1.75 1.75 0 0 1 1.58-1h84.375a1.75 1.75 0 0 1 1.58 1l20 42a1.75 1.75 0 0 1 -1.58 2.5z"/><path d="m64 59.083a1.75 1.75 0 0 1 -1.69-1.295l-5.633-20.923-20.924-5.634a1.75 1.75 0 0 1 0-3.38l20.923-5.633 5.634-20.923a1.75 1.75 0 0 1 3.38 0l5.633 20.923 5.153 1.387a1.75 1.75 0 0 1 -.91 3.38l-6.126-1.649a1.751 1.751 0 0 1 -1.234-1.236l-4.206-15.619-4.206 15.619a1.751 1.751 0 0 1 -1.235 1.235l-15.62 4.206 15.62 4.206a1.751 1.751 0 0 1 1.235 1.235l4.206 15.618 4.206-15.621a1.751 1.751 0 0 1 1.235-1.235l15.62-4.206-2.485-.669a1.75 1.75 0 1 1 .91-3.38l8.761 2.359a1.75 1.75 0 0 1 0 3.38l-20.924 5.637-5.633 20.924a1.75 1.75 0 0 1 -1.69 1.294z"/><path d="m112.708 64.833a1.75 1.75 0 0 1 -1.69-1.295l-2.61-9.7-9.7-2.61a1.75 1.75 0 0 1 0-3.38l9.7-2.61 2.61-9.7a1.75 1.75 0 0 1 3.38 0l2.61 9.7 9.7 2.61a1.75 1.75 0 0 1 0 3.38l-9.7 2.61-2.61 9.7a1.75 1.75 0 0 1 -1.69 1.295zm-6.808-15.291 4.393 1.183a1.751 1.751 0 0 1 1.235 1.235l1.183 4.393 1.183-4.393a1.751 1.751 0 0 1 1.235-1.235l4.393-1.183-4.393-1.183a1.751 1.751 0 0 1 -1.235-1.235l-1.183-4.393-1.183 4.393a1.751 1.751 0 0 1 -1.235 1.235z"/><path d="m15.292 64.833a1.75 1.75 0 0 1 -1.69-1.295l-2.61-9.7-9.7-2.61a1.75 1.75 0 0 1 0-3.38l9.7-2.61 2.61-9.7a1.75 1.75 0 0 1 3.38 0l2.61 9.7 9.7 2.61a1.75 1.75 0 0 1 0 3.38l-9.7 2.61-2.61 9.7a1.75 1.75 0 0 1 -1.69 1.295zm-6.811-15.291 4.393 1.183a1.751 1.751 0 0 1 1.235 1.235l1.183 4.393 1.183-4.393a1.751 1.751 0 0 1 1.235-1.235l4.39-1.183-4.393-1.183a1.751 1.751 0 0 1 -1.235-1.235l-1.183-4.393-1.183 4.393a1.751 1.751 0 0 1 -1.235 1.235z"/></g></svg>