<svg id="Layer_1" height="512" viewBox="0 0 256 256" width="512" xmlns="http://www.w3.org/2000/svg"><g><g><g><g><g><g><g><g><g><g><circle cx="128" cy="127.976" fill="#58595b" r="81.742"/></g></g></g></g><g><g><path d="m66.92 174.72c-.63 0-1.23-.3-1.61-.81-4.79-6.53-8.52-13.71-11.069-21.36-2.641-7.91-3.98-16.17-3.98-24.57 0-42.87 34.88-77.739 77.74-77.75 11.49 0 22.56 2.46 32.91 7.32 1 .47 1.43 1.66.97 2.66-.46.97-1.69 1.42-2.67.96-9.811-4.601-20.311-6.94-31.21-6.94-19.67 0-38.181 7.681-52.12 21.63-13.94 13.94-21.62 32.45-21.62 52.12 0 15.78 4.93 30.84 14.271 43.561.319.43.449.96.369 1.49-.08.529-.359.989-.79 1.31-.351.249-.761.379-1.191.379zm100.189-109.58c-.359 0-.72-.1-1.029-.29-.011-.01-.021-.01-.021-.02-.45-.271-.76-.71-.89-1.221-.13-.52-.04-1.06.229-1.51.551-.91 1.811-1.229 2.73-.68h.02c.94.57 1.25 1.81.681 2.75-.369.611-1.01.971-1.72.971z" fill="#808285"/></g></g><g><path d="m183.247 67.73c13.348 14.548 21.496 33.946 21.496 55.246 0 45.145-36.597 81.742-81.742 81.742-21.3 0-40.698-8.147-55.246-21.496 14.942 16.286 36.402 26.496 60.246 26.496 45.145 0 81.742-36.597 81.742-81.742-.001-23.844-10.21-45.304-26.496-60.246z" fill="#414042"/></g><g><g><g><g><g><g><path d="m87.54 232.931c-53.626-20.534-84.347-79.3-68.156-136.343 16.093-56.697 73.872-91.691 131.568-79.665 62.994 13.13 102.043 76.03 86.62 137.89-7.908 31.717-29.157 58.433-58.298 73.297l-5.907-11.581c25.789-13.154 44.593-36.796 51.591-64.862 13.647-54.734-20.899-110.388-76.633-122.013-50.633-10.561-100.474 18.778-115.755 68.192-15.826 51.176 11.44 104.474 59.591 122.933 3.213 1.232 4.926 4.736 3.893 8.02-1.122 3.567-5.022 5.469-8.514 4.132z" fill="#e63950"/></g></g></g><g><g><path d="m195.654 231.908-18.482-30.759c-1.625-2.704-5.605-2.513-6.963.334l-13.997 29.342c-1.221 2.559.567 5.533 3.399 5.657l32.478 1.417c3.152.138 5.189-3.287 3.565-5.991z" fill="#e8566f"/></g></g></g></g></g></g></g></g></g><g><g><circle cx="128" cy="206.556" fill="#478cf7" r="31.348"/></g><g><path d="m143.139 179.1c2.48 4.488 3.892 9.649 3.892 15.139 0 17.313-14.035 31.348-31.348 31.348-5.491 0-10.651-1.412-15.139-3.892 5.34 9.664 15.633 16.209 27.456 16.209 17.313 0 31.348-14.035 31.348-31.348 0-11.822-6.545-22.116-16.209-27.456z" fill="#377de2"/></g><g><path d="m146.873 181.524c3.965 5.25 6.316 11.787 6.316 18.873 0 17.313-14.035 31.348-31.348 31.348-7.086 0-13.623-2.352-18.873-6.316 5.722 7.577 14.805 12.475 25.031 12.475 17.313 0 31.348-14.035 31.348-31.348.001-10.227-4.897-19.309-12.474-25.032z" fill="#2266d3"/></g></g></g><g><g><g><g><path d="m103.318 136.264 11.824 11.821-25.523 25.528c-1.478 1.479-3.876 1.479-5.354.001l-6.469-6.467c-1.479-1.478-1.479-3.876-.001-5.354z" fill="#478cf7"/></g><g><g><g><path d="m131.212 90.508h6.601v52.753h-6.601z" fill="#e6e7e8" transform="matrix(-.707 -.707 .707 -.707 147 294.647)"/></g></g><g><g><path d="m167.066 79.362 4.961 4.959c.368.368.389.957.048 1.35l-8.508 9.819-8.039 5.105-4.733-4.731 5.103-8.041 9.817-8.51c.394-.339.983-.319 1.351.049z" fill="#e6e7e8"/></g></g><g><g><path d="m155.772 88.025-4.977 7.84 4.733 4.731 7.839-4.978z" fill="#d1d3d4"/></g></g></g><g><path d="m109.67 129.295 12.531 12.528c.37.37.37.969 0 1.339l-5.298 5.3c-.37.37-.969.37-1.339 0l-12.531-12.528c-.37-.37-.37-.969 0-1.339l5.298-5.3c.37-.37.97-.37 1.339 0z" fill="#5e9cf7"/></g></g><g><g><path d="m97.007 142.261h7.556v16.72h-7.556z" fill="#5e9cf7" transform="matrix(.707 -.707 .707 .707 -76.988 115.392)"/></g><g><path d="m86.957 152.314h7.556v16.72h-7.556z" fill="#5e9cf7" transform="matrix(.707 -.707 .707 .707 -87.043 111.24)"/></g></g></g><g><g><g><path d="m101.404 76.778-18.605 18.614c-.575.575-.398 1.684.395 2.477s.97 1.901.395 2.477l-3.074 3.075c-.575.575-1.684.399-2.477-.393-.793-.793-1.902-.969-2.477-.393l-4.622 4.624c-.706.706-.705 1.85.001 2.556l11.117 11.112c.706.706 1.85.705 2.556-.001l4.622-4.624c.575-.575.398-1.684-.395-2.477s-.97-1.901-.395-2.477l3.074-3.075c.575-.575 1.684-.399 2.477.393.793.793 1.902.969 2.477.393l17.588-17.598c.561-.561.561-1.471-.001-2.032l-4.013-4.011c-.586-.586-.562-1.557.065-2.099 5.068-4.383 9.779-3.83 13.535-.834.751.599 1.819.574 2.498-.105l.034-.034c.786-.786.752-2.072-.079-2.797-8.237-7.186-18.965-8.506-24.696-2.771z" fill="#e6e7e8"/></g><g><path d="m175.381 158.095-28.048-25.277c-.629-.567-1.591-.542-2.189.057l-8.41 8.413c-.598.599-.623 1.561-.056 2.189l25.291 28.036c3.629 4.105 9.969 4.299 13.842.423 3.874-3.874 3.677-10.213-.43-13.841z" fill="#ffa91a"/></g><g><g><path d="m145.039 152.745 11.568-11.57-5.621-5.065-11.015 11.017z" fill="#f79219"/></g><g><path d="m175.381 158.095-3.248-2.927-13.095 13.097 2.931 3.249c.736.832 1.586 1.495 2.501 2.004l12.917-12.92c-.509-.916-1.172-1.767-2.006-2.503z" fill="#f79219"/></g><g><path d="m154.572 163.313 12.608-12.609-5.62-5.065-12.055 12.057z" fill="#f79219"/></g></g></g><g><path d="m108.919 96.605-8.47 8.47 6.6 5.276 30.341 30.33 7.146-7.15-30.34-30.33z" fill="#d1d3d4"/></g></g></g><g><g><g><path d="m124.614 222.702c-1.395 0-2.789-.532-3.853-1.596l-10.731-10.731c-2.128-2.129-2.128-5.578 0-7.707 2.129-2.127 5.578-2.127 7.707 0l6.878 6.879 13.649-13.65c2.129-2.127 5.578-2.127 7.707 0 2.128 2.129 2.128 5.578 0 7.707l-17.503 17.503c-1.065 1.063-2.459 1.595-3.854 1.595z" fill="#fff"/></g></g></g></g></svg>