<svg id="Layer_1" enable-background="new 0 0 500 500" viewBox="0 0 500 500" xmlns="http://www.w3.org/2000/svg"><g><g><path d="m238.094 205.51-53.915 100.45-136.393-11.394-22.786-109.274s90.982-89.537 99.487-97.4l28.402 51.99z" fill="#587380"/><path d="m238.094 205.51-53.915 100.449-36.425-3.048-57.927-4.814-42.041-3.531-22.786-109.274 4.974 1.925 74.615 30.167 36.265 55.039z" fill="#37474f"/><path d="m147.754 302.911-57.927-4.814 14.762-80.713 36.265 55.039z" fill="#263238"/></g><g><path d="m228.546 357.16-52.631 56.001-90.02 41.078-51.347-55.199.159-.159c3.853-4.494 66.111-75.098 67.395-78.627z" fill="#587380"/><path d="m228.546 357.16-52.631 56-90.02 41.078-51.347-55.198.159-.16 71.085-27.279 30.167 27.439z" fill="#37474f"/><path d="m105.792 371.601-19.897 82.637 90.02-41.078-39.956-14.12z" fill="#263238"/></g><g><path d="m475 297.615-89.538 99.006-126.284-50.546 70.924-136.875 119.223 19.898z" fill="#587380"/><path d="m475 297.615-89.538 99.006-126.284-50.546 70.924-136.875v93.711h63.061l33.376 14.12z" fill="#37474f"/><path d="m330.102 302.911 55.36 93.71 41.077-79.59-33.376-14.12z" fill="#263238"/></g><g><path d="m367.088 60.684v101.252l-110.878 36.746-90.821-72.529s51.027-74.134 59.692-80.392z" fill="#587380"/><path d="m367.088 60.684v101.252l-110.878 36.746-90.822-72.529 100.77-4.011 64.827 12.035z" fill="#37474f"/><path d="m266.158 122.142 62.054 52.678 38.876-12.884v-101.252l-36.103 73.493z" fill="#263238"/></g></g></svg>