<svg id="color" height="512" viewBox="0 0 24 24" width="512" xmlns="http://www.w3.org/2000/svg"><path d="m18.25 21c-.209 0-.413-.087-.558-.248l-1.692-1.881-1.692 1.881c-.2.222-.512.306-.793.21-.283-.094-.483-.346-.511-.643l-1-10.75c-.02-.21.05-.418.192-.575.142-.156.343-.245.554-.245h6.5c.211 0 .412.089.554.245s.212.365.192.575l-1 10.75c-.027.297-.228.549-.511.643z" fill="#cfd8dc"/><path d="m16 8.75h-3.25c-.211 0-.412.089-.554.245s-.212.365-.192.575l1 10.75c.027.297.228.549.511.643.077.026.157.039.236.039.208 0 .412-.088.557-.249l1.692-1.882z" fill="#b4bcc0"/><path d="m20.654 10h-17.308c-1.292 0-2.394-.879-2.682-2.139l-.614-2.694c-.031-.124-.05-.271-.05-.417 0-.965.785-1.75 1.75-1.75h20.5c.965 0 1.75.785 1.75 1.75 0 .147-.019.294-.055.437l-.609 2.674c-.288 1.26-1.39 2.139-2.682 2.139z" fill="#607d8b"/><path d="m6 6c0 .55-.45 1-1 1h-4.54l-.41-1.83-.03-.17h4.98c.55 0 1 .45 1 1z" fill="#cfd8dc"/><path d="m23.97 5-.03.19-.41 1.81h-3.53c-.55 0-1-.45-1-1s.45-1 1-1z" fill="#cfd8dc"/><path d="m23.76 6h-.003l-.227 1h-3.53c-.55 0-1-.45-1-1h-13c0 .55-.45 1-1 1h-4.532l.196.861c.288 1.26 1.39 2.139 2.682 2.139h17.309c1.292 0 2.394-.879 2.682-2.139z" fill="#546d79"/><g fill="#b4bcc0"><path d="m6 6h-5.764l.224 1h.008 4.532c.55 0 1-.45 1-1z"/><path d="m23.757 6h-4.757c0 .55.45 1 1 1h3.53z"/></g></svg>