<svg height="512" viewBox="0 0 64 64" width="512" xmlns="http://www.w3.org/2000/svg"><g id="Layer_31" data-name="Layer 31"><path d="m5 27h54v36h-54z" fill="#7a838b"/><path d="m10.269 29h48.731v-2h-54v36h54v-3h-10v-8h-4v6a2 2 0 0 1 -2 2h-2a33 33 0 0 1 -32.722-28.749 2 2 0 0 1 1.991-2.251z" fill="#5d6972"/><path d="m56 33h-16a2 2 0 0 0 -2 2h-2a2 2 0 0 0 0 4h2a2 2 0 0 0 2 2h16a2 2 0 0 0 2-2v-4a2 2 0 0 0 -2-2z" fill="#5d6972"/><path d="m27 37h10a2 2 0 0 1 2 2v24a0 0 0 0 1 0 0h-14a0 0 0 0 1 0 0v-24a2 2 0 0 1 2-2z" fill="#a7d0e1"/><path d="m36 39h2a1.994 1.994 0 0 0 1 1.723v-1.723a2 2 0 0 0 -2-2h-3a2 2 0 0 0 2 2z" fill="#80bbce"/><path d="m25 55.862v7.138h14v-3.066a32.807 32.807 0 0 1 -14-4.072z" fill="#80bbce"/><g fill="#a7d0e1"><path d="m9 37h6v6h-6z"/><path d="m15 37h6v6h-6z"/><path d="m9 43h6v6h-6z"/><path d="m15 43h6v6h-6z"/><rect height="6" rx="2" width="62" x="1" y="21"/></g><path d="m5 21 27-20 27 20z" fill="#7a838b"/><path d="m7 24a3 3 0 0 1 -3-3h-1a2 2 0 0 0 -2 2v2a2 2 0 0 0 2 2h58a2 2 0 0 0 2-2v-1z" fill="#80bbce"/><path d="m22.739 10.786 11.236-8.323-1.975-1.463-27 20h54l-4.05-3h-29.83a4 4 0 0 1 -2.381-7.214z" fill="#5d6972"/><path d="m14 57a2.975 2.975 0 0 0 -1.368.344 3.986 3.986 0 0 0 -7.264 0 2.995 2.995 0 1 0 -1.368 5.656h10a3 3 0 0 0 0-6z" fill="#72aa65"/><rect fill="#f8c460" height="8" rx="2" width="20" x="39" y="31"/><path d="m47 36a5 5 0 0 1 -5-5h-1a2 2 0 0 0 -2 2v4a2 2 0 0 0 2 2h16a2 2 0 0 0 2-2v-1z" fill="#faaf42"/><path d="m4 57a3 3 0 0 0 0 6h10a3 3 0 0 0 3-3h-10a3 3 0 0 1 -3-3z" fill="#599149"/><path d="m47 51h4a0 0 0 0 1 0 0v10a2 2 0 0 1 -2 2 2 2 0 0 1 -2-2v-10a0 0 0 0 1 0 0z" fill="#f8c460"/><path d="m47 60h4a0 0 0 0 1 0 0v1a2 2 0 0 1 -2 2 2 2 0 0 1 -2-2v-1a0 0 0 0 1 0 0z" fill="#faaf42"/><path d="m37 33h2a0 0 0 0 1 0 0v4a0 0 0 0 1 0 0h-2a2 2 0 0 1 -2-2 2 2 0 0 1 2-2z" fill="#f8c460"/><path d="m37 33h2v4h-2z" fill="#faaf42"/><path d="m12.13 43h-3.13v-6h.54a33.026 33.026 0 0 0 2.59 6z" fill="#80bbce"/><path d="m15 47.34v1.66h-6v-6h3.13a33.944 33.944 0 0 0 2.87 4.34z" fill="#80bbce"/><path d="m15 47.31v1.69h1.41c-.49-.547-.958-1.112-1.41-1.69z" fill="#80bbce"/><path d="m21 50a1 1 0 0 0 1-1v-12a1 1 0 0 0 -1-1h-12a1 1 0 0 0 -1 1v12a1 1 0 0 0 1 1zm-11-6h4v4h-4zm10 4h-4v-4h4zm0-6h-4v-4h4zm-10-4h4v4h-4z"/><circle cx="36" cy="51" r="1"/><path d="m60 33.1v-.1a3 3 0 0 0 -3-3h-16a3 3 0 0 0 -2.816 2h-1.184a3 3 0 0 0 0 6h1.184a3 3 0 0 0 2.816 2h16a3 3 0 0 0 3-3v-1.816a3 3 0 0 1 2 2.816v1a3 3 0 0 1 -3 3h-6a5.006 5.006 0 0 0 -5 5v3h-1a1 1 0 0 0 -1 1v10a2.966 2.966 0 0 0 .184 1h-6.184v-19a1 1 0 0 0 -2 0v19h-12v-23a1 1 0 0 1 1-1h4a1 1 0 0 0 0-2h-4a3 3 0 0 0 -3 3v23h-6.556a3.959 3.959 0 0 0 .556-2 4 4 0 0 0 -4-4 3.828 3.828 0 0 0 -.928.114 4.979 4.979 0 0 0 -8.144 0 3.834 3.834 0 0 0 -.928-.114 4 4 0 0 0 0 8h55a1 1 0 0 0 1-1v-16a1 1 0 0 0 -2 0v15h-6.184a2.966 2.966 0 0 0 .184-1v-10a1 1 0 0 0 -1-1h-1v-3a3 3 0 0 1 3-3h6a5.006 5.006 0 0 0 5-5v-1a5.009 5.009 0 0 0 -4-4.9zm-24 1.9a1 1 0 0 1 1-1h1v2h-1a1 1 0 0 1 -1-1zm22 2a1 1 0 0 1 -1 1h-16a1 1 0 0 1 -1-1v-4a1 1 0 0 1 1-1h16a1 1 0 0 1 1 1zm-54 25a2 2 0 0 1 0-4 1.969 1.969 0 0 1 .909.233 1 1 0 0 0 1.369-.473 2.985 2.985 0 0 1 5.444 0 1 1 0 0 0 1.369.473 1.995 1.995 0 1 1 .909 3.767zm44-1v-9h2v9a1 1 0 0 1 -2 0z"/><path d="m61 20h-1.669l-26.731-19.8a1 1 0 0 0 -1.2 0l-26.731 19.8h-1.669a3 3 0 0 0 -3 3v2a3 3 0 0 0 3 3h1v25a1 1 0 0 0 2 0v-25h41a1 1 0 0 0 0-2h-44a1 1 0 0 1 -1-1v-2a1 1 0 0 1 1-1h58a1 1 0 0 1 1 1v2a1 1 0 0 1 -1 1h-10a1 1 0 0 0 0 2h10a3 3 0 0 0 3-3v-2a3 3 0 0 0 -3-3zm-52.97 0 23.97-17.756 23.97 17.756z"/><path d="m59 24h-2a1 1 0 0 1 0-2h2a1 1 0 0 1 0 2z" fill="#fff"/><path d="m57 34h-2a1 1 0 0 1 0-2h2a1 1 0 0 1 0 2z" fill="#fff"/><circle cx="19" cy="39" fill="#fff" r="1"/></g></svg>