<svg version="1.1" id="Layer_1" xmlns="http://www.w3.org/2000/svg" xmlns:xlink="http://www.w3.org/1999/xlink" x="0px" y="0px" viewBox="0 0 512 512" style="enable-background:new 0 0 512 512;" xml:space="preserve">
<g>
	<path style="fill:#0055A3;" d="M493.688,200.951L259.171,8.634c-1.843-1.512-4.498-1.512-6.341,0L18.312,200.951&#10;&#9;&#9;c-3.631,2.978-1.526,8.866,3.171,8.866h27.611c2.761,0,5,2.239,5,5V499.5c0,2.761,2.239,5,5,5h393.812c2.761,0,5-2.239,5-5V214.818&#10;&#9;&#9;c0-2.761,2.239-5,5-5h27.611C495.214,209.818,497.32,203.929,493.688,200.951z"/>
	<path style="fill:#01C0FA;" d="M424.344,473.438H87.656c-1.381,0-2.5-1.119-2.5-2.5V318.125l62.125-108.719h277.062&#10;&#9;&#9;c1.381,0,2.5,1.119,2.5,2.5v259.031C426.844,472.318,425.724,473.438,424.344,473.438z"/>
	<path style="fill:#08A9F1;" d="M424.344,209.406h-17.5v222.154c0,14.844-12.033,26.877-26.877,26.877H85.156v12.5&#10;&#9;&#9;c0,1.381,1.119,2.5,2.5,2.5h336.688c1.381,0,2.5-1.119,2.5-2.5V211.906C426.844,210.526,425.724,209.406,424.344,209.406z"/>
	<path style="fill:#DFF6FD;" d="M112.281,318.125H85.156V211.906c0-1.381,1.119-2.5,2.5-2.5h59.625v73.719&#10;&#9;&#9;C147.281,302.455,131.611,318.125,112.281,318.125z"/>
	<path style="fill:none;stroke:#000000;stroke-width:15;stroke-linecap:round;stroke-linejoin:round;stroke-miterlimit:10;" d="&#10;&#9;&#9;M368.917,209.406h55.427c1.381,0,2.5,1.119,2.5,2.5v259.031c0,1.381-1.119,2.5-2.5,2.5H87.656c-1.381,0-2.5-1.119-2.5-2.5V318.125"/>
	
		<line style="fill:none;stroke:#000000;stroke-width:15;stroke-linecap:round;stroke-linejoin:round;stroke-miterlimit:10;" x1="147.281" y1="209.406" x2="333.917" y2="209.406"/>
	<path style="fill:none;stroke:#000000;stroke-width:15;stroke-linecap:round;stroke-linejoin:round;stroke-miterlimit:10;" d="&#10;&#9;&#9;M162.812,82.453L18.312,200.951c-3.631,2.978-1.526,8.866,3.171,8.866h27.611c2.761,0,5,2.239,5,5V499.5c0,2.761,2.239,5,5,5&#10;&#9;&#9;h393.812c2.761,0,5-2.239,5-5V214.818c0-2.761,2.239-5,5-5h27.611c4.696,0,6.802-5.888,3.171-8.866L259.171,8.634&#10;&#9;&#9;c-1.843-1.512-4.498-1.512-6.341,0l-62.56,51.303"/>
	<path style="fill:none;stroke:#000000;stroke-width:15;stroke-linecap:round;stroke-linejoin:round;stroke-miterlimit:10;" d="&#10;&#9;&#9;M318.125,395.781h-46.594v-23.297c0-12.866,10.43-23.297,23.297-23.297h0c12.866,0,23.297,10.43,23.297,23.297V395.781z"/>
	
		<polyline style="fill:none;stroke:#000000;stroke-width:15;stroke-linecap:round;stroke-linejoin:round;stroke-miterlimit:10;" points="&#10;&#9;&#9;271.531,442.375 271.531,395.781 318.125,395.781 318.125,442.375 &#9;"/>
	<path style="fill:none;stroke:#000000;stroke-width:15;stroke-linecap:round;stroke-linejoin:round;stroke-miterlimit:10;" d="&#10;&#9;&#9;M395.781,419.078c0,12.866-10.43,23.297-23.297,23.297h0c-12.866,0-23.297-10.43-23.297-23.297v-46.594&#10;&#9;&#9;c0-12.866,10.43-23.297,23.297-23.297h0c12.866,0,23.297,10.43,23.297,23.297"/>
	
		<polyline style="fill:none;stroke:#000000;stroke-width:15;stroke-linecap:round;stroke-linejoin:round;stroke-miterlimit:10;" points="&#10;&#9;&#9;162.812,349.188 162.812,395.781 116.219,395.781 116.219,349.188 &#9;"/>
	
		<polyline style="fill:none;stroke:#000000;stroke-width:15;stroke-linecap:round;stroke-linejoin:round;stroke-miterlimit:10;" points="&#10;&#9;&#9;116.219,442.375 116.219,395.781 162.812,395.781 162.812,442.375 &#9;"/>
	
		<line style="fill:none;stroke:#000000;stroke-width:15;stroke-linecap:round;stroke-linejoin:round;stroke-miterlimit:10;" x1="162.812" y1="349.188" x2="162.812" y2="442.375"/>
	
		<polyline style="fill:none;stroke:#000000;stroke-width:15;stroke-linecap:round;stroke-linejoin:round;stroke-miterlimit:10;" points="&#10;&#9;&#9;193.875,349.188 217.172,442.375 240.469,349.188 &#9;"/>
	<path style="fill:none;stroke:#000000;stroke-width:15;stroke-linecap:round;stroke-linejoin:round;stroke-miterlimit:10;" d="&#10;&#9;&#9;M240.469,250.234c4.578-2.22,9.573-4.234,18.634-4.234c20.189,0,20.189,10,40.379,10c20.192,0,20.192-10,40.384-10&#10;&#9;&#9;c20.192,0,20.192,10,40.384,10"/>
	<path style="fill:none;stroke:#000000;stroke-width:15;stroke-linecap:round;stroke-linejoin:round;stroke-miterlimit:10;" d="&#10;&#9;&#9;M178.344,246c16.488,0,19.511,6.67,31.062,9.115"/>
	<path style="fill:none;stroke:#000000;stroke-width:15;stroke-linecap:round;stroke-linejoin:round;stroke-miterlimit:10;" d="&#10;&#9;&#9;M302.594,286.978c17.139-0.97,18.174-9.915,37.272-9.915c20.192,0,20.192,10,40.384,10"/>
	<path style="fill:none;stroke:#000000;stroke-width:15;stroke-linecap:round;stroke-linejoin:round;stroke-miterlimit:10;" d="&#10;&#9;&#9;M178.344,277.062c20.189,0,20.189,10,40.378,10c20.19,0,20.19-10,40.38-10c5.285,0,9.187,0.685,12.429,1.697"/>
	<path style="fill:none;stroke:#000000;stroke-width:15;stroke-linecap:round;stroke-linejoin:round;stroke-miterlimit:10;" d="&#10;&#9;&#9;M178.344,308.125c20.189,0,20.189,10,40.378,10c20.19,0,20.19-10,40.38-10c20.189,0,20.189,10,40.379,10&#10;&#9;&#9;c20.192,0,20.192-10,40.384-10c20.192,0,20.192,10,40.384,10"/>
	<path style="fill:none;stroke:#000000;stroke-width:15;stroke-linecap:round;stroke-linejoin:round;stroke-miterlimit:10;" d="&#10;&#9;&#9;M147.281,269.661v13.464c0,19.33-15.67,35-35,35H85.156V211.906c0-1.381,1.119-2.5,2.5-2.5h59.625v25.254"/>
</g>
<g>
</g>
<g>
</g>
<g>
</g>
<g>
</g>
<g>
</g>
<g>
</g>
<g>
</g>
<g>
</g>
<g>
</g>
<g>
</g>
<g>
</g>
<g>
</g>
<g>
</g>
<g>
</g>
<g>
</g>
</svg>