<svg id="Layer_1" enable-background="new 0 0 512 512" height="512" viewBox="0 0 512 512" width="512" xmlns="http://www.w3.org/2000/svg"><g id="_x35_0_Smart_irrigation"><g><path d="m508.743 139.64v19.145c0 6.079-4.928 11.007-11.007 11.007h-483.471c-6.079 0-11.007-4.928-11.007-11.007v-19.145c0-6.079 4.928-11.007 11.007-11.007h483.472c6.078-.001 11.006 4.928 11.006 11.007z" fill="#878787"/><ellipse cx="255.998" cy="80.105" fill="#eef0ee" rx="10.219" ry="10.219" transform="matrix(.707 -.707 .707 .707 18.337 204.48)"/><path d="m343.785 129.496v39.43c0 7.604-6.164 13.767-13.767 13.767h-148.035c-7.604 0-13.767-6.164-13.767-13.767v-39.43c0-7.604 6.164-13.767 13.767-13.767h148.035c7.603.001 13.767 6.165 13.767 13.767z" fill="#eef0ee"/><path d="m465.655 471.423h-419.308c0-37.943 30.76-68.706 68.705-68.706h281.896c37.944.001 68.707 30.763 68.707 68.706z" fill="#b37f59"/><g><path d="m192.325 452.951h-8.942c-1.799 0-3.257-1.458-3.257-3.257s1.458-3.257 3.257-3.257h8.942c1.799 0 3.257 1.458 3.257 3.257s-1.458 3.257-3.257 3.257z" fill="#fff"/></g><g><path d="m166.18 452.951h-33.888c-1.799 0-3.257-1.458-3.257-3.257s1.458-3.257 3.257-3.257h33.889c1.799 0 3.257 1.458 3.257 3.257s-1.458 3.257-3.258 3.257z" fill="#fff"/></g><g fill="#a1d51c"><path d="m169.525 304.526c14.228 14.228 10.622 40.836 10.622 40.836s-26.608 3.606-40.836-10.622c-14.2-14.2-10.594-40.807-10.594-40.807s26.607-3.607 40.808 10.593z"/><path d="m191.584 304.526c-14.228 14.228-10.622 40.836-10.622 40.836s26.608 3.606 40.836-10.622c14.2-14.2 10.594-40.807 10.594-40.807s-26.608-3.607-40.808 10.593z"/><path d="m320.418 304.526c14.228 14.228 10.622 40.836 10.622 40.836s-26.608 3.606-40.836-10.622c-14.2-14.2-10.594-40.807-10.594-40.807s26.608-3.607 40.808 10.593z"/><path d="m342.477 304.526c-14.228 14.228-10.622 40.836-10.622 40.836s26.608 3.606 40.836-10.622c14.2-14.2 10.594-40.807 10.594-40.807s-26.608-3.607-40.808 10.593z"/></g><path d="m274.701 167.465 5.603 15.228h-48.608l5.603-15.228c1.657-4.503 5.946-7.495 10.744-7.495h15.915c4.798 0 9.086 2.993 10.743 7.495z" fill="#f9e109"/><path d="m213.072 243.467c0 9.057-7.342 16.4-16.4 16.4s-16.4-7.342-16.4-16.4 16.4-27.118 16.4-27.118 16.4 18.062 16.4 27.118z" fill="#65c5ef"/><path d="m272.4 243.467c0 9.057-7.342 16.4-16.4 16.4s-16.4-7.342-16.4-16.4 16.4-27.118 16.4-27.118 16.4 18.062 16.4 27.118z" fill="#65c5ef"/><path d="m331.727 243.467c0 9.057-7.342 16.4-16.4 16.4s-16.4-7.342-16.4-16.4 16.4-27.118 16.4-27.118 16.4 18.062 16.4 27.118z" fill="#65c5ef"/><g><path d="m47.311 110.145h9.486c1.799 0 3.257-1.458 3.257-3.257s-1.458-3.257-3.257-3.257h-9.486c-1.799 0-3.257 1.458-3.257 3.257s1.458 3.257 3.257 3.257z"/><path d="m74.842 110.145h51.853c1.799 0 3.257-1.458 3.257-3.257s-1.458-3.257-3.257-3.257h-51.853c-1.799 0-3.257 1.458-3.257 3.257s1.458 3.257 3.257 3.257z"/><path d="m497.735 125.376h-151.22c-1.849-7.399-8.534-12.904-16.498-12.904h-148.035c-7.964 0-14.648 5.504-16.498 12.904h-151.219c-7.865 0-14.265 6.399-14.265 14.265v19.143c0 7.865 6.399 14.265 14.265 14.265h151.22c1.85 7.398 8.535 12.904 16.497 12.904h148.035c7.964 0 14.647-5.505 16.497-12.904h151.22c7.865 0 14.265-6.399 14.265-14.265v-19.143c.001-7.866-6.399-14.265-14.264-14.265zm-491.221 33.407v-19.143c0-4.274 3.476-7.75 7.75-7.75h150.696v34.644h-150.695c-4.275-.001-7.751-3.476-7.751-7.751zm229.849 20.654 3.99-10.847c1.18-3.207 4.269-5.361 7.689-5.361h15.913c3.42 0 6.509 2.155 7.689 5.361l3.99 10.847zm104.164-10.512c0 5.797-4.715 10.512-10.509 10.512h-47.441l-4.818-13.097c-2.117-5.759-7.664-9.626-13.802-9.626h-15.913c-6.138 0-11.685 3.868-13.802 9.626l-4.818 13.097h-47.441c-5.794 0-10.509-4.715-10.509-10.512v-39.43c0-5.794 4.715-10.509 10.509-10.509h148.035c5.794 0 10.509 4.715 10.509 10.509zm164.959-10.142c0 4.274-3.476 7.75-7.75 7.75h-150.696v-34.643h150.695c4.274 0 7.75 3.476 7.75 7.75v19.143z"/><path d="m214.949 39.052c22.636-22.636 59.466-22.636 82.101 0 1.273 1.273 3.333 1.272 4.605 0s1.272-3.333 0-4.605c-25.176-25.176-66.137-25.176-91.313 0-1.272 1.272-1.272 3.333 0 4.605 1.274 1.273 3.335 1.273 4.607 0z"/><path d="m289.613 51.096c1.272-1.272 1.272-3.333 0-4.605-18.534-18.534-48.693-18.534-67.226 0-1.272 1.272-1.272 3.333 0 4.605s3.333 1.272 4.605 0c15.995-15.995 42.02-15.995 58.016 0 1.272 1.272 3.333 1.272 4.605 0z"/><path d="m277.572 63.139c1.272-1.272 1.272-3.333 0-4.605-11.9-11.905-31.24-11.91-43.145 0-1.272 1.272-1.272 3.333 0 4.605s3.333 1.272 4.605 0c9.353-9.353 24.581-9.353 33.934 0 1.274 1.273 3.334 1.272 4.606 0z"/><path d="m242.524 80.104c0 7.43 6.046 13.476 13.476 13.476s13.476-6.046 13.476-13.476-6.046-13.476-13.476-13.476-13.476 6.045-13.476 13.476zm20.438 0c0 3.84-3.122 6.962-6.962 6.962s-6.962-3.122-6.962-6.962 3.122-6.962 6.962-6.962 6.962 3.122 6.962 6.962z"/><path d="m417.674 489.921h-9.484c-1.799 0-3.257 1.458-3.257 3.257s1.458 3.257 3.257 3.257h9.484c1.799 0 3.257-1.458 3.257-3.257s-1.458-3.257-3.257-3.257z"/><path d="m390.145 489.921h-51.88c-1.799 0-3.257 1.458-3.257 3.257s1.458 3.257 3.257 3.257h51.88c1.799 0 3.257-1.458 3.257-3.257s-1.458-3.257-3.257-3.257z"/><path d="m396.949 399.46h-62.245v-50.57c1.299.083 2.912.153 4.786.153 9.501 0 25.244-1.741 35.503-12 15.165-15.168 11.674-42.394 11.516-43.547-.196-1.45-1.338-2.593-2.789-2.789-1.152-.158-28.386-3.651-43.547 11.516-4.164 4.164-6.917 9.231-8.728 14.416-1.811-5.185-4.564-10.252-8.728-14.416-15.163-15.168-42.397-11.674-43.547-11.516-1.45.196-2.593 1.338-2.789 2.789-.158 1.152-3.649 28.379 11.516 43.547 10.259 10.259 26 12 35.501 12 1.876 0 3.49-.068 4.789-.153v50.57h-144.375v-50.57c1.299.083 2.912.153 4.786.153 9.501 0 25.244-1.741 35.503-12 15.165-15.168 11.674-42.394 11.517-43.547-.196-1.45-1.338-2.593-2.789-2.789-1.152-.158-28.384-3.651-43.547 11.516-4.164 4.164-6.917 9.231-8.728 14.416-1.811-5.185-4.564-10.252-8.728-14.416-15.168-15.168-42.399-11.674-43.547-11.516-1.45.196-2.593 1.338-2.789 2.789-.158 1.152-3.651 28.379 11.516 43.547 10.259 10.259 26 12 35.501 12 1.876 0 3.49-.068 4.789-.153v50.57h-62.245c-39.682 0-71.964 32.283-71.964 71.964 0 1.799 1.458 3.257 3.257 3.257h419.308c1.799 0 3.257-1.458 3.257-3.257.002-39.682-32.28-71.964-71.96-71.964zm-52.168-92.631c10.427-10.427 28.797-10.315 35.506-9.895.44 6.723.557 25.046-9.898 35.503-10.45 10.453-28.817 10.341-35.537 9.923-.794-12.124 1.331-26.933 9.929-35.531zm-52.274 25.608c-10.422-10.425-10.326-28.771-9.896-35.503 6.738-.415 25.079-.529 35.503 9.895 10.448 10.448 10.354 28.807 9.923 35.535-6.731.444-25.055.549-35.53-9.927zm-98.619-25.608c10.427-10.427 28.794-10.315 35.506-9.895.44 6.723.557 25.046-9.898 35.503-10.45 10.453-28.815 10.341-35.537 9.923-.795-12.124 1.331-26.933 9.929-35.531zm-52.275 25.608c-10.425-10.427-10.326-28.782-9.896-35.506 6.736-.442 25.048-.555 35.503 9.898 10.448 10.448 10.354 28.807 9.923 35.535-6.729.444-25.054.549-35.53-9.927zm-91.932 135.731c1.705-34.582 30.374-62.193 65.372-62.193h281.895c34.995 0 63.665 27.611 65.369 62.193z"/><path d="m216.328 243.467c0-10.026-15.479-27.362-17.241-29.305-.618-.682-1.493-1.069-2.412-1.069s-1.794.387-2.412 1.069c-1.764 1.944-17.244 19.28-17.244 29.305 0 10.839 8.817 19.657 19.657 19.657 10.836 0 19.652-8.816 19.652-19.657zm-32.796 0c0-4.959 7.29-15.231 13.143-22.165 5.85 6.934 13.14 17.206 13.14 22.165 0 7.247-5.895 13.143-13.14 13.143-7.247 0-13.143-5.896-13.143-13.143z"/><path d="m275.657 243.467c0-10.026-15.481-27.362-17.244-29.305-1.237-1.363-3.588-1.363-4.824 0-1.764 1.944-17.244 19.28-17.244 29.305 0 10.839 8.817 19.657 19.657 19.657 10.837 0 19.655-8.816 19.655-19.657zm-32.8 0c0-4.959 7.29-15.231 13.143-22.168 5.852 6.936 13.143 17.208 13.143 22.168 0 7.247-5.895 13.143-13.143 13.143s-13.143-5.896-13.143-13.143z"/><path d="m334.982 243.467c0-10.026-15.481-27.362-17.244-29.305-1.237-1.363-3.588-1.363-4.824 0-1.764 1.944-17.241 19.28-17.241 29.305 0 10.839 8.817 19.657 19.654 19.657 10.838 0 19.655-8.816 19.655-19.657zm-32.796 0c0-4.959 7.29-15.231 13.14-22.165 5.852 6.934 13.143 17.206 13.143 22.165 0 7.247-5.895 13.143-13.143 13.143-7.245 0-13.14-5.896-13.14-13.143z"/></g></g></g></svg>