<svg clip-rule="evenodd" fill-rule="evenodd" height="2.333in" image-rendering="optimizeQuality" shape-rendering="geometricPrecision" text-rendering="geometricPrecision" viewBox="0 0 2333.33 2333.33" width="2.333in" xmlns="http://www.w3.org/2000/svg" xmlns:xodm="http://www.corel.com/coreldraw/odm/2003"><g id="Layer_x0020_1"><g fill="#212121"><path d="m1965.89 1502.76h-990.58c-11.04 0-20-8.97-20-20v-258.57c0-11.04 8.96-20 20-20h990.58c11.04 0 20 8.97 20 20v258.56c.02 11.04-8.96 20.01-20 20.01zm-970.58-40h950.58v-218.56h-950.58z"/><path d="m1306.06 1502.76c-11.04 0-20-8.97-20-20v-258.57c0-11.04 8.97-20 20-20s20 8.97 20 20v258.56c0 11.04-8.97 20.01-20 20.01z"/><path d="m1635.13 1502.76c-11.04 0-20-8.97-20-20v-258.57c0-11.04 8.97-20 20-20s20 8.97 20 20v258.56c0 11.04-8.95 20.01-20 20.01z"/><path d="m1965.89 1761.31h-1198.77c-11.04 0-20-8.97-20-20v-258.57c0-11.04 8.96-20 20-20h1198.77c11.04 0 20 8.97 20 20v258.56c.02 11.04-8.96 20.01-20 20.01zm-1178.77-40.01h1158.76v-218.55h-1158.76z"/><path d="m1167.39 1761.31c-11.04 0-20-8.97-20-20v-258.57c0-11.04 8.96-20 20-20s20 8.97 20 20v258.56c.01 11.04-8.96 20.01-20 20.01z"/><path d="m1565.61 1761.31c-11.04 0-20-8.97-20-20v-258.57c0-11.04 8.97-20 20-20s20 8.97 20 20v258.56c0 11.04-8.95 20.01-20 20.01z"/><path d="m1965.89 2019.87h-1366.66c-11.04 0-20-8.97-20-20v-258.57c0-11.04 8.96-20 20-20h1366.66c11.04 0 20 8.97 20 20v258.56c.02 11.04-8.96 20.01-20 20.01zm-1346.66-40.01h1326.67v-218.55h-1326.67z"/><path d="m1055.54 2019.87c-11.04 0-20-8.97-20-20v-258.57c0-11.04 8.96-20 20-20s20 8.97 20 20v258.56c0 11.04-8.94 20.01-20 20.01z"/><path d="m1509.56 2019.87c-11.04 0-20-8.97-20-20v-258.57c0-11.04 8.97-20 20-20s20 8.97 20 20v258.56c0 11.04-8.95 20.01-20 20.01z"/><path d="m1109.05 1100.56c-2.79 0-5.57-.58-8.18-1.75-5.42-2.43-132.7-62.49-133.1-323.92-.02-11.04 8.93-20.01 19.97-20.02h.03c11.03 0 19.98 8.93 20 19.97.31 196.66 77.26 265.76 102.06 282.91l605.65-308.4c9.93-11.26 15.17-22.2 15.58-32.59-.1-9.54-4.96-20.59-14.51-32.17l-595.13-328.3c-25.15 16.18-104.52 82.63-111.36 279.4-.37 11.04-9.74 19.95-20.68 19.29-11.04-.37-19.68-9.64-19.29-20.68 9.06-261.27 138.27-317.1 143.76-319.35 5.59-2.3 11.94-1.93 17.23 1l607.96 335.37c2.03 1.11 3.83 2.57 5.36 4.3 17.52 19.93 26.48 40.72 26.64 61.78-.86 21.98-10.5 42.46-28.68 61.8-1.57 1.68-3.43 3.08-5.5 4.13l-618.74 315.06c-2.84 1.44-5.96 2.17-9.06 2.17z"/><path d="m1089.12 796.52c-.5 0-1 0-1.51-.02l-305.81-5.06c-11.04-.18-19.84-9.27-19.67-20.33.18-11.06 9.29-19.85 20.33-19.67l305.83 5.05c27.48.78 50.31-21.56 50.76-49.1.22-13.26-4.79-25.86-14.1-35.5-9.31-9.63-21.74-15.06-35.01-15.28l-305.83-5.05c-11.04-.18-19.84-9.28-19.67-20.33.19-11.04 9.57-19.82 20.33-19.67l305.82 5.06c49.58.82 89.25 41.82 88.43 91.42-.83 49.1-41.01 88.45-89.92 88.47z"/><path d="m768.49 813.98c-.11 0-.45 0-.56 0l-387.56-6.41c-18.45-.3-33.22-15.57-32.93-34.02l2.63-158.41c.29-18.15 15.31-32.91 33.48-32.91l388.11 6.41c18.46.3 33.22 15.57 32.93 34.02l-2.62 158.39c-.31 18.15-15.33 32.93-33.48 32.93zm-380.94-46.3 374.52 6.19 2.4-145.35-374.53-6.21-2.4 145.37z"/><path d="m682.34 751.28c-.24 0-.46 0-.69-.02-11.04-.36-19.67-9.61-19.31-20.65l2.17-64.61c.36-11.04 9.68-19.9 20.65-19.31 11.04.36 19.67 9.61 19.31 20.65l-2.17 64.61c-.35 10.81-9.23 19.33-19.96 19.33z"/><path d="m574.95 750.39c-.24 0-.46 0-.69-.02-11.04-.36-19.69-9.61-19.31-20.65l2.15-64.61c.36-11.04 10.02-19.98 20.65-19.31 11.04.36 19.69 9.61 19.31 20.65l-2.15 64.61c-.36 10.82-9.23 19.33-19.96 19.33z"/><path d="m467.57 749.52c-.24 0-.46 0-.68-.02-11.04-.36-19.69-9.61-19.31-20.65l2.15-64.61c.36-11.04 10.02-19.74 20.65-19.31 11.04.36 19.69 9.61 19.31 20.65l-2.15 64.61c-.35 10.81-9.23 19.33-19.96 19.33z"/></g><path d="m1008.08 795.19c5.36 181.12 77.82 246.02 101.74 262.56l605.65-308.4c9.93-11.26 15.17-22.2 15.58-32.59-.1-9.54-4.96-20.59-14.51-32.17l-595.13-328.3c-24.26 15.61-98.98 77.99-110.37 259.02l79.57 1.31c49.58.82 89.25 41.82 88.43 91.42-.83 49.1-41.01 88.45-89.92 88.47l-1.51-.02-79.53-1.31z" fill="#b3b3b3"/><path d="m802.46 751.78 285.83 4.72c27.48.78 50.31-21.56 50.76-49.1.22-13.26-4.79-25.86-14.1-35.5-9.31-9.63-21.74-15.06-35.01-15.28l-285.83-4.72-1.65 99.87z" fill="#5c6365"/><path d="m762.13 771.12 2.32-139.87.03-2.72-374.53-6.21-2.4 145.37 374.52 6.19.05-2.76zm-57.65-103.78-2.17 64.61c-.35 10.81-9.23 19.33-19.96 19.33l-.69-.02c-11.04-.36-19.67-9.61-19.31-20.65l2.17-64.61c.36-11.04 9.68-19.9 20.65-19.31 11.04.36 19.67 9.61 19.31 20.65zm-107.41-.89-2.15 64.61c-.36 10.82-9.23 19.33-19.96 19.33l-.69-.02c-11.04-.36-19.69-9.61-19.31-20.65l2.15-64.61c.36-11.04 10.02-19.98 20.65-19.31 11.04.36 19.69 9.61 19.31 20.65zm-109.54 63.74c-.35 10.81-9.23 19.33-19.96 19.33l-.68-.02c-11.04-.36-19.69-9.61-19.31-20.65l2.15-64.61c.36-11.04 10.02-19.74 20.65-19.31 11.04.36 19.69 9.61 19.31 20.65l-2.15 64.61z" fill="#ffa725"/><path d="m1286.06 1244.2h-290.75v218.55h172.08 118.67z" fill="#c87d73"/><path d="m1326.06 1244.2v218.55h239.55 49.52v-218.55z" fill="#c87d73"/><path d="m1655.13 1244.2v218.55h290.76v-218.55z" fill="#c87d73"/><path d="m1147.39 1721.3v-218.54h-172.08-188.2v218.54h268.43z" fill="#ce8a81"/><path d="m1187.39 1502.76v218.54h322.17 36.06v-218.54h-239.56z" fill="#ce8a81"/><path d="m1585.61 1502.76v218.54h360.26v-218.54h-310.74z" fill="#ce8a81"/><path d="m1035.55 1979.86v-218.55h-268.44-147.89v218.55z" fill="#d7a199"/><path d="m1075.54 1761.31v218.55h414.02v-218.55h-322.17z" fill="#d7a199"/><path d="m1529.55 1761.31v218.55h416.34v-218.55h-380.28z" fill="#d7a199"/></g></svg>