<svg version="1.1" id="Capa_1" xmlns="http://www.w3.org/2000/svg" xmlns:xlink="http://www.w3.org/1999/xlink" x="0px" y="0px" viewBox="0 0 512 512" style="enable-background:new 0 0 512 512;" xml:space="preserve">
<g>
	<path style="fill:#A5A8AB;" d="M503.663,235.612c-19.375-6.296-33.216-10.795-33.217-10.798&#10;&#9;&#9;c-13.217-4.308-24.265-14.651-28.889-28.884c-4.624-14.232-1.766-29.094,6.392-40.356l20.611-28.369&#10;&#9;&#9;c-7.146-11.768-15.246-22.891-24.185-33.271c-19.373,6.294-33.213,10.789-33.215,10.788c-13.225,4.283-28.242,2.409-40.349-6.387&#10;&#9;&#9;c-12.107-8.796-18.529-22.5-18.55-36.406V26.838c-12.54-5.273-25.604-9.543-39.091-12.719&#10;&#9;&#9;c-11.99,16.501-20.559,28.293-20.562,28.293c-8.181,11.238-21.643,18.55-36.608,18.55c0-0.006,0,390.082,0,390.082&#10;&#9;&#9;c14.878,0.069,28.043,7.358,36.195,18.543l20.619,28.38c13.493-3.156,26.561-7.412,39.108-12.667&#10;&#9;&#9;c0.001-20.403,0.003-34.986,0.005-34.987c0.013-13.901,6.436-27.604,18.543-36.4c12.107-8.796,27.125-10.67,40.356-6.392&#10;&#9;&#9;l33.313,10.824c8.954-10.367,17.066-21.482,24.229-33.239c-11.984-16.497-20.547-28.285-20.547-28.288&#10;&#9;&#9;c-8.16-11.253-11.017-26.116-6.394-40.348c4.625-14.231,15.673-24.575,28.891-28.892l33.312-10.824&#10;&#9;&#9;c0.566-6.845,0.87-13.764,0.87-20.755C504.5,249.134,504.209,242.337,503.663,235.612z"/>
	<path style="fill:#C2C4C6;" d="M256,61c-14.878-0.113-28.043-7.402-36.195-18.587l-20.619-28.38&#10;&#9;&#9;c-13.493,3.156-26.561,7.412-39.108,12.667c-0.001,20.403-0.003,34.985-0.005,34.987c-0.013,13.901-6.436,27.604-18.543,36.4&#10;&#9;&#9;c-12.107,8.796-27.124,10.67-40.356,6.392L67.861,93.655c-8.954,10.367-17.066,21.482-24.229,33.239&#10;&#9;&#9;c11.984,16.497,20.547,28.285,20.547,28.288c8.16,11.254,11.019,26.115,6.394,40.348c-4.624,14.232-15.673,24.575-28.892,28.892&#10;&#9;&#9;L8.37,235.245C7.804,242.09,7.5,249.009,7.5,256c0,6.866,0.291,13.663,0.837,20.388c19.374,6.296,33.216,10.795,33.217,10.797&#10;&#9;&#9;c13.216,4.308,24.265,14.651,28.889,28.884c4.624,14.232,1.766,29.094-6.392,40.356L43.44,384.794&#10;&#9;&#9;c7.146,11.768,15.246,22.891,24.185,33.271c19.373-6.293,33.213-10.789,33.215-10.787c13.225-4.283,28.242-2.409,40.349,6.387&#10;&#9;&#9;c12.107,8.796,18.529,22.5,18.55,36.406v35.092c12.54,5.273,25.604,9.543,39.091,12.719c11.99-16.501,20.559-28.293,20.562-28.293&#10;&#9;&#9;c8.181-11.238,21.643-18.543,36.608-18.543C363.692,450.996,451,363.693,451,256C451,148.304,363.696,61,256,61z"/>
	<circle style="fill:#83878C;" cx="256" cy="256" r="165"/>
	<path style="fill:#FFFFFF;" d="M256,121c-74.558,0-135,60.442-135,135c0,58.778,37.569,108.774,90,127.308l90,0&#10;&#9;&#9;c52.431-18.534,90-68.529,90-127.307C391,181.442,330.559,121,256,121z"/>
	<path style="fill:#83B3F1;" d="M233.5,174.296c0-11.484-12.429-18.798-22.379-13.065C184.157,176.766,166,205.857,166,239.214&#10;&#9;&#9;l67.5,30V174.296z"/>
	<path style="fill:#83B3F1;" d="M300.879,161.23c-9.951-5.733-22.379,1.581-22.379,13.065v9.296l19.927,55.622L256,300.279l15,89.89&#10;&#9;&#9;c10.402-1.152,20.447-3.485,30-6.862v-61.815l18.64-18.64c16.287-16.287,26.36-38.787,26.36-63.64&#10;&#9;&#9;C346,205.857,327.843,176.765,300.879,161.23z"/>
	<path style="fill:#98D3F3;" d="M278.5,183.592v55.622H166c0,24.853,10.074,47.353,26.36,63.64l18.64,18.64v61.815&#10;&#9;&#9;c9.553,3.377,19.599,5.709,30,6.862l30-62.208v-6.469c0-7.957,3.161-15.587,8.787-21.213l18.64-18.64&#10;&#9;&#9;C309.759,270.308,316,255.24,316,239.213C316,214.036,300.485,192.494,278.5,183.592z"/>
	<path style="fill:#7D99E8;" d="M256,329.214c-5.111,0-10.121-0.433-15-1.251v62.208c4.925,0.546,9.929,0.83,15,0.83&#10;&#9;&#9;c5.071,0,10.075-0.284,15-0.83v-62.208C266.121,328.781,261.112,329.214,256,329.214z"/>
	
		<circle style="fill:none;stroke:#000000;stroke-width:15;stroke-linecap:round;stroke-linejoin:round;stroke-miterlimit:10;" cx="256" cy="256" r="135"/>
	<path style="fill:none;stroke:#000000;stroke-width:15;stroke-linecap:round;stroke-linejoin:round;stroke-miterlimit:10;" d="&#10;&#9;&#9;M233.5,239.214v-64.918c0-11.484-12.429-18.798-22.379-13.065C184.157,176.766,166,205.857,166,239.214&#10;&#9;&#9;c0,24.853,10.074,47.353,26.36,63.64l18.64,18.64v61.815"/>
	<path style="fill:none;stroke:#000000;stroke-width:15;stroke-linecap:round;stroke-linejoin:round;stroke-miterlimit:10;" d="&#10;&#9;&#9;M301,383.307v-61.815l18.64-18.64c16.287-16.287,26.36-38.787,26.36-63.64c0-33.357-18.157-62.448-45.121-77.983&#10;&#9;&#9;c-9.951-5.733-22.379,1.581-22.379,13.065v64.918H166"/>
	<path style="fill:none;stroke:#000000;stroke-width:15;stroke-linecap:round;stroke-linejoin:round;stroke-miterlimit:10;" d="&#10;&#9;&#9;M271,390.166v-62.204c-4.879,0.819-9.889,1.251-15,1.251c-5.111,0-10.121-0.433-15-1.251v62.204"/>
	<path style="fill:none;stroke:#000000;stroke-width:15;stroke-linecap:round;stroke-linejoin:round;stroke-miterlimit:10;" d="&#10;&#9;&#9;M127.663,104.88c-8.737,2.541-17.98,2.35-26.489-0.401L67.861,93.655c-8.954,10.367-17.066,21.482-24.229,33.239&#10;&#9;&#9;c11.984,16.497,20.547,28.285,20.547,28.288c8.16,11.254,11.019,26.115,6.394,40.348c-4.624,14.232-15.673,24.575-28.892,28.892&#10;&#9;&#9;L8.37,235.245C7.804,242.09,7.5,249.009,7.5,256c0,6.866,0.291,13.663,0.837,20.388c19.374,6.296,33.216,10.795,33.217,10.797&#10;&#9;&#9;c13.216,4.308,24.265,14.651,28.889,28.884c4.624,14.232,1.766,29.094-6.392,40.356L43.44,384.794&#10;&#9;&#9;c7.146,11.768,15.246,22.891,24.185,33.271c19.373-6.293,33.213-10.789,33.215-10.787c13.225-4.283,28.242-2.409,40.349,6.387&#10;&#9;&#9;c12.107,8.796,18.529,22.5,18.55,36.406v35.092c12.54,5.273,25.604,9.543,39.091,12.719c11.99-16.501,20.559-28.293,20.562-28.293&#10;&#9;&#9;c8.181-11.238,21.432-18.55,36.397-18.55s28.216,7.311,36.406,18.55l20.619,28.38c13.493-3.156,26.561-7.412,39.108-12.667&#10;&#9;&#9;c0.001-20.403,0.003-34.986,0.005-34.987c0.013-13.901,6.436-27.604,18.543-36.4c12.107-8.796,27.125-10.67,40.356-6.392&#10;&#9;&#9;l33.313,10.824c8.954-10.367,17.066-21.482,24.229-33.239c-11.984-16.497-20.547-28.285-20.547-28.288&#10;&#9;&#9;c-8.16-11.254-11.019-26.115-6.394-40.348c4.625-14.232,15.673-24.575,28.892-28.892l33.312-10.824&#10;&#9;&#9;c0.566-6.845,0.87-13.764,0.87-20.755c0-6.866-0.291-13.663-0.837-20.388c-19.375-6.296-33.216-10.795-33.217-10.798&#10;&#9;&#9;c-13.217-4.308-24.265-14.651-28.889-28.884c-4.624-14.232-1.766-29.094,6.392-40.356l20.611-28.369&#10;&#9;&#9;c-7.146-11.768-15.246-22.891-24.185-33.271c-19.373,6.294-33.213,10.789-33.215,10.788c-13.225,4.283-28.242,2.409-40.349-6.387&#10;&#9;&#9;c-12.107-8.796-18.529-22.5-18.55-36.406V26.838c-12.54-5.273-25.604-9.543-39.091-12.719&#10;&#9;&#9;c-11.99,16.501-20.559,28.293-20.562,28.293c-8.181,11.238-21.432,18.55-36.397,18.55s-28.216-7.311-36.406-18.55l-20.619-28.38&#10;&#9;&#9;c-13.493,3.156-26.561,7.412-39.108,12.667c-0.001,20.403-0.003,34.985-0.005,34.987c-0.009,9.085-2.772,18.076-8.054,25.677"/>
	<path style="fill:none;stroke:#000000;stroke-width:15;stroke-linecap:round;stroke-linejoin:round;stroke-miterlimit:10;" d="&#10;&#9;&#9;M364.714,380.113C399.213,349.87,421,305.482,421,256c0-91.127-73.873-165-165-165S91,164.873,91,256s73.873,165,165,165&#10;&#9;&#9;c30.867,0,59.749-8.485,84.456-23.236"/>
</g>
<g>
</g>
<g>
</g>
<g>
</g>
<g>
</g>
<g>
</g>
<g>
</g>
<g>
</g>
<g>
</g>
<g>
</g>
<g>
</g>
<g>
</g>
<g>
</g>
<g>
</g>
<g>
</g>
<g>
</g>
</svg>