<svg id="Layer_1" enable-background="new 0 0 512 512" viewBox="0 0 512 512" xmlns="http://www.w3.org/2000/svg"><g clip-rule="evenodd" fill-rule="evenodd"><path d="m131.651 257.921v-25.086c0-1.655-1.36-2.997-3.011-2.997h-32.181c-1.675 0-3.011 1.319-3.011 2.997v104.174c0 1.679 1.333 3.002 3.011 3.002h32.181c1.654 0 3.011-1.345 3.011-3.002v-25.086h41.591v104.866c0 31.433 25.595 56.999 57.022 56.999h89.345c31.427 0 57.022-25.566 57.022-56.999v-43.807h62.528v25.086c0 1.677 1.335 3.002 3.011 3.002h13.08v74.172c0 9.787-7.947 17.757-17.737 17.757h-362.979c-9.791 0-17.737-7.97-17.737-17.757v-276.282h178.032v58.962h-103.178zm-68.664-97.178 193.013-141.027 193.063 141.027h-160.224v-33.443h25.077c1.654 0 3.011-1.345 3.011-3.001v-32.219c0-1.657-1.357-3.001-3.011-3.001h-104.165c-1.654 0-3.011 1.345-3.011 3.001v32.219c0 1.657 1.357 3.001 3.011 3.001h25.077v33.443zm225.852 38.217v55.964c0 31.427-25.543 56.999-56.975 56.999h-4.611v107.864h95.368v-43.807c0-31.432 25.596-56.999 57.022-56.999h59.517v-25.086c0-1.679 1.333-3.002 3.011-3.002h13.08v-91.933z" fill="#a4d4ff"/><path d="m489.031 188.962h-196.192v-18.222h196.192zm-37.78 97.931h-9.081c-3.905 0-7.01 3.133-7.01 7.001v21.087h-55.517c-33.64 0-61.022 27.363-61.022 60.999v39.807h-87.369v-99.865h.612c33.64 0 60.975-27.363 60.975-60.998v-51.965h158.412zm16.137 104.175v-90.173h-18.255v90.173zm-345.758-151.233v90.173h-18.208v-90.173zm329.621 235.407v-70.172h-9.081c-3.905 0-7.01-3.138-7.01-7.001v-21.087h-54.529v39.807c0 33.635-27.382 60.999-61.022 60.999h-89.345c-33.64 0-61.022-27.363-61.022-60.999v-100.867h-33.592v21.087c0 3.868-3.152 7.001-7.01 7.001h-32.181c-3.905 0-7.01-3.133-7.01-7.001v-104.174c0-3.863 3.105-6.996 7.01-6.996h32.181c3.858 0 7.01 3.133 7.01 6.996v21.087h95.179v-50.963h-170.033v272.283c0 7.589 6.163 13.757 13.738 13.757h362.979c7.575 0 13.738-6.168 13.738-13.757zm-428.235-304.502h207.813v18.222h-207.813zm193.746-53.442v-18.217h90.192v18.217zm13.503 312.491c-7.198 0-13.033-5.834-13.033-13v-107.863c0-3.867 3.152-7.001 7.01-7.001h7.622c25.924 0 47.001-21.082 47.001-47.001v-123.625h-34.015v123.625c0 7.165-5.834 12.999-12.986 12.999h-96.214v34.002h40.603c3.858 0 7.01 3.133 7.01 7.001v107.863c0 25.914 21.078 46.997 47.001 46.997h89.345c25.924 0 47.001-21.082 47.001-46.997v-40.809c0-7.166 5.834-13 13.033-13h55.517v-33.997h-55.517c-25.924 0-47.001 21.082-47.001 46.997v40.809c0 7.166-5.834 13-13.032 13zm25.735-405.12-180.76 132.074h155.589v-25.444h-21.078c-3.858 0-7.01-3.133-7.01-7.001v-32.218c0-3.867 3.152-7.001 7.01-7.001h104.165c3.858 0 7.01 3.133 7.01 7.001v32.219c0 3.867-3.152 7.001-7.01 7.001h-21.078v25.444h143.968zm240.041 132.074h-35.522l-200.379-146.396c-2.447-1.797-5.787-1.797-8.234 0l-200.425 146.396h-35.475c-3.858 0-7.01 3.133-7.01 7.001v32.219c0 3.863 3.152 6.996 7.01 6.996h30.77v272.283c0 15.305 12.468 27.759 27.759 27.759h362.979c15.291 0 27.759-12.454 27.759-27.759v-70.172h9.08c3.858 0 7.01-3.138 7.01-7.001v-104.175c0-3.868-3.152-7.001-7.01-7.001h-9.08v-83.934h30.77c3.858 0 6.963-3.133 6.963-6.996v-32.219c-.002-3.867-3.107-7.001-6.965-7.001z" fill="#1f4571"/></g></svg>