<svg id="Layer_1" viewBox="0 0 128 128" xmlns="http://www.w3.org/2000/svg" data-name="Layer 1"><path d="m28 122v-14.00977a6.10454 6.10454 0 0 1 .7207-2.86279l2.86951-5.12744h-31.59021v28h34a6.00656 6.00656 0 0 1 -6-6z" fill="#d68751"/><path d="m102.99542 100c.00031.03027.00458.05951.00458.08984v21.91016a6.00656 6.00656 0 0 1 -6 6h31.00012v-28z" fill="#d68751"/><path d="m47.56738 59.91748 34.30762 23.28412v-76.7016l-2.375-5.125h-32.875l-3.69659 5v47.34357a10.94625 10.94625 0 0 1 4.63897 6.19891z" fill="#e1ebf4"/><path d="m94.83887 92h.041a8.11371 8.11371 0 0 1 6.45343 3.19958v-52.86627l-3.3333-4.66668h-24l-4 3.09337v34.3822z" fill="#94e1e4"/><path d="m35.46973 93.06787a8.45649 8.45649 0 0 1 .65918-1.07422 10.25075 10.25075 0 0 1 -10.12891-9.99365 9.84272 9.84272 0 0 1 5-8.5249v-1.2671a10.99252 10.99252 0 0 1 6-20.208 10.9612 10.9612 0 0 1 10.56738 7.91748l8.80762 5.9776v-21.89508l-3.25-6.33337h-25.54169l-3.90948 4.25v58.08337l7.8974.03387z" fill="#94e1e4"/><g fill="#2d4356"><path d="m57 8h-4a2 2 0 0 0 0 4h4a2 2 0 0 0 0-4z"/><path d="m57 18h-4a2 2 0 0 0 0 4h4a2 2 0 0 0 0-4z"/><path d="m57 28h-4a2 2 0 0 0 0 4h4a2 2 0 0 0 0-4z"/><path d="m32 44a2 2 0 0 0 0 4h3a2 2 0 0 0 0-4z"/><path d="m93 44h-3a2 2 0 0 0 0 4h3a2 2 0 0 0 0-4z"/><path d="m93 54h-3a2 2 0 0 0 0 4h3a2 2 0 0 0 0-4z"/><path d="m93 64h-3a2 2 0 0 0 0 4h3a2 2 0 0 0 0-4z"/><path d="m93 74h-3a2 2 0 0 0 0 4h3a2 2 0 0 0 0-4z"/><path d="m93 84h-3a2 2 0 0 0 0 4h3a2 2 0 0 0 0-4z"/><path d="m68 12h4a2 2 0 0 0 0-4h-4a2 2 0 0 0 0 4z"/><path d="m68 22h4a2 2 0 0 0 0-4h-4a2 2 0 0 0 0 4z"/><path d="m68 32h4a2 2 0 0 0 0-4h-4a2 2 0 0 0 0 4z"/><path d="m4 110h-2a2 2 0 0 0 0 4h2a2 2 0 0 0 0-4z"/><path d="m110.0459 110h-3.7207a2 2 0 0 0 0 4h3.7207a2 2 0 0 0 0-4z"/><path d="m21.67383 110h-3.7207a2 2 0 0 0 0 4h3.7207a2 2 0 1 0 0-4z"/><path d="m126 110h-2a2 2 0 0 0 0 4h2a2 2 0 0 0 0-4z"/><path d="m32.712 98 2.23669-4h-2.94869a2 2 0 0 0 0 4z"/><path d="m2 102h21.91113a2.0001 2.0001 0 0 0 2-1.99707l.083-58.00635a2.0022 2.0022 0 0 1 2-1.99658h13.00587v12.76331a11.02058 11.02058 0 0 1 4 2.70612v-15.46943h7a2.00229 2.00229 0 0 1 2 2v22.28467l4 2.71423v-24.9989a6.00656 6.00656 0 0 0 -6-6h-7v-30a2.00229 2.00229 0 0 1 2-2h31a2.00229 2.00229 0 0 1 2 2v30h-7a6.00656 6.00656 0 0 0 -6 6v31.10608l4 2.71429v-33.82037a2.00229 2.00229 0 0 1 2-2h7v41.92755l4 2.71423v-44.64178h13a2.00229 2.00229 0 0 1 2 2v51.12939a8.07792 8.07792 0 0 1 4 6.95752v1.91309h23a2 2 0 0 0 0-4h-23v-56a6.00656 6.00656 0 0 0 -6-6h-13v-30a6.00656 6.00656 0 0 0 -6-6h-31a6.00656 6.00656 0 0 0 -6 6v30h-13.00586a6.00816 6.00816 0 0 0 -6 5.99121l-.08008 56.00879h-19.91406a2 2 0 0 0 0 4z"/><path d="m99 100.09a4.10775 4.10775 0 0 0 -4.12-4.09h-1.27l-49.64-33.69a7.002 7.002 0 1 0 -8.97 7.4v6.46a6.12275 6.12275 0 0 0 -5 5.83 6.26735 6.26735 0 0 0 6.5 6 6.68381 6.68381 0 0 0 4.98-2.16 1.99648 1.99648 0 1 0 -2.96-2.68 2.73436 2.73436 0 0 1 -2.02.84 2.05 2.05 0 1 1 0-4 1.13318 1.13318 0 0 0 .25-.03 1.00646 1.00646 0 0 0 .25.03 2.00591 2.00591 0 0 0 2-2v-8.29a8.83175 8.83175 0 0 0 .9-.35l41.35 37.75v.66a1.69388 1.69388 0 0 0 .01.23h-26.76v-11.93a4.10368 4.10368 0 0 0 -4.12-4.07h-6.59a5.66211 5.66211 0 0 0 -4.79 2.95l-6.75 12.06a2.09848 2.09848 0 0 0 -.25.98v14.01a2.00591 2.00591 0 0 0 2 2h12.35a5.99035 5.99035 0 0 0 11.3 0h20.7a5.99035 5.99035 0 0 0 11.3 0h7.35a2.00591 2.00591 0 0 0 2-2v-11.85c0-.02-.01-.05-.01-.07 0-.03.01-.05.01-.08zm-62-34.09a3 3 0 1 1 3-3 3.00883 3.00883 0 0 1 -3 3zm44.25 34.09v1.6l-38.32-34.99a1.73812 1.73812 0 0 0 .11-.18005l43.45 29.48005h-1.13a4.0992 4.0992 0 0 0 -4.11 4.09zm-29.25 23.91a2 2 0 1 1 2-2 2.00591 2.00591 0 0 1 -2 2zm32 0a2 2 0 1 1 2-2 2.00591 2.00591 0 0 1 -2 2zm11-4h-5.35a5.99035 5.99035 0 0 0 -11.3 0h-20.7a5.99035 5.99035 0 0 0 -11.3 0h-10.35v-11.49l6.52-11.65.06-.12a1.66153 1.66153 0 0 1 1.21-.74h6.59a.12462.12462 0 0 1 .12.07v11.93h-3.5a2 2 0 0 0 0 4h48zm0-12h-9.77a1.64022 1.64022 0 0 0 .02-.23v-7.68a.102.102 0 0 1 .11-.09h9.52a.11325.11325 0 0 1 .12.09z"/></g><circle cx="52" cy="122" fill="#d68751" r="2"/><circle cx="84" cy="122" fill="#d68751" r="2"/><path d="m95 112v8h-5.35a5.99035 5.99035 0 0 0 -11.3 0h-20.7a5.99035 5.99035 0 0 0 -11.3 0h-10.35v-11.49l6.52-11.65.06-.12a1.66153 1.66153 0 0 1 1.21-.74h6.59a.12462.12462 0 0 1 .12.07v11.93h-3.5a2 2 0 0 0 0 4z" fill="#fc785e"/><path d="m95 100.09v7.91h-9.77a1.64022 1.64022 0 0 0 .02-.23v-7.68a.102.102 0 0 1 .11-.09h9.52a.11325.11325 0 0 1 .12.09z" fill="#d68751"/><path d="m86.49 96h-1.13a4.0992 4.0992 0 0 0 -4.11 4.09v1.6l-38.32-34.99a1.73812 1.73812 0 0 0 .11-.18005z" fill="#ffdb80"/><circle cx="37" cy="63" fill="#d68751" r="3"/><path d="m36 118h11.54a5.97207 5.97207 0 0 0 -1.19 2h-10.35z" fill="#a54b3f" opacity=".5"/><path d="m56.46 118h23.08a5.97207 5.97207 0 0 0 -1.19 2h-20.7a5.97207 5.97207 0 0 0 -1.19-2z" fill="#a54b3f" opacity=".5"/><path d="m95 118v2h-5.35a5.97207 5.97207 0 0 0 -1.19-2z" fill="#a54b3f" opacity=".5"/><path d="m41 40v2h-13.01a2.01238 2.01238 0 0 0 -2 2v-2a2.01238 2.01238 0 0 1 2-2z" fill="#f5ffff" opacity=".3"/><path d="m54 42v2a2.00587 2.00587 0 0 0 -2-2h-7v-2h7a2.00587 2.00587 0 0 1 2 2z" fill="#f5ffff" opacity=".3"/><path d="m80 40v2h-7a2.00587 2.00587 0 0 0 -2 2v-2a2.00587 2.00587 0 0 1 2-2z" fill="#f5ffff" opacity=".3"/><path d="m99 42v2a2.00587 2.00587 0 0 0 -2-2h-13v-2h13a2.00587 2.00587 0 0 1 2 2z" fill="#f5ffff" opacity=".3"/><path d="m86 122a2 2 0 1 1 -3.73-1 1.99642 1.99642 0 0 0 3.46 0 1.99424 1.99424 0 0 1 .27 1z" fill="#72492d" opacity=".4"/><path d="m54 122a2 2 0 1 1 -3.73-1 1.99642 1.99642 0 0 0 3.46 0 1.99424 1.99424 0 0 1 .27 1z" fill="#72492d" opacity=".4"/><path d="m50.5 96.07v2a.12462.12462 0 0 0 -.12-.07h-6.59a1.66153 1.66153 0 0 0 -1.21.74l-.06.12-6.52 11.65v-2l6.52-11.65.06-.12a1.66153 1.66153 0 0 1 1.21-.74h6.59a.12462.12462 0 0 1 .12.07z" fill="#f9dbd7" opacity=".3"/><path d="m95 100.09v2a.11325.11325 0 0 0 -.12-.09h-9.52a.102.102 0 0 0 -.11.09v-2a.102.102 0 0 1 .11-.09h9.52a.11325.11325 0 0 1 .12.09z" fill="#e5d0c3" opacity=".3"/><path d="m95 112v2h-48a1.99718 1.99718 0 0 1 -1.73-3 1.99612 1.99612 0 0 0 1.73 1z" fill="#f9dbd7" opacity=".3"/><path d="m40 63a3 3 0 0 1 -6 0 2.77187 2.77187 0 0 1 .18-1 2.98811 2.98811 0 0 0 5.64 0 2.77187 2.77187 0 0 1 .18 1z" fill="#72492d" opacity=".4"/><path d="m50.37 71.49 30.9 28.22c-.01.13-.02.25-.02.38v1.6l-38.32-34.99a1.73812 1.73812 0 0 0 .11-.18005z" fill="#ad9359" opacity=".45"/><path d="m80 6v2a2.00587 2.00587 0 0 0 -2-2h-31a2.00587 2.00587 0 0 0 -2 2v-2a2.00587 2.00587 0 0 1 2-2h31a2.00587 2.00587 0 0 1 2 2z" fill="#fff" opacity=".5"/></svg>