<svg id="Layer_1" height="512" viewBox="0 0 493.3 507.1" width="512" xmlns="http://www.w3.org/2000/svg"><g id="Layer_24"><g><ellipse cx="399.6" cy="59.4" fill="#87b237" rx="49.9" ry="56.3"/><path d="m432 56.1-7.6-9.3-22.4 18.4v-28h-12v122.4h12v-78.8z" fill="#e6e7e8"/><path d="m76.9 24.8h251.7v343.9h-251.7z" fill="#49699c"/><g fill="#e6e7e8"><path d="m67.7 0h271.4v24.8h-271.4z"/><path d="m103.3 64.3h26.7v44.5h-26.7z"/><path d="m161 64.3h26.7v44.5h-26.7z"/><path d="m219.3 64.3h26.7v44.5h-26.7z"/><path d="m275.5 64.3h26.7v44.5h-26.7z"/><path d="m103.3 137.3h26.7v44.5h-26.7z"/><path d="m161 137.3h26.7v44.5h-26.7z"/><path d="m219.3 137.3h26.7v44.5h-26.7z"/><path d="m275.5 137.3h26.7v44.5h-26.7z"/><path d="m161 210.4h26.7v44.5h-26.7z"/><path d="m219.3 210.4h26.7v44.5h-26.7z"/></g><path d="m420.2 147.6h34.2v51.4h-34.2z" fill="#f04930"/><path d="m468.6 209.3v165.7h-199.3v-169.9l98.9-67.8z" fill="#e6e7e8"/><path d="m333.5 256.2h77.8v125.2h-77.8z" fill="#f04930"/><path d="m491.7 237.8c-2.8 4.3-8.5 5.6-12.8 2.8-.1-.1-.2-.2-.4-.2l-9.9-7.1-100.6-72.1-98.7 67.6-17 11.7c-1.5 1.1-3.3 1.6-5.2 1.6-3.3 0-6.3-1.7-8-4.5-2.9-4.6-1.7-10.6 2.7-13.7l27.5-18.8 98.9-67.8 100.4 72 20.6 14.7c4.4 3.2 5.5 9.3 2.5 13.8z" fill="#f04930"/><path d="m86.4 352.2s76.4-17.1 162.7 16.8c17.4 6.8 69.5 20.4 69.5 20.4s103.1-34.3 141.1-42.9c29.8-6.7 50.3 39.1 15.1 55.9l-218.8 100.4-179.1 4.3" fill="#efcdb1"/><path d="m84.1 401.6-7.2 105.5 179.1-4.3 138.5-63.6c-19.5 3.9-88.9 21.3-109.4 24.2-120.1 16.8-162.7-12-201-61.8z" fill="#d8b49a"/><path d="m186.8 451.4c35.7-4.2 56-38.7 61.3-46.6 2-2.9 5.2-4.8 8.7-5.2l57.2-5.1c20-2 27.3-17.5 24.6-34.4s-17.4-23.9-28.9-22.7l-96.1 6.1s-42-10.4-62.8-9.8c-33.8.8-64.4 18.5-64.4 18.5" fill="#efcdb1"/><path d="m185.8 457.4c-3.3.2-6.2-2.3-6.3-5.6-.2-3.3 2.3-6.2 5.6-6.4 30.7-3.6 49.6-32.6 55.8-42.1l1.2-1.8c2.9-4.5 7.8-7.4 13.1-7.8l57.3-5.2c8-.8 13.8-4.2 16.9-10 1.6-2.9 5.2-4 8.1-2.4h.1c2.9 1.6 4 5.2 2.4 8.1-3.6 6.6-11 14.7-26.4 16.2l-57.3 5.2c-1.7.2-3.2 1.1-4.2 2.5l-1.1 1.7c-7 10.7-28.2 43.3-64.5 47.5z" fill="#d8b49a"/><path d="m298.5 381.5c3.3 0 6-2.7 6-6 0-1.4-.5-2.7-1.4-3.8-2.7-3.5-3-8.4-.7-12.2 1.8-2.8 1-6.5-1.8-8.3s-6.5-1-8.3 1.8c-5.2 8.2-4.5 18.8 1.6 26.3 1.1 1.4 2.8 2.2 4.6 2.2z" fill="#d8b49a"/><path d="m0 463.9 34 41.1 45.2 2.1 7.2-154.9-45.2-2.1z" fill="#87b237"/><circle cx="49.7" cy="451.4" fill="#f1f2f2" r="12"/><ellipse cx="109.4" cy="232.4" fill="#87b237" rx="59.7" ry="67.4"/><path d="m147.7 227.3-8.2-8.8-24.1 22.2v-31.8h-12v137h12v-88.9z" fill="#e6e7e8"/></g></g></svg>