<svg id="Layer_1" enable-background="new 0 0 500 500" viewBox="0 0 500 500" xmlns="http://www.w3.org/2000/svg"><g clip-rule="evenodd" fill-rule="evenodd"><path d="m184.589 134.065-21.195-10.799c-10.659 10.659-21.317 21.317-31.976 31.976l10.799 21.194c-12.67 20.84-18.755 44.558-18.246 68.161l-19.972 12.97 11.704 43.68 23.748 1.245c11.519 20.98 28.936 38.396 49.915 49.915l1.245 23.748 43.68 11.704 12.97-19.972c23.604.512 47.321-5.576 68.161-18.246l21.194 10.799c10.659-10.659 21.317-21.317 31.976-31.976l-10.799-21.194c12.67-20.84 18.754-44.558 18.246-68.161l19.972-12.97-11.704-43.68-23.748-1.245c-11.519-20.978-28.937-38.397-49.915-49.915l-1.245-23.748-43.68-11.704-12.97 19.972c-23.601-.51-47.32 5.576-68.16 18.246z" fill="#ffbf31"/><path d="m295.358 179.697 25.788 25.788c5.019 5.019 7.225 11.45 6.346 18.492l-4.698 37.596c-.881 7.043 1.326 13.476 6.345 18.495l84.563 84.563c-11.697 15.554-25.363 29.221-40.918 40.918l-84.563-84.563c-5.019-5.019-11.451-7.226-18.495-6.345l-37.596 4.698c-7.043.88-13.473-1.327-18.492-6.346l-25.79-25.789c-4.555-4.555-6.758-10.192-6.499-16.629l2.134-53.079 49.121 49.12 40.819-1.348 1.348-40.819-49.119-49.12 53.079-2.134c6.435-.255 12.072 1.948 16.627 6.502z" fill="#60b7fe"/><path d="m355.828 297.35c9.351-17.864 13.989-38.044 13.577-58.086-.046-2.373 1.161-4.479 3.014-5.685l-.002-.002 15.937-10.381-9.207-34.346c-6.283-.34-12.579-.737-18.864-1.01-2.4-.103-4.446-1.47-5.525-3.432l-.006.004c-11.061-20.03-27.263-36.271-47.311-47.311-2.215-1.216-3.461-3.512-3.443-5.873l-.034-.776-.921-17.746-34.377-9.204-10.339 15.934c-1.341 2.065-3.637 3.135-5.93 3.008-11.173-.218-22.412 1.141-33.354 4.07-10.825 2.898-21.289 7.31-31.035 13.229-2.094 1.268-4.611 1.238-6.614.141l-.008.015-.834-.459-.002.003-15.837-8.078-25.156 25.157c2.887 5.66 5.931 11.334 8.665 17.061 1.088 2.286.756 4.882-.643 6.791-5.769 9.607-10.081 19.889-12.929 30.527-2.947 11.01-4.303 22.327-4.06 33.599.048 2.461-1.252 4.634-3.222 5.815l.001.002-.789.473.005.008-14.892 9.728 9.205 34.378c6.285.325 12.578.697 18.864.97 2.493.107 4.605 1.579 5.647 3.664 4.843 9.232 12.624 19.233 20.176 26.785 8.15 8.15 17.016 14.81 26.969 20.291 2.018 1.108 3.232 3.113 3.418 5.247l.01-.001 1.021 19.152 34.376 9.204 10.341-15.936c1.341-2.064 3.637-3.135 5.93-3.008 11.19.218 22.435-1.132 33.379-4.065 8.403-2.251 16.601-5.433 24.433-9.549l-21.951-21.951c-3.579-3.579-7.878-5.088-12.953-4.46l-37.629 4.678c-9.029 1.115-17.546-1.783-23.964-8.201l-25.832-25.832c-5.855-5.855-8.744-13.32-8.38-21.64l2.136-53.035c.23-5.792 7.262-8.487 11.322-4.413l47.077 47.122 31.708-1.068 1.068-31.736-47.098-47.098c-3.983-3.983-1.601-11.331 4.945-11.344l52.583-2.115c8.177-.327 15.829 2.623 21.575 8.444l.013-.013 25.781 25.781c6.463 6.463 9.373 14.941 8.252 24.015l-4.751 37.575.022.003c-.616 5.04.867 9.41 4.46 13.003zm-90.591 135.924c-3.227-1.735-4.436-5.759-2.701-8.986s5.759-4.436 8.986-2.701l26.188 14.136c3.872 2.086 4.813 7.372 1.367 10.713l-20.682 20.983c-2.567 2.61-6.765 2.645-9.375.078s-2.645-6.765-.078-9.375l6.47-6.564c-28.247 3.414-57.049 1.124-84.551-6.871-90.181-26.215-152.119-109.073-152.119-202.833 0-116.678 94.598-211.254 211.274-211.254 113.285 0 206.361 89.269 211.059 202.479 2.137 51.502-14.468 103.638-49.829 145.296l-.021-.017c-10.4 12.267-21.606 22.818-34.453 32.506-2.677 2.021-6.39 1.705-8.693-.604l-.007.007-52.837-52.837c-19.741 11.187-41.825 16.972-64.375 17.108l-10.757 16.58c-1.448 2.586-4.512 3.967-7.507 3.167l-43.68-11.695.002-.007c-2.706-.723-4.76-3.122-4.911-6.07l-1.041-20.092c-19.631-11.565-35.945-27.811-47.454-47.483l-19.766-1.024c-2.942.01-5.638-1.951-6.433-4.927l-5.848-21.865-5.795-21.619c-.825-2.746.205-5.818 2.726-7.467l16.919-11.052c.15-22.726 6.037-44.908 17.364-64.78l-9.035-17.711c-1.426-2.533-1.061-5.803 1.095-7.96l31.984-31.985.002.002c1.979-1.98 5.081-2.561 7.711-1.223l17.978 9.171c19.86-11.302 42.073-17.184 64.768-17.324l10.757-16.581c1.448-2.586 4.512-3.967 7.507-3.167l43.68 11.695-.002.007c2.706.723 4.76 3.122 4.911 6.07l1.042 20.123c19.72 11.629 35.826 27.737 47.456 47.458l19.779 1.069c2.936-.003 5.623 1.956 6.417 4.927l11.695 43.629-.011.003c.721 2.698-.326 5.666-2.794 7.269l-16.943 11.038c-.135 22.564-5.909 44.622-17.09 64.399l47.327 47.328c25.026-36.118 36.662-78.705 34.913-120.841-4.397-105.976-91.642-189.701-197.814-189.701-109.395 0-197.977 88.561-197.977 197.957 0 119.477 104.673 211.156 222.536 196.461zm51.223-223.102c3.588 3.588 5.082 7.97 4.46 13.003l-4.706 37.581-.023-.003c-1.11 9.079 1.783 17.546 8.252 24.015l80.43 80.43c-9.233 11.599-19.929 22.288-31.533 31.532l-80.429-80.429c-6.446-6.446-14.917-9.371-23.964-8.252l-37.629 4.678c-5.037.622-9.304-.761-12.953-4.409l-25.832-25.832c-3.277-3.277-4.737-7.009-4.536-11.616l1.527-37.999 38.407 38.446c1.411 1.418 3.304 2.065 5.155 1.939l14.297-.5 26.238-.865c3.518-.11 6.309-2.944 6.415-6.415l1.373-40.832c.06-1.903-.69-3.644-1.938-4.893l.016-.016-38.407-38.407 37.933-1.526c4.543-.181 8.432 1.38 11.68 4.574l-.013.013z" fill="#1e2f3f"/></g></svg>