<svg height="512" viewBox="0 0 64 64" width="512" xmlns="http://www.w3.org/2000/svg"><g id="Layer_32" data-name="Layer 32"><path d="m7 35h55v23h-55z" fill="#95afd1"/><path d="m44 39h18v19h-18z" fill="#c1cfe8"/><path d="m14.937 16 5.063-9h42v32h-60l9.562-17z" fill="#828a93"/><path d="m44 39 18-32v32z" fill="#585e68"/><path d="m43 7-11.25 20 17.248 3.115 13.002-23.115z" fill="#f9cb5d"/><path d="m30.954 19.527 7.046-12.527h-18l-5.063 9z" fill="#f9cb5d"/><path d="m46 27h-17a3 3 0 0 0 0 6h17z" fill="#f79b31"/><path d="m28 16h-17a3 3 0 0 0 0 6h17z" fill="#f79b31"/><circle cx="28" cy="19" fill="#ec8329" r="3"/><path d="m49.063 39 12.937-23v-9l-18 32z" fill="#3c4047"/><circle cx="46" cy="30" fill="#ec8329" r="3"/><g fill="#ffeacd"><path d="m36.953 18.5h8.031v1.999h-8.031z" transform="matrix(.49 -.871 .871 .49 3.882 45.639)"/><path d="m48.635 14.334h5.354v1.999h-5.354z" transform="matrix(.49 -.871 .871 .49 12.784 52.53)"/><path d="m24.055 10.278h3.952v1.999h-3.952z" transform="matrix(.49 -.871 .871 .49 3.436 28.432)"/></g><path d="m17.552 42h26.448a0 0 0 0 1 0 0v16a0 0 0 0 1 0 0h-33a0 0 0 0 1 0 0v-9.448a6.552 6.552 0 0 1 6.552-6.552z" fill="#a5badb"/><path d="m62 58v-16h-7.683a7.317 7.317 0 0 0 -7.317 7.317v8.683z" fill="#d7e0ef"/><path d="m62 6h-42a1 1 0 0 0 -.871.51l-4.776 8.49h-3.353a3.99 3.99 0 0 0 -1.057 7.84l-8.814 15.67a1 1 0 0 0 .871 1.49h4v18h2v-18h35v18h2v-18h16v18h2v-51a1 1 0 0 0 -1-1zm-1 9.739-12.522 22.261h-2.769l2.73-4.853a3.97 3.97 0 0 0 1.515-2.693l11.046-19.637zm-17 14.261a2 2 0 1 1 2 2 2 2 0 0 1 -2-2zm5.231-2.338a3.989 3.989 0 0 0 -3.231-1.662h-12.541l10.125-18h16.707zm-6.675.338a3.875 3.875 0 0 0 0 4h-13.556a2 2 0 0 1 0-4zm-21.971-20h15.706l-4.953 8.805a4 4 0 0 0 -3.338-1.805h-11.353zm5.415 11a2 2 0 1 1 2 2 2 2 0 0 1 -2-2zm-17 0a2 2 0 0 1 2-2h13.556a3.875 3.875 0 0 0 0 4h-13.556a2 2 0 0 1 -2-2zm3.147 4h15.853a4 4 0 0 0 3.887-3.093l6.698-11.907h2.706l-10.125 18h-2.166a4 4 0 0 0 0 8h16.666l-2.25 4h-39.706zm38.625 15 10.228-18.183v18.183z"/><path d="m36.953 18.5h8.031v1.999h-8.031z" transform="matrix(.49 -.871 .871 .49 3.882 45.639)"/><path d="m48.635 14.334h5.354v1.999h-5.354z" transform="matrix(.49 -.872 .872 .49 12.791 52.538)"/><path d="m24.055 10.278h3.952v1.999h-3.952z" transform="matrix(.49 -.871 .871 .49 3.436 28.432)"/></g></svg>