<svg enable-background="new 0 0 64 64" viewBox="0 0 64 64" xmlns="http://www.w3.org/2000/svg"><g id="Layer_50"/><g id="Layer_49"/><g id="Layer_48"/><g id="Layer_47"/><g id="Layer_46"><g><path d="m8.708 47.176c-.552 0-1-.447-1-1v-34.078c0-1.284-.573-2.5-1.573-3.337l-4.777-3.993c-.423-.354-.48-.985-.125-1.409.355-.423.984-.479 1.409-.127l4.776 3.994c1.455 1.218 2.29 2.993 2.29 4.871v34.078c0 .554-.448 1.001-1 1.001z" fill="#173851"/><g><path d="m8.708 46.161v8.62l53.292-.022v-8.583h-53.292" fill="#fff"/><path d="m8.708 55.781c-.265 0-.52-.105-.707-.293s-.293-.441-.293-.707v-8.621c0-.614.592-1.095 1.177-.984h53.115c.552 0 1 .447 1 1v8.584c0 .552-.447 1-1 1zm1-8.605v6.605l51.292-.021v-6.584z" fill="#173851"/></g><g><g><ellipse cx="54.227" cy="54.759" fill="#f86252" rx="5.172" ry="5.241"/><path d="m54.227 61c-3.403 0-6.172-2.8-6.172-6.24 0-3.441 2.769-6.241 6.172-6.241s6.172 2.8 6.172 6.241c0 3.44-2.769 6.24-6.172 6.24zm0-10.481c-2.301 0-4.172 1.902-4.172 4.241 0 2.338 1.872 4.24 4.172 4.24s4.172-1.902 4.172-4.24c0-2.339-1.871-4.241-4.172-4.241z" fill="#173851"/></g><g><g><ellipse cx="16.768" cy="54.759" fill="#f86252" rx="5.172" ry="5.241"/><path d="m16.768 61c-3.403 0-6.172-2.8-6.172-6.24 0-3.441 2.769-6.241 6.172-6.241s6.172 2.8 6.172 6.241c0 3.44-2.769 6.24-6.172 6.24zm0-10.481c-2.301 0-4.172 1.902-4.172 4.241 0 2.338 1.872 4.24 4.172 4.24s4.172-1.902 4.172-4.24c0-2.339-1.871-4.241-4.172-4.241z" fill="#173851"/></g><g fill="#fff"><path d="m54.227 53.235c-.837 0-1.518.684-1.518 1.524s.681 1.523 1.518 1.523c.836 0 1.517-.684 1.517-1.523 0-.84-.681-1.524-1.517-1.524z"/><path d="m16.768 53.235c-.837 0-1.518.684-1.518 1.524s.681 1.523 1.518 1.523c.836 0 1.517-.684 1.517-1.523 0-.84-.681-1.524-1.517-1.524z"/></g></g></g><g><g><path d="m24.692 16.841h18.06v17.279h-18.06z" fill="#f8bc5c"/><path d="m42.752 35.121h-18.06c-.552 0-1-.447-1-1v-17.28c0-.553.448-1 1-1h18.06c.552 0 1 .447 1 1v17.28c0 .553-.448 1-1 1zm-17.06-2h16.06v-15.28h-16.06z" fill="#173851"/></g><g><path d="m15.696 28.881h14.603v17.279h-14.603z" fill="#45c9a5"/><path d="m30.299 47.16h-14.603c-.552 0-1-.447-1-1v-17.279c0-.553.448-1 1-1h14.604c.552 0 1 .447 1 1v17.279c-.001.553-.448 1-1.001 1zm-13.603-2h12.604v-15.279h-12.604z" fill="#173851"/></g><g><path d="m30.301 34.121h23.041v12.055h-23.041z" fill="#d4dedd"/><path d="m53.343 47.176h-23.041c-.552 0-1-.447-1-1l-.003-12.055c0-.265.105-.52.293-.707s.442-.293.707-.293h23.041c.552 0 1 .447 1 1l.003 12.055c0 .265-.105.52-.293.707s-.442.293-.707.293zm-22.041-2h21.041l-.003-10.055h-21.04z" fill="#173851"/></g></g></g></g><g id="Layer_45"/><g id="Layer_44"/><g id="Layer_43"/><g id="Layer_42"/><g id="Layer_41"/><g id="Layer_40"/><g id="Layer_39"/><g id="Layer_38"/><g id="Layer_37"/><g id="Layer_36"/><g id="Layer_35"/><g id="Layer_34"/><g id="Layer_33"/><g id="Layer_32"/><g id="Layer_31"/><g id="Layer_30"/><g id="Layer_29"/><g id="Layer_28"/><g id="Layer_27"/><g id="Layer_26"/><g id="Layer_25"/><g id="Layer_24"/><g id="Layer_23"/><g id="Layer_22"/><g id="Layer_21"/><g id="Layer_20"/><g id="Layer_19"/><g id="Layer_18"/><g id="Layer_17"/><g id="Layer_16"/><g id="Layer_15"/><g id="Layer_14"/><g id="Layer_13"/><g id="Layer_12"/><g id="Layer_11"/><g id="Layer_10"/><g id="Layer_9"/><g id="Layer_8"/><g id="Layer_7"/><g id="Layer_6"/><g id="Layer_5"/><g id="Layer_4"/><g id="Layer_3"/><g id="Layer_2"/><g id="Layer_1"/></svg>