<svg id="Layer_1" viewBox="0 0 128 128" xmlns="http://www.w3.org/2000/svg" data-name="Layer 1"><path d="m18.75 102.875h8.25v16.125h-8.25z" fill="#d68751"/><path d="m100.75 102.875h8.25v16.125h-8.25z" fill="#d68751"/><path d="m122 17h-8.2a10.00249 10.00249 0 0 0 -19.6 0h-60.4a10.00249 10.00249 0 0 0 -19.6 0h-8.2a6.00476 6.00476 0 0 0 -6 6v76a6.00476 6.00476 0 0 0 6 6h11v12a2 2 0 0 0 4 0v-12h4v12a2 2 0 0 0 4 0v-12h70v12a2 2 0 0 0 4 0v-12h4v12a2 2 0 0 0 4 0v-12h11a6.00476 6.00476 0 0 0 6-6v-76a6.00476 6.00476 0 0 0 -6-6zm-18-4a6.00045 6.00045 0 0 1 5.65 4h-11.3a6.00045 6.00045 0 0 1 5.65-4zm-80 0a6.00045 6.00045 0 0 1 5.65 4h-11.3a6.00045 6.00045 0 0 1 5.65-4zm100 86a2.00591 2.00591 0 0 1 -2 2h-116a2.00591 2.00591 0 0 1 -2-2v-76a2.00587 2.00587 0 0 1 2-2h116a2.00587 2.00587 0 0 1 2 2z" fill="#2d4356"/><path d="m109.65 17h-11.3a5.99035 5.99035 0 0 1 11.3 0z" fill="#d68751"/><path d="m29.65 17h-11.3a5.99035 5.99035 0 0 1 11.3 0z" fill="#d68751"/><path d="m122 21h-116a2.00587 2.00587 0 0 0 -2 2v76a2.00591 2.00591 0 0 0 2 2h116a2.00591 2.00591 0 0 0 2-2v-76a2.00587 2.00587 0 0 0 -2-2zm-61.2 65.91a5.015 5.015 0 0 1 -.67.04 6.69253 6.69253 0 0 1 -1.02-13.3c1.86-.31 1.86-.71 1.86-1.13 0-1.83-1.25-4.35-2.7-7.25995-.25-.51-.51-1.02-.77-1.56l-.02-.03-.02-.04c-2.82-6.08-4.25-9.98-4.25-14.47 0-6.29 3.72-13.3 14.17-14.09.16-.01.33-.02.5-.02a6.68146 6.68146 0 0 1 6.64 6.7v.08a6.66192 6.66192 0 0 1 -5.76 6.61995 4.15762 4.15762 0 0 0 -1.63.48.61732.61732 0 0 0 -.01.15c0 2.26 1.31 5.03 3.12 8.88l.19.41c2.96 6.2 4.36 9.62 4.36 14.15 0 7.88-5.49 13.53-13.99 14.39z" fill="#e1ebf4"/><path d="m70.43 58.37-.19-.41c-1.81-3.85-3.12-6.62-3.12-8.88a.61732.61732 0 0 1 .01-.15 4.15762 4.15762 0 0 1 1.63-.48 6.66192 6.66192 0 0 0 5.76-6.62v-.08a6.68146 6.68146 0 0 0 -6.64-6.7c-.17 0-.34.01-.5.02-10.45.79-14.17 7.8-14.17 14.09 0 4.49 1.43 8.39 4.25 14.47l.02.04.02.03c.26.54.52 1.05.77 1.56 1.45 2.91 2.7 5.43 2.7 7.25995 0 .42 0 .82-1.86 1.13a6.69253 6.69253 0 0 0 1.02 13.3 5.015 5.015 0 0 0 .67-.04c8.5-.86 13.99-6.51 13.99-14.39 0-4.52995-1.4-7.94995-4.36-14.14995zm-10.04 24.56a2.11045 2.11045 0 0 1 -.26.02 2.68932 2.68932 0 0 1 -.35-5.35c3.63-.61 5.19-2.41 5.19-5.08 0-3.17-1.85-6.43-3.87994-10.56995-2.82-6.09-3.88-9.26-3.88-12.79 0-4.9 2.77-9.52 10.47-10.1.06 0 .13-.01.2-.01a2.68288 2.68288 0 0 1 2.64 2.7v.08a2.70159 2.70159 0 0 1 -2.34 2.66c-3.33.49-5.06 1.97-5.06 4.59 0 3.26 1.59 6.52 3.7 11.01 2.82 5.91 3.97 8.73 3.97 12.43-.00006 5.36995-3.51006 9.70995-10.40006 10.40995z" fill="#2d4356"/><path d="m70.79 72.52c0 5.37006-3.50995 9.71-10.4 10.41a2.11045 2.11045 0 0 1 -.26.02 2.68932 2.68932 0 0 1 -.35-5.35c3.63-.61 5.19-2.41 5.19-5.08 0-3.17-1.85-6.43-3.87994-10.56995-2.82-6.09-3.88-9.26-3.88-12.79 0-4.9 2.77-9.52 10.47-10.1.06 0 .13-.01.2-.01a2.68288 2.68288 0 0 1 2.64 2.7v.08a2.70159 2.70159 0 0 1 -2.34 2.66c-3.33.49-5.06 1.97-5.06 4.59 0 3.26 1.59 6.52 3.7 11.01 2.81994 5.90995 3.96994 8.72995 3.96994 12.42995z" fill="#fc785e"/><g fill="#2d4356"><path d="m33.91016 68.47949a2.00365 2.00365 0 1 0 -1.94043 2.48051 2.03641 2.03641 0 0 0 .48047-.06055 2.00681 2.00681 0 0 0 1.45996-2.41996z"/><path d="m33.87012 74.62012a1.99967 1.99967 0 0 0 .92969 3.76953 2.03528 2.03528 0 0 0 .92969-.22949 1.99933 1.99933 0 1 0 -1.85937-3.54z"/><path d="m39.24023 41.17969a1.97374 1.97374 0 0 0 1.5-.67969 1.99587 1.99587 0 0 0 -.1709-2.82031 2.00121 2.00121 0 1 0 -1.3291 3.5z"/><path d="m40.83008 81.58984a2.00113 2.00113 0 1 0 -2.99024 2.66016 1.99711 1.99711 0 1 0 2.97949-2.66016z"/><path d="m74.89941 31.96973a1.93344 1.93344 0 0 0 .7002.12988 2.00732 2.00732 0 1 0 -.7002-.12988z"/><path d="m67.63965 30.21a1.898 1.898 0 0 0 .23047.00977 1.975 1.975 0 1 0 -.23047-.00977z"/><path d="m33 61.05957a2 2 0 1 0 -2 2.00977 1.998 1.998 0 0 0 2-2.00977z"/><path d="m59.91992 30.25a1.97663 1.97663 0 0 0 .24023-.00977 2.04761 2.04761 0 1 0 -.24023.00977z"/><path d="m94.08008 53.46a1.99963 1.99963 0 0 0 3.87992-.96977 1.99962 1.99962 0 1 0 -3.87988.96973z"/><path d="m33.80957 47.5a1.928 1.928 0 0 0 .91992.22949 1.99674 1.99674 0 0 0 .93067-3.76949 1.99728 1.99728 0 0 0 -1.85059 3.54z"/><path d="m31.46 55.12012a2.67292 2.67292 0 0 0 .47949.0498 1.975 1.975 0 1 0 -.47949-.0498z"/><path d="m45.17969 35.88965a1.99911 1.99911 0 1 0 -1.63969-.85938 2.00037 2.00037 0 0 0 1.63969.85938z"/><path d="m93.16992 47.5498a1.93912 1.93912 0 0 0 .92969-.23047 2.00356 2.00356 0 1 0 -.92969.23047z"/><path d="m87.21 81.5498a2.00154 2.00154 0 1 0 2.83-.16992 2.00431 2.00431 0 0 0 -2.83.16992z"/><path d="m88.62012 41.03027a2.02732 2.02732 0 0 0 1.33988-.51074 2.00075 2.00075 0 1 0 -1.33984.51074z"/><path d="m81.62012 86.50977a2.00124 2.00124 0 1 0 2.79.5 1.99991 1.99991 0 0 0 -2.79-.5z"/><path d="m96.99023 58.85938a2.00658 2.00658 0 0 0 -1.99023 2.01074v.12988a2 2 0 0 0 4 0v-.15039a2.00644 2.00644 0 0 0 -2.00977-1.99023z"/><path d="m94.16016 74.55957a1.99955 1.99955 0 0 0 -1.86035 3.54 1.96658 1.96658 0 0 0 .92969.23047 2.00021 2.00021 0 0 0 .93066-3.77051z"/><path d="m96.53027 66.9502a1.99856 1.99856 0 0 0 -.96094 3.87988 1.9737 1.9737 0 0 0 .48047.05957 1.99906 1.99906 0 0 0 .48047-3.93945z"/><path d="m81.51953 35.41992a1.99872 1.99872 0 1 0 2.27051-3.29v-.00977a2.00274 2.00274 0 1 0 -2.27051 3.2998z"/><path d="m53.04 90.00977a1.99863 1.99863 0 1 0 -1.41012 3.74023 1.92592 1.92592 0 0 0 .7002.12988 2.00013 2.00013 0 0 0 .71-3.87012z"/><path d="m46.41992 86.54a1.99872 1.99872 0 0 0 -2.27051 3.29 1.99518 1.99518 0 0 0 2.79-.51074 2.00477 2.00477 0 0 0 -.51949-2.77926z"/><path d="m52.21 32.16992a2.0022 2.0022 0 1 0 -1.87012-1.29 1.98458 1.98458 0 0 0 1.87012 1.29z"/><path d="m60.2998 91.78027a1.99874 1.99874 0 1 0 -.46972 3.96973h-.01074a1.99935 1.99935 0 1 0 .48047-3.96973z"/><path d="m67.76953 91.76953a1.99984 1.99984 0 1 0 2.23047 1.75 2.004 2.004 0 0 0 -2.23047-1.75z"/><path d="m75.01953 89.97949a2.00013 2.00013 0 0 0 .71 3.87012 1.93956 1.93956 0 0 0 .71-.12988 2.00035 2.00035 0 1 0 -1.41992-3.74023z"/></g><path d="m109.65 17h-1.19a5.97295 5.97295 0 0 0 -8.92 0h-1.19a5.99035 5.99035 0 0 1 11.3 0z" fill="#e5d0c3" opacity=".3"/><path d="m29.65 17h-1.19a5.97295 5.97295 0 0 0 -8.92 0h-1.19a5.99035 5.99035 0 0 1 11.3 0z" fill="#e5d0c3" opacity=".3"/><path d="m124 23v2a2.00587 2.00587 0 0 0 -2-2h-116a2.00587 2.00587 0 0 0 -2 2v-2a2.00587 2.00587 0 0 1 2-2h116a2.00587 2.00587 0 0 1 2 2z" fill="#fff" opacity=".5"/><path d="m124 97v2a2.00591 2.00591 0 0 1 -2 2h-116a2.00591 2.00591 0 0 1 -2-2v-2a2.00591 2.00591 0 0 0 2 2h116a2.00591 2.00591 0 0 0 2-2z" fill="#9fa5aa" opacity=".5"/><path d="m70.52 41.75v.08a2.59862 2.59862 0 0 1 -.18.96 2.64212 2.64212 0 0 0 -2.46-1.74c-.07 0-.14.01-.2.01-7.2.54-10.09 4.61-10.44 9.15q-.03-.525-.03-1.05c0-4.9 2.77-9.52 10.47-10.1.06 0 .13-.01.2-.01a2.68288 2.68288 0 0 1 2.64 2.7z" fill="#f9dbd7" opacity=".3"/><path d="m70.79 72.52c0 5.37006-3.50995 9.71-10.4 10.41a2.11045 2.11045 0 0 1 -.26.02 2.68489 2.68489 0 0 1 -2.65-2.7 2.77809 2.77809 0 0 1 .19-1 2.65026 2.65026 0 0 0 2.46 1.7 2.11045 2.11045 0 0 0 .26-.02c6.46-.66 9.95-4.51 10.36-9.42.03.33.04.67.04 1.01z" fill="#a54b3f" opacity=".5"/></svg>