<svg id="Layer_1" viewBox="0 0 512 512" xmlns="http://www.w3.org/2000/svg"><g><path d="m475.834 196.431-17.897 139.223h-448.223v-139.223z" fill="#cbf3f9"/><path d="m457.937 335.653-10.17 79.115-87.062 15.68-10.342 44.428h-213.653l-11.412-44.428-115.583-15.68v-79.115h448.223z" fill="#68544f"/><path d="m468.022 251.556-13.243 108.657h-445.065v-108.657c22.915 0 22.915 11.281 45.829 11.281s22.916-11.281 45.831-11.281 22.915 11.281 45.829 11.281 22.912-11.281 45.824-11.281 22.915 11.281 45.83 11.281 22.915-11.281 45.83-11.281 22.916 11.281 45.832 11.281 22.915-11.281 45.831-11.281 22.918 11.281 45.837 11.281 22.918-11.281 45.837-11.281z" fill="#eabd8c"/><path d="m90.39 53.657v60.184h-80.676v-60.184z" fill="#cbf3f9"/><path d="m320.627 196.431h-92.074c0-38.573-30.703-77.146-71.443-77.146l-1.61-70.262c75.724 0 165.127 67.605 165.127 147.408z" fill="#eabd8c"/><path d="m499.58 317.379c-5.094-3.084-10.573-5.005-16.353-6.021-1.966-.346-3.603-1.715-4.228-3.611-1.504-4.565-3.342-8.978-5.485-13.211-.952-1.881-.762-4.12.437-5.854 3.282-4.744 5.78-9.846 7.262-15.413.516-1.936-.06-3.997-1.476-5.413-6.573-6.572-14.474-14.474-22.018-22.017-1.392-1.392-3.413-1.973-5.325-1.503-5.729 1.408-10.917 3.89-15.687 7.21-1.729 1.203-3.964 1.4-5.845.454-4.238-2.131-8.657-3.956-13.226-5.448-1.9-.621-3.278-2.256-3.631-4.224-1.028-5.733-2.875-11.159-5.79-16.189-1.006-1.736-2.882-2.788-4.889-2.788h-31.115c-1.972 0-3.818 1.019-4.84 2.706-3.083 5.093-5.004 10.573-6.021 16.353-.346 1.966-1.715 3.603-3.611 4.228-4.565 1.505-8.979 3.342-13.211 5.484-1.881.952-4.121.763-5.854-.437-4.744-3.282-9.846-5.78-15.412-7.262-1.936-.515-3.998.06-5.414 1.476-6.573 6.573-14.473 14.473-22.018 22.018-1.392 1.392-1.973 3.413-1.503 5.324 1.407 5.729 3.889 10.918 7.21 15.687 1.203 1.727 1.4 3.962.455 5.842-2.131 4.239-3.958 8.658-5.449 13.228-.621 1.901-2.256 3.279-4.224 3.632-5.732 1.028-11.161 2.875-16.19 5.79-1.736 1.006-2.788 2.874-2.788 4.88v31.13c0 1.972 1.02 3.811 2.707 4.832 5.094 3.083 10.573 5.005 16.353 6.021 1.966.346 3.603 1.715 4.228 3.61 1.504 4.565 3.342 8.977 5.484 13.211.952 1.881.762 4.121-.438 5.855-3.281 4.743-5.779 9.845-7.261 15.411-.516 1.936.06 3.998 1.476 5.414 6.573 6.573 14.474 14.473 22.018 22.018 1.392 1.392 3.412 1.973 5.323 1.503 5.729-1.407 10.918-3.889 15.688-7.21 1.728-1.203 3.962-1.4 5.843-.455 4.239 2.131 8.658 3.957 13.227 5.448 1.901.621 3.278 2.255 3.632 4.224 1.028 5.733 2.875 11.16 5.79 16.191 1.006 1.736 2.882 2.788 4.889 2.788h31.114c1.972 0 3.818-1.019 4.84-2.706 3.083-5.094 5.004-10.573 6.021-16.353.346-1.966 1.715-3.603 3.611-4.228 4.565-1.505 8.979-3.342 13.211-5.485 1.88-.952 4.12-.762 5.854.437 4.744 3.282 9.846 5.781 15.412 7.262 1.936.515 3.998-.06 5.414-1.477 6.572-6.573 14.473-14.474 22.017-22.017 1.392-1.392 1.973-3.412 1.504-5.324-1.407-5.729-3.889-10.919-7.21-15.688-1.203-1.727-1.4-3.961-.456-5.842 2.13-4.24 3.957-8.658 5.449-13.228.621-1.901 2.256-3.28 4.225-3.633 5.733-1.029 11.16-2.875 16.19-5.79 1.736-1.006 2.788-2.875 2.788-4.881v-31.13c0-1.971-1.02-3.81-2.706-4.831zm-111.766 73.086c-29.075 0-52.644-23.57-52.644-52.644s23.569-52.644 52.644-52.644 52.645 23.57 52.645 52.644-23.57 52.644-52.645 52.644z" fill="#4da6ff"/><path d="m157.11 41.189v85.12c0 2.245-1.82 4.064-4.064 4.064h-58.591c-2.245 0-4.064-1.82-4.064-4.064v-85.12c0-2.245 1.82-4.064 4.064-4.064h58.591c2.245 0 4.064 1.82 4.064 4.064z" fill="#f5f5f5"/></g><path d="m63.426 379.721c3.125 3.124 3.125 8.189 0 11.313l-3.23 3.231c-1.562 1.562-3.609 2.344-5.657 2.344s-4.094-.781-5.656-2.343c-3.125-3.124-3.125-8.189 0-11.313l3.23-3.231c3.123-3.125 8.188-3.125 11.313 0zm37.642.001-3.23 3.231c-3.124 3.124-3.124 8.189 0 11.313 1.562 1.562 3.608 2.343 5.656 2.343s4.096-.781 5.657-2.344l3.23-3.231c3.124-3.124 3.124-8.189 0-11.313s-8.19-3.124-11.313 0zm166.603 43.855-3.23 3.231c-3.124 3.124-3.124 8.189 0 11.313 1.562 1.562 3.608 2.343 5.656 2.343s4.096-.781 5.657-2.344l3.23-3.231c3.124-3.124 3.124-8.189 0-11.313s-8.19-3.124-11.313 0zm-19.734-43.855-3.23 3.231c-3.124 3.124-3.124 8.189 0 11.313 1.562 1.562 3.608 2.343 5.656 2.343s4.096-.781 5.657-2.344l3.23-3.231c3.124-3.124 3.124-8.189 0-11.313s-8.19-3.124-11.313 0zm199.238-42.471c0 33.237-27.04 60.278-60.277 60.278s-60.278-27.041-60.278-60.278 27.041-60.278 60.278-60.278 60.277 27.041 60.277 60.278zm-27.975 30.237h-64.606c8.085 8.632 19.572 14.041 32.303 14.041s24.218-5.409 32.303-14.041zm11.975-30.237c0-24.415-19.862-44.278-44.277-44.278s-44.278 19.863-44.278 44.278c0 4.98.839 9.765 2.362 14.237h83.832c1.523-4.471 2.362-9.257 2.362-14.237zm77.396-15.502v30.914c0 4.843-2.589 9.353-6.757 11.769-5.151 2.985-10.925 5.14-17.181 6.416-1.345 3.91-2.936 7.764-4.745 11.49 3.586 5.4 6.145 11.16 7.612 17.138 1.123 4.579-.258 9.502-3.604 12.85l-21.864 21.865c-3.424 3.422-8.438 4.778-13.092 3.541-5.758-1.533-11.368-4.093-16.695-7.618-3.719 1.819-7.567 3.421-11.475 4.776-1.284 6.353-3.545 12.231-6.73 17.492-2.443 4.036-6.907 6.544-11.649 6.544h-30.898c-3.52 0-6.859-1.37-9.35-3.713l-4.645 19.954c-.844 3.623-4.072 6.186-7.792 6.186h-212.166c-3.651 0-6.84-2.473-7.748-6.01l-9.993-38.905-109.444-14.847c-3.967-.538-6.925-3.925-6.925-7.927v-216.817c0-4.418 3.582-8 8-8h208.789c-3.483-27.699-24.552-55.697-54.42-60.014v2.416c0 4.418-3.582 8-8 8h-66.255c-4.418 0-8-3.582-8-8v-8.417h-72.115c-4.418 0-8-3.582-8-8v-59.766c0-4.418 3.582-8 8-8h72.114v-8.417c0-4.418 3.582-8 8-8h66.255c4.418 0 8 3.582 8 8v3.995c36.626 1.861 76.211 18.471 107.204 45.239 32.667 28.214 52.346 64.613 54.885 100.963h146.416c2.3 0 4.488.989 6.007 2.716s2.221 4.023 1.928 6.304l-7.136 55.516 8.734 8.734c3.425 3.422 4.781 8.44 3.539 13.095-1.532 5.756-4.093 11.367-7.615 16.693 1.818 3.717 3.42 7.565 4.776 11.474 6.354 1.285 12.23 3.546 17.492 6.731 4.036 2.443 6.543 6.904 6.543 11.641zm-425.028-258.684h-64.114v43.766h64.114zm66.255-16.417h-50.255v76.6h50.255zm16 30.617c26.927 2.099 54.488 14.634 76.723 35.121 23.15 21.329 37.289 48.812 39.599 76.459h29.72c-2.564-31.739-20.201-63.725-49.296-88.854-28.149-24.312-63.825-39.461-96.745-41.329v18.603zm70.545 111.58h29.735c-4.866-50.76-55.198-91.113-100.28-95.495v19.334c18.345 2.059 35.384 11.178 48.643 26.198 12.356 13.999 20.115 31.849 21.902 49.963zm-216.914 55.221c8.292 1.038 13.543 3.609 18.288 5.945 5.424 2.67 9.707 4.779 19.223 4.779s13.798-2.109 19.222-4.779c6.116-3.011 13.049-6.424 26.289-6.424s20.172 3.413 26.288 6.424c5.424 2.67 9.707 4.779 19.222 4.779s13.797-2.109 19.219-4.779c6.116-3.011 13.048-6.424 26.286-6.424s20.172 3.413 26.288 6.424c5.424 2.67 9.707 4.779 19.223 4.779s13.798-2.109 19.222-4.779c6.116-3.011 13.049-6.424 26.289-6.424 9.055 0 15.138 1.573 20.32 3.681l6.956-6.956c3.424-3.422 8.438-4.779 13.092-3.541 5.759 1.533 11.369 4.093 16.695 7.617 3.719-1.818 7.567-3.42 11.475-4.776 1.284-6.352 3.545-12.23 6.73-17.492 2.443-4.036 6.907-6.543 11.649-6.543h30.898c4.848 0 9.36 2.589 11.776 6.757 2.985 5.152 5.141 10.925 6.415 17.181 3.917 1.347 7.771 2.938 11.491 4.745 5.4-3.585 11.158-6.144 17.134-7.612 4.068-1 8.407-.017 11.674 2.562l4.417-34.364h-445.781zm0 107.422h245.794v-29.649c0-4.844 2.59-9.354 6.759-11.769 5.151-2.985 10.924-5.14 17.18-6.416 1.344-3.91 2.936-7.764 4.744-11.491-3.585-5.4-6.144-11.158-7.611-17.135-1.124-4.581.257-9.505 3.604-12.853l2.029-2.029c-2.111-.35-4.543-.56-7.441-.56-9.516 0-13.799 2.109-19.223 4.779-6.116 3.011-13.048 6.424-26.288 6.424s-20.173-3.413-26.289-6.424c-5.424-2.67-9.707-4.779-19.222-4.779s-13.796 2.109-19.218 4.778c-6.116 3.011-13.048 6.424-26.287 6.424s-20.172-3.413-26.288-6.424c-5.424-2.67-9.707-4.779-19.222-4.779s-13.799 2.109-19.223 4.779c-6.116 3.011-13.048 6.424-26.288 6.424s-20.173-3.413-26.289-6.424c-3.616-1.78-6.732-3.306-11.222-4.129v91.251zm331.216 82.54c-2.999-1.124-5.956-2.388-8.834-3.786-5.402 3.585-11.161 6.144-17.137 7.612-4.576 1.123-9.503-.257-12.852-3.604l-21.864-21.865c-3.423-3.424-4.778-8.439-3.54-13.092 1.533-5.76 4.094-11.37 7.616-16.695-1.819-3.722-3.421-7.569-4.776-11.475-4.048-.818-7.901-2.037-11.528-3.636h-258.301v39.187l107.854 14.631c3.226.438 5.863 2.785 6.673 5.937l9.789 38.109h199.609l7.292-31.324zm141.926-110.912c-3.711-2.063-7.754-3.463-12.312-4.265-4.883-.858-8.872-4.292-10.41-8.962-1.354-4.106-3.031-8.147-4.986-12.008-2.262-4.469-1.881-9.826.994-13.979 2.602-3.76 4.465-7.524 5.673-11.464l-19.903-19.904c-4.042 1.153-7.851 2.995-11.605 5.609-4.146 2.884-9.499 3.281-13.969 1.032-3.861-1.941-7.907-3.607-12.024-4.953-4.674-1.527-8.121-5.507-8.996-10.387-.817-4.558-2.169-8.583-4.12-12.258h-28.149c-2.063 3.712-3.463 7.754-4.265 12.313-.859 4.883-4.293 8.872-8.96 10.41-4.108 1.354-8.149 3.031-12.012 4.986-4.465 2.261-9.822 1.882-13.977-.992-3.764-2.604-7.527-4.468-11.466-5.675l-19.903 19.905c1.152 4.042 2.994 7.85 5.608 11.604 2.886 4.146 3.281 9.498 1.032 13.969-1.944 3.87-3.61 7.916-4.951 12.023-1.526 4.675-5.506 8.123-10.387 8.999-4.559.817-8.584 2.169-12.26 4.12v28.148c3.713 2.064 7.755 3.463 12.312 4.265 4.883.858 8.872 4.292 10.41 8.96 1.352 4.103 3.029 8.144 4.986 12.011 2.26 4.466 1.88 9.822-.992 13.976-2.604 3.763-4.468 7.527-5.675 11.467l19.904 19.904c4.04-1.153 7.851-2.995 11.605-5.609 4.143-2.884 9.495-3.279 13.965-1.034 3.871 1.945 7.917 3.612 12.026 4.954 4.672 1.525 8.119 5.504 8.997 10.383.818 4.564 2.17 8.589 4.121 12.263h28.147c2.064-3.712 3.463-7.753 4.266-12.313.859-4.883 4.293-8.872 8.961-10.41 4.105-1.353 8.146-3.03 12.01-4.986 4.47-2.263 9.824-1.881 13.978.992 3.765 2.604 7.528 4.469 11.466 5.676l19.903-19.905c-1.151-4.042-2.993-7.851-5.607-11.604-2.885-4.144-3.281-9.495-1.035-13.965 1.946-3.873 3.613-7.919 4.953-12.026 1.526-4.674 5.506-8.123 10.387-9 4.56-.818 8.585-2.17 12.26-4.12v-28.149zm-293.591 56.606-3.23 3.231c-3.124 3.124-3.124 8.189 0 11.313 1.562 1.562 3.608 2.343 5.656 2.343s4.096-.781 5.657-2.344l3.23-3.231c3.124-3.124 3.124-8.189 0-11.313s-8.19-3.124-11.313 0zm-29.219 43.854-3.231 3.231c-3.125 3.124-3.125 8.189 0 11.313 1.562 1.562 3.609 2.344 5.657 2.344s4.095-.781 5.656-2.343l3.231-3.231c3.125-3.124 3.125-8.189 0-11.313-3.123-3.124-8.188-3.125-11.313 0zm48.956 0-3.231 3.231c-3.125 3.124-3.125 8.189 0 11.313 1.562 1.562 3.609 2.344 5.657 2.344s4.095-.781 5.656-2.343l3.231-3.231c3.125-3.124 3.125-8.189 0-11.313-3.123-3.124-8.188-3.125-11.313 0zm-68.693-43.854-3.23 3.231c-3.124 3.124-3.124 8.189 0 11.313 1.562 1.562 3.608 2.343 5.656 2.343s4.096-.781 5.657-2.344l3.23-3.231c3.124-3.124 3.124-8.189 0-11.313s-8.19-3.124-11.313 0z"/></svg>