<svg id="&#x5716;&#x5C64;_1" enable-background="new 0 0 512 512" viewBox="0 0 512 512" xmlns="http://www.w3.org/2000/svg"><g><g><path d="m58.387 63.983h398.189v434.388h-398.189z" fill="#b28146"/><path d="m456.576 505.066h-398.189c-3.698 0-6.695-2.997-6.695-6.695v-434.388c0-3.698 2.997-6.695 6.695-6.695h398.189c3.698 0 6.695 2.997 6.695 6.695v434.388c0 3.698-2.998 6.695-6.695 6.695zm-391.494-13.39h384.799v-420.998h-384.799z"/></g><g><path d="m456.576 400.994h-398.189c-3.698 0-6.695-2.997-6.695-6.695s2.997-6.695 6.695-6.695h398.189c3.698 0 6.695 2.997 6.695 6.695s-2.998 6.695-6.695 6.695z"/></g><g><path d="m456.576 301.794h-398.189c-3.698 0-6.695-2.997-6.695-6.695s2.997-6.695 6.695-6.695h398.189c3.698 0 6.695 2.997 6.695 6.695s-2.998 6.695-6.695 6.695z"/></g><g><path d="m235.205 202.595h-176.818c-3.698 0-6.695-2.997-6.695-6.695s2.997-6.695 6.695-6.695h176.818c3.698 0 6.695 2.997 6.695 6.695s-2.998 6.695-6.695 6.695z"/></g><g><path d="m132.177 301.794c-3.698 0-6.695-2.997-6.695-6.695v-99.199c0-3.698 2.997-6.695 6.695-6.695s6.695 2.997 6.695 6.695v99.199c0 3.698-2.998 6.695-6.695 6.695z"/></g><g><path d="m132.177 505.066c-3.698 0-6.695-2.997-6.695-6.695v-104.072c0-3.698 2.997-6.695 6.695-6.695s6.695 2.997 6.695 6.695v104.073c0 3.697-2.998 6.694-6.695 6.694z"/></g><g><path d="m332.663 505.066c-3.698 0-6.695-2.997-6.695-6.695v-104.072c0-3.698 2.997-6.695 6.695-6.695s6.695 2.997 6.695 6.695v104.073c0 3.697-2.997 6.694-6.695 6.694z"/></g><g><path d="m235.205 400.994c-3.698 0-6.695-2.997-6.695-6.695v-99.199c0-3.698 2.997-6.695 6.695-6.695s6.695 2.997 6.695 6.695v99.199c0 3.697-2.998 6.695-6.695 6.695z"/></g><g><path d="m44.982 13.629c-21.146 0-38.287 17.142-38.287 38.287v92.01c0 31.844 25.815 57.659 57.659 57.659 31.844 0 57.659-25.815 57.659-57.659v-16.603c0-14.349 11.632-25.981 25.981-25.981 14.349 0 25.981 11.632 25.981 25.981v110.954c0 31.844 25.815 57.659 57.659 57.659 31.844 0 57.659-25.815 57.659-57.659v-42.385c0-14.349 11.632-25.981 25.981-25.981 14.349 0 25.981 11.632 25.981 25.981v49.608c0 45.3 36.723 82.024 82.024 82.024 45.3 0 82.024-36.723 82.024-82.024v-193.583c0-21.146-17.142-38.287-38.287-38.287h-422.034z" fill="#fff"/><path d="m423.281 334.218c-48.92 0-88.719-39.799-88.719-88.719v-49.607c0-10.634-8.652-19.286-19.287-19.286-10.634 0-19.286 8.652-19.286 19.286v42.385c0 35.485-28.869 64.354-64.354 64.354s-64.354-28.869-64.354-64.354v-110.953c0-10.635-8.652-19.287-19.286-19.287-10.635 0-19.287 8.652-19.287 19.287v16.603c0 35.485-28.869 64.354-64.354 64.354s-64.354-28.87-64.354-64.354v-92.01c0-24.804 20.179-44.983 44.983-44.983h422.035c24.803 0 44.982 20.179 44.982 44.982v193.584c0 48.92-39.799 88.718-88.719 88.718zm-108.005-171.001c18.018 0 32.677 14.659 32.677 32.676v49.607c0 41.536 33.793 75.329 75.329 75.329s75.329-33.793 75.329-75.329v-193.584c0-17.421-14.172-31.593-31.593-31.593h-422.035c-17.421 0-31.593 14.172-31.593 31.593v92.01c0 28.102 22.863 50.964 50.964 50.964s50.964-22.862 50.964-50.964v-16.603c0-18.018 14.658-32.677 32.676-32.677s32.677 14.659 32.677 32.677v110.954c0 28.101 22.863 50.964 50.964 50.964 28.102 0 50.964-22.863 50.964-50.964v-42.385c0-18.016 14.659-32.675 32.677-32.675z"/></g></g></svg>