<svg id="Line" enable-background="new 0 0 496 496" height="512" viewBox="0 0 496 496" width="512" xmlns="http://www.w3.org/2000/svg"><g><g><g><path d="m360 16v16c0 4.42-3.58 8-8 8h-8-192-8c-4.42 0-8-3.58-8-8v-16c0-4.42 3.58-8 8-8h208c4.42 0 8 3.58 8 8z" fill="#aab2bd"/></g><g><path d="m264 136v16c0 4.42-1.79 8.42-4.68 11.32-2.9 2.89-6.9 4.68-11.32 4.68-8.84 0-16-7.16-16-16v-16z" fill="#aab2bd"/></g><g><path d="m343.27 72c-.38.86-.93 1.66-1.61 2.34l-29.66 29.66-29.66 29.66c-1.5 1.5-3.53 2.34-5.65 2.34h-12.69-32-12.69c-2.12 0-4.15-.84-5.65-2.34l-29.66-29.66-29.66-29.66c-.68-.68-1.23-1.48-1.61-2.34-.48-1.03-.73-2.16-.73-3.31v-28.69h192v28.69c0 1.15-.25 2.28-.73 3.31z" fill="#ccd1d9"/></g><g><path d="m466.2 427.58c3.72 6.02 5.8 13.06 5.8 20.42s-2.08 14.4-5.8 20.42-9.09 11.02-15.67 14.31c-6.92 3.47-14.56 5.27-22.31 5.27h-20.22l6.92-6.92c5.81-5.81 9.08-13.7 9.08-21.92 0-5.87-1.66-11.49-4.63-16.3s-7.25-8.8-12.51-11.43l-6.29-3.15c-5.25-2.62-8.57-7.99-8.57-13.86 0-2.06.41-4.07 1.18-5.93s1.9-3.57 3.36-5.03l4.83-4.83c4.25-4.25 6.63-10 6.63-16 0-2.31-.34-4.53-.99-6.63l24.99-16 16-16 5.4 10.8c.86 1.71 1.5 3.51 1.94 5.36.44 1.84.66 3.74.66 5.65 0 6.52-2.59 12.78-7.21 17.4l-4.25 4.25c-1.46 1.46-2.59 3.17-3.36 5.03s-1.18 3.87-1.18 5.93c0 5.87 3.32 11.24 8.57 13.86l1.96.99c6.58 3.29 11.95 8.29 15.67 14.31z" fill="#ff826e"/></g><g><path d="m346.61 488h-38.83c-3.88 0-7.72-.45-11.47-1.33-3.74-.89-7.38-2.21-10.84-3.94-6.58-3.29-11.95-8.29-15.67-14.31s-5.8-13.06-5.8-20.42c0-14.71 8.31-28.16 21.47-34.73l1.96-.99c2.63-1.31 4.77-3.31 6.25-5.71 1.49-2.41 2.32-5.21 2.32-8.15 0-4.11-1.63-8.05-4.54-10.96l-4.25-4.25c-2.31-2.31-4.11-5.03-5.34-7.99-1.22-2.96-1.87-6.15-1.87-9.41 0-3.82.89-7.59 2.6-11.01l5.4-10.8 16 16 32 32 3.46 3.46c1.46 1.46 2.59 3.17 3.36 5.03s1.18 3.87 1.18 5.93c0 5.87-3.32 11.24-8.57 13.86l-4.3 2.15c-5.86 2.93-10.64 7.4-13.96 12.77-3.32 5.36-5.17 11.64-5.17 18.19 0 19.11 15.5 34.61 34.61 34.61z" fill="#ff826e"/></g><g><path d="m210.53 413.27c13.16 6.57 21.47 20.02 21.47 34.73 0 7.36-2.08 14.4-5.8 20.42s-9.09 11.02-15.67 14.31c-3.46 1.73-7.1 3.05-10.84 3.94-3.75.88-7.59 1.33-11.47 1.33h-38.83c19.11 0 34.61-15.5 34.61-34.61 0-6.55-1.85-12.83-5.17-18.19-3.32-5.37-8.1-9.84-13.96-12.77l-4.3-2.15c-5.25-2.62-8.57-7.99-8.57-13.86 0-2.06.41-4.07 1.18-5.93s1.9-3.57 3.36-5.03l3.46-3.46 32-32 16-16 5.4 10.8c1.71 3.42 2.6 7.19 2.6 11.01 0 3.26-.65 6.45-1.87 9.41-1.23 2.96-3.03 5.68-5.34 7.99l-4.25 4.25c-2.91 2.91-4.54 6.85-4.54 10.96 0 2.94.83 5.74 2.32 8.15 1.48 2.4 3.62 4.4 6.25 5.71z" fill="#ff826e"/></g><g><path d="m102.82 408.49c.77 1.86 1.18 3.87 1.18 5.93 0 5.87-3.32 11.24-8.57 13.86l-6.29 3.15c-5.26 2.63-9.54 6.62-12.51 11.43s-4.63 10.43-4.63 16.3c0 8.22 3.27 16.11 9.08 21.92l6.92 6.92h-20.22c-7.75 0-15.39-1.8-22.31-5.27-6.58-3.29-11.95-8.29-15.67-14.31s-5.8-13.06-5.8-20.42 2.08-14.4 5.8-20.42 9.09-11.02 15.67-14.31l1.96-.99c5.25-2.62 8.57-7.99 8.57-13.86 0-2.06-.41-4.07-1.18-5.93s-1.9-3.57-3.36-5.03l-4.25-4.25c-4.62-4.62-7.21-10.88-7.21-17.4 0-1.91.22-3.81.66-5.65.44-1.85 1.08-3.65 1.94-5.36l5.4-10.8 16 16 26.1 13.1c-1.35 2.89-2.1 6.12-2.1 9.53 0 6 2.38 11.75 6.63 16l4.83 4.83c1.46 1.46 2.59 3.17 3.36 5.03z" fill="#ff826e"/></g><g><path d="m424 459.16c0 8.22-3.27 16.11-9.08 21.92l-6.92 6.92h-61.39c-19.11 0-34.61-15.5-34.61-34.61 0-6.55 1.85-12.83 5.17-18.19 3.32-5.37 8.1-9.84 13.96-12.77l4.3-2.15c5.25-2.62 8.57-7.99 8.57-13.86 0-2.06-.41-4.07-1.18-5.93s-1.9-3.57-3.36-5.03l-3.46-3.46 24-8 1.69-.84c4.39-2.2 7.96-5.53 10.44-9.55 2.49-4.01 3.87-8.71 3.87-13.61h9.37c6.25 0 11.91 2.53 16 6.63 2.59 2.58 4.55 5.79 5.64 9.37.65 2.1.99 4.32.99 6.63 0 6-2.38 11.75-6.63 16l-4.83 4.83c-1.46 1.46-2.59 3.17-3.36 5.03s-1.18 3.87-1.18 5.93c0 5.87 3.32 11.24 8.57 13.86l6.29 3.15c5.26 2.63 9.54 6.62 12.51 11.43s4.63 10.43 4.63 16.3z" fill="#fc6e51"/></g><g><path d="m90.1 373.1c1.12-2.42 2.66-4.61 4.53-6.47 4.09-4.1 9.75-6.63 16-6.63h9.37c0 4.9 1.38 9.6 3.87 13.61 2.48 4.02 6.05 7.35 10.44 9.55l1.69.84 24 8-3.46 3.46c-1.46 1.46-2.59 3.17-3.36 5.03s-1.18 3.87-1.18 5.93c0 5.87 3.32 11.24 8.57 13.86l4.3 2.15c5.86 2.93 10.64 7.4 13.96 12.77 3.32 5.36 5.17 11.64 5.17 18.19 0 19.11-15.5 34.61-34.61 34.61h-61.39l-6.92-6.92c-5.81-5.81-9.08-13.7-9.08-21.92 0-5.87 1.66-11.49 4.63-16.3s7.25-8.8 12.51-11.43l6.29-3.15c5.25-2.62 8.57-7.99 8.57-13.86 0-2.06-.41-4.07-1.18-5.93s-1.9-3.57-3.36-5.03l-4.83-4.83c-4.25-4.25-6.63-10-6.63-16 0-3.41.75-6.64 2.1-9.53z" fill="#fc6e51"/></g><g><circle cx="440" cy="184" fill="#69d6f4" r="16"/></g><g><circle cx="200" cy="280" fill="#69d6f4" r="16"/></g></g><g><path d="m144 48v20.687c0 4.273 1.664 8.291 4.686 11.313l59.313 59.313c3.022 3.023 7.04 4.688 11.314 4.688h4.687v8c0 13.234 10.767 24 24 24s24-10.766 24-24v-8h4.687c4.274 0 8.292-1.665 11.313-4.687l59.315-59.314c3.021-3.022 4.685-7.04 4.685-11.313v-20.687c8.822 0 16-7.178 16-16v-16c0-8.822-7.178-16-16-16h-208c-8.822 0-16 7.178-16 16v16c0 8.822 7.178 16 16 16zm112 104c0 4.411-3.589 8-8 8s-8-3.589-8-8v-8h16zm80-88h-64v16h52.687l-16 16h-52.687v16h36.687l-16 16h-57.372l-16-16h36.685v-16h-52.686l-16-16h52.686v-16h-64v-16h176zm-192-48h208l.01 16s-.003 0-.01 0h-208z"/><path d="m248 192c-19.617 0-36.207-14.015-39.446-33.324l-15.779 2.647c4.537 27.047 27.762 46.677 55.225 46.677s50.688-19.63 55.226-46.676l-15.779-2.647c-3.24 19.308-19.83 33.323-39.447 33.323z"/><path d="m336 152c0-2.929-.146-5.886-.434-8.789l-15.922 1.578c.237 2.381.356 4.807.356 7.211 0 39.701-32.299 72-72 72s-72-32.299-72-72c0-2.404.119-4.83.355-7.211l-15.922-1.578c-.288 2.903-.434 5.86-.434 8.789 0 48.523 39.477 88 88 88s88.001-39.477 88.001-88z"/><path d="m214.112 406.112-1.966-.983c-2.558-1.279-4.146-3.849-4.146-6.708 0-2.003.78-3.887 2.197-5.304l4.252-4.253c6.159-6.157 9.551-14.345 9.551-23.055 0-5.035-1.19-10.077-3.442-14.582l-10.366-20.732-23.849 23.849 11.314 11.313 8.151-8.151.438.876c1.146 2.294 1.753 4.863 1.753 7.427 0 4.436-1.728 8.605-4.864 11.741l-4.253 4.253c-4.438 4.438-6.883 10.34-6.883 16.617 0 8.958 4.978 17.013 12.99 21.019l1.966.983c10.515 5.257 17.045 15.824 17.045 27.578s-6.53 22.321-17.044 27.578c-5.786 2.893-12.264 4.422-18.733 4.422h-5.589c5.853-7.298 9.366-16.549 9.366-26.61 0-16.244-9.025-30.847-23.554-38.111l-4.3-2.15c-2.558-1.279-4.146-3.849-4.146-6.708 0-2.003.78-3.887 2.197-5.304l3.46-3.46-11.314-11.313-3.46 3.46c-4.438 4.438-6.883 10.34-6.883 16.617 0 8.958 4.978 17.013 12.99 21.019l4.3 2.15c9.073 4.537 14.71 13.657 14.71 23.801 0 14.673-11.938 26.61-26.61 26.61h-58.076l-4.578-4.578c-4.343-4.344-6.736-10.12-6.736-16.264 0-8.768 4.872-16.651 12.715-20.572l6.295-3.147c8.013-4.006 12.99-12.061 12.99-21.019 0-6.277-2.444-12.179-6.884-16.618l-4.832-4.832c-2.763-2.763-4.284-6.436-4.284-10.344 0-8.065 6.562-14.627 14.627-14.627h2.314c2.3 9.582 8.688 17.759 17.791 22.311l1.689.845 7.156-14.311-1.688-.845c-6.1-3.05-9.889-9.181-9.889-16v-8h-17.373c-16.888 0-30.627 13.739-30.627 30.627 0 8.181 3.186 15.872 8.971 21.657l4.832 4.832c1.417 1.417 2.197 3.3 2.197 5.304 0 2.859-1.589 5.43-4.146 6.708l-6.295 3.147c-13.298 6.65-21.559 20.017-21.559 34.884 0 7.496 2.11 14.664 6.032 20.841h-2.255c-6.47 0-12.947-1.529-18.733-4.422-10.514-5.257-17.044-15.824-17.044-27.578s6.53-22.321 17.044-27.578l1.966-.983c8.012-4.006 12.99-12.06 12.99-21.019 0-6.277-2.444-12.179-6.883-16.617l-4.254-4.254c-3.135-3.135-4.863-7.305-4.863-11.74 0-2.564.606-5.132 1.753-7.426l.438-.877 8.151 8.151 11.314-11.313-23.849-23.849-10.366 20.733c-2.251 4.503-3.441 9.546-3.441 14.581 0 8.71 3.392 16.898 9.55 23.055l4.253 4.253c1.417 1.417 2.197 3.3 2.197 5.304 0 2.859-1.589 5.43-4.146 6.708l-1.966.983c-15.968 7.984-25.888 24.034-25.888 41.888s9.92 33.904 25.888 41.888c7.997 3.999 16.949 6.112 25.89 6.112h120.445c8.94 0 17.893-2.113 25.89-6.112 15.967-7.984 25.887-24.034 25.887-41.888s-9.92-33.904-25.888-41.888z"/><path d="m151.209 359.451-2.787 1.394 7.156 14.311 2.787-1.394c10.877-5.439 17.635-16.373 17.635-28.534 0-13.753-8.767-25.916-21.813-30.265l-19.399-6.466c-4.06-1.354-6.787-5.138-6.787-9.417 0-3.784 2.103-7.186 5.487-8.878l6.091-3.045-7.156-14.311-6.091 3.045c-8.84 4.42-14.331 13.305-14.331 23.189 0 11.178 7.124 21.062 17.728 24.596l19.399 6.466c6.503 2.168 10.873 8.23 10.873 15.086-.001 6.062-3.369 11.512-8.792 14.223z"/><path d="m32.804 240c3.189 15.649 15.548 28.006 31.196 31.196v.804c0 17.645 14.355 32 32 32v-16c-8.822 0-16-7.178-16-16v-16h-8c-13.233 0-24-10.767-24-24v-8h-15.278c-9.221 0-16.722-7.501-16.722-16.721 0-6.375 3.542-12.105 9.244-14.957l2.334-1.167-7.156-14.311-2.334 1.167c-11.157 5.579-18.088 16.794-18.088 29.268 0 18.042 14.679 32.721 32.722 32.721z"/><path d="m148.687 185.373-7.029-7.029-11.314 11.313 7.029 7.029c4.274 4.274 6.628 9.957 6.628 16 0 5.158-2.009 10.008-5.657 13.657l-5.656 5.657 7.998 8c2.138 2.137 3.314 4.979 3.314 8s-1.177 5.863-3.314 8l-2.343 2.343 11.314 11.313 2.343-2.343c5.159-5.159 8-12.018 8-19.313 0-5.999-1.921-11.703-5.472-16.409 3.563-5.601 5.472-12.106 5.472-18.905 0-10.317-4.018-20.018-11.313-27.313z"/><path d="m48.755 110.006c-.501-1.947-.755-3.968-.755-6.006 0-13.234 10.767-24 24-24s24 10.766 24 24v8h8c13.233 0 24 10.766 24 24s-10.767 24-24 24c-2.037 0-4.058-.254-6.006-.756l-3.988 15.495c3.25.836 6.612 1.261 9.994 1.261 22.056 0 40-17.944 40-40 0-19.554-14.104-35.875-32.673-39.328-3.452-18.568-19.773-32.672-39.327-32.672-22.056 0-40 17.944-40 40 0 3.383.424 6.745 1.261 9.994z"/><circle cx="72" cy="136" r="8"/><circle cx="56" cy="184" r="8"/><circle cx="104" cy="216" r="8"/><circle cx="24" cy="280" r="8"/><path d="m454.112 406.112-1.966-.983c-2.558-1.279-4.146-3.849-4.146-6.708 0-2.003.78-3.887 2.197-5.304l4.252-4.253c6.159-6.157 9.551-14.345 9.551-23.055 0-5.035-1.19-10.077-3.442-14.582l-10.366-20.732-23.849 23.849 11.314 11.313 8.151-8.151.438.876c1.146 2.294 1.753 4.863 1.753 7.427 0 4.436-1.728 8.605-4.864 11.741l-4.253 4.253c-4.438 4.438-6.883 10.34-6.883 16.617 0 8.958 4.978 17.013 12.99 21.019l1.966.983c10.515 5.257 17.045 15.824 17.045 27.578s-6.53 22.321-17.044 27.578c-5.786 2.893-12.264 4.422-18.733 4.422h-2.255c3.922-6.177 6.033-13.345 6.033-20.841 0-14.868-8.261-28.234-21.559-34.883l-6.295-3.147c-2.558-1.279-4.146-3.849-4.146-6.708 0-2.003.78-3.887 2.196-5.303l4.834-4.833c5.784-5.785 8.97-13.476 8.97-21.657-.001-16.889-13.74-30.628-30.628-30.628h-17.373v8c0 6.819-3.789 12.95-9.889 16l-1.689.845 7.156 14.311 1.689-.845c9.104-4.552 15.491-12.729 17.791-22.311h2.314c8.065 0 14.627 6.562 14.627 14.627 0 3.907-1.521 7.581-4.283 10.343l-4.834 4.833c-4.438 4.438-6.883 10.34-6.883 16.617 0 8.958 4.978 17.013 12.99 21.019l6.295 3.147c7.843 3.921 12.715 11.804 12.715 20.572 0 6.144-2.393 11.92-6.737 16.264l-4.576 4.578h-58.076c-14.673 0-26.61-11.937-26.61-26.61 0-10.144 5.637-19.264 14.71-23.801l4.3-2.15c8.013-4.006 12.99-12.061 12.99-21.019 0-6.277-2.444-12.179-6.883-16.617l-3.46-3.46-11.314 11.313 3.46 3.46c1.417 1.417 2.197 3.3 2.197 5.304 0 2.859-1.589 5.43-4.146 6.708l-4.3 2.15c-14.529 7.265-23.554 21.868-23.554 38.112 0 10.061 3.513 19.312 9.366 26.61h-5.589c-6.47 0-12.947-1.529-18.733-4.422-10.514-5.257-17.044-15.824-17.044-27.578s6.53-22.321 17.044-27.578l1.966-.983c8.013-4.006 12.99-12.061 12.99-21.019 0-6.277-2.444-12.179-6.883-16.617l-4.254-4.254c-3.136-3.136-4.863-7.305-4.863-11.741 0-2.564.606-5.132 1.753-7.426l.438-.877 8.151 8.151 11.314-11.313-23.849-23.849-10.366 20.733c-2.252 4.504-3.442 9.546-3.442 14.581 0 8.71 3.392 16.898 9.55 23.055l4.253 4.253c1.417 1.417 2.197 3.3 2.197 5.304 0 2.859-1.589 5.43-4.146 6.708l-1.966.983c-15.967 7.985-25.887 24.035-25.887 41.889s9.92 33.904 25.888 41.888c7.997 3.999 16.949 6.112 25.89 6.112h120.445c8.94 0 17.893-2.113 25.89-6.112 15.967-7.984 25.887-24.034 25.887-41.888s-9.92-33.904-25.888-41.888z"/><path d="m346.874 330.142 19.397-6.466c10.605-3.535 17.729-13.419 17.729-24.597 0-9.884-5.491-18.769-14.331-23.189l-6.091-3.045-7.156 14.311 6.091 3.045c3.385 1.692 5.487 5.094 5.487 8.878 0 4.28-2.728 8.064-6.788 9.417l-19.397 6.466c-13.048 4.35-21.815 16.512-21.815 30.266 0 12.162 6.758 23.095 17.635 28.534l2.787 1.394 7.156-14.311-2.787-1.394c-5.423-2.711-8.791-8.162-8.791-14.224 0-6.855 4.37-12.917 10.874-15.085z"/><path d="m477.912 178.012-2.334-1.167-7.156 14.311 2.334 1.167c5.702 2.851 9.244 8.582 9.244 14.957 0 9.22-7.501 16.721-16.722 16.721h-15.278v8c0 13.233-10.767 24-24 24h-8v16c0 8.822-7.178 16-16 16v16c17.645 0 32-14.355 32-32v-.804c15.648-3.19 28.007-15.547 31.196-31.196h.082c18.043-.001 32.722-14.68 32.722-32.722 0-12.474-6.931-23.689-18.088-29.267z"/><path d="m344 267.313 2.343 2.343 11.314-11.313-2.343-2.343c-2.138-2.137-3.314-4.979-3.314-8s1.177-5.863 3.314-8l7.998-8-5.655-5.656c-3.648-3.648-5.657-8.499-5.657-13.657 0-6.044 2.354-11.726 6.628-16l7.029-7.029-11.314-11.313-7.029 7.029c-7.296 7.294-11.314 16.995-11.314 27.313 0 6.799 1.908 13.304 5.472 18.905-3.551 4.706-5.472 10.409-5.472 16.408 0 7.295 2.841 14.154 8 19.313z"/><path d="m352 136c0 22.056 17.944 40 40 40 3.382 0 6.744-.424 9.994-1.261l-3.988-15.495c-1.948.502-3.969.756-6.006.756-13.233 0-24-10.766-24-24s10.767-24 24-24h8v-8c0-13.234 10.767-24 24-24s24 10.766 24 24c0 2.038-.254 4.059-.755 6.006l15.494 3.988c.837-3.249 1.261-6.611 1.261-9.994 0-22.056-17.944-40-40-40-19.554 0-35.875 14.104-39.327 32.672-18.569 3.453-32.673 19.774-32.673 39.328z"/><circle cx="424" cy="136" r="8"/><circle cx="264" cy="312" r="8"/><circle cx="392" cy="216" r="8"/><circle cx="472" cy="280" r="8"/><path d="m200 304c13.233 0 24-10.766 24-24s-10.767-24-24-24-24 10.766-24 24 10.767 24 24 24zm0-32c4.411 0 8 3.589 8 8s-3.589 8-8 8-8-3.589-8-8 3.589-8 8-8z"/><path d="m440 208c13.233 0 24-10.766 24-24s-10.767-24-24-24-24 10.766-24 24 10.767 24 24 24zm0-32c4.411 0 8 3.589 8 8s-3.589 8-8 8-8-3.589-8-8 3.589-8 8-8z"/></g></g></svg>