<svg height="512pt" viewBox="0 -28 512 512" width="512pt" xmlns="http://www.w3.org/2000/svg"><path d="m504.484375 388.257812h-182.355469v-219.429687h112.21875l20.039063 89.175781 50.097656 25.050782zm0 0" fill="#e4e8ed"/><path d="m498.324219 358.199219c-12.40625-34.988281-45.828125-60.117188-85.015625-60.117188-23.566406 0-45.039063 9.097657-61.121094 23.949219h-30.058594v66.226562h182.355469v-30.058593zm0 0" fill="#c8d1da"/><path d="m322.128906 388.257812h-294.574218c-11.070313 0-20.039063-8.972656-20.039063-20.039062v-240.46875c0-11.066406 8.96875-20.039062 20.039063-20.039062h274.535156c11.066406 0 20.039062 8.972656 20.039062 20.039062zm0 0" fill="#ed9c87"/><path d="m213.769531 358.199219c-12.40625-34.988281-45.832031-60.117188-85.019531-60.117188s-72.609375 25.128907-85.015625 60.117188h-16.179687c-11.070313 0-20.039063-8.972657-20.039063-20.039063v30.058594c0 11.066406 8.96875 20.039062 20.039063 20.039062h294.574218v-30.058593zm0 0" fill="#e46a4a"/><path d="m300.488281 107.710938h-191.175781c12.796875 40.609374 50.808594 70.136718 95.585938 70.136718 44.78125 0 82.792968-29.527344 95.589843-70.136718zm0 0" fill="#e46a4a"/><path d="m458.394531 168.828125h-136.265625v-30.058594h106.207032c16.601562 0 30.058593 13.457031 30.058593 30.058594zm0 0" fill="#58575b"/><path d="m473.425781 388.257812c0 33.203126-26.917969 60.117188-60.117187 60.117188-33.203125 0-60.117188-26.914062-60.117188-60.117188 0-33.203124 26.914063-60.117187 60.117188-60.117187 33.199218 0 60.117187 26.914063 60.117187 60.117187zm0 0" fill="#58575b"/><path d="m413.308594 408.296875c-11.050782 0-20.039063-8.988281-20.039063-20.039063 0-11.050781 8.988281-20.039062 20.039063-20.039062 11.046875 0 20.039062 8.988281 20.039062 20.039062 0 11.050782-8.992187 20.039063-20.039062 20.039063zm0 0" fill="#eee"/><path d="m188.867188 388.257812c0 33.203126-26.914063 60.117188-60.117188 60.117188-33.199219 0-60.117188-26.914062-60.117188-60.117188 0-33.203124 26.917969-60.117187 60.117188-60.117187 33.203125 0 60.117188 26.914063 60.117188 60.117187zm0 0" fill="#58575b"/><path d="m128.75 408.296875c-11.046875 0-20.039062-8.988281-20.039062-20.039063 0-11.050781 8.992187-20.039062 20.039062-20.039062 11.050781 0 20.039062 8.988281 20.039062 20.039062 0 11.050782-8.988281 20.039063-20.039062 20.039063zm0 0" fill="#eee"/><path d="m275.039062 77.652344c0 38.734375-31.402343 70.136718-70.140624 70.136718-38.734376 0-70.136719-31.402343-70.136719-70.136718s31.402343-70.136719 70.136719-70.136719c38.738281 0 70.140624 31.402344 70.140624 70.136719zm0 0" fill="#faef93"/><path d="m434.347656 168.828125h-112.21875v89.175781h132.257813zm0 0" fill="#cfdbfa"/><path d="m413.308594 418.316406c-28.015625 0-51.550782-19.160156-58.226563-45.085937-1.234375 4.800781-1.890625 9.839843-1.890625 15.027343 0 33.203126 26.914063 60.117188 60.117188 60.117188 33.199218 0 60.117187-26.914062 60.117187-60.117188 0-5.1875-.660156-10.226562-1.894531-15.027343-6.675781 25.925781-30.210938 45.085937-58.222656 45.085937zm0 0" fill="#48474a"/><path d="m128.75 418.316406c-28.011719 0-51.546875-19.160156-58.222656-45.085937-1.234375 4.800781-1.894532 9.839843-1.894532 15.027343 0 33.203126 26.917969 60.117188 60.117188 60.117188 33.203125 0 60.117188-26.914062 60.117188-60.117188 0-5.1875-.65625-10.226562-1.890626-15.027343-6.675781 25.925781-30.210937 45.085937-58.226562 45.085937zm0 0" fill="#48474a"/><path d="m447.632812 227.945312h-125.503906v30.058594h132.257813zm0 0" fill="#9eb6f4"/><path d="m204.898438 117.730469c-33.574219 0-61.621094-23.597657-68.503907-55.109375-1.058593 4.84375-1.632812 9.871094-1.632812 15.03125 0 38.734375 31.402343 70.136718 70.136719 70.136718 38.738281 0 70.140624-31.402343 70.140624-70.136718 0-5.160156-.574218-10.1875-1.632812-15.03125-6.882812 31.511718-34.929688 55.109375-68.507812 55.109375zm0 0" fill="#eed60f"/><path d="m460.9375 252.878906-17.199219-76.535156h22.171875v-7.515625c0-20.71875-16.855468-37.570313-37.574218-37.570313h-98.691407v-3.507812c0-15.191406-12.363281-27.554688-27.554687-27.554688h-5.820313v15.03125h5.820313c6.90625 0 12.523437 5.617188 12.523437 12.523438v173.097656h15.03125v-35.328125h122.96875l44.355469 22.175781v23.914063h-22.542969v15.027344h22.542969v69.136719h15.03125v-117.367188zm-131.292969-76.535156h26.695313v-15.027344h-26.695313v-15.03125h98.691407c9.796874 0 18.15625 6.28125 21.257812 15.03125h-78.226562v15.027344h56.96875l16.660156 74.144531h-115.351563zm0 0"/><path d="m413.308594 320.625c-6.753906 0-13.425782.996094-19.824219 2.953125l4.398437 14.371094c4.972657-1.519531 10.164063-2.292969 15.425782-2.292969 29.003906 0 52.601562 23.597656 52.601562 52.601562 0 29.003907-23.597656 52.601563-52.601562 52.601563-29.007813 0-52.605469-23.597656-52.605469-52.601563 0-9.25 2.433594-18.347656 7.035156-26.300781l-13.007812-7.527343c-5.921875 10.242187-9.054688 21.9375-9.054688 33.828124 0 37.292969 30.339844 67.632813 67.632813 67.632813 37.292968 0 67.628906-30.339844 67.628906-67.632813 0-37.292968-30.335938-67.632812-67.628906-67.632812zm0 0"/><path d="m364.921875 341.003906 10.75 10.5c3.070313-3.140625 6.523437-5.894531 10.261719-8.175781l-7.832032-12.828125c-4.800781 2.933594-9.234374 6.46875-13.179687 10.503906zm0 0"/><path d="m413.308594 415.8125c15.191406 0 27.550781-12.363281 27.550781-27.554688 0-15.191406-12.359375-27.554687-27.550781-27.554687-15.195313 0-27.554688 12.363281-27.554688 27.554687 0 15.191407 12.359375 27.554688 27.554688 27.554688zm0-40.078125c6.90625 0 12.523437 5.617187 12.523437 12.523437s-5.617187 12.523438-12.523437 12.523438-12.527344-5.617188-12.527344-12.523438 5.621094-12.523437 12.527344-12.523437zm0 0"/><path d="m80.367188 341.003906 10.75 10.5c3.070312-3.140625 6.523437-5.894531 10.261718-8.175781l-7.832031-12.828125c-4.804687 2.933594-9.238281 6.46875-13.179687 10.503906zm0 0"/><path d="m128.75 320.625c-6.75 0-13.421875.996094-19.820312 2.953125l4.398437 14.371094c4.972656-1.519531 10.160156-2.292969 15.421875-2.292969 29.007812 0 52.605469 23.597656 52.605469 52.601562 0 29.003907-23.597657 52.601563-52.605469 52.601563-29.003906 0-52.601562-23.597656-52.601562-52.601563 0-9.25 2.433593-18.347656 7.035156-26.300781l-13.007813-7.527343c-5.925781 10.242187-9.054687 21.9375-9.054687 33.828124 0 37.292969 30.335937 67.632813 67.628906 67.632813s67.632812-30.339844 67.632812-67.632813c0-37.292968-30.339843-67.632812-67.632812-67.632812zm0 0"/><path d="m128.75 415.8125c15.195312 0 27.554688-12.363281 27.554688-27.554688 0-15.191406-12.359376-27.554687-27.554688-27.554687-15.191406 0-27.550781 12.363281-27.550781 27.554687 0 15.191407 12.359375 27.554688 27.550781 27.554688zm0-40.078125c6.90625 0 12.527344 5.617187 12.527344 12.523437s-5.621094 12.523438-12.527344 12.523438-12.523438-5.617188-12.523438-12.523438 5.617188-12.523437 12.523438-12.523437zm0 0"/><path d="m314.613281 380.742188h-99.695312v15.03125h114.726562v-79.898438h-15.03125zm0 0"/><path d="m15.03125 127.75c0-6.90625 5.617188-12.523438 12.523438-12.523438h85.976562v-15.03125h-85.976562c-15.195313 0-27.554688 12.363282-27.554688 27.554688v31.492188h15.03125zm0 0"/><path d="m15.03125 368.21875v-193.949219h-15.03125v193.949219c0 15.191406 12.359375 27.554688 27.554688 27.554688h15.027343v-15.03125h-15.027343c-6.90625 0-12.523438-5.617188-12.523438-12.523438zm0 0"/><path d="m252.234375 36.648438 11.355469-9.84375c-3.628906-4.1875-7.714844-7.992188-12.144532-11.3125l-9.015624 12.023437c3.574218 2.683594 6.875 5.753906 9.804687 9.132813zm0 0"/><path d="m282.550781 77.652344c0-13.003906-3.28125-25.875-9.488281-37.222656l-13.183594 7.214843c5 9.140625 7.644532 19.515625 7.644532 30.007813 0 34.53125-28.09375 62.621094-62.625 62.621094-34.527344 0-62.621094-28.089844-62.621094-62.621094s28.09375-62.621094 62.621094-62.621094c9.082031 0 17.835937 1.898438 26.023437 5.640625l6.25-13.667969c-10.164063-4.648437-21.019531-7.003906-32.273437-7.003906-42.816407 0-77.648438 34.835938-77.648438 77.652344s34.832031 77.652344 77.648438 77.652344c42.820312 0 77.652343-34.835938 77.652343-77.652344zm0 0"/><path d="m197.386719 33.566406v51.601563h41.578125v-15.03125h-26.550782v-36.570313zm0 0"/><path d="m37.574219 57.113281h15.027343v15.027344h-15.027343zm0 0"/><path d="m7.515625 57.113281h15.027344v15.027344h-15.027344zm0 0"/><path d="m67.632812 57.113281h44.085938v15.027344h-44.085938zm0 0"/><path d="m23.546875 21.042969h15.027344v15.027343h-15.027344zm0 0"/><path d="m53.605469 21.042969h38.074219v15.027343h-38.074219zm0 0"/><g fill="#fff"><path d="m239.96875 300.585938h-140.273438v-15.027344h140.273438zm-155.304688 0h-15.027343v-15.027344h15.027343zm-30.058593 0h-15.027344v-15.027344h15.027344zm0 0"/><path d="m290.066406 245.480469h-160.3125v-15.03125h160.3125zm-175.34375 0h-15.027344v-15.03125h15.027344zm-30.058594 0h-15.027343v-15.03125h15.027343zm0 0"/><path d="m260.007812 190.371094h-110.214843v-15.027344h110.214843zm-125.246093 0h-15.027344v-15.027344h15.027344zm-30.058594 0h-15.027344v-15.027344h15.027344zm0 0"/></g></svg>