<svg enable-background="new 0 0 140 140" height="512" viewBox="0 0 140 140" width="512" xmlns="http://www.w3.org/2000/svg"><circle cx="70" cy="70" fill="#334d5c" r="64"/><path d="m54.5805283 63.738308-3.1400146-3.2299805c-.1199951-.1300049-.289978-.2200317-.4899902-.2299805l-2.7399902-.1000366c-.3800049-.0100098-.6900024.2800293-.710022.6600342l-.1099854 2.4400024-11.7999879-.1400146v13.8499794l53.9590454 53.9591064c23.1620483-7.4240112 40.5647507-27.6787109 43.865715-52.4028931l-51.0847701-51.3461933c-.1900024-.1900024-.460022-.2999878-.75-.2600098-.1099854-.0200195-.2299805-.0200195-.3599854.0200195l-4.2200317 1.1900024-.7199707-.7200317c-.1300049-.1400146-.3200073-.2299805-.5300293-.2299805h-18.9699707c-.4000244 0-.7299805.3300171-.7299805.7399902v.4000244l-4.9500122-1.3800049c-.5900269-.1700439-1.1799927.2799683-1.1799927.8999634v4.2399883c0 .25.0999756.4700317.25.6300049l9.0299683 8.9800415c-.039978.1300049-.0700073.2699585-.0700073.4099731v9.1099854h-1.6300049c-.7799683 0-1.4099731.6400146-1.3999634 1.4200439l.1099854 6.1499634c-.0000001.0000002.4500121 4.4000246-1.6300049 4.9400027z" opacity=".1"/><path d="m104.413475 101.7920227c0 6.235733-5.0534744 11.2863998-11.2863998 11.2863998-3.4903183 0-6.6110077-1.5829163-8.679245-4.0715637-1.628067-1.955368-2.6071548-4.4694214-2.6071548-7.2148361 0-6.2329178 5.0534821-11.2863998 11.2863998-11.2863998 2.6974487 0 5.1748199.9480515 7.116066 2.5309677 2.5450897 2.0654144 4.1703338 5.219963 4.1703338 8.7554321z" fill="#f4c85b"/><path d="m100.2431412 93.0365906c-.4260483 3.3972168-2.3560257 7.2120056-5.5698318 10.4258118-3.1517258 3.151741-6.8790665 5.0676041-10.2254791 5.5444565-1.628067-1.955368-2.6071548-4.4694214-2.6071548-7.2148361 0-6.2329178 5.0534821-11.2863998 11.2863998-11.2863998 2.6974486-.0000001 5.1748198.9480513 7.1160659 2.5309676z" fill="#fcd462"/><path d="m100.2431412 93.0365906c-.4260483 3.3972168-2.3560257 7.2120056-5.5698318 10.4258118-3.1517258 3.151741-6.8790665 5.0676041-10.2254791 5.5444565-1.628067-1.955368-2.6071548-4.4694214-2.6071548-7.2148361 0-6.2329178 5.0534821-11.2863998 11.2863998-11.2863998 2.6974486-.0000001 5.1748198.9480513 7.1160659 2.5309676z" fill="#fff" opacity=".1"/><ellipse cx="93.128" cy="101.793" fill="#efb250" rx="8.671" ry="8.671" transform="matrix(.987 -.16 .16 .987 -15.103 16.232)"/><ellipse cx="93.128" cy="101.793" fill="#f7be56" rx="7.854" ry="7.854" transform="matrix(.987 -.16 .16 .987 -15.103 16.232)"/><path d="m96.8318405 102.3224869c-.166481-.2200928-.3781052-.4034882-.6292114-.5502167-.189064-.1128693-.4006805-.2031479-.6348648-.2708817.4260483-.2087936.7420807-.4853058.9537048-.8267212.2087936-.3414078.3131943-.7054062.3131943-1.0947876 0-.4147644-.1185226-.8126221-.3555222-1.1935272-.2370224-.3809128-.5643234-.6630707-.9819183-.8464813-.3160172-.1410828-.7110443-.2257233-1.1850739-.2595825v-1.1286392h-1.1907196v1.1117096h-.6010056v-1.1117096h-1.1878815v1.1117096h-.5050735v-.0028229h-1.3289642v1.0665512h.9367676v6.9242172h-.9367676v1.0665588h.9367676v.0028229h.8972702v1.1145401h1.1878815v-1.1145401h.6010056v1.1145401h1.1907196v-1.1229935c.3950195-.0197525.7420807-.0677338 1.0383453-.1439056.3950348-.0987625.7279816-.2482986.990387-.445816s.4853058-.4796753.6630707-.8436584c.1805878-.3639755.2708817-.7590103.2708817-1.182251-.0000001-.5276337-.1495591-.9847336-.4429933-1.374115zm-5.1973877-3.9897461h1.8086395c.6517868 0 1.1117096.0423279 1.3769455.126976.2680511.0846405.4740219.23983.6179276.4683762s.2172699.493782.2172699.7956924c0 .3160172-.0761871.5784225-.2313766.7900467-.1551819.2088089-.383728.3611679-.6884689.4514618-.231369.0705414-.6122818.1044006-1.142746.1044006h-1.9581909v-2.7369537zm4.2182846 6.1256943c-.1185074.2200775-.2708664.389389-.4570999.502243-.1862183.1156921-.414772.1975098-.6912766.2482986-.1580124.0282288-.428894.0423279-.8154526.0423279h-2.2544556v-3.1122284h2.0936279c.5755997 0 1.0185928.0507889 1.326149.1495514.1833954.0620651.3414078.1495361.4796753.2624054.0902786.0761871.1692963.1636581.23983.2652359.1721191.2482986.2595825.5417404.2595825.8803329.0000002.2878113-.062065.5417405-.18058.7618333z" fill="#fcd462"/><path d="m96.5214691 100.6746674c.2087936-.3414078.3131943-.7054062.3131943-1.0947876 0-.4147644-.1185226-.8126221-.3555222-1.1935272-.2370224-.3809128-.5643234-.6630707-.9819183-.8464813-.3160172-.1410828-.7110443-.2257233-1.1850739-.2595825v-1.1286392h-1.1907196v1.1117096h-.6010056v-1.1117096h-1.1878815v1.1117096h-.5050735v-.0028229h-1.3289642v1.0665512h.9367676v6.9242172h-.9367676v1.0665588h.9367676v.0028229h.7392578c.4994125-.3272934.9960175-.6856461 1.484169-1.0693817h-1.0242462v-3.1122284h2.0936279c.5755997 0 1.0185928.0507889 1.326149.1495514.1833954.0620651.3414078.1495361.4796753.2624054.2313614-.2567749.454277-.5163574.6687241-.7787628-.189064-.1128693-.4006805-.2031479-.6348648-.2708817.4260483-.2087937.7420807-.4853058.9537048-.8267212zm-1.0976105-.1608353c-.1551819.2088089-.383728.3611679-.6884689.4514618-.231369.0705414-.6122818.1044006-1.142746.1044006h-1.9581909v-2.7369537h1.8086395c.6517868 0 1.1117096.0423279 1.3769455.126976.2680511.0846405.4740219.23983.6179276.4683762s.2172699.493782.2172699.7956924c0 .3160172-.0761871.5784225-.2313767.7900467z" fill="#fff" opacity=".1"/><path d="m81.2251968 26.956831-6.852005 1.9198933v1.0098667.1822567 1.0098667l6.852005 1.9198933c.5967407.1671867 1.1881561-.2812958 1.1881561-.9009361v-2.0288239-.1822567-2.0288239c.0000001-.6196403-.5914153-1.0681248-1.1881561-.9009361z" fill="#f7be56"/><g fill="#d5d6db"><path d="m81.435463 32.9986076-6.8520126-1.9198933v-1.0098667-.1822566-1.0098667l6.8520126-1.9198914c.5967407-.1671906 1.1881561.2812939 1.1881561.9009342v2.0288239.1822567 2.0288239c0 .6196403-.5914154 1.0681228-1.1881561.900936z"/><path d="m51.1043167 32.9986076 6.8520088-1.9198933v-1.0098667-.1822566-1.0098667l-6.8520088-1.9198914c-.5967407-.1671906-1.1881561.2812939-1.1881561.9009342v2.0288239.1822567 2.0288239c0 .6196403.5914154 1.0681228 1.1881561.900936z"/><path d="m64.353661 29.68717h3.83246v13.767441h-3.83246z"/><path d="m72.0381622 40.7517509h-11.5364303c-.7571487 0-1.3708649.6137123-1.3708649 1.3707619v12.3191643h14.2779541v-12.3191643c0-.7570495-.6137161-1.3707619-1.3706589-1.3707619z"/></g><path d="m62.712139 40.75174h7.115499v13.689939h-7.115499z" fill="#ebf0f3"/><path d="m59.130867 49.811901h14.277955v4.629779h-14.277955z" fill="#4d5c7d" opacity=".25"/><g fill="#ebf0f3"><path d="m97.9670486 82.0517044c-.4868546-1.8213577-1.3525848-4.2713699-2.5322037-4.5241394 0 0-1.7642975-12.3496475-16.2852325-16.1495552 0 0-1.9116516.0708122-2.6154633-1.730957-.1991806-.5101051-.3793793-4.8324738-.4605408-7.0760727-.0271225-.7497673-.642746-1.3400764-1.3929596-1.3400764h-17.1826056c-.7796478 0-1.4078255.6394768-1.3938637 1.4190483l.1102867 6.1495781s.7381668 7.1812134-4.0116425 4.3313065l-.6094971-2.3436661c-.0763359-.2935486-.3365898-.502018-.6397285-.5124664l-2.7457466-.0946693c-.3758621-.0129547-.6919594.279438-.7083321.655201l-.1061707 2.4427299-11.8068236-.1357004v13.842453h11.2639236v3.1145477c0 .3785248.3068581.6853561.6853294.6853561h2.4933281c.2224846 0 .4312096-.1080475.5596771-.2897797l2.0972786-2.9672775s7.3283119 5.9712677 23.7493477 1.3571091c0 0 4.0656433-1.2865448 4.5066147 1.8639832.1087189.7767334-.9010696 1.3188705.0835876 4.6619568.3215256 1.091774 1.4874802 1.8067169 2.6035156 1.5839005 3.2354126-.6459045 9.6461716-1.9256897 12.8598862-2.5672531 1.0870057-.2170105 1.7643052-1.3046952 1.478035-2.375557z"/><path d="m75.7552032 27.2014885h-18.9705123c-.4060974 0-.7352524.3291817-.7352524.7352028v4.0820541c0 .4060478.329155.7352028.7352524.7352028h18.9705124c.4059906 0 .7351456-.329155.7351456-.7352028v-4.0820541c-.0000001-.4060211-.3291551-.7352028-.7351457-.7352028z"/></g></svg>