<svg id="Layer_3" height="512" viewBox="0 0 64 64" width="512" xmlns="http://www.w3.org/2000/svg" data-name="Layer 3"><path d="m2 2h60v60h-60z" fill="#ffe7de"/><path d="m32 32h30v30h-30z" fill="#bf9377"/><path d="m44.172 44.172h5.657v5.657h-5.657z" fill="#4ca8af" transform="matrix(.707 -.707 .707 .707 -19.468 47)"/><g fill="#1f5468"><path d="m35.999 35.999 1.001 5.001 5 1-1-5z"/><path d="m58 35.999-1.001 5.001-5 1 1-5z"/><path d="m35.999 58.001 1.001-5.001 5-1-1 5z"/><path d="m58 58.001-1.001-5.001-5-1 1 5z"/></g><path d="m35.999 35.999 5.001 1.001 1 5z" fill="#347989"/><path d="m58 35.999-6.001 6.001 5-1z" fill="#347989"/><path d="m51.999 52 6.001 6.001-5.001-1.001z" fill="#347989"/><path d="m35.999 58.001 6.001-6.001-5 1z" fill="#347989"/><path d="m47 43v8l4-4z" fill="#91e2e0"/><path d="m14.172 44.172h5.657v5.657h-5.657z" fill="#4ca8af" transform="matrix(.707 -.707 .707 .707 -28.255 25.787)"/><path d="m5.999 35.999 1.001 5.001 5 1-1-5z" fill="#1f5468"/><path d="m28 35.999-1.001 5.001-5 1 1-5z" fill="#1f5468"/><path d="m5.999 58.001 1.001-5.001 5-1-1 5z" fill="#1f5468"/><path d="m28 58.001-1.001-5.001-5-1 1 5z" fill="#1f5468"/><path d="m5.999 35.999 5.001 1.001 1 5z" fill="#347989"/><path d="m28 35.999-6.001 6.001 5-1z" fill="#347989"/><path d="m21.999 52 6.001 6.001-5.001-1.001z" fill="#347989"/><path d="m5.999 58.001 6.001-6.001-5 1z" fill="#347989"/><path d="m17 43v8l4-4z" fill="#91e2e0"/><path d="m44.172 14.172h5.657v5.657h-5.657z" fill="#4ca8af" transform="matrix(.707 -.707 .707 .707 1.745 38.213)"/><path d="m35.999 6 1.001 5.001 5 1-1-5z" fill="#1f5468"/><path d="m58 6-1.001 5.001-5 1 1-5z" fill="#1f5468"/><path d="m35.999 28.001 1.001-5 5-1-1 5z" fill="#1f5468"/><path d="m58 28.001-1.001-5-5-1 1 5z" fill="#1f5468"/><path d="m35.999 6 5.001 1.001 1 5z" fill="#347989"/><path d="m58 6-6.001 6.001 5-1z" fill="#347989"/><path d="m51.999 22.001 6.001 6-5.001-1z" fill="#347989"/><path d="m35.999 28.001 6.001-6-5 1z" fill="#347989"/><path d="m47 13.001v8l4-4z" fill="#91e2e0"/><path d="m2 2h30v30h-30z" fill="#bf9377"/><path d="m14.172 14.172h5.657v5.657h-5.657z" fill="#4ca8af" transform="matrix(.707 -.707 .707 .707 -7.042 17)"/><path d="m5.999 5.999 1.001 5.001 5 1-1-5z" fill="#1f5468"/><path d="m28 5.999-1.001 5.001-5 1 1-5z" fill="#1f5468"/><path d="m5.999 28.001 1.001-5.001 5-1-1 5z" fill="#1f5468"/><path d="m28 28.001-1.001-5.001-5-1 1 5z" fill="#1f5468"/><path d="m5.999 5.999 5.001 1.001 1 5z" fill="#347989"/><path d="m28 5.999-6.001 6.001 5-1z" fill="#347989"/><path d="m21.999 22 6.001 6.001-5.001-1.001z" fill="#347989"/><path d="m5.999 28.001 6.001-6.001-5 1z" fill="#347989"/><path d="m17 13v8l4-4z" fill="#91e2e0"/></svg>