<svg id="Layer_1" viewBox="0 0 512 512" xmlns="http://www.w3.org/2000/svg" data-name="Layer 1"><g fill-rule="evenodd"><path d="m126.841 120.639a222.271 222.271 0 0 0 -28.181 13.761 267.422 267.422 0 0 0 -37.227 26.135 17.757 17.757 0 1 1 -22.733-27.28 297.952 297.952 0 0 1 50.526-34.272 245.109 245.109 0 0 1 50.466-20.153q1.134-2.356 2.354-4.682c11.028-21.036 27.164-40.193 47.3-56.682a6.4 6.4 0 0 1 10.149 6.8 314.538 314.538 0 0 0 -8.2 46.506q7.7-.319 15.4-.171a264.507 264.507 0 0 1 50.644 6.066 236.766 236.766 0 0 1 22.3-16.026 264.988 264.988 0 0 1 27.621-15.3c6-3.141 12.185 4.162 7.973 9.555a156.29 156.29 0 0 0 -12.721 18.964 141.854 141.854 0 0 0 -6.86 13.733q4.884 1.724 9.714 3.59a227.833 227.833 0 0 1 51.417-13.72c18.682-16.128 40.657-27.363 66.225-23.756 19.131 2.7 37.8 13.508 57.979 30.847a6.38 6.38 0 0 1 .013 9.669c-17.254 14.855-38.647 28.014-62.068 28.6-25.61.639-46.013-13.833-62.012-32.5a219.5 219.5 0 0 0 -34.147 8.09 487.236 487.236 0 0 1 72.567 40.513 17.744 17.744 0 1 1 -19.757 29.48c-5.273-3.491-10.548-6.918-15.929-10.243 5.362 7.206 10.249 14.532 14.583 21.749 25.107 12.486 46.608 30.428 54.079 58.848 5.56 21.153 2.43 45.44-6.869 74.216-1.139 3.547-5.537 5.6-8.908 3.767q-43.372-21.637-57.164-52.345c-11.905-26.5-5.591-54.571 7.048-79.389a245.41 245.41 0 0 0 -35.362-45.241 358.726 358.726 0 0 0 -40.94-17.88 121.978 121.978 0 0 0 -1.017 15.959c-.169 17.519-1.375 36.779 6.05 53.008a128.922 128.922 0 0 1 25.191 23.829 92 92 0 0 1 18.808 41.116c.847 4.673.279 9.138.407 13.8a15.107 15.107 0 0 1 8.455 26.392c9.916 22.583 27.141 51.712 43.88 80.019 23.889 40.4 46.809 79.157 47.545 98.107a20.87 20.87 0 0 1 -3.329 12.738 19.875 19.875 0 0 1 -10.656 7.761 33.212 33.212 0 0 1 -12.855 1.243 53.087 53.087 0 0 1 -13.9-3.189c-30.048-11.134-55.695-60.558-79.9-107.208-10.381-20-20.489-39.485-30.358-54.826a15.1 15.1 0 0 1 -18-23.417c-9.087-9.481-19.629-17.473-30.731-24.857-11.4 6.713-24.929 12.987-34.894 21.315a14.153 14.153 0 0 1 2.284 10.187 16.184 16.184 0 0 1 -6 10.362 14.053 14.053 0 0 1 -13.9 2.228c-9.658 15.121-21.072 35.822-32.765 57.029-17.528 31.792-35.678 64.712-50.452 83.242-6.884 8.613-16.684 18.354-27.969 23.916-9.072 4.47-19.051 6.287-29.3 2.971-15.61-5.053-15.96-18.687-11.357-32.908 3.146-9.717 8.615-19.443 12.245-25.9 6.011-10.689 11.849-21.5 17.821-32.218 18.748-33.65 46.666-83.757 59.713-112.239a14.006 14.006 0 0 1 -4.211-12.431 16.19 16.19 0 0 1 6-10.361 14.849 14.849 0 0 1 5.61-2.769c-.267-7.833.273-13.7 4.819-20.366a45.437 45.437 0 0 1 7.983-8.64 124.47 124.47 0 0 1 14.253-10.481c-17.952-19.76-30.1-45.877-30.1-85.569a135.506 135.506 0 0 1 1.35-19.1zm101.437-16.886q-10.437-1.208-20.658-1.415c-4.732-.095-9.48-.036-14.207.21 2.24 15.191 7.25 26.456 13.95 35.127a157.831 157.831 0 0 1 9.348-17.454 172.9 172.9 0 0 1 11.567-16.468z"/><path d="m139.873 135.991c0 68.014 40.5 92.651 81.47 117.579 20.416 12.421 40.945 24.911 57.435 42.7l45.914-26.481c-.625-5.094.4-10.768-.459-15.486a79.425 79.425 0 0 0 -16.261-35.481c-8.14-10.308-18.616-19.06-30.266-26.635-7.638-4.968-17.263-8.75-27.25-12.674-40.874-16.061-87.326-34.337-66.011-142.727a163.371 163.371 0 0 0 -29.515 39.506 128.151 128.151 0 0 0 -15.057 59.7zm91.049 56.468a21.2 21.2 0 1 1 -14.986 6.208 21.132 21.132 0 0 1 14.986-6.208z" fill="#a6a6a6"/><path d="m134.985 90.257a236.037 236.037 0 0 0 -38.164 16.26 285.083 285.083 0 0 0 -48.382 32.774 5.035 5.035 0 0 0 6.446 7.737 280.4 280.4 0 0 1 39.043-27.4 232.614 232.614 0 0 1 37.45-17.494q1.539-6.008 3.607-11.877z" fill="#c07152"/><path d="m274.748 76.792q5.177 1.417 10.386 3.035a152.86 152.86 0 0 1 7.282-14.892q-9.1 5.523-17.668 11.857z" fill="#a6a6a6"/><path d="m275.444 113.991a266.19 266.19 0 0 0 -32.42-8.049 162.4 162.4 0 0 0 -15.484 20.966 141.984 141.984 0 0 0 -10.59 20.707c11.3 9.467 25.044 14.87 38.147 20.019 7.272 2.857 14.362 5.643 20.939 8.964-2.867-13.878-2.1-28.375-2.1-42.5a137.842 137.842 0 0 1 1.508-20.107z" fill="#a6a6a6"/><path d="m192.245 89.849q7.809-.386 15.624-.236c29.36.591 58.044 6.942 85.58 17.033q43.916 16.093 90.828 47.432a5.027 5.027 0 0 0 3.772.739 5.011 5.011 0 0 0 1.813-9.059c-29.119-19.546-60.941-36.875-93.953-48.861-28.215-10.244-57.749-16.711-87.849-17.317-5.3-.106-10.6-.038-15.894.234q-.123 5.244.079 10.035z" fill="#c07152"/></g><circle cx="230.922" cy="213.653" fill="#7a7a7b" r="8.419"/><path d="m152.525 291.729a5.462 5.462 0 0 1 -5.475 9.453l-13.426-7.759c-13.539 29.184-40.947 78.376-59.463 111.61-5.978 10.728-11.808 21.567-17.82 32.267-3.406 6.056-8.538 15.182-11.248 23.553-2.5 7.724-2.969 14.917 3.124 16.889 6.672 2.159 13.449.839 19.764-2.273 9.309-4.587 17.66-12.959 23.611-20.423 14.1-17.688 31.985-50.122 49.254-81.444 11.545-20.94 22.819-41.386 32.788-57.056l-9.877-5.708a5.462 5.462 0 1 1 5.475-9.453l18.336 10.6a3.787 3.787 0 0 0 4.408-.1 5.336 5.336 0 0 0 1.9-3.3 3.765 3.765 0 0 0 -2.109-3.843l-56.1-32.424a3.787 3.787 0 0 0 -4.408.1 5.322 5.322 0 0 0 -1.9 3.3 3.766 3.766 0 0 0 2.109 3.843z" fill="#7a7a7b" fill-rule="evenodd"/><path d="m142.949 263.907 49 28.319c8.287-7.755 22.956-15.7 33.321-21.309q-5.261-3.262-10.563-6.467c-16.991-10.338-33.9-20.63-48.273-33.683a127.466 127.466 0 0 0 -15.148 10.9 33.1 33.1 0 0 0 -5.786 6.2c-2.868 4.2-2.794 7.714-2.63 12.606.035 1.056.072 2.16.079 3.434z" fill="#a6a6a6" fill-rule="evenodd"/><path d="m297.116 320.554c10.052 15.713 20.195 35.259 30.608 55.326 23.1 44.505 47.564 91.656 72.968 101.07 5.258 1.948 12.991 3.567 18.476 1.792 3.911-1.266 5.308-3.924 5.152-7.923-.607-15.649-22.735-53.069-45.8-92.069-16.509-27.917-33.486-56.627-43.868-79.846z" fill="#7a7a7b" fill-rule="evenodd"/><path d="m278.445 317.289a4.181 4.181 0 0 0 3.18-.387l56.14-32.379a4.2 4.2 0 0 0 -4.182-7.277l-56.141 32.379a4.169 4.169 0 0 0 -1.923 2.546 4.109 4.109 0 0 0 2.926 5.118z" fill="#7a7a7b" fill-rule="evenodd"/><path d="m368.611 255.46q10.854 24.167 44.553 42.62c6.816-23.308 8.857-42.995 4.433-59.825-4.056-15.431-13.726-28.777-30.372-40.724 8.252 17.866 12.26 33.752 10.719 43.627a6.362 6.362 0 1 1 -12.575-1.946c1.381-8.855-3.783-25.417-13.658-44.363-8.359 19.402-12.045 40.697-3.1 60.611z" fill="#80b524" fill-rule="evenodd"/><path d="m420.24 106.351q22.554-.562 48.209-20.736c-16.087-12.931-30.911-20.957-45.582-23.027-12.848-1.813-25.906.969-40.011 9.063 15.991-.265 29.1 1.928 36.227 6.315a6.364 6.364 0 0 1 -6.683 10.834c-6.337-3.9-20.559-5.335-38.24-4.013q21.902 22.165 46.08 21.564z" fill="#9ed342" fill-rule="evenodd"/></svg>