<svg enable-background="new 0 0 512 512" height="512" viewBox="0 0 512 512" width="512" xmlns="http://www.w3.org/2000/svg" xmlns:xlink="http://www.w3.org/1999/xlink"><linearGradient id="lg1"><stop offset="0" stop-color="#fd4755"/><stop offset="1" stop-color="#9257ff"/></linearGradient><linearGradient id="SVGID_1_" gradientUnits="userSpaceOnUse" x1="75.332" x2="436.668" xlink:href="#lg1" y1="74.924" y2="436.26"/><linearGradient id="SVGID_2_" gradientUnits="userSpaceOnUse" x1="75.178" x2="436.823" xlink:href="#lg1" y1="74.904" y2="436.549"/><g id="Backup" display="none"><g style="display:inline;stroke:#000;stroke-width:8;stroke-linecap:round;stroke-linejoin:round;stroke-miterlimit:10"><path d="m355.044 262.767c34.45-40.602 84.76-65.209 84.76-65.209-63.229 4.307-101.985 38.142-124.747 61.519 7.382-50.445 53.521-92.893 86.125-105.812-63.363-5.536-93.507 47.369-98.429 61.519-9.228-60.903-10-78.364 13.534-95.968-30.759 0-43.678 44.293-43.678 79.357-6.766-55.366-16.609-101.707-16.609-101.707s-9.843 46.341-16.61 101.707c0-35.064-12.919-79.357-43.678-79.357 23.534 17.604 22.762 35.064 13.534 95.968-4.921-14.149-35.065-67.055-98.429-61.519 32.604 12.919 78.743 55.366 86.125 105.812-22.762-23.377-61.518-57.212-124.747-61.519 0 0 50.31 24.607 84.76 65.209-84.279-12.918-137.8 47.984-138.286 78.116 19.25-33.669 55.508-56.361 97.069-56.361 61.711 0 111.738 50.029 111.738 111.739 0 41.561-22.691 77.819-56.36 97.068 26.526 9.488 55.098 14.671 84.884 14.671s58.358-5.183 84.882-14.671c-33.668-19.249-56.36-55.508-56.36-97.068 0-61.71 50.027-111.739 111.738-111.739 41.561 0 77.819 22.692 97.069 56.361-.485-30.132-54.006-91.034-138.285-78.116z" fill="#935b50"/><g fill="#42994b"><path d="m256 4c-14.81 9.232-24.78 26.473-24.78 46.232s9.97 36.999 24.78 46.234c14.81-9.234 24.78-26.474 24.78-46.233s-9.97-37.001-24.78-46.233z"/><path d="m355.478 24.464c-17.251 2.637-33.218 14.542-41.019 32.696-7.8 18.156-5.444 37.931 4.518 52.262 17.251-2.639 33.218-14.541 41.019-32.697 7.799-18.155 5.443-37.931-4.518-52.261z"/><path d="m438.798 82.536c-16.891-4.388-36.261.248-50.594 13.848-14.334 13.603-19.976 32.702-16.479 49.801 16.892 4.387 36.261-.246 50.594-13.85 14.332-13.6 19.974-32.701 16.479-49.799z"/><path d="m492.428 168.783c-13.788-10.7-33.415-14.087-51.952-7.249-18.54 6.839-31.262 22.16-34.8 39.251 13.788 10.698 33.413 14.087 51.952 7.246 18.538-6.836 31.262-22.159 34.8-39.248z"/><path d="m507.656 269.195c-8.444-15.274-25.141-26.133-44.872-27.168-19.733-1.035-37.471 8.021-47.468 22.325 8.445 15.273 25.139 26.134 44.873 27.167 19.731 1.036 37.471-8.019 47.467-22.324z"/><path d="m469.686 398.027c10.362-14.044 13.271-33.747 5.985-52.114s-22.913-30.714-40.084-33.836c-10.361 14.044-13.271 33.745-5.983 52.112 7.285 18.366 22.911 30.715 40.082 33.838z"/><path d="m156.522 24.464c17.251 2.637 33.218 14.542 41.019 32.696 7.8 18.156 5.444 37.931-4.518 52.262-17.251-2.639-33.218-14.541-41.019-32.697-7.799-18.155-5.443-37.931 4.518-52.261z"/><path d="m73.202 82.536c16.891-4.388 36.261.248 50.594 13.848 14.334 13.603 19.976 32.702 16.479 49.801-16.892 4.387-36.261-.246-50.594-13.85-14.332-13.6-19.974-32.701-16.479-49.799z"/><path d="m19.572 168.783c13.788-10.7 33.415-14.087 51.952-7.249 18.54 6.839 31.262 22.16 34.8 39.251-13.788 10.698-33.413 14.087-51.952 7.246-18.538-6.836-31.262-22.159-34.8-39.248z"/><path d="m4.344 269.195c8.444-15.274 25.141-26.133 44.872-27.168 19.733-1.035 37.471 8.021 47.468 22.325-8.445 15.273-25.139 26.134-44.873 27.167-19.731 1.036-37.471-8.019-47.467-22.324z"/><path d="m42.314 398.027c-10.362-14.044-13.271-33.747-5.985-52.114s22.913-30.714 40.084-33.836c10.361 14.044 13.271 33.745 5.983 52.112-7.285 18.366-22.911 30.715-40.082 33.838z"/></g></g></g><g id="Main" display="none"><g style="display:inline;stroke:#000;stroke-width:8;stroke-linecap:round;stroke-linejoin:round;stroke-miterlimit:10"><path d="m355.044 262.767c34.45-40.602 84.76-65.209 84.76-65.209-63.229 4.307-101.985 38.142-124.747 61.519 7.382-50.445 53.521-92.893 86.125-105.812-63.363-5.536-93.507 47.369-98.429 61.519-9.228-60.903-10-78.364 13.534-95.968-30.759 0-43.678 44.293-43.678 79.357-6.766-55.366-16.609-101.707-16.609-101.707s-9.843 46.341-16.61 101.707c0-35.064-12.919-79.357-43.678-79.357 23.534 17.604 22.762 35.064 13.534 95.968-4.921-14.149-35.065-67.055-98.429-61.519 32.604 12.919 78.743 55.366 86.125 105.812-22.762-23.377-61.518-57.212-124.747-61.519 0 0 50.31 24.607 84.76 65.209-84.279-12.918-137.8 47.984-138.286 78.116 19.25-33.669 55.508-56.361 97.069-56.361 61.711 0 111.738 50.029 111.738 111.739 0 41.561-22.691 77.819-56.36 97.068 26.526 9.488 55.098 14.671 84.884 14.671s58.358-5.183 84.882-14.671c-33.668-19.249-56.36-55.508-56.36-97.068 0-61.71 50.027-111.739 111.738-111.739 41.561 0 77.819 22.692 97.069 56.361-.485-30.132-54.006-91.034-138.285-78.116z" fill="#935b50"/><g fill="#42994b"><path d="m256 4c-14.81 9.232-24.78 26.473-24.78 46.232s9.97 36.999 24.78 46.234c14.81-9.234 24.78-26.474 24.78-46.233s-9.97-37.001-24.78-46.233z"/><path d="m355.478 24.464c-17.251 2.637-33.218 14.542-41.019 32.696-7.8 18.156-5.444 37.931 4.518 52.262 17.251-2.639 33.218-14.541 41.019-32.697 7.799-18.155 5.443-37.931-4.518-52.261z"/><path d="m438.798 82.536c-16.891-4.388-36.261.248-50.594 13.848-14.334 13.603-19.976 32.702-16.479 49.801 16.892 4.387 36.261-.246 50.594-13.85 14.332-13.6 19.974-32.701 16.479-49.799z"/><path d="m492.428 168.783c-13.788-10.7-33.415-14.087-51.952-7.249-18.54 6.839-31.262 22.16-34.8 39.251 13.788 10.698 33.413 14.087 51.952 7.246 18.538-6.836 31.262-22.159 34.8-39.248z"/><path d="m507.656 269.195c-8.444-15.274-25.141-26.133-44.872-27.168-19.733-1.035-37.471 8.021-47.468 22.325 8.445 15.273 25.139 26.134 44.873 27.167 19.731 1.036 37.471-8.019 47.467-22.324z"/><path d="m469.686 398.027c10.362-14.044 13.271-33.747 5.985-52.114s-22.913-30.714-40.084-33.836c-10.361 14.044-13.271 33.745-5.983 52.112 7.285 18.366 22.911 30.715 40.082 33.838z"/><path d="m156.522 24.464c17.251 2.637 33.218 14.542 41.019 32.696 7.8 18.156 5.444 37.931-4.518 52.262-17.251-2.639-33.218-14.541-41.019-32.697-7.799-18.155-5.443-37.931 4.518-52.261z"/><path d="m73.202 82.536c16.891-4.388 36.261.248 50.594 13.848 14.334 13.603 19.976 32.702 16.479 49.801-16.892 4.387-36.261-.246-50.594-13.85-14.332-13.6-19.974-32.701-16.479-49.799z"/><path d="m19.572 168.783c13.788-10.7 33.415-14.087 51.952-7.249 18.54 6.839 31.262 22.16 34.8 39.251-13.788 10.698-33.413 14.087-51.952 7.246-18.538-6.836-31.262-22.159-34.8-39.248z"/><path d="m4.344 269.195c8.444-15.274 25.141-26.133 44.872-27.168 19.733-1.035 37.471 8.021 47.468 22.325-8.445 15.273-25.139 26.134-44.873 27.167-19.731 1.036-37.471-8.019-47.467-22.324z"/><path d="m42.314 398.027c-10.362-14.044-13.271-33.747-5.985-52.114s22.913-30.714 40.084-33.836c10.361 14.044 13.271 33.745 5.983 52.112-7.285 18.366-22.911 30.715-40.082 33.838z"/></g></g></g><g id="Light_Green" display="none"><g display="inline" fill="#0e2a47"><path d="m463.247 290.512c-1.083 0-2.182-.028-3.267-.086-1.878-.099-3.739-.284-5.579-.552 11.238 8.311 20.042 17.787 25.997 26.936-21.624-22.834-52.007-36.288-84.136-36.288-63.818 0-115.738 51.921-115.738 115.739 0 38.55 19.367 74.586 51.067 95.993-24.374 7.798-49.762 11.746-75.591 11.746s-51.217-3.948-75.589-11.746c31.7-21.407 51.067-57.443 51.067-95.993 0-63.818-51.92-115.739-115.738-115.739-11.447 0-22.669 1.717-33.356 4.947-6.389 4.271-13.681 7.33-21.437 8.906-10.861 5.845-20.79 13.402-29.343 22.435 4.635-7.121 11.002-14.44 18.893-21.256-.582.017-1.165.046-1.743.046-3.176 0-6.305-.268-9.375-.742-15.781 15.673-24.502 33.142-24.708 45.96-.029 1.825 1.181 3.438 2.941 3.922s3.625-.287 4.531-1.872c19.166-33.522 55.029-54.347 93.596-54.347 59.407 0 107.738 48.332 107.738 107.739 0 38.567-20.824 74.431-54.345 93.596-1.355.775-2.136 2.269-1.999 3.824.137 1.556 1.167 2.889 2.637 3.415 27.648 9.89 56.66 14.905 86.23 14.905s58.582-5.015 86.229-14.904c1.471-.526 2.5-1.859 2.637-3.415s-.644-3.049-1.999-3.824c-33.521-19.165-54.345-55.028-54.345-93.596 0-59.407 48.331-107.739 107.738-107.739 38.567 0 74.431 20.824 93.596 54.347.906 1.585 2.769 2.357 4.531 1.872 1.761-.483 2.971-2.097 2.941-3.922-.227-14.07-10.712-33.742-29.534-50.494-1.505.111-3.019.187-4.547.187-.001 0 .001 0 0 0z"/><path d="m108.776 203.945c-1.325 1.028-2.705 1.987-4.125 2.887 42.258 11.007 70.638 35.738 89.426 55.034 1.209 1.242 3.082 1.564 4.637.797 1.555-.769 2.438-2.45 2.187-4.166-4.385-29.961-21.224-54.093-34.577-69.062-11.524-12.918-25.252-24.28-38.717-32.265 47.961 3.942 72.78 44.315 77.862 58.927.604 1.737 2.319 2.825 4.146 2.669 1.832-.17 3.311-1.565 3.587-3.384 7.389-48.768 9.892-71.207-3.068-88.242 18.267 11.992 25.257 46.398 25.257 71.032 0 2.114 1.646 3.864 3.757 3.992 2.098.142 3.958-1.407 4.213-3.507 4.014-32.837 9.159-62.71 12.64-81.385 3.48 18.675 8.626 48.548 12.64 81.385.256 2.099 2.1 3.647 4.213 3.507 2.111-.128 3.757-1.878 3.757-3.992 0-24.634 6.99-59.04 25.257-71.032-12.96 17.035-10.457 39.475-3.068 88.242.276 1.818 1.755 3.214 3.587 3.384 1.837.155 3.542-.932 4.146-2.669 5.082-14.611 29.901-54.984 77.862-58.927-13.465 7.984-27.192 19.347-38.717 32.265-13.354 14.969-30.192 39.101-34.577 69.062-.251 1.716.632 3.397 2.187 4.166 1.555.768 3.427.445 4.637-.797 19.738-20.271 50.065-46.539 95.946-56.591-3.499-1.604-6.812-3.559-9.872-5.845-36.724 9.845-63.236 29.556-82.229 47.422 12.576-44.354 54.046-79.233 80.888-89.869 1.724-.684 2.752-2.462 2.484-4.297s-1.762-3.245-3.61-3.406c-.109-.01-.218-.013-.327-.021-5.426 1.659-11.079 2.526-16.813 2.526-.002 0-.001 0-.003 0-3.743 0-7.446-.395-11.053-1.139-35.764 6.929-58.139 32.729-68.538 50.626-7.294-50.811-5.829-64.507 13.887-79.254 1.379-1.032 1.943-2.831 1.399-4.466-.543-1.635-2.073-2.737-3.795-2.737-15.569 0-28.367 9.981-37.011 28.865-2.936 6.413-5.329 13.775-7.1 21.67-4.92-32.956-10.059-58.933-11.714-67.052-.769.539-1.548 1.063-2.347 1.562-.647.403-1.382.605-2.116.605s-1.469-.202-2.116-.605c-.799-.498-1.578-1.022-2.347-1.562-1.655 8.119-6.794 34.096-11.714 67.052-1.771-7.895-4.164-15.257-7.1-21.67-8.644-18.884-21.441-28.865-37.011-28.865-1.723 0-3.252 1.103-3.795 2.737-.544 1.635.02 3.434 1.399 4.466 19.716 14.747 21.182 28.443 13.887 79.254-10.398-17.896-32.774-43.697-68.538-50.627-3.607.745-7.311 1.14-11.053 1.14-5.735 0-11.389-.867-16.816-2.526-.109.009-.218.012-.327.021-1.848.161-3.342 1.571-3.61 3.406s.76 3.613 2.484 4.297c26.842 10.636 68.312 45.515 80.888 89.869-18.604-17.5-44.419-36.774-79.981-46.81.278 1.474-.287 2.982-1.475 3.903z"/><path d="m100.184 266.288c-.715 1.294-1.49 2.55-2.308 3.775 11.1-3.193 23.211-5.069 36.213-5.069 7.296 0 14.785.58 22.261 1.727 1.65.256 3.284-.545 4.098-2.003.814-1.457.638-3.267-.442-4.539-18.833-22.196-42.042-39.542-59.621-50.909-2.928 1.505-6 2.752-9.178 3.729 15.539 9.696 37.203 24.987 55.694 44.544-4.306-.365-8.588-.549-12.812-.549-12.389 0-23.987 1.557-34.715 4.281.192.265.4.518.588.786.875 1.252.961 2.891.222 4.227z"/><path d="m416.275 206.31c-17.97 11.203-43.732 29.65-64.281 53.869-1.08 1.272-1.256 3.082-.442 4.539.814 1.458 2.448 2.26 4.098 2.003 7.476-1.146 14.965-1.727 22.261-1.727 15.109 0 29.021 2.525 41.53 6.721-2.945-3.182-5.516-6.701-7.625-10.515-.025-.046-.042-.095-.065-.141-10.483-2.588-21.786-4.065-33.84-4.065-4.223 0-8.506.184-12.812.549 20.977-22.186 46.036-38.881 61.604-48.146-3.587-.702-7.079-1.739-10.428-3.087z"/></g><g display="inline" fill="#69e781"><path d="m256 100.466c.734 0 1.469-.202 2.116-.605.799-.498 1.578-1.022 2.347-1.562 15.064-10.551 24.317-28.698 24.317-48.066 0-20.357-10.217-39.374-26.664-49.627-1.296-.807-2.937-.807-4.232 0-16.447 10.253-26.664 29.27-26.664 49.627 0 19.368 9.253 37.516 24.317 48.066.769.539 1.548 1.063 2.347 1.562.647.403 1.382.605 2.116.605zm0-91.668c12.877 9.076 20.78 24.714 20.78 41.435 0 16.72-7.903 32.357-20.78 41.435-12.877-9.077-20.78-24.715-20.78-41.435 0-16.721 7.903-32.359 20.78-41.435z"/><path d="m354.873 20.51c-19.158 2.928-36.052 16.367-44.089 35.071-8.035 18.703-6.154 40.209 4.909 56.124.754 1.085 1.987 1.717 3.284 1.717.201 0 .403-.015.605-.046 19.16-2.931 36.054-16.369 44.089-35.072 8.036-18.703 6.155-40.209-4.909-56.123-.871-1.252-2.375-1.903-3.889-1.671zm-34.002 84.503c-8.248-13.424-9.336-30.911-2.736-46.273 6.601-15.363 20.035-26.611 35.449-29.867 8.248 13.424 9.337 30.911 2.736 46.273-6.6 15.362-20.034 26.609-35.449 29.867z"/><path d="m384.39 151.785c5.734 0 11.387-.867 16.813-2.526 8.76-2.679 16.926-7.434 23.869-14.022 14.766-14.011 21.527-34.512 17.645-53.501-.306-1.496-1.436-2.687-2.913-3.07-4.418-1.148-9.017-1.729-13.668-1.729-14.99 0-29.439 5.876-40.686 16.547-14.767 14.013-21.528 34.514-17.645 53.504.306 1.495 1.436 2.687 2.914 3.07.863.225 1.739.408 2.615.59 3.607.744 7.31 1.139 11.053 1.139.002-.002.001-.002.003-.002zm50.927-65.946c2.28 15.59-3.623 32.087-15.752 43.595-9.751 9.255-22.243 14.352-35.175 14.352-.001 0-.002 0-.003 0-3.11 0-6.188-.304-9.182-.903-2.28-15.59 3.623-32.087 15.751-43.597 9.753-9.254 22.247-14.35 35.179-14.35 3.11 0 6.188.302 9.182.903z"/><path d="m413.869 205.275c.793.363 1.595.707 2.406 1.034 3.348 1.349 6.841 2.386 10.428 3.087 3.673.719 7.439 1.096 11.242 1.096h.003c7.15 0 14.238-1.277 21.063-3.796 19.098-7.043 33.403-23.209 37.333-42.19.31-1.494-.259-3.035-1.465-3.971-9.669-7.504-22.001-11.636-34.725-11.636-7.151 0-14.238 1.276-21.064 3.794-19.099 7.045-33.404 23.213-37.333 42.193-.31 1.494.259 3.035 1.465 3.971.253.197.516.381.773.573 3.063 2.287 6.375 4.242 9.874 5.845zm-3.691-11.239c4.06-15.224 15.995-28.051 31.682-33.837 5.937-2.189 12.092-3.3 18.295-3.3 10.071 0 19.833 2.987 27.771 8.457-4.061 15.224-15.996 28.05-31.683 33.834-5.937 2.191-12.092 3.302-18.294 3.302 0 0-.002 0-.003 0-10.071-.001-19.832-2.988-27.768-8.456z"/><path d="m462.994 232.945c-1.085-.058-2.185-.086-3.267-.086-19.309 0-37.137 9.015-47.689 24.114-.845 1.208-.946 2.776-.287 4.086.023.046.04.095.065.141 2.109 3.813 4.68 7.333 7.625 10.515 8.942 9.662 21.357 16.18 34.96 18.159 1.84.268 3.701.453 5.579.552 1.085.058 2.185.086 3.267.086 1.528 0 3.042-.076 4.548-.188 17.531-1.297 33.424-10.021 43.14-23.926.874-1.251.96-2.891.222-4.227-9.377-16.96-27.832-28.159-48.163-29.226zm.253 49.567c-.943 0-1.902-.025-2.849-.074-16.699-.875-31.901-9.585-40.291-22.923 9.199-11.728 23.816-18.655 39.619-18.655.943 0 1.902.025 2.848.074 16.7.877 31.902 9.588 40.291 22.924-9.198 11.726-23.816 18.654-39.618 18.654z"/><path d="m436.302 308.142c-1.5-.269-3.027.333-3.934 1.561-5.583 7.566-18.655 25.286-6.483 55.962 7.506 18.922 24.015 32.83 43.085 36.299.239.043.479.064.716.064 1.255 0 2.456-.593 3.218-1.625 11.507-15.597 13.992-37.04 6.484-55.964-7.505-18.921-24.014-32.83-43.086-36.297zm-2.981 54.572c-8.698-21.92-3.556-35.296 3.997-46.186 15.335 3.679 28.464 15.306 34.634 30.859 6.167 15.544 4.587 32.994-4.036 46.18-15.317-3.69-28.429-15.311-34.595-30.853z"/><path d="m157.127 20.51c-1.51-.231-3.017.418-3.889 1.671-11.063 15.914-12.944 37.42-4.909 56.123s24.929 32.142 44.089 35.072c.203.031.405.046.605.046 1.297 0 2.529-.632 3.284-1.717 11.063-15.915 12.944-37.421 4.909-56.124-8.037-18.704-24.931-32.143-44.089-35.071zm-1.447 54.636c-6.601-15.362-5.512-32.85 2.736-46.273 15.415 3.256 28.848 14.504 35.449 29.867 6.6 15.362 5.512 32.85-2.736 46.273-15.415-3.258-28.849-14.505-35.449-29.867z"/><path d="m138.666 150.646c.876-.181 1.752-.364 2.615-.589 1.478-.384 2.608-1.575 2.914-3.07 3.883-18.99-2.878-39.491-17.646-53.504-11.246-10.671-25.695-16.547-40.685-16.547-4.651 0-9.25.581-13.668 1.729-1.477.384-2.607 1.574-2.913 3.07-3.882 18.989 2.879 39.49 17.645 53.501 6.943 6.59 15.109 11.344 23.869 14.022 5.427 1.659 11.081 2.526 16.816 2.526 3.742.001 7.446-.393 11.053-1.138zm-61.983-64.807c2.994-.601 6.072-.903 9.181-.903 12.932 0 25.426 5.096 35.179 14.35 12.129 11.51 18.032 28.007 15.752 43.597-2.995.601-6.073.903-9.182.903-12.934 0-25.426-5.097-35.178-14.352-12.129-11.508-18.032-28.005-15.752-43.595z"/><path d="m100.385 209.27c1.46-.75 2.885-1.561 4.267-2.438 1.42-.899 2.8-1.858 4.125-2.887 1.188-.921 1.752-2.43 1.474-3.902-.004-.022-.004-.045-.009-.068-3.929-18.98-18.234-35.148-37.333-42.193-6.826-2.518-13.913-3.794-21.064-3.794-12.724 0-25.056 4.132-34.725 11.636-1.206.936-1.774 2.477-1.464 3.971 3.93 18.981 18.235 35.147 37.332 42.19 6.827 2.519 13.915 3.796 21.067 3.796 5.877 0 11.667-.893 17.153-2.581 3.176-.979 6.249-2.226 9.177-3.73zm-48.54-47.283c6.204 0 12.359 1.11 18.295 3.3 15.687 5.786 27.623 18.613 31.682 33.837-7.938 5.469-17.698 8.456-27.768 8.456-6.204 0-12.36-1.11-18.298-3.302-15.686-5.784-27.621-18.61-31.682-33.835 7.937-5.468 17.699-8.456 27.771-8.456z"/><path d="m48.753 295.6c.578 0 1.161-.029 1.743-.046.509-.015 1.018-.013 1.524-.04 3.025-.158 6.008-.547 8.926-1.139 7.756-1.576 15.048-4.635 21.437-8.906 6.131-4.098 11.425-9.313 15.493-15.405.818-1.226 1.593-2.481 2.308-3.775.739-1.336.653-2.976-.222-4.227-.188-.269-.396-.521-.588-.786-10.617-14.617-28.136-23.328-47.101-23.328-1.083 0-2.182.028-3.267.086-20.331 1.066-38.786 12.265-48.163 29.226-.739 1.336-.652 2.976.222 4.227 8.816 12.616 22.718 20.961 38.313 23.371 3.07.474 6.2.742 9.375.742zm3.52-49.653c15.803 0 30.42 6.928 39.619 18.655-8.39 13.338-23.592 22.048-40.291 22.923-.946.049-1.905.074-2.848.074-15.803 0-30.42-6.928-39.619-18.654 8.388-13.336 23.59-22.047 40.291-22.924.947-.048 1.905-.074 2.848-.074z"/><path d="m86.114 365.665c7.508-18.922 5.024-40.365-6.482-55.963-.907-1.228-2.432-1.831-3.934-1.561-19.071 3.468-35.581 17.376-43.087 36.297-7.507 18.924-5.022 40.367 6.484 55.964.762 1.032 1.962 1.625 3.218 1.625.238 0 .477-.021.716-.064 19.071-3.469 35.58-17.377 43.085-36.298zm-42.031 27.902c-8.623-13.186-10.202-30.636-4.036-46.18 6.165-15.54 19.278-27.161 34.596-30.851 8.623 13.187 10.202 30.636 4.035 46.178-6.165 15.542-19.277 27.163-34.595 30.853z"/></g></g><g id="Light_Blue" display="none"><g display="inline" fill="#00f9ff"><path d="m463.247 290.512c-1.083 0-2.182-.028-3.267-.086-1.878-.099-3.739-.284-5.579-.552 11.238 8.311 20.042 17.787 25.997 26.936-21.624-22.834-52.007-36.288-84.136-36.288-63.818 0-115.738 51.921-115.738 115.739 0 38.55 19.367 74.586 51.067 95.993-24.374 7.798-49.762 11.746-75.591 11.746s-51.217-3.948-75.589-11.746c31.7-21.407 51.067-57.443 51.067-95.993 0-63.818-51.92-115.739-115.738-115.739-11.447 0-22.669 1.717-33.356 4.947-6.389 4.271-13.681 7.33-21.437 8.906-10.861 5.845-20.79 13.402-29.343 22.435 4.635-7.121 11.002-14.44 18.893-21.256-.582.017-1.165.046-1.743.046-3.176 0-6.305-.268-9.375-.742-15.781 15.673-24.502 33.142-24.708 45.96-.029 1.825 1.181 3.438 2.941 3.922s3.625-.287 4.531-1.872c19.166-33.522 55.029-54.347 93.596-54.347 59.407 0 107.738 48.332 107.738 107.739 0 38.567-20.824 74.431-54.345 93.596-1.355.775-2.136 2.269-1.999 3.824.137 1.556 1.167 2.889 2.637 3.415 27.648 9.89 56.66 14.905 86.23 14.905s58.582-5.015 86.229-14.904c1.471-.526 2.5-1.859 2.637-3.415s-.644-3.049-1.999-3.824c-33.521-19.165-54.345-55.028-54.345-93.596 0-59.407 48.331-107.739 107.738-107.739 38.567 0 74.431 20.824 93.596 54.347.906 1.585 2.769 2.357 4.531 1.872 1.761-.483 2.971-2.097 2.941-3.922-.227-14.07-10.712-33.742-29.534-50.494-1.505.111-3.019.187-4.547.187-.001 0 .001 0 0 0z"/><path d="m108.776 203.945c-1.325 1.028-2.705 1.987-4.125 2.887 42.258 11.007 70.638 35.738 89.426 55.034 1.209 1.242 3.082 1.564 4.637.797 1.555-.769 2.438-2.45 2.187-4.166-4.385-29.961-21.224-54.093-34.577-69.062-11.524-12.918-25.252-24.28-38.717-32.265 47.961 3.942 72.78 44.315 77.862 58.927.604 1.737 2.319 2.825 4.146 2.669 1.832-.17 3.311-1.565 3.587-3.384 7.389-48.768 9.892-71.207-3.068-88.242 18.267 11.992 25.257 46.398 25.257 71.032 0 2.114 1.646 3.864 3.757 3.992 2.098.142 3.958-1.407 4.213-3.507 4.014-32.837 9.159-62.71 12.64-81.385 3.48 18.675 8.626 48.548 12.64 81.385.256 2.099 2.1 3.647 4.213 3.507 2.111-.128 3.757-1.878 3.757-3.992 0-24.634 6.99-59.04 25.257-71.032-12.96 17.035-10.457 39.475-3.068 88.242.276 1.818 1.755 3.214 3.587 3.384 1.837.155 3.542-.932 4.146-2.669 5.082-14.611 29.901-54.984 77.862-58.927-13.465 7.984-27.192 19.347-38.717 32.265-13.354 14.969-30.192 39.101-34.577 69.062-.251 1.716.632 3.397 2.187 4.166 1.555.768 3.427.445 4.637-.797 19.738-20.271 50.065-46.539 95.946-56.591-3.499-1.604-6.812-3.559-9.872-5.845-36.724 9.845-63.236 29.556-82.229 47.422 12.576-44.354 54.046-79.233 80.888-89.869 1.724-.684 2.752-2.462 2.484-4.297s-1.762-3.245-3.61-3.406c-.109-.01-.218-.013-.327-.021-5.426 1.659-11.079 2.526-16.813 2.526-.002 0-.001 0-.003 0-3.743 0-7.446-.395-11.053-1.139-35.764 6.929-58.139 32.729-68.538 50.626-7.294-50.811-5.829-64.507 13.887-79.254 1.379-1.032 1.943-2.831 1.399-4.466-.543-1.635-2.073-2.737-3.795-2.737-15.569 0-28.367 9.981-37.011 28.865-2.936 6.413-5.329 13.775-7.1 21.67-4.92-32.956-10.059-58.933-11.714-67.052-.769.539-1.548 1.063-2.347 1.562-.647.403-1.382.605-2.116.605s-1.469-.202-2.116-.605c-.799-.498-1.578-1.022-2.347-1.562-1.655 8.119-6.794 34.096-11.714 67.052-1.771-7.895-4.164-15.257-7.1-21.67-8.644-18.884-21.441-28.865-37.011-28.865-1.723 0-3.252 1.103-3.795 2.737-.544 1.635.02 3.434 1.399 4.466 19.716 14.747 21.182 28.443 13.887 79.254-10.398-17.896-32.774-43.697-68.538-50.627-3.607.745-7.311 1.14-11.053 1.14-5.735 0-11.389-.867-16.816-2.526-.109.009-.218.012-.327.021-1.848.161-3.342 1.571-3.61 3.406s.76 3.613 2.484 4.297c26.842 10.636 68.312 45.515 80.888 89.869-18.604-17.5-44.419-36.774-79.981-46.81.278 1.474-.287 2.982-1.475 3.903z"/><path d="m100.184 266.288c-.715 1.294-1.49 2.55-2.308 3.775 11.1-3.193 23.211-5.069 36.213-5.069 7.296 0 14.785.58 22.261 1.727 1.65.256 3.284-.545 4.098-2.003.814-1.457.638-3.267-.442-4.539-18.833-22.196-42.042-39.542-59.621-50.909-2.928 1.505-6 2.752-9.178 3.729 15.539 9.696 37.203 24.987 55.694 44.544-4.306-.365-8.588-.549-12.812-.549-12.389 0-23.987 1.557-34.715 4.281.192.265.4.518.588.786.875 1.252.961 2.891.222 4.227z"/><path d="m416.275 206.31c-17.97 11.203-43.732 29.65-64.281 53.869-1.08 1.272-1.256 3.082-.442 4.539.814 1.458 2.448 2.26 4.098 2.003 7.476-1.146 14.965-1.727 22.261-1.727 15.109 0 29.021 2.525 41.53 6.721-2.945-3.182-5.516-6.701-7.625-10.515-.025-.046-.042-.095-.065-.141-10.483-2.588-21.786-4.065-33.84-4.065-4.223 0-8.506.184-12.812.549 20.977-22.186 46.036-38.881 61.604-48.146-3.587-.702-7.079-1.739-10.428-3.087z"/></g><g display="inline" fill="#09176b"><path d="m256 100.466c.734 0 1.469-.202 2.116-.605.799-.498 1.578-1.022 2.347-1.562 15.064-10.551 24.317-28.698 24.317-48.066 0-20.357-10.217-39.374-26.664-49.627-1.296-.807-2.937-.807-4.232 0-16.447 10.253-26.664 29.27-26.664 49.627 0 19.368 9.253 37.516 24.317 48.066.769.539 1.548 1.063 2.347 1.562.647.403 1.382.605 2.116.605zm0-91.668c12.877 9.076 20.78 24.714 20.78 41.435 0 16.72-7.903 32.357-20.78 41.435-12.877-9.077-20.78-24.715-20.78-41.435 0-16.721 7.903-32.359 20.78-41.435z"/><path d="m354.873 20.51c-19.158 2.928-36.052 16.367-44.089 35.071-8.035 18.703-6.154 40.209 4.909 56.124.754 1.085 1.987 1.717 3.284 1.717.201 0 .403-.015.605-.046 19.16-2.931 36.054-16.369 44.089-35.072 8.036-18.703 6.155-40.209-4.909-56.123-.871-1.252-2.375-1.903-3.889-1.671zm-34.002 84.503c-8.248-13.424-9.336-30.911-2.736-46.273 6.601-15.363 20.035-26.611 35.449-29.867 8.248 13.424 9.337 30.911 2.736 46.273-6.6 15.362-20.034 26.609-35.449 29.867z"/><path d="m384.39 151.785c5.734 0 11.387-.867 16.813-2.526 8.76-2.679 16.926-7.434 23.869-14.022 14.766-14.011 21.527-34.512 17.645-53.501-.306-1.496-1.436-2.687-2.913-3.07-4.418-1.148-9.017-1.729-13.668-1.729-14.99 0-29.439 5.876-40.686 16.547-14.767 14.013-21.528 34.514-17.645 53.504.306 1.495 1.436 2.687 2.914 3.07.863.225 1.739.408 2.615.59 3.607.744 7.31 1.139 11.053 1.139.002-.002.001-.002.003-.002zm50.927-65.946c2.28 15.59-3.623 32.087-15.752 43.595-9.751 9.255-22.243 14.352-35.175 14.352-.001 0-.002 0-.003 0-3.11 0-6.188-.304-9.182-.903-2.28-15.59 3.623-32.087 15.751-43.597 9.753-9.254 22.247-14.35 35.179-14.35 3.11 0 6.188.302 9.182.903z"/><path d="m413.869 205.275c.793.363 1.595.707 2.406 1.034 3.348 1.349 6.841 2.386 10.428 3.087 3.673.719 7.439 1.096 11.242 1.096h.003c7.15 0 14.238-1.277 21.063-3.796 19.098-7.043 33.403-23.209 37.333-42.19.31-1.494-.259-3.035-1.465-3.971-9.669-7.504-22.001-11.636-34.725-11.636-7.151 0-14.238 1.276-21.064 3.794-19.099 7.045-33.404 23.213-37.333 42.193-.31 1.494.259 3.035 1.465 3.971.253.197.516.381.773.573 3.063 2.287 6.375 4.242 9.874 5.845zm-3.691-11.239c4.06-15.224 15.995-28.051 31.682-33.837 5.937-2.189 12.092-3.3 18.295-3.3 10.071 0 19.833 2.987 27.771 8.457-4.061 15.224-15.996 28.05-31.683 33.834-5.937 2.191-12.092 3.302-18.294 3.302 0 0-.002 0-.003 0-10.071-.001-19.832-2.988-27.768-8.456z"/><path d="m462.994 232.945c-1.085-.058-2.185-.086-3.267-.086-19.309 0-37.137 9.015-47.689 24.114-.845 1.208-.946 2.776-.287 4.086.023.046.04.095.065.141 2.109 3.813 4.68 7.333 7.625 10.515 8.942 9.662 21.357 16.18 34.96 18.159 1.84.268 3.701.453 5.579.552 1.085.058 2.185.086 3.267.086 1.528 0 3.042-.076 4.548-.188 17.531-1.297 33.424-10.021 43.14-23.926.874-1.251.96-2.891.222-4.227-9.377-16.96-27.832-28.159-48.163-29.226zm.253 49.567c-.943 0-1.902-.025-2.849-.074-16.699-.875-31.901-9.585-40.291-22.923 9.199-11.728 23.816-18.655 39.619-18.655.943 0 1.902.025 2.848.074 16.7.877 31.902 9.588 40.291 22.924-9.198 11.726-23.816 18.654-39.618 18.654z"/><path d="m436.302 308.142c-1.5-.269-3.027.333-3.934 1.561-5.583 7.566-18.655 25.286-6.483 55.962 7.506 18.922 24.015 32.83 43.085 36.299.239.043.479.064.716.064 1.255 0 2.456-.593 3.218-1.625 11.507-15.597 13.992-37.04 6.484-55.964-7.505-18.921-24.014-32.83-43.086-36.297zm-2.981 54.572c-8.698-21.92-3.556-35.296 3.997-46.186 15.335 3.679 28.464 15.306 34.634 30.859 6.167 15.544 4.587 32.994-4.036 46.18-15.317-3.69-28.429-15.311-34.595-30.853z"/><path d="m157.127 20.51c-1.51-.231-3.017.418-3.889 1.671-11.063 15.914-12.944 37.42-4.909 56.123s24.929 32.142 44.089 35.072c.203.031.405.046.605.046 1.297 0 2.529-.632 3.284-1.717 11.063-15.915 12.944-37.421 4.909-56.124-8.037-18.704-24.931-32.143-44.089-35.071zm-1.447 54.636c-6.601-15.362-5.512-32.85 2.736-46.273 15.415 3.256 28.848 14.504 35.449 29.867 6.6 15.362 5.512 32.85-2.736 46.273-15.415-3.258-28.849-14.505-35.449-29.867z"/><path d="m138.666 150.646c.876-.181 1.752-.364 2.615-.589 1.478-.384 2.608-1.575 2.914-3.07 3.883-18.99-2.878-39.491-17.646-53.504-11.246-10.671-25.695-16.547-40.685-16.547-4.651 0-9.25.581-13.668 1.729-1.477.384-2.607 1.574-2.913 3.07-3.882 18.989 2.879 39.49 17.645 53.501 6.943 6.59 15.109 11.344 23.869 14.022 5.427 1.659 11.081 2.526 16.816 2.526 3.742.001 7.446-.393 11.053-1.138zm-61.983-64.807c2.994-.601 6.072-.903 9.181-.903 12.932 0 25.426 5.096 35.179 14.35 12.129 11.51 18.032 28.007 15.752 43.597-2.995.601-6.073.903-9.182.903-12.934 0-25.426-5.097-35.178-14.352-12.129-11.508-18.032-28.005-15.752-43.595z"/><path d="m100.385 209.27c1.46-.75 2.885-1.561 4.267-2.438 1.42-.899 2.8-1.858 4.125-2.887 1.188-.921 1.752-2.43 1.474-3.902-.004-.022-.004-.045-.009-.068-3.929-18.98-18.234-35.148-37.333-42.193-6.826-2.518-13.913-3.794-21.064-3.794-12.724 0-25.056 4.132-34.725 11.636-1.206.936-1.774 2.477-1.464 3.971 3.93 18.981 18.235 35.147 37.332 42.19 6.827 2.519 13.915 3.796 21.067 3.796 5.877 0 11.667-.893 17.153-2.581 3.176-.979 6.249-2.226 9.177-3.73zm-48.54-47.283c6.204 0 12.359 1.11 18.295 3.3 15.687 5.786 27.623 18.613 31.682 33.837-7.938 5.469-17.698 8.456-27.768 8.456-6.204 0-12.36-1.11-18.298-3.302-15.686-5.784-27.621-18.61-31.682-33.835 7.937-5.468 17.699-8.456 27.771-8.456z"/><path d="m48.753 295.6c.578 0 1.161-.029 1.743-.046.509-.015 1.018-.013 1.524-.04 3.025-.158 6.008-.547 8.926-1.139 7.756-1.576 15.048-4.635 21.437-8.906 6.131-4.098 11.425-9.313 15.493-15.405.818-1.226 1.593-2.481 2.308-3.775.739-1.336.653-2.976-.222-4.227-.188-.269-.396-.521-.588-.786-10.617-14.617-28.136-23.328-47.101-23.328-1.083 0-2.182.028-3.267.086-20.331 1.066-38.786 12.265-48.163 29.226-.739 1.336-.652 2.976.222 4.227 8.816 12.616 22.718 20.961 38.313 23.371 3.07.474 6.2.742 9.375.742zm3.52-49.653c15.803 0 30.42 6.928 39.619 18.655-8.39 13.338-23.592 22.048-40.291 22.923-.946.049-1.905.074-2.848.074-15.803 0-30.42-6.928-39.619-18.654 8.388-13.336 23.59-22.047 40.291-22.924.947-.048 1.905-.074 2.848-.074z"/><path d="m86.114 365.665c7.508-18.922 5.024-40.365-6.482-55.963-.907-1.228-2.432-1.831-3.934-1.561-19.071 3.468-35.581 17.376-43.087 36.297-7.507 18.924-5.022 40.367 6.484 55.964.762 1.032 1.962 1.625 3.218 1.625.238 0 .477-.021.716-.064 19.071-3.469 35.58-17.377 43.085-36.298zm-42.031 27.902c-8.623-13.186-10.202-30.636-4.036-46.18 6.165-15.54 19.278-27.161 34.596-30.851 8.623 13.187 10.202 30.636 4.035 46.178-6.165 15.542-19.277 27.163-34.595 30.853z"/></g></g><g id="Shadow" display="none"><g display="inline"><path d="m355.044 262.767c34.45-40.602 84.76-65.209 84.76-65.209-63.229 4.307-101.985 38.142-124.747 61.519 7.382-50.445 53.521-92.893 86.125-105.812-63.363-5.536-93.507 47.369-98.429 61.519-9.228-60.903-10-78.364 13.534-95.968-30.759 0-43.678 44.293-43.678 79.357-6.766-55.366-16.609-101.707-16.609-101.707s-9.843 46.341-16.61 101.707c0-35.064-12.919-79.357-43.678-79.357 23.534 17.604 22.762 35.064 13.534 95.968-4.921-14.149-35.065-67.055-98.429-61.519 32.604 12.919 78.743 55.366 86.125 105.812-22.762-23.377-61.518-57.212-124.747-61.519 0 0 50.31 24.607 84.76 65.209-84.279-12.918-137.8 47.984-138.286 78.116 19.25-33.669 55.508-56.361 97.069-56.361 61.711 0 111.738 50.029 111.738 111.739 0 41.561-22.691 77.819-56.36 97.068 26.526 9.488 55.098 14.671 84.884 14.671s58.358-5.183 84.882-14.671c-33.668-19.249-56.36-55.508-56.36-97.068 0-61.71 50.027-111.739 111.738-111.739 41.561 0 77.819 22.692 97.069 56.361-.485-30.132-54.006-91.034-138.285-78.116z" fill="#935b50"/><g fill="#42994b"><path d="m256 4c-14.81 9.232-24.78 26.473-24.78 46.232s9.97 36.999 24.78 46.234c14.81-9.234 24.78-26.474 24.78-46.233s-9.97-37.001-24.78-46.233z"/><path d="m355.478 24.464c-17.251 2.637-33.218 14.542-41.019 32.696-7.8 18.156-5.444 37.931 4.518 52.262 17.251-2.639 33.218-14.541 41.019-32.697 7.799-18.155 5.443-37.931-4.518-52.261z"/><path d="m438.798 82.536c-16.891-4.388-36.261.248-50.594 13.848-14.334 13.603-19.976 32.702-16.479 49.801 16.892 4.387 36.261-.246 50.594-13.85 14.332-13.6 19.974-32.701 16.479-49.799z"/><path d="m492.428 168.783c-13.788-10.7-33.415-14.087-51.952-7.249-18.54 6.839-31.262 22.16-34.8 39.251 13.788 10.698 33.413 14.087 51.952 7.246 18.538-6.836 31.262-22.159 34.8-39.248z"/><path d="m507.656 269.195c-8.444-15.274-25.141-26.133-44.872-27.168-19.733-1.035-37.471 8.021-47.468 22.325 8.445 15.273 25.139 26.134 44.873 27.167 19.731 1.036 37.471-8.019 47.467-22.324z"/><path d="m469.686 398.027c10.362-14.044 13.271-33.747 5.985-52.114s-22.913-30.714-40.084-33.836c-10.361 14.044-13.271 33.745-5.983 52.112 7.285 18.366 22.911 30.715 40.082 33.838z"/><path d="m156.522 24.464c17.251 2.637 33.218 14.542 41.019 32.696 7.8 18.156 5.444 37.931-4.518 52.262-17.251-2.639-33.218-14.541-41.019-32.697-7.799-18.155-5.443-37.931 4.518-52.261z"/><path d="m73.202 82.536c16.891-4.388 36.261.248 50.594 13.848 14.334 13.603 19.976 32.702 16.479 49.801-16.892 4.387-36.261-.246-50.594-13.85-14.332-13.6-19.974-32.701-16.479-49.799z"/><path d="m19.572 168.783c13.788-10.7 33.415-14.087 51.952-7.249 18.54 6.839 31.262 22.16 34.8 39.251-13.788 10.698-33.413 14.087-51.952 7.246-18.538-6.836-31.262-22.159-34.8-39.248z"/><path d="m4.344 269.195c8.444-15.274 25.141-26.133 44.872-27.168 19.733-1.035 37.471 8.021 47.468 22.325-8.445 15.273-25.139 26.134-44.873 27.167-19.731 1.036-37.471-8.019-47.467-22.324z"/><path d="m42.314 398.027c-10.362-14.044-13.271-33.747-5.985-52.114s22.913-30.714 40.084-33.836c10.361 14.044 13.271 33.745 5.983 52.112-7.285 18.366-22.911 30.715-40.082 33.838z"/></g></g></g><g id="Base" display="none"><g fill="#ab695d"><path d="m58.265 288.82c-.506.027-1.015.025-1.524.04-7.891 6.815-14.258 14.135-18.893 21.256 8.554-9.032 18.482-16.59 29.343-22.435-2.918.592-5.9.981-8.926 1.139z" display="inline"/><path d="m467.749 288.86c-.51-.015-1.019-.013-1.524-.04-3.025-.158-6.007-.547-8.926-1.139 10.861 5.845 20.79 13.402 29.343 22.435-4.635-7.121-11.002-14.44-18.893-21.256z" display="inline"/><path d="m262.245 492.307c-21.942 0-43.611-2.917-64.558-8.681 28.372-22.85 45.036-57.307 45.036-94.059 0-66.576-54.163-120.739-120.738-120.739-5.517 0-11.023.382-16.483 1.141.586-.742 1.155-1.5 1.706-2.271 10.72-2.919 21.855-4.397 33.127-4.397 7.048 0 14.282.562 21.503 1.669.446.069.91.104 1.37.104 3.255 0 6.263-1.768 7.852-4.612 1.822-3.259 1.422-7.364-.996-10.212-13.521-15.936-29.256-29.381-43.258-39.772 32.46 12.417 55.07 32.916 69.935 48.184 1.685 1.729 4.036 2.722 6.45 2.722 1.373 0 2.75-.321 3.982-.93 3.511-1.735 5.488-5.502 4.921-9.373-4.564-31.188-21.984-56.187-35.793-71.666-5.825-6.529-12.261-12.733-18.988-18.345 29.997 12.062 45.963 39.294 49.679 49.978 1.258 3.614 4.682 6.041 8.521 6.041.256 0 .515-.011.774-.033 4.164-.386 7.482-3.517 8.104-7.615 3.814-25.172 6.438-43.827 6.12-58.581 4.151 12.695 6.125 27.566 6.125 40.621 0 4.75 3.713 8.695 8.454 8.983.168.011.369.018.569.018 4.53 0 8.361-3.401 8.911-7.911 2.353-19.245 5.093-37.473 7.676-53.099 2.583 15.626 5.324 33.854 7.677 53.101.549 4.509 4.38 7.909 8.911 7.909.198 0 .397-.007.598-.02 4.711-.286 8.425-4.231 8.425-8.981 0-13.055 1.974-27.926 6.125-40.621-.317 14.754 2.306 33.409 6.12 58.58.622 4.1 3.94 7.23 8.068 7.613.299.025.555.036.81.036 3.841 0 7.266-2.429 8.521-6.043 3.715-10.682 19.682-37.915 49.679-49.976-6.727 5.611-13.163 11.815-18.988 18.345-13.81 15.479-31.229 40.479-35.793 71.666-.566 3.871 1.41 7.638 4.918 9.372 1.234.609 2.612.931 3.985.931 2.414 0 4.765-.992 6.449-2.722 14.866-15.268 37.477-35.768 69.936-48.184-14.002 10.391-29.737 23.837-43.259 39.772-2.417 2.848-2.817 6.953-.994 10.214 1.587 2.844 4.595 4.611 7.85 4.611.46 0 .925-.036 1.381-.107 7.209-1.105 14.444-1.667 21.492-1.667 11.271 0 22.407 1.479 33.127 4.397.551.771 1.12 1.528 1.706 2.271-5.459-.759-10.965-1.141-16.483-1.141-66.575 0-120.738 54.163-120.738 120.739 0 36.752 16.664 71.209 45.036 94.059-20.949 5.764-42.618 8.681-64.56 8.681z" display="inline"/></g><g fill="#7aa863"><path d="m262.245 78.651c-9.811-8.353-15.78-21.477-15.78-35.112s5.97-26.761 15.78-35.112c9.811 8.352 15.78 21.477 15.78 35.112s-5.969 26.76-15.78 35.112z" display="inline"/><path d="m329.611 92.511c-5.716-11.548-6.021-25.963-.638-38.491 5.383-12.529 16.049-22.231 28.36-26.032 5.716 11.548 6.021 25.964.638 38.491-5.382 12.527-16.048 22.229-28.36 26.032z" display="inline"/><path d="m390.632 132.092c-1.54 0-3.077-.084-4.596-.25-.696-12.868 4.715-26.235 14.607-35.623 8.819-8.368 20.091-12.977 31.737-12.977 1.541 0 3.077.084 4.595.25.696 12.868-4.715 26.235-14.607 35.621-8.819 8.369-20.088 12.979-31.733 12.979z" display="inline"/><path d="m444.191 195.887c-7.724-.001-15.348-1.986-21.837-5.643 4.441-12.098 14.688-22.24 27.481-26.959 5.381-1.985 10.954-2.991 16.565-2.991 7.726 0 15.35 1.985 21.839 5.644-4.441 12.097-14.689 22.239-27.481 26.956-5.381 1.986-10.954 2.993-16.564 2.993z" display="inline"/><path d="m469.492 275.906c-.85 0-1.722-.022-2.591-.067-13.618-.714-26.414-7.365-34.24-17.604 8.288-8.812 20.477-13.98 33.311-13.98.85 0 1.722.022 2.59.067 13.618.715 26.415 7.368 34.24 17.605-8.288 8.811-20.476 13.979-33.31 13.979z" display="inline"/><path d="m471.831 380.997c-12.2-4.147-22.589-14.146-27.617-26.82-5.029-12.674-4.32-27.074 1.719-38.456 12.2 4.146 22.589 14.145 27.617 26.817 5.029 12.676 4.32 27.077-1.719 38.459z" display="inline"/><path d="m194.879 92.511c-12.312-3.803-22.978-13.505-28.359-26.032-5.383-12.527-5.079-26.943.638-38.491 12.311 3.801 22.977 13.503 28.36 26.032 5.381 12.528 5.077 26.943-.639 38.491z" display="inline"/><path d="m133.858 132.092c-11.647 0-22.917-4.609-31.736-12.979-9.893-9.386-15.304-22.753-14.607-35.621 1.518-.166 3.054-.25 4.595-.25 11.646 0 22.918 4.608 31.737 12.977 9.892 9.388 15.303 22.755 14.607 35.623-1.518.166-3.055.25-4.596.25z" display="inline"/><path d="m80.299 195.887c-5.613 0-11.187-1.007-16.567-2.992-12.793-4.718-23.04-14.86-27.481-26.958 6.49-3.657 14.115-5.643 21.839-5.643 5.611 0 11.184 1.006 16.565 2.991 12.793 4.719 23.04 14.862 27.481 26.959-6.49 3.657-14.113 5.643-21.837 5.643z" display="inline"/><path d="m54.999 275.906c-12.834 0-25.022-5.168-33.311-13.979 7.825-10.237 20.623-16.891 34.245-17.605.864-.045 1.736-.067 2.586-.067 12.834 0 25.023 5.169 33.311 13.98-7.826 10.239-20.622 16.891-34.245 17.604-.865.045-1.736.067-2.586.067z" display="inline"/><path d="m52.659 380.997c-6.039-11.382-6.748-25.783-1.719-38.459 5.028-12.673 15.417-22.671 27.617-26.817 6.039 11.382 6.748 25.782 1.719 38.457-5.028 12.674-15.417 22.672-27.617 26.819z" display="inline"/></g></g><g id="Flat" display="none"><g display="inline"><g><path d="m356.616 262.874c34.997-41.246 86.105-66.244 86.105-66.244-64.232 4.375-103.604 38.747-126.727 62.495 7.5-51.246 54.37-94.367 87.492-107.491-64.369-5.624-94.992 48.121-99.991 62.495-9.374-61.87-10.159-79.608 13.749-97.491-31.247 0-44.371 44.996-44.371 80.617-6.874-56.245-16.873-103.321-16.873-103.321s-9.999 47.076-16.874 103.321c0-35.621-13.124-80.617-44.371-80.617 23.908 17.883 23.123 35.621 13.749 97.491-5-14.374-35.622-68.119-99.991-62.495 33.122 13.124 79.993 56.245 87.492 107.491-23.123-23.748-62.495-58.12-126.727-62.495 0 0 51.108 24.998 86.105 66.244-85.616-13.123-139.987 48.746-140.48 79.356 19.555-34.204 56.389-57.256 98.609-57.256 62.691 0 113.512 50.823 113.512 113.513 0 42.22-23.052 79.055-57.254 98.609 26.946 9.639 55.972 14.904 86.23 14.904s59.284-5.265 86.229-14.903c-34.203-19.555-57.254-56.39-57.254-98.609 0-62.689 50.821-113.513 113.512-113.513 42.22 0 79.054 23.052 98.609 57.256-.492-30.611-54.863-92.48-140.48-79.357z" fill="#935b50"/><g fill="#42994b"><path d="m256 0c-15.044 9.379-25.174 26.893-25.174 46.966 0 20.074 10.129 37.587 25.174 46.968 15.044-9.381 25.174-26.894 25.174-46.968 0-20.073-10.13-37.587-25.174-46.966z"/><path d="m357.057 20.789c-17.525 2.678-33.746 14.772-41.67 33.215-7.924 18.444-5.531 38.533 4.589 53.092 17.525-2.681 33.746-14.772 41.67-33.217 7.923-18.442 5.531-38.532-4.589-53.09z"/><path d="m441.699 79.783c-17.159-4.458-36.836.252-51.397 14.067-14.562 13.818-20.293 33.221-16.741 50.591 17.16 4.456 36.837-.25 51.397-14.069 14.561-13.815 20.292-33.221 16.741-50.589z"/><path d="m496.181 167.398c-14.007-10.87-33.945-14.311-52.777-7.363-18.834 6.947-31.758 22.512-35.352 39.874 14.006 10.867 33.943 14.31 52.777 7.36 18.831-6.944 31.757-22.51 35.352-39.871z"/><path d="m511.651 269.404c-8.579-15.517-25.54-26.547-45.584-27.599-20.046-1.052-38.066 8.147-48.221 22.68 8.579 15.516 25.538 26.549 45.585 27.598 20.043 1.052 38.065-8.146 48.22-22.679z"/><path d="m473.078 400.282c10.526-14.268 13.482-34.283 6.08-52.942-7.402-18.658-23.277-31.201-40.72-34.373-10.525 14.268-13.482 34.281-6.078 52.939 7.4 18.657 23.274 31.203 40.718 34.376z"/><path d="m154.943 20.789c17.525 2.678 33.746 14.772 41.67 33.215 7.924 18.444 5.531 38.533-4.589 53.092-17.525-2.681-33.746-14.772-41.67-33.217-7.923-18.442-5.531-38.532 4.589-53.09z"/><path d="m70.301 79.783c17.159-4.458 36.836.252 51.397 14.067 14.562 13.818 20.293 33.221 16.741 50.591-17.16 4.456-36.837-.25-51.397-14.069-14.561-13.815-20.292-33.221-16.741-50.589z"/><path d="m15.819 167.398c14.006-10.87 33.945-14.311 52.777-7.363 18.834 6.947 31.758 22.512 35.352 39.874-14.006 10.867-33.943 14.31-52.777 7.36-18.831-6.944-31.757-22.51-35.352-39.871z"/><path d="m.349 269.404c8.579-15.517 25.54-26.547 45.584-27.599 20.046-1.052 38.066 8.147 48.221 22.68-8.579 15.516-25.538 26.549-45.585 27.598-20.043 1.052-38.065-8.146-48.22-22.679z"/><path d="m38.922 400.282c-10.526-14.268-13.482-34.283-6.08-52.942 7.402-18.658 23.277-31.201 40.72-34.373 10.525 14.268 13.482 34.281 6.078 52.939-7.4 18.657-23.274 31.203-40.718 34.376z"/></g></g><g fill="#ab695d"><path d="m55.126 289.341c-.514.028-1.031.026-1.548.041-8.016 6.924-14.484 14.359-19.193 21.594 8.689-9.176 18.776-16.854 29.809-22.791-2.965.601-5.994.996-9.068 1.156z"/><path d="m471.11 289.382c-.518-.015-1.035-.013-1.549-.041-3.073-.16-6.103-.555-9.067-1.156 11.034 5.938 21.12 13.615 29.809 22.791-4.709-7.235-11.177-14.67-19.193-21.594z"/><path d="m262.344 496.058c-22.29 0-44.303-2.963-65.583-8.818 28.822-23.213 45.75-58.217 45.75-95.552 0-67.633-55.022-122.656-122.655-122.656-5.604 0-11.198.389-16.744 1.159.596-.754 1.173-1.523 1.733-2.307 10.891-2.965 22.203-4.467 33.653-4.467 7.16 0 14.509.57 21.844 1.695.453.07.925.106 1.391.106 3.307 0 6.363-1.796 7.977-4.686 1.851-3.311 1.444-7.481-1.012-10.374-13.735-16.188-29.72-29.848-43.945-40.404 32.975 12.614 55.944 33.438 71.045 48.948 1.711 1.757 4.1 2.766 6.552 2.766 1.395 0 2.794-.327 4.045-.945 3.567-1.763 5.575-5.589 5-9.521-4.637-31.683-22.333-57.078-36.362-72.804-5.917-6.633-12.455-12.936-19.289-18.636 30.473 12.253 46.693 39.918 50.468 50.771 1.278 3.672 4.756 6.138 8.656 6.138.26 0 .523-.012.786-.034 4.23-.392 7.601-3.572 8.232-7.736 3.875-25.571 6.54-44.522 6.217-59.511 4.217 12.896 6.223 28.004 6.223 41.266 0 4.825 3.772 8.834 8.588 9.126.171.011.375.019.578.019 4.602 0 8.494-3.456 9.052-8.037 2.39-19.551 5.174-38.067 7.798-53.941 2.624 15.874 5.409 34.391 7.799 53.943.558 4.58 4.45 8.035 9.052 8.035.201 0 .404-.008.607-.021 4.786-.29 8.559-4.299 8.559-9.124 0-13.262 2.005-28.369 6.222-41.266-.323 14.988 2.343 33.939 6.217 59.51.631 4.165 4.002 7.346 8.196 7.734.304.025.564.037.823.037 3.902 0 7.381-2.468 8.656-6.14 3.774-10.851 19.995-38.517 50.467-50.769-6.833 5.7-13.372 12.003-19.289 18.636-14.029 15.726-31.725 41.121-36.362 72.804-.575 3.933 1.433 7.759 4.997 9.521 1.254.619 2.653.946 4.048.946 2.452 0 4.841-1.009 6.551-2.766 15.103-15.51 38.072-36.335 71.046-48.948-14.224 10.556-30.209 24.216-43.945 40.404-2.456 2.893-2.862 7.063-1.01 10.376 1.612 2.889 4.668 4.684 7.975 4.684.468 0 .94-.036 1.403-.108 7.324-1.123 14.673-1.693 21.833-1.693 11.451 0 22.762 1.502 33.653 4.467.56.783 1.137 1.553 1.733 2.307-5.546-.771-11.139-1.159-16.744-1.159-67.632 0-122.655 55.023-122.655 122.656 0 37.335 16.928 72.339 45.75 95.552-21.277 5.854-43.29 8.817-65.58 8.817z"/></g><g fill="#7aa863"><path d="m262.344 75.836c-9.966-8.484-16.031-21.817-16.031-35.669 0-13.853 6.064-27.186 16.031-35.67 9.966 8.484 16.031 21.817 16.031 35.67 0 13.852-6.064 27.185-16.031 35.669z"/><path d="m330.78 89.916c-5.807-11.731-6.116-26.375-.648-39.103 5.469-12.729 16.304-22.584 28.81-26.445 5.807 11.731 6.116 26.376.648 39.103-5.467 12.725-16.303 22.582-28.81 26.445z"/><path d="m392.77 130.125c-1.564 0-3.125-.085-4.669-.254-.707-13.072 4.79-26.652 14.839-36.188 8.959-8.501 20.41-13.183 32.241-13.183 1.565 0 3.126.085 4.667.254.708 13.072-4.79 26.651-14.839 36.187-8.958 8.502-20.407 13.185-32.237 13.185h-.002z"/><path d="m447.178 194.933c-7.846-.001-15.591-2.018-22.184-5.732 4.511-12.289 14.921-22.593 27.917-27.387 5.466-2.017 11.128-3.039 16.828-3.039 7.848 0 15.594 2.018 22.186 5.733-4.512 12.289-14.922 22.593-27.918 27.384-5.466 2.019-11.127 3.041-16.827 3.041z"/><path d="m472.88 276.223c-.863 0-1.749-.023-2.632-.069-13.834-.725-26.833-7.481-34.783-17.884 8.419-8.951 20.802-14.202 33.84-14.202.863 0 1.749.022 2.631.068 13.834.727 26.834 7.485 34.784 17.885-8.42 8.952-20.802 14.202-33.84 14.202z"/><path d="m475.257 382.981c-12.394-4.214-22.947-14.371-28.056-27.246s-4.388-27.504 1.747-39.066c12.394 4.212 22.948 14.369 28.056 27.243 5.108 12.877 4.388 27.507-1.747 39.069z"/><path d="m193.909 89.916c-12.507-3.863-23.343-13.72-28.81-26.445-5.468-12.727-5.159-27.371.648-39.103 12.506 3.861 23.341 13.717 28.81 26.445 5.468 12.728 5.159 27.372-.648 39.103z"/><path d="m131.919 130.125c-11.832 0-23.281-4.683-32.239-13.185-10.05-9.535-15.547-23.114-14.839-36.187 1.542-.169 3.102-.254 4.667-.254 11.832 0 23.282 4.682 32.241 13.183 10.049 9.536 15.546 23.116 14.839 36.188-1.543.17-3.103.255-4.669.255z"/><path d="m77.51 194.933c-5.702 0-11.364-1.022-16.83-3.04-12.996-4.792-23.406-15.096-27.918-27.386 6.593-3.715 14.339-5.732 22.186-5.732 5.7 0 11.362 1.022 16.829 3.039 12.996 4.794 23.406 15.099 27.917 27.387-6.593 3.715-14.338 5.732-22.184 5.732z"/><path d="m51.808 276.223c-13.038 0-25.42-5.25-33.839-14.202 7.949-10.399 20.95-17.158 34.788-17.885.878-.046 1.764-.068 2.627-.068 13.038 0 25.42 5.251 33.84 14.202-7.95 10.402-20.949 17.159-34.788 17.884-.879.045-1.765.069-2.628.069z"/><path d="m49.432 382.981c-6.135-11.563-6.855-26.192-1.747-39.069 5.107-12.874 15.662-23.031 28.056-27.243 6.135 11.563 6.854 26.191 1.746 39.067-5.108 12.875-15.662 23.032-28.055 27.245z"/></g></g></g><g id="Line" display="none"/><g id="Blue" display="none"><g display="inline"><g fill="#57a4ff"><path d="m52.02 295.514c-.506.027-1.015.025-1.524.04-7.891 6.815-14.258 14.135-18.893 21.256 8.554-9.032 18.482-16.59 29.343-22.435-2.918.592-5.901.98-8.926 1.139z"/><path d="m461.504 295.554c-.51-.015-1.019-.013-1.524-.04-3.025-.158-6.007-.547-8.926-1.139 10.861 5.845 20.79 13.402 29.343 22.435-4.635-7.122-11.002-14.441-18.893-21.256z"/><path d="m429.617 285.469c-6.13-4.098-11.424-9.313-15.493-15.405-11.1-3.193-23.211-5.069-36.213-5.069-7.296 0-14.785.58-22.261 1.727-1.65.257-3.284-.545-4.098-2.003-.814-1.457-.638-3.267.442-4.539 18.833-22.196 42.042-39.542 59.622-50.909-1.46-.75-2.885-1.562-4.267-2.438-42.258 11.007-70.638 35.738-89.426 55.034-1.21 1.242-3.082 1.564-4.637.797-1.555-.769-2.438-2.45-2.187-4.166 4.385-29.961 21.224-54.093 34.577-69.062 11.524-12.918 25.252-24.28 38.717-32.265-47.961 3.942-72.78 44.315-77.862 58.927-.604 1.737-2.309 2.824-4.146 2.669-1.832-.17-3.311-1.565-3.587-3.384-7.389-48.768-9.892-71.207 3.068-88.242-18.267 11.992-25.257 46.398-25.257 71.032 0 2.114-1.646 3.864-3.757 3.992-2.113.141-3.958-1.408-4.213-3.507-4.014-32.837-9.159-62.71-12.64-81.385-3.48 18.675-8.626 48.548-12.64 81.385-.256 2.1-2.116 3.648-4.213 3.507-2.111-.128-3.757-1.878-3.757-3.992 0-24.634-6.99-59.04-25.257-71.032 12.96 17.035 10.457 39.475 3.068 88.242-.276 1.818-1.755 3.214-3.587 3.384-1.827.156-3.542-.932-4.146-2.669-5.082-14.611-29.901-54.984-77.862-58.927 13.465 7.984 27.192 19.347 38.717 32.265 13.354 14.969 30.192 39.101 34.577 69.062.251 1.716-.632 3.397-2.187 4.166-1.555.768-3.427.445-4.637-.797-18.788-19.296-47.168-44.027-89.426-55.034-1.382.877-2.807 1.688-4.267 2.438 17.579 11.367 40.788 28.713 59.621 50.909 1.08 1.272 1.256 3.082.442 4.539-.814 1.458-2.448 2.259-4.098 2.003-7.476-1.146-14.965-1.727-22.261-1.727-13.002 0-25.114 1.876-36.213 5.069-4.068 6.093-9.362 11.308-15.493 15.405 10.687-3.23 21.909-4.947 33.356-4.947 63.818 0 115.738 51.921 115.738 115.739 0 38.55-19.367 74.586-51.067 95.993 24.376 7.798 49.764 11.746 75.593 11.746s51.217-3.948 75.589-11.746c-31.7-21.407-51.067-57.443-51.067-95.993 0-63.818 51.92-115.739 115.738-115.739 11.448-.001 22.67 1.716 33.357 4.947z"/></g><g fill="#dedbee"><path d="m256 91.667c12.877-9.077 20.78-24.715 20.78-41.435 0-16.721-7.903-32.358-20.78-41.435-12.877 9.076-20.78 24.714-20.78 41.435 0 16.72 7.903 32.358 20.78 41.435z"/><path d="m353.583 28.872c-15.415 3.256-28.848 14.504-35.449 29.867-6.6 15.362-5.512 32.85 2.736 46.273 15.416-3.258 28.85-14.505 35.449-29.867 6.601-15.362 5.513-32.849-2.736-46.273z"/><path d="m375.205 142.882c2.994.6 6.072.903 9.182.903h.003c12.932 0 25.423-5.097 35.175-14.352 12.129-11.508 18.032-28.005 15.752-43.595-2.994-.601-6.072-.903-9.181-.903-12.932 0-25.426 5.096-35.179 14.35-12.129 11.51-18.032 28.007-15.752 43.597z"/><path d="m437.946 207.58h.003c6.203 0 12.357-1.11 18.294-3.302 15.687-5.784 27.622-18.61 31.683-33.834-7.937-5.47-17.699-8.457-27.771-8.457-6.204 0-12.359 1.11-18.295 3.3-15.687 5.786-27.623 18.613-31.682 33.837 7.936 5.468 17.697 8.455 27.768 8.456z"/><path d="m462.575 246.021c-.946-.049-1.905-.074-2.848-.074-15.803 0-30.42 6.928-39.619 18.655 8.39 13.338 23.592 22.048 40.291 22.923.947.049 1.905.074 2.849.074 15.803 0 30.42-6.928 39.619-18.654-8.39-13.336-23.592-22.047-40.292-22.924z"/><path d="m471.953 347.388c-6.165-15.54-19.278-27.161-34.596-30.851-8.623 13.187-10.202 30.636-4.035 46.177 6.166 15.542 19.277 27.163 34.596 30.854 8.622-13.186 10.201-30.636 4.035-46.18z"/><path d="m193.866 58.739c-6.601-15.363-20.035-26.611-35.449-29.867-8.248 13.424-9.337 30.911-2.736 46.273 6.6 15.362 20.034 26.609 35.449 29.867 8.247-13.423 9.336-30.91 2.736-46.273z"/><path d="m127.613 143.785c3.109 0 6.188-.303 9.182-.903 2.28-15.59-3.623-32.087-15.752-43.597-9.753-9.254-22.247-14.35-35.179-14.35-3.109 0-6.187.303-9.181.903-2.28 15.59 3.623 32.087 15.752 43.595 9.752 9.255 22.244 14.352 35.178 14.352z"/><path d="m55.756 204.278c5.938 2.191 12.094 3.302 18.298 3.302 10.07 0 19.831-2.987 27.768-8.456-4.06-15.224-15.995-28.051-31.682-33.837-5.937-2.189-12.092-3.3-18.295-3.3-10.071 0-19.833 2.987-27.771 8.456 4.061 15.225 15.996 28.051 31.682 33.835z"/><path d="m9.135 268.945c9.198 11.727 23.816 18.654 39.619 18.654.943 0 1.902-.025 2.848-.074 16.699-.875 31.901-9.585 40.291-22.923-9.199-11.728-23.816-18.655-39.619-18.655-.943 0-1.902.025-2.848.074-16.701.877-31.903 9.588-40.291 22.924z"/><path d="m74.644 316.537c-15.318 3.689-28.431 15.311-34.596 30.851-6.167 15.544-4.587 32.994 4.036 46.18 15.318-3.69 28.43-15.312 34.595-30.853 6.166-15.542 4.587-32.991-4.035-46.178z"/></g></g></g><g id="Hilight"><g><g fill="#0e2a47"><path d="m45.101 296.441c-.523.029-1.049.027-1.575.041-8.159 7.047-14.742 14.615-19.534 21.977 8.844-9.338 19.109-17.152 30.338-23.195-3.017.613-6.101 1.013-9.229 1.177z"/><path d="m468.475 296.482c-.527-.014-1.053-.012-1.576-.041-3.128-.164-6.211-.564-9.229-1.178 11.23 6.043 21.495 13.857 30.339 23.195-4.793-7.36-11.376-14.929-19.534-21.976z"/><path d="m435.506 286.057c-6.338-4.238-11.812-9.629-16.018-15.928-11.476-3.303-23.999-5.242-37.442-5.242-7.543 0-15.287.6-23.016 1.785-1.706.266-3.395-.563-4.237-2.07-.842-1.508-.66-3.377.457-4.693 19.472-22.949 43.468-40.883 61.644-52.637-1.51-.775-2.983-1.613-4.412-2.52-43.691 11.381-73.034 36.951-92.459 56.9-1.251 1.285-3.187 1.617-4.794.824-1.607-.795-2.521-2.533-2.261-4.307 4.533-30.979 21.943-55.928 35.75-71.404 11.916-13.357 26.108-25.104 40.03-33.359-49.588 4.076-75.249 45.818-80.503 60.926-.624 1.795-2.387 2.92-4.287 2.76-1.894-.176-3.423-1.619-3.708-3.5-7.639-50.422-10.227-73.621 3.172-91.234-18.887 12.398-26.113 47.973-26.113 73.441 0 2.186-1.702 3.996-3.884 4.127-2.185.146-4.092-1.455-4.356-3.625-4.15-33.951-9.47-64.838-13.068-84.146-3.599 19.309-8.918 50.195-13.068 84.146-.265 2.17-2.188 3.771-4.356 3.625-2.182-.131-3.884-1.941-3.884-4.127 0-25.469-7.227-61.043-26.113-73.441 13.399 17.613 10.812 40.813 3.172 91.234-.285 1.881-1.815 3.324-3.708 3.5-1.889.16-3.662-.965-4.287-2.76-5.255-15.107-30.916-56.85-80.503-60.926 13.922 8.256 28.115 20.002 40.03 33.359 13.807 15.477 31.217 40.426 35.75 71.404.26 1.773-.654 3.512-2.261 4.307-1.608.793-3.543.461-4.794-.824-19.425-19.949-48.768-45.52-92.459-56.9-1.429.906-2.902 1.744-4.412 2.52 18.176 11.754 42.171 29.688 61.644 52.637 1.117 1.316 1.299 3.186.457 4.693-.842 1.508-2.531 2.334-4.237 2.07-7.729-1.186-15.472-1.785-23.016-1.785-13.443 0-25.966 1.939-37.442 5.242-4.207 6.299-9.68 11.689-16.019 15.928 11.049-3.34 22.652-5.115 34.488-5.115 65.983 0 119.664 53.682 119.664 119.664 0 39.857-20.024 77.117-52.799 99.25 25.197 8.062 51.447 12.144 78.152 12.144s52.955-4.082 78.153-12.145c-32.775-22.133-52.799-59.393-52.799-99.25 0-65.982 53.681-119.664 119.664-119.664 11.836 0 23.439 1.776 34.488 5.116z"/></g><g fill="#69e781"><path d="m256 85.68c13.314-9.385 21.485-25.553 21.485-42.84s-8.171-33.455-21.485-42.84c-13.314 9.385-21.485 25.553-21.485 42.84s8.171 33.455 21.485 42.84z"/><path d="m356.894 20.756c-15.938 3.365-29.827 14.996-36.651 30.879-6.824 15.885-5.699 33.965 2.829 47.844 15.938-3.369 29.828-14.996 36.651-30.881 6.824-15.883 5.698-33.963-2.829-47.842z"/><path d="m379.249 138.633c3.095.619 6.278.934 9.494.934h.003c13.371 0 26.286-5.27 36.368-14.838 12.541-11.898 18.644-28.955 16.286-45.074-3.096-.621-6.278-.934-9.493-.934-13.371 0-26.288 5.268-36.373 14.836-12.539 11.9-18.642 28.957-16.285 45.076z"/><path d="m444.118 205.525h.003c6.413 0 12.777-1.148 18.915-3.414 16.219-5.98 28.559-19.242 32.757-34.982-8.206-5.654-18.3-8.742-28.712-8.742-6.414 0-12.778 1.146-18.916 3.41-16.219 5.982-28.56 19.246-32.757 34.986 8.205 5.653 18.298 8.74 28.71 8.742z"/><path d="m469.582 245.271c-.979-.051-1.969-.078-2.945-.078-16.339 0-31.452 7.164-40.963 19.289 8.674 13.789 24.392 22.795 41.657 23.699.979.051 1.97.078 2.945.078 16.338 0 31.452-7.164 40.962-19.287-8.672-13.788-24.389-22.794-41.656-23.701z"/><path d="m479.278 350.076c-6.374-16.068-19.932-28.084-35.77-31.898-8.915 13.635-10.548 31.676-4.172 47.744 6.375 16.068 19.931 28.084 35.769 31.9 8.916-13.633 10.549-31.676 4.173-47.746z"/><path d="m191.758 51.635c-6.825-15.883-20.714-27.514-36.651-30.879-8.528 13.879-9.654 31.959-2.829 47.842 6.823 15.885 20.713 27.512 36.651 30.881 8.528-13.879 9.653-31.959 2.829-47.844z"/><path d="m123.258 139.566c3.215 0 6.397-.313 9.494-.934 2.357-16.119-3.746-33.176-16.287-45.076-10.083-9.568-23.001-14.836-36.372-14.836-3.215 0-6.397.313-9.493.934-2.357 16.119 3.746 33.176 16.286 45.074 10.083 9.569 22.999 14.838 36.372 14.838z"/><path d="m48.963 202.111c6.139 2.266 12.504 3.414 18.919 3.414 10.412 0 20.503-3.088 28.71-8.742-4.197-15.74-16.538-29.004-32.757-34.986-6.138-2.264-12.502-3.41-18.916-3.41-10.413 0-20.506 3.088-28.712 8.742 4.198 15.74 16.539 29.002 32.756 34.982z"/><path d="m.761 268.973c9.51 12.123 24.624 19.287 40.962 19.287.976 0 1.967-.027 2.945-.078 17.266-.904 32.983-9.91 41.658-23.699-9.511-12.125-24.624-19.289-40.963-19.289-.976 0-1.966.027-2.945.078-17.267.906-32.984 9.912-41.657 23.701z"/><path d="m68.492 318.178c-15.838 3.814-29.396 15.83-35.77 31.898-6.376 16.07-4.743 34.113 4.172 47.746 15.838-3.816 29.395-15.832 35.769-31.9 6.377-16.068 4.744-34.109-4.171-47.744z"/></g></g></g><g id="Glyph" display="none"><g display="inline"><path d="m45.101 296.441c-.523.029-1.049.027-1.575.041-8.159 7.047-14.742 14.615-19.534 21.977 8.844-9.338 19.109-17.152 30.338-23.195-3.017.613-6.101 1.013-9.229 1.177z"/><path d="m468.475 296.482c-.527-.014-1.053-.012-1.576-.041-3.128-.164-6.211-.564-9.229-1.178 11.23 6.043 21.495 13.857 30.339 23.195-4.793-7.36-11.376-14.929-19.534-21.976z"/><path d="m435.506 286.057c-6.338-4.238-11.812-9.629-16.018-15.928-11.476-3.303-23.999-5.242-37.442-5.242-7.543 0-15.287.6-23.016 1.785-1.706.266-3.395-.563-4.237-2.07-.842-1.508-.66-3.377.457-4.693 19.472-22.949 43.468-40.883 61.644-52.637-1.51-.775-2.983-1.613-4.412-2.52-43.691 11.381-73.034 36.951-92.459 56.9-1.251 1.285-3.187 1.617-4.794.824-1.607-.795-2.521-2.533-2.261-4.307 4.533-30.979 21.943-55.928 35.75-71.404 11.916-13.357 26.108-25.104 40.03-33.359-49.588 4.076-75.249 45.818-80.503 60.926-.624 1.795-2.387 2.92-4.287 2.76-1.894-.176-3.423-1.619-3.708-3.5-7.639-50.422-10.227-73.621 3.172-91.234-18.887 12.398-26.113 47.973-26.113 73.441 0 2.186-1.702 3.996-3.884 4.127-2.185.146-4.092-1.455-4.356-3.625-4.15-33.951-9.47-64.838-13.068-84.146-3.599 19.309-8.918 50.195-13.068 84.146-.265 2.17-2.188 3.771-4.356 3.625-2.182-.131-3.884-1.941-3.884-4.127 0-25.469-7.227-61.043-26.113-73.441 13.399 17.613 10.812 40.813 3.172 91.234-.285 1.881-1.815 3.324-3.708 3.5-1.889.16-3.662-.965-4.287-2.76-5.255-15.107-30.916-56.85-80.503-60.926 13.922 8.256 28.115 20.002 40.03 33.359 13.807 15.477 31.217 40.426 35.75 71.404.26 1.773-.654 3.512-2.261 4.307-1.608.793-3.543.461-4.794-.824-19.425-19.949-48.768-45.52-92.459-56.9-1.429.906-2.902 1.744-4.412 2.52 18.176 11.754 42.171 29.688 61.644 52.637 1.117 1.316 1.299 3.186.457 4.693-.842 1.508-2.531 2.334-4.237 2.07-7.729-1.186-15.472-1.785-23.016-1.785-13.443 0-25.966 1.939-37.442 5.242-4.207 6.299-9.68 11.689-16.019 15.928 11.049-3.34 22.652-5.115 34.488-5.115 65.983 0 119.664 53.682 119.664 119.664 0 39.857-20.024 77.117-52.799 99.25 25.197 8.062 51.447 12.144 78.152 12.144s52.955-4.082 78.153-12.145c-32.775-22.133-52.799-59.393-52.799-99.25 0-65.982 53.681-119.664 119.664-119.664 11.836 0 23.439 1.776 34.488 5.116z"/><path d="m256 85.68c13.314-9.385 21.485-25.553 21.485-42.84s-8.171-33.455-21.485-42.84c-13.314 9.385-21.485 25.553-21.485 42.84s8.171 33.455 21.485 42.84z"/><path d="m356.894 20.756c-15.938 3.365-29.827 14.996-36.651 30.879-6.824 15.885-5.699 33.965 2.829 47.844 15.938-3.369 29.828-14.996 36.651-30.881 6.824-15.883 5.698-33.963-2.829-47.842z"/><path d="m379.249 138.633c3.095.619 6.278.934 9.494.934h.003c13.371 0 26.286-5.27 36.368-14.838 12.541-11.898 18.644-28.955 16.286-45.074-3.096-.621-6.278-.934-9.493-.934-13.371 0-26.288 5.268-36.373 14.836-12.539 11.9-18.642 28.957-16.285 45.076z"/><path d="m444.118 205.525h.003c6.413 0 12.777-1.148 18.915-3.414 16.219-5.98 28.559-19.242 32.757-34.982-8.206-5.654-18.3-8.742-28.712-8.742-6.414 0-12.778 1.146-18.916 3.41-16.219 5.982-28.56 19.246-32.757 34.986 8.205 5.653 18.298 8.74 28.71 8.742z"/><path d="m469.582 245.271c-.979-.051-1.969-.078-2.945-.078-16.339 0-31.452 7.164-40.963 19.289 8.674 13.789 24.392 22.795 41.657 23.699.979.051 1.97.078 2.945.078 16.338 0 31.452-7.164 40.962-19.287-8.672-13.788-24.389-22.794-41.656-23.701z"/><path d="m479.278 350.076c-6.374-16.068-19.932-28.084-35.77-31.898-8.915 13.635-10.548 31.676-4.172 47.744 6.375 16.068 19.931 28.084 35.769 31.9 8.916-13.633 10.549-31.676 4.173-47.746z"/><path d="m191.758 51.635c-6.825-15.883-20.714-27.514-36.651-30.879-8.528 13.879-9.654 31.959-2.829 47.842 6.823 15.885 20.713 27.512 36.651 30.881 8.528-13.879 9.653-31.959 2.829-47.844z"/><path d="m123.258 139.566c3.215 0 6.397-.313 9.494-.934 2.357-16.119-3.746-33.176-16.287-45.076-10.083-9.568-23.001-14.836-36.372-14.836-3.215 0-6.397.313-9.493.934-2.357 16.119 3.746 33.176 16.286 45.074 10.083 9.569 22.999 14.838 36.372 14.838z"/><path d="m48.963 202.111c6.139 2.266 12.504 3.414 18.919 3.414 10.412 0 20.503-3.088 28.71-8.742-4.197-15.74-16.538-29.004-32.757-34.986-6.138-2.264-12.502-3.41-18.916-3.41-10.413 0-20.506 3.088-28.712 8.742 4.198 15.74 16.539 29.002 32.756 34.982z"/><path d="m.761 268.973c9.51 12.123 24.624 19.287 40.962 19.287.976 0 1.967-.027 2.945-.078 17.266-.904 32.983-9.91 41.658-23.699-9.511-12.125-24.624-19.289-40.963-19.289-.976 0-1.966.027-2.945.078-17.267.906-32.984 9.912-41.657 23.701z"/><path d="m68.492 318.178c-15.838 3.814-29.396 15.83-35.77 31.898-6.376 16.07-4.743 34.113 4.172 47.746 15.838-3.816 29.395-15.832 35.769-31.9 6.377-16.068 4.744-34.109-4.171-47.744z"/></g></g><g id="Glyph_Gradient" display="none"><path d="m54.33 295.264c-11.229 6.043-21.495 13.857-30.338 23.195 4.792-7.361 11.375-14.93 19.534-21.977.526-.014 1.052-.012 1.575-.041 3.128-.164 6.212-.564 9.229-1.177zm414.145 1.218c-.527-.014-1.053-.012-1.576-.041-3.128-.164-6.211-.564-9.229-1.178 11.23 6.043 21.495 13.857 30.339 23.195-4.793-7.36-11.376-14.929-19.534-21.976zm-32.969-10.425c-6.338-4.238-11.812-9.629-16.018-15.928-11.476-3.303-23.999-5.242-37.442-5.242-7.543 0-15.287.6-23.016 1.785-1.706.266-3.395-.563-4.237-2.07-.842-1.508-.66-3.377.457-4.693 19.472-22.949 43.468-40.883 61.644-52.637-1.51-.775-2.983-1.613-4.412-2.52-43.691 11.381-73.034 36.951-92.459 56.9-1.251 1.285-3.187 1.617-4.794.824-1.607-.795-2.521-2.533-2.261-4.307 4.533-30.979 21.943-55.928 35.75-71.404 11.916-13.357 26.108-25.104 40.03-33.359-49.588 4.076-75.249 45.818-80.503 60.926-.624 1.795-2.387 2.92-4.287 2.76-1.894-.176-3.423-1.619-3.708-3.5-7.639-50.422-10.227-73.621 3.172-91.234-18.887 12.398-26.113 47.973-26.113 73.441 0 2.186-1.702 3.996-3.884 4.127-2.185.146-4.092-1.455-4.356-3.625-4.15-33.951-9.47-64.838-13.068-84.146-3.599 19.309-8.918 50.195-13.068 84.146-.265 2.17-2.188 3.771-4.356 3.625-2.182-.131-3.884-1.941-3.884-4.127 0-25.469-7.227-61.043-26.113-73.441 13.399 17.613 10.812 40.813 3.172 91.234-.285 1.881-1.815 3.324-3.708 3.5-1.889.16-3.662-.965-4.287-2.76-5.255-15.107-30.916-56.85-80.503-60.926 13.922 8.256 28.115 20.002 40.03 33.359 13.807 15.477 31.217 40.426 35.75 71.404.26 1.773-.654 3.512-2.261 4.307-1.608.793-3.543.461-4.794-.824-19.425-19.949-48.768-45.52-92.459-56.9-1.429.906-2.902 1.744-4.412 2.52 18.176 11.754 42.171 29.688 61.644 52.637 1.117 1.316 1.299 3.186.457 4.693-.842 1.508-2.531 2.334-4.237 2.07-7.729-1.186-15.472-1.785-23.016-1.785-13.443 0-25.966 1.939-37.442 5.242-4.207 6.299-9.68 11.689-16.019 15.928 11.049-3.34 22.652-5.115 34.488-5.115 65.983 0 119.664 53.682 119.664 119.664 0 39.857-20.024 77.117-52.799 99.25 25.197 8.062 51.447 12.144 78.152 12.144s52.955-4.082 78.153-12.145c-32.775-22.133-52.799-59.393-52.799-99.25 0-65.982 53.681-119.664 119.664-119.664 11.836 0 23.439 1.776 34.488 5.116zm-179.506-200.377c13.314-9.385 21.485-25.553 21.485-42.84s-8.171-33.455-21.485-42.84c-13.314 9.385-21.485 25.553-21.485 42.84s8.171 33.455 21.485 42.84zm100.894-64.924c-15.938 3.365-29.827 14.996-36.651 30.879-6.824 15.885-5.699 33.965 2.829 47.844 15.938-3.369 29.828-14.996 36.651-30.881 6.824-15.883 5.698-33.963-2.829-47.842zm22.355 117.877c3.095.619 6.278.934 9.494.934h.003c13.371 0 26.286-5.27 36.368-14.838 12.541-11.898 18.644-28.955 16.286-45.074-3.096-.621-6.278-.934-9.493-.934-13.371 0-26.288 5.268-36.373 14.836-12.539 11.9-18.642 28.957-16.285 45.076zm64.869 66.892h.003c6.413 0 12.777-1.148 18.915-3.414 16.219-5.98 28.559-19.242 32.757-34.982-8.206-5.654-18.3-8.742-28.712-8.742-6.414 0-12.778 1.146-18.916 3.41-16.219 5.982-28.56 19.246-32.757 34.986 8.205 5.653 18.298 8.74 28.71 8.742zm25.464 39.746c-.979-.051-1.969-.078-2.945-.078-16.339 0-31.452 7.164-40.963 19.289 8.674 13.789 24.392 22.795 41.657 23.699.979.051 1.97.078 2.945.078 16.338 0 31.452-7.164 40.962-19.287-8.672-13.788-24.389-22.794-41.656-23.701zm9.696 104.805c-6.374-16.068-19.932-28.084-35.77-31.898-8.915 13.635-10.548 31.676-4.172 47.744 6.375 16.068 19.931 28.084 35.769 31.9 8.916-13.633 10.549-31.676 4.173-47.746zm-287.52-298.441c-6.825-15.883-20.714-27.514-36.651-30.879-8.528 13.879-9.654 31.959-2.829 47.842 6.823 15.885 20.713 27.512 36.651 30.881 8.528-13.879 9.653-31.959 2.829-47.844zm-68.5 87.931c3.215 0 6.397-.313 9.494-.934 2.357-16.119-3.746-33.176-16.287-45.076-10.083-9.568-23.001-14.836-36.372-14.836-3.215 0-6.397.313-9.493.934-2.357 16.119 3.746 33.176 16.286 45.074 10.083 9.569 22.999 14.838 36.372 14.838zm-74.295 62.545c6.139 2.266 12.504 3.414 18.919 3.414 10.412 0 20.503-3.088 28.71-8.742-4.197-15.74-16.538-29.004-32.757-34.986-6.138-2.264-12.502-3.41-18.916-3.41-10.413 0-20.506 3.088-28.712 8.742 4.198 15.74 16.539 29.002 32.756 34.982zm-48.202 66.862c9.51 12.123 24.624 19.287 40.962 19.287.976 0 1.967-.027 2.945-.078 17.266-.904 32.983-9.91 41.658-23.699-9.511-12.125-24.624-19.289-40.963-19.289-.976 0-1.966.027-2.945.078-17.267.906-32.984 9.912-41.657 23.701zm67.731 49.205c-15.838 3.814-29.396 15.83-35.77 31.898-6.376 16.07-4.743 34.113 4.172 47.746 15.838-3.816 29.395-15.832 35.769-31.9 6.377-16.068 4.744-34.109-4.171-47.744z" display="inline" fill="url(#SVGID_1_)"/></g><g id="Outline" display="none"><path d="m354.873 20.51c-19.158 2.928-36.052 16.367-44.089 35.071-8.035 18.703-6.154 40.209 4.909 56.124.754 1.085 1.987 1.717 3.284 1.717.201 0 .403-.015.605-.046 19.16-2.931 36.054-16.369 44.089-35.072 8.036-18.703 6.155-40.209-4.909-56.123-.871-1.252-2.375-1.903-3.889-1.671zm-34.002 84.503c-8.248-13.424-9.336-30.911-2.736-46.273 6.601-15.363 20.035-26.611 35.449-29.867 8.248 13.424 9.337 30.911 2.736 46.273-6.6 15.362-20.034 26.609-35.449 29.867z" display="inline"/><path d="m462.994 238.033c-1.085-.058-2.185-.086-3.267-.086-18.965 0-36.484 8.711-47.101 23.328-10.728-2.725-22.326-4.281-34.715-4.281-4.223 0-8.506.184-12.812.549 18.491-19.557 40.155-34.848 55.694-44.544 5.486 1.688 11.275 2.581 17.152 2.581h.003c7.15 0 14.238-1.277 21.063-3.796 19.098-7.043 33.403-23.209 37.333-42.19.31-1.494-.259-3.035-1.465-3.971-9.669-7.504-22.001-11.636-34.725-11.636-7.151 0-14.238 1.276-21.064 3.794-19.099 7.045-33.404 23.213-37.333 42.193-.005.023-.005.046-.009.068-35.563 10.035-61.377 29.31-79.981 46.81 12.576-44.354 54.046-79.233 80.888-89.869 1.724-.684 2.752-2.462 2.484-4.297s-1.762-3.245-3.61-3.406c-.109-.01-.218-.013-.327-.021 8.76-2.679 16.926-7.434 23.869-14.022 14.766-14.011 21.527-34.512 17.645-53.501-.306-1.496-1.436-2.687-2.913-3.07-4.418-1.148-9.017-1.729-13.668-1.729-14.99 0-29.439 5.876-40.686 16.547-14.767 14.013-21.528 34.514-17.645 53.504.306 1.495 1.436 2.687 2.914 3.07.863.225 1.739.408 2.615.59-35.764 6.929-58.139 32.729-68.538 50.626-7.294-50.811-5.829-64.507 13.887-79.254 1.379-1.032 1.943-2.831 1.399-4.466-.543-1.635-2.073-2.737-3.795-2.737-15.569 0-28.367 9.981-37.011 28.865-2.936 6.413-5.329 13.775-7.1 21.67-4.92-32.956-10.059-58.933-11.714-67.052 15.064-10.551 24.317-28.698 24.317-48.066 0-20.357-10.217-39.374-26.664-49.627-1.296-.807-2.937-.807-4.232 0-16.447 10.253-26.664 29.27-26.664 49.627 0 19.368 9.253 37.516 24.317 48.066-1.655 8.119-6.794 34.096-11.714 67.052-1.771-7.895-4.164-15.257-7.1-21.67-8.644-18.884-21.441-28.865-37.011-28.865-1.723 0-3.252 1.103-3.795 2.737-.544 1.635.02 3.434 1.399 4.466 19.716 14.747 21.182 28.443 13.887 79.254-10.398-17.896-32.774-43.697-68.538-50.627.876-.181 1.752-.364 2.615-.589 1.478-.384 2.608-1.575 2.914-3.07 3.883-18.99-2.878-39.491-17.646-53.504-11.246-10.671-25.695-16.547-40.685-16.547-4.651 0-9.25.581-13.668 1.729-1.477.384-2.607 1.574-2.913 3.07-3.882 18.989 2.879 39.49 17.645 53.501 6.943 6.59 15.109 11.344 23.869 14.022-.109.009-.218.012-.327.021-1.848.161-3.342 1.571-3.61 3.406s.76 3.613 2.484 4.297c26.842 10.636 68.312 45.515 80.888 89.869-18.604-17.5-44.419-36.774-79.981-46.81-.004-.022-.004-.045-.009-.068-3.929-18.98-18.234-35.148-37.333-42.193-6.826-2.518-13.913-3.794-21.064-3.794-12.724 0-25.056 4.132-34.725 11.636-1.206.936-1.774 2.477-1.464 3.971 3.93 18.981 18.235 35.147 37.332 42.19 6.827 2.519 13.915 3.796 21.067 3.796 5.877 0 11.667-.893 17.153-2.581 15.539 9.696 37.203 24.987 55.694 44.544-4.306-.365-8.588-.549-12.812-.549-12.389 0-23.987 1.557-34.715 4.281-10.617-14.617-28.136-23.328-47.101-23.328-1.083 0-2.182.028-3.267.086-20.329 1.067-38.784 12.266-48.161 29.227-.739 1.336-.652 2.976.222 4.227 8.816 12.616 22.718 20.961 38.313 23.371-15.78 15.673-24.501 33.142-24.707 45.96-.029 1.825 1.181 3.438 2.941 3.922s3.625-.287 4.531-1.872c19.166-33.522 55.029-54.347 93.596-54.347 59.407 0 107.738 48.332 107.738 107.739 0 38.567-20.824 74.431-54.345 93.596-1.355.775-2.136 2.269-1.999 3.824.137 1.556 1.167 2.889 2.637 3.415 27.648 9.89 56.66 14.905 86.23 14.905s58.582-5.015 86.229-14.904c1.471-.526 2.5-1.859 2.637-3.415s-.644-3.049-1.999-3.824c-33.521-19.165-54.345-55.028-54.345-93.596 0-59.407 48.331-107.739 107.738-107.739 38.567 0 74.431 20.824 93.596 54.347.906 1.585 2.769 2.357 4.531 1.872 1.761-.483 2.971-2.097 2.941-3.922-.207-12.818-8.927-30.287-24.708-45.961 15.594-2.411 29.498-10.756 38.313-23.371.874-1.251.96-2.891.222-4.227-9.375-16.961-27.83-28.16-48.161-29.227zm17.403 78.777c-8.554-9.032-18.482-16.59-29.343-22.435 2.918.592 5.9.98 8.926 1.139.506.027 1.015.025 1.524.04 7.891 6.815 14.258 14.134 18.893 21.256zm-199.875 79.451c0 38.55 19.367 74.586 51.067 95.993-24.372 7.798-49.76 11.746-75.589 11.746s-51.217-3.948-75.589-11.746c31.7-21.407 51.067-57.443 51.067-95.993 0-63.818-51.92-115.739-115.738-115.739-11.447 0-22.669 1.717-33.356 4.947 6.131-4.098 11.425-9.313 15.493-15.405 11.1-3.193 23.211-5.069 36.213-5.069 7.296 0 14.785.58 22.261 1.727 1.65.256 3.284-.545 4.098-2.003.814-1.457.638-3.267-.442-4.539-18.833-22.196-42.042-39.542-59.621-50.909 1.46-.75 2.885-1.561 4.267-2.438 42.258 11.007 70.638 35.738 89.426 55.034 1.209 1.242 3.082 1.564 4.637.797 1.555-.769 2.438-2.45 2.187-4.166-4.385-29.961-21.224-54.093-34.577-69.062-11.524-12.918-25.252-24.28-38.717-32.265 47.961 3.942 72.78 44.315 77.862 58.927.604 1.737 2.319 2.825 4.146 2.669 1.832-.17 3.311-1.565 3.587-3.384 7.389-48.768 9.892-71.207-3.068-88.242 18.267 11.992 25.257 46.398 25.257 71.032 0 2.114 1.646 3.864 3.757 3.992 2.098.142 3.958-1.407 4.213-3.507 4.014-32.837 9.159-62.71 12.64-81.385 3.48 18.675 8.626 48.548 12.64 81.385.256 2.099 2.1 3.647 4.213 3.507 2.111-.128 3.757-1.878 3.757-3.992 0-24.634 6.99-59.04 25.257-71.032-12.96 17.035-10.457 39.475-3.068 88.242.276 1.818 1.755 3.214 3.587 3.384 1.837.155 3.542-.932 4.146-2.669 5.082-14.611 29.901-54.984 77.862-58.927-13.465 7.984-27.192 19.347-38.717 32.265-13.354 14.969-30.192 39.101-34.577 69.062-.251 1.716.632 3.397 2.187 4.166 1.555.768 3.427.445 4.637-.797 18.788-19.296 47.168-44.027 89.426-55.034 1.382.876 2.807 1.688 4.267 2.438-17.58 11.367-40.788 28.713-59.622 50.909-1.08 1.272-1.256 3.082-.442 4.539.814 1.458 2.448 2.26 4.098 2.003 7.476-1.146 14.965-1.727 22.261-1.727 13.002 0 25.114 1.876 36.213 5.069 4.068 6.093 9.362 11.308 15.493 15.405-10.687-3.23-21.909-4.947-33.356-4.947-63.823-.001-115.743 51.92-115.743 115.739zm-248.919-79.451c4.635-7.121 11.002-14.44 18.893-21.256.509-.015 1.018-.013 1.524-.04 3.025-.158 6.008-.547 8.926-1.139-10.861 5.845-20.789 13.402-29.343 22.435zm20.67-70.863c15.803 0 30.42 6.928 39.619 18.655-8.39 13.338-23.592 22.048-40.291 22.923-.946.049-1.905.074-2.848.074-15.803 0-30.42-6.928-39.619-18.654 8.388-13.336 23.59-22.047 40.291-22.924.947-.048 1.905-.074 2.848-.074zm-.428-83.96c6.204 0 12.359 1.11 18.295 3.3 15.687 5.786 27.623 18.613 31.682 33.837-7.938 5.469-17.698 8.456-27.768 8.456-6.204 0-12.36-1.11-18.298-3.302-15.686-5.784-27.621-18.61-31.682-33.835 7.937-5.468 17.699-8.456 27.771-8.456zm204.155-153.189c12.877 9.076 20.78 24.714 20.78 41.435 0 16.72-7.903 32.357-20.78 41.435-12.877-9.077-20.78-24.715-20.78-41.435 0-16.721 7.903-32.359 20.78-41.435zm154.178 190.326c4.06-15.224 15.995-28.051 31.682-33.837 5.937-2.189 12.092-3.3 18.295-3.3 10.071 0 19.833 2.987 27.771 8.457-4.061 15.224-15.996 28.05-31.683 33.834-5.937 2.191-12.092 3.302-18.294 3.302 0 0-.002 0-.003 0-10.071-.001-19.832-2.988-27.768-8.456zm53.069 88.476c-.943 0-1.902-.025-2.849-.074-16.699-.875-31.901-9.585-40.291-22.923 9.199-11.728 23.816-18.655 39.619-18.655.943 0 1.902.025 2.848.074 16.7.877 31.902 9.588 40.291 22.924-9.198 11.726-23.816 18.654-39.618 18.654zm-27.93-201.761c2.28 15.59-3.623 32.087-15.752 43.595-9.751 9.255-22.243 14.352-35.175 14.352-.001 0-.002 0-.003 0-3.11 0-6.188-.304-9.182-.903-2.28-15.59 3.623-32.087 15.751-43.597 9.753-9.254 22.247-14.35 35.179-14.35 3.11 0 6.188.302 9.182.903zm-358.634 0c2.994-.601 6.072-.903 9.181-.903 12.932 0 25.426 5.096 35.179 14.35 12.129 11.51 18.032 28.007 15.752 43.597-2.995.601-6.073.903-9.182.903-12.934 0-25.426-5.097-35.178-14.352-12.129-11.508-18.032-28.005-15.752-43.595z" display="inline"/><path d="m436.302 308.142c-1.5-.269-3.028.333-3.934 1.561-11.507 15.598-13.991 37.041-6.483 55.962 7.506 18.922 24.015 32.83 43.085 36.299.239.043.479.064.716.064 1.255 0 2.456-.593 3.218-1.625 11.507-15.597 13.992-37.04 6.484-55.964-7.505-18.921-24.014-32.83-43.086-36.297zm-2.981 54.572c-6.167-15.541-4.587-32.99 4.035-46.177 15.318 3.689 28.431 15.311 34.596 30.851 6.167 15.544 4.587 32.994-4.036 46.18-15.317-3.691-28.429-15.312-34.595-30.854z" display="inline"/><path d="m157.127 20.51c-1.51-.231-3.017.418-3.889 1.671-11.063 15.914-12.944 37.42-4.909 56.123s24.929 32.142 44.089 35.072c.203.031.405.046.605.046 1.297 0 2.529-.632 3.284-1.717 11.063-15.915 12.944-37.421 4.909-56.124-8.037-18.704-24.931-32.143-44.089-35.071zm-1.447 54.636c-6.601-15.362-5.512-32.85 2.736-46.273 15.415 3.256 28.848 14.504 35.449 29.867 6.6 15.362 5.512 32.85-2.736 46.273-15.415-3.258-28.849-14.505-35.449-29.867z" display="inline"/><path d="m86.114 365.665c7.508-18.922 5.024-40.365-6.482-55.963-.907-1.228-2.432-1.831-3.934-1.561-19.071 3.468-35.581 17.376-43.087 36.297-7.507 18.924-5.022 40.367 6.484 55.964.762 1.032 1.962 1.625 3.218 1.625.238 0 .477-.021.716-.064 19.071-3.469 35.58-17.377 43.085-36.298zm-42.031 27.902c-8.623-13.186-10.202-30.636-4.036-46.18 6.165-15.54 19.278-27.161 34.596-30.851 8.623 13.187 10.202 30.636 4.035 46.178-6.165 15.542-19.277 27.163-34.595 30.853z" display="inline"/></g><g id="Outline_Blue" display="none" fill="#09176b"><path d="m354.873 20.51c-19.158 2.928-36.052 16.367-44.089 35.071-8.035 18.703-6.154 40.209 4.909 56.124.754 1.085 1.987 1.717 3.284 1.717.201 0 .403-.015.605-.046 19.16-2.931 36.054-16.369 44.089-35.072 8.036-18.703 6.155-40.209-4.909-56.123-.871-1.252-2.375-1.903-3.889-1.671zm-34.002 84.503c-8.248-13.424-9.336-30.911-2.736-46.273 6.601-15.363 20.035-26.611 35.449-29.867 8.248 13.424 9.337 30.911 2.736 46.273-6.6 15.362-20.034 26.609-35.449 29.867z" display="inline"/><path d="m462.994 238.033c-1.085-.058-2.185-.086-3.267-.086-18.965 0-36.484 8.711-47.101 23.328-10.728-2.725-22.326-4.281-34.715-4.281-4.223 0-8.506.184-12.812.549 18.491-19.557 40.155-34.848 55.694-44.544 5.486 1.688 11.275 2.581 17.152 2.581h.003c7.15 0 14.238-1.277 21.063-3.796 19.098-7.043 33.403-23.209 37.333-42.19.31-1.494-.259-3.035-1.465-3.971-9.669-7.504-22.001-11.636-34.725-11.636-7.151 0-14.238 1.276-21.064 3.794-19.099 7.045-33.404 23.213-37.333 42.193-.005.023-.005.046-.009.068-35.563 10.035-61.377 29.31-79.981 46.81 12.576-44.354 54.046-79.233 80.888-89.869 1.724-.684 2.752-2.462 2.484-4.297s-1.762-3.245-3.61-3.406c-.109-.01-.218-.013-.327-.021 8.76-2.679 16.926-7.434 23.869-14.022 14.766-14.011 21.527-34.512 17.645-53.501-.306-1.496-1.436-2.687-2.913-3.07-4.418-1.148-9.017-1.729-13.668-1.729-14.99 0-29.439 5.876-40.686 16.547-14.767 14.013-21.528 34.514-17.645 53.504.306 1.495 1.436 2.687 2.914 3.07.863.225 1.739.408 2.615.59-35.764 6.929-58.139 32.729-68.538 50.626-7.294-50.811-5.829-64.507 13.887-79.254 1.379-1.032 1.943-2.831 1.399-4.466-.543-1.635-2.073-2.737-3.795-2.737-15.569 0-28.367 9.981-37.011 28.865-2.936 6.413-5.329 13.775-7.1 21.67-4.92-32.956-10.059-58.933-11.714-67.052 15.064-10.551 24.317-28.698 24.317-48.066 0-20.357-10.217-39.374-26.664-49.627-1.296-.807-2.937-.807-4.232 0-16.447 10.253-26.664 29.27-26.664 49.627 0 19.368 9.253 37.516 24.317 48.066-1.655 8.119-6.794 34.096-11.714 67.052-1.771-7.895-4.164-15.257-7.1-21.67-8.644-18.884-21.441-28.865-37.011-28.865-1.723 0-3.252 1.103-3.795 2.737-.544 1.635.02 3.434 1.399 4.466 19.716 14.747 21.182 28.443 13.887 79.254-10.398-17.896-32.774-43.697-68.538-50.627.876-.181 1.752-.364 2.615-.589 1.478-.384 2.608-1.575 2.914-3.07 3.883-18.99-2.878-39.491-17.646-53.504-11.246-10.671-25.695-16.547-40.685-16.547-4.651 0-9.25.581-13.668 1.729-1.477.384-2.607 1.574-2.913 3.07-3.882 18.989 2.879 39.49 17.645 53.501 6.943 6.59 15.109 11.344 23.869 14.022-.109.009-.218.012-.327.021-1.848.161-3.342 1.571-3.61 3.406s.76 3.613 2.484 4.297c26.842 10.636 68.312 45.515 80.888 89.869-18.604-17.5-44.419-36.774-79.981-46.81-.004-.022-.004-.045-.009-.068-3.929-18.98-18.234-35.148-37.333-42.193-6.826-2.518-13.913-3.794-21.064-3.794-12.724 0-25.056 4.132-34.725 11.636-1.206.936-1.774 2.477-1.464 3.971 3.93 18.981 18.235 35.147 37.332 42.19 6.827 2.519 13.915 3.796 21.067 3.796 5.877 0 11.667-.893 17.153-2.581 15.539 9.696 37.203 24.987 55.694 44.544-4.306-.365-8.588-.549-12.812-.549-12.389 0-23.987 1.557-34.715 4.281-10.617-14.617-28.136-23.328-47.101-23.328-1.083 0-2.182.028-3.267.086-20.329 1.067-38.784 12.266-48.161 29.227-.739 1.336-.652 2.976.222 4.227 8.816 12.616 22.718 20.961 38.313 23.371-15.78 15.673-24.501 33.142-24.707 45.96-.029 1.825 1.181 3.438 2.941 3.922s3.625-.287 4.531-1.872c19.166-33.522 55.029-54.347 93.596-54.347 59.407 0 107.738 48.332 107.738 107.739 0 38.567-20.824 74.431-54.345 93.596-1.355.775-2.136 2.269-1.999 3.824.137 1.556 1.167 2.889 2.637 3.415 27.648 9.89 56.66 14.905 86.23 14.905s58.582-5.015 86.229-14.904c1.471-.526 2.5-1.859 2.637-3.415s-.644-3.049-1.999-3.824c-33.521-19.165-54.345-55.028-54.345-93.596 0-59.407 48.331-107.739 107.738-107.739 38.567 0 74.431 20.824 93.596 54.347.906 1.585 2.769 2.357 4.531 1.872 1.761-.483 2.971-2.097 2.941-3.922-.207-12.818-8.927-30.287-24.708-45.961 15.594-2.411 29.498-10.756 38.313-23.371.874-1.251.96-2.891.222-4.227-9.375-16.961-27.83-28.16-48.161-29.227zm17.403 78.777c-8.554-9.032-18.482-16.59-29.343-22.435 2.918.592 5.9.98 8.926 1.139.506.027 1.015.025 1.524.04 7.891 6.815 14.258 14.134 18.893 21.256zm-199.875 79.451c0 38.55 19.367 74.586 51.067 95.993-24.372 7.798-49.76 11.746-75.589 11.746s-51.217-3.948-75.589-11.746c31.7-21.407 51.067-57.443 51.067-95.993 0-63.818-51.92-115.739-115.738-115.739-11.447 0-22.669 1.717-33.356 4.947 6.131-4.098 11.425-9.313 15.493-15.405 11.1-3.193 23.211-5.069 36.213-5.069 7.296 0 14.785.58 22.261 1.727 1.65.256 3.284-.545 4.098-2.003.814-1.457.638-3.267-.442-4.539-18.833-22.196-42.042-39.542-59.621-50.909 1.46-.75 2.885-1.561 4.267-2.438 42.258 11.007 70.638 35.738 89.426 55.034 1.209 1.242 3.082 1.564 4.637.797 1.555-.769 2.438-2.45 2.187-4.166-4.385-29.961-21.224-54.093-34.577-69.062-11.524-12.918-25.252-24.28-38.717-32.265 47.961 3.942 72.78 44.315 77.862 58.927.604 1.737 2.319 2.825 4.146 2.669 1.832-.17 3.311-1.565 3.587-3.384 7.389-48.768 9.892-71.207-3.068-88.242 18.267 11.992 25.257 46.398 25.257 71.032 0 2.114 1.646 3.864 3.757 3.992 2.098.142 3.958-1.407 4.213-3.507 4.014-32.837 9.159-62.71 12.64-81.385 3.48 18.675 8.626 48.548 12.64 81.385.256 2.099 2.1 3.647 4.213 3.507 2.111-.128 3.757-1.878 3.757-3.992 0-24.634 6.99-59.04 25.257-71.032-12.96 17.035-10.457 39.475-3.068 88.242.276 1.818 1.755 3.214 3.587 3.384 1.837.155 3.542-.932 4.146-2.669 5.082-14.611 29.901-54.984 77.862-58.927-13.465 7.984-27.192 19.347-38.717 32.265-13.354 14.969-30.192 39.101-34.577 69.062-.251 1.716.632 3.397 2.187 4.166 1.555.768 3.427.445 4.637-.797 18.788-19.296 47.168-44.027 89.426-55.034 1.382.876 2.807 1.688 4.267 2.438-17.58 11.367-40.788 28.713-59.622 50.909-1.08 1.272-1.256 3.082-.442 4.539.814 1.458 2.448 2.26 4.098 2.003 7.476-1.146 14.965-1.727 22.261-1.727 13.002 0 25.114 1.876 36.213 5.069 4.068 6.093 9.362 11.308 15.493 15.405-10.687-3.23-21.909-4.947-33.356-4.947-63.823-.001-115.743 51.92-115.743 115.739zm-248.919-79.451c4.635-7.121 11.002-14.44 18.893-21.256.509-.015 1.018-.013 1.524-.04 3.025-.158 6.008-.547 8.926-1.139-10.861 5.845-20.789 13.402-29.343 22.435zm20.67-70.863c15.803 0 30.42 6.928 39.619 18.655-8.39 13.338-23.592 22.048-40.291 22.923-.946.049-1.905.074-2.848.074-15.803 0-30.42-6.928-39.619-18.654 8.388-13.336 23.59-22.047 40.291-22.924.947-.048 1.905-.074 2.848-.074zm-.428-83.96c6.204 0 12.359 1.11 18.295 3.3 15.687 5.786 27.623 18.613 31.682 33.837-7.938 5.469-17.698 8.456-27.768 8.456-6.204 0-12.36-1.11-18.298-3.302-15.686-5.784-27.621-18.61-31.682-33.835 7.937-5.468 17.699-8.456 27.771-8.456zm204.155-153.189c12.877 9.076 20.78 24.714 20.78 41.435 0 16.72-7.903 32.357-20.78 41.435-12.877-9.077-20.78-24.715-20.78-41.435 0-16.721 7.903-32.359 20.78-41.435zm154.178 190.326c4.06-15.224 15.995-28.051 31.682-33.837 5.937-2.189 12.092-3.3 18.295-3.3 10.071 0 19.833 2.987 27.771 8.457-4.061 15.224-15.996 28.05-31.683 33.834-5.937 2.191-12.092 3.302-18.294 3.302 0 0-.002 0-.003 0-10.071-.001-19.832-2.988-27.768-8.456zm53.069 88.476c-.943 0-1.902-.025-2.849-.074-16.699-.875-31.901-9.585-40.291-22.923 9.199-11.728 23.816-18.655 39.619-18.655.943 0 1.902.025 2.848.074 16.7.877 31.902 9.588 40.291 22.924-9.198 11.726-23.816 18.654-39.618 18.654zm-27.93-201.761c2.28 15.59-3.623 32.087-15.752 43.595-9.751 9.255-22.243 14.352-35.175 14.352-.001 0-.002 0-.003 0-3.11 0-6.188-.304-9.182-.903-2.28-15.59 3.623-32.087 15.751-43.597 9.753-9.254 22.247-14.35 35.179-14.35 3.11 0 6.188.302 9.182.903zm-358.634 0c2.994-.601 6.072-.903 9.181-.903 12.932 0 25.426 5.096 35.179 14.35 12.129 11.51 18.032 28.007 15.752 43.597-2.995.601-6.073.903-9.182.903-12.934 0-25.426-5.097-35.178-14.352-12.129-11.508-18.032-28.005-15.752-43.595z" display="inline"/><path d="m436.302 308.142c-1.5-.269-3.028.333-3.934 1.561-11.507 15.598-13.991 37.041-6.483 55.962 7.506 18.922 24.015 32.83 43.085 36.299.239.043.479.064.716.064 1.255 0 2.456-.593 3.218-1.625 11.507-15.597 13.992-37.04 6.484-55.964-7.505-18.921-24.014-32.83-43.086-36.297zm-2.981 54.572c-6.167-15.541-4.587-32.99 4.035-46.177 15.318 3.689 28.431 15.311 34.596 30.851 6.167 15.544 4.587 32.994-4.036 46.18-15.317-3.691-28.429-15.312-34.595-30.854z" display="inline"/><path d="m157.127 20.51c-1.51-.231-3.017.418-3.889 1.671-11.063 15.914-12.944 37.42-4.909 56.123s24.929 32.142 44.089 35.072c.203.031.405.046.605.046 1.297 0 2.529-.632 3.284-1.717 11.063-15.915 12.944-37.421 4.909-56.124-8.037-18.704-24.931-32.143-44.089-35.071zm-1.447 54.636c-6.601-15.362-5.512-32.85 2.736-46.273 15.415 3.256 28.848 14.504 35.449 29.867 6.6 15.362 5.512 32.85-2.736 46.273-15.415-3.258-28.849-14.505-35.449-29.867z" display="inline"/><path d="m86.114 365.665c7.508-18.922 5.024-40.365-6.482-55.963-.907-1.228-2.432-1.831-3.934-1.561-19.071 3.468-35.581 17.376-43.087 36.297-7.507 18.924-5.022 40.367 6.484 55.964.762 1.032 1.962 1.625 3.218 1.625.238 0 .477-.021.716-.064 19.071-3.469 35.58-17.377 43.085-36.298zm-42.031 27.902c-8.623-13.186-10.202-30.636-4.036-46.18 6.165-15.54 19.278-27.161 34.596-30.851 8.623 13.187 10.202 30.636 4.035 46.178-6.165 15.542-19.277 27.163-34.595 30.853z" display="inline"/></g><g id="Gradient" display="none"><path d="m354.873 20.51c-19.158 2.928-36.052 16.367-44.089 35.071-8.035 18.703-6.154 40.209 4.909 56.124.754 1.085 1.987 1.717 3.284 1.717.201 0 .403-.015.605-.046 19.16-2.931 36.054-16.369 44.089-35.072 8.036-18.703 6.155-40.209-4.909-56.123-.871-1.252-2.375-1.903-3.889-1.671zm-34.002 84.503c-8.248-13.424-9.336-30.911-2.736-46.273 6.601-15.363 20.035-26.611 35.449-29.867 8.248 13.424 9.337 30.911 2.736 46.273-6.6 15.362-20.034 26.609-35.449 29.867zm142.123 133.02c-1.085-.058-2.185-.086-3.267-.086-18.965 0-36.484 8.711-47.101 23.328-10.728-2.725-22.326-4.281-34.715-4.281-4.223 0-8.506.184-12.812.549 18.491-19.557 40.155-34.848 55.694-44.544 5.486 1.688 11.275 2.581 17.152 2.581h.003c7.15 0 14.238-1.277 21.063-3.796 19.098-7.043 33.403-23.209 37.333-42.19.31-1.494-.259-3.035-1.465-3.971-9.669-7.504-22.001-11.636-34.725-11.636-7.151 0-14.238 1.276-21.064 3.794-19.099 7.045-33.404 23.213-37.333 42.193-.005.023-.005.046-.009.068-35.563 10.035-61.377 29.31-79.981 46.81 12.576-44.354 54.046-79.233 80.888-89.869 1.724-.684 2.752-2.462 2.484-4.297s-1.762-3.245-3.61-3.406c-.109-.01-.218-.013-.327-.021 8.76-2.679 16.926-7.434 23.869-14.022 14.766-14.011 21.527-34.512 17.645-53.501-.306-1.496-1.436-2.687-2.913-3.07-4.418-1.148-9.017-1.729-13.668-1.729-14.99 0-29.439 5.876-40.686 16.547-14.767 14.013-21.528 34.514-17.645 53.504.306 1.495 1.436 2.687 2.914 3.07.863.225 1.739.408 2.615.59-35.764 6.929-58.139 32.729-68.538 50.626-7.294-50.811-5.829-64.507 13.887-79.254 1.379-1.032 1.943-2.831 1.399-4.466-.543-1.635-2.073-2.737-3.795-2.737-15.569 0-28.367 9.981-37.011 28.865-2.936 6.413-5.329 13.775-7.1 21.67-4.92-32.956-10.059-58.933-11.714-67.052 15.064-10.551 24.317-28.698 24.317-48.066 0-20.357-10.217-39.374-26.664-49.627-1.296-.807-2.937-.807-4.232 0-16.447 10.253-26.664 29.27-26.664 49.627 0 19.368 9.253 37.516 24.317 48.066-1.655 8.119-6.794 34.096-11.714 67.052-1.771-7.895-4.164-15.257-7.1-21.67-8.644-18.884-21.441-28.865-37.011-28.865-1.723 0-3.252 1.103-3.795 2.737-.544 1.635.02 3.434 1.399 4.466 19.716 14.747 21.182 28.443 13.887 79.254-10.398-17.896-32.774-43.697-68.538-50.627.876-.181 1.752-.364 2.615-.589 1.478-.384 2.608-1.575 2.914-3.07 3.883-18.99-2.878-39.491-17.646-53.504-11.246-10.671-25.695-16.547-40.685-16.547-4.651 0-9.25.581-13.668 1.729-1.477.384-2.607 1.574-2.913 3.07-3.882 18.989 2.879 39.49 17.645 53.501 6.943 6.59 15.109 11.344 23.869 14.022-.109.009-.218.012-.327.021-1.848.161-3.342 1.571-3.61 3.406s.76 3.613 2.484 4.297c26.842 10.636 68.312 45.515 80.888 89.869-18.604-17.5-44.419-36.774-79.981-46.81-.004-.022-.004-.045-.009-.068-3.929-18.98-18.234-35.148-37.333-42.193-6.826-2.518-13.913-3.794-21.064-3.794-12.724 0-25.056 4.132-34.725 11.636-1.206.936-1.774 2.477-1.464 3.971 3.93 18.981 18.235 35.147 37.332 42.19 6.827 2.519 13.915 3.796 21.067 3.796 5.877 0 11.667-.893 17.153-2.581 15.539 9.696 37.203 24.987 55.694 44.544-4.306-.365-8.588-.549-12.812-.549-12.389 0-23.987 1.557-34.715 4.281-10.617-14.617-28.136-23.328-47.101-23.328-1.083 0-2.182.028-3.267.086-20.329 1.067-38.784 12.266-48.161 29.227-.739 1.336-.652 2.976.222 4.227 8.816 12.616 22.718 20.961 38.313 23.371-15.78 15.673-24.501 33.142-24.707 45.96-.029 1.825 1.181 3.438 2.941 3.922s3.625-.287 4.531-1.872c19.166-33.522 55.029-54.347 93.596-54.347 59.407 0 107.738 48.332 107.738 107.739 0 38.567-20.824 74.431-54.345 93.596-1.355.775-2.136 2.269-1.999 3.824.137 1.556 1.167 2.889 2.637 3.415 27.648 9.89 56.66 14.905 86.23 14.905s58.582-5.015 86.229-14.904c1.471-.526 2.5-1.859 2.637-3.415s-.644-3.049-1.999-3.824c-33.521-19.165-54.345-55.028-54.345-93.596 0-59.407 48.331-107.739 107.738-107.739 38.567 0 74.431 20.824 93.596 54.347.906 1.585 2.769 2.357 4.531 1.872 1.761-.483 2.971-2.097 2.941-3.922-.207-12.818-8.927-30.287-24.708-45.961 15.594-2.411 29.498-10.756 38.313-23.371.874-1.251.96-2.891.222-4.227-9.375-16.961-27.83-28.16-48.161-29.227zm17.403 78.777c-8.554-9.032-18.482-16.59-29.343-22.435 2.918.592 5.9.98 8.926 1.139.506.027 1.015.025 1.524.04 7.891 6.815 14.258 14.134 18.893 21.256zm-199.875 79.451c0 38.55 19.367 74.586 51.067 95.993-24.372 7.798-49.76 11.746-75.589 11.746s-51.217-3.948-75.589-11.746c31.7-21.407 51.067-57.443 51.067-95.993 0-63.818-51.92-115.739-115.738-115.739-11.447 0-22.669 1.717-33.356 4.947 6.131-4.098 11.425-9.313 15.493-15.405 11.1-3.193 23.211-5.069 36.213-5.069 7.296 0 14.785.58 22.261 1.727 1.65.256 3.284-.545 4.098-2.003.814-1.457.638-3.267-.442-4.539-18.833-22.196-42.042-39.542-59.621-50.909 1.46-.75 2.885-1.561 4.267-2.438 42.258 11.007 70.638 35.738 89.426 55.034 1.209 1.242 3.082 1.564 4.637.797 1.555-.769 2.438-2.45 2.187-4.166-4.385-29.961-21.224-54.093-34.577-69.062-11.524-12.918-25.252-24.28-38.717-32.265 47.961 3.942 72.78 44.315 77.862 58.927.604 1.737 2.319 2.825 4.146 2.669 1.832-.17 3.311-1.565 3.587-3.384 7.389-48.768 9.892-71.207-3.068-88.242 18.267 11.992 25.257 46.398 25.257 71.032 0 2.114 1.646 3.864 3.757 3.992 2.098.142 3.958-1.407 4.213-3.507 4.014-32.837 9.159-62.71 12.64-81.385 3.48 18.675 8.626 48.548 12.64 81.385.256 2.099 2.1 3.647 4.213 3.507 2.111-.128 3.757-1.878 3.757-3.992 0-24.634 6.99-59.04 25.257-71.032-12.96 17.035-10.457 39.475-3.068 88.242.276 1.818 1.755 3.214 3.587 3.384 1.837.155 3.542-.932 4.146-2.669 5.082-14.611 29.901-54.984 77.862-58.927-13.465 7.984-27.192 19.347-38.717 32.265-13.354 14.969-30.192 39.101-34.577 69.062-.251 1.716.632 3.397 2.187 4.166 1.555.768 3.427.445 4.637-.797 18.788-19.296 47.168-44.027 89.426-55.034 1.382.876 2.807 1.688 4.267 2.438-17.58 11.367-40.788 28.713-59.622 50.909-1.08 1.272-1.256 3.082-.442 4.539.814 1.458 2.448 2.26 4.098 2.003 7.476-1.146 14.965-1.727 22.261-1.727 13.002 0 25.114 1.876 36.213 5.069 4.068 6.093 9.362 11.308 15.493 15.405-10.687-3.23-21.909-4.947-33.356-4.947-63.823-.001-115.743 51.92-115.743 115.739zm-248.919-79.451c4.635-7.121 11.002-14.44 18.893-21.256.509-.015 1.018-.013 1.524-.04 3.025-.158 6.008-.547 8.926-1.139-10.861 5.845-20.789 13.402-29.343 22.435zm20.67-70.863c15.803 0 30.42 6.928 39.619 18.655-8.39 13.338-23.592 22.048-40.291 22.923-.946.049-1.905.074-2.848.074-15.803 0-30.42-6.928-39.619-18.654 8.388-13.336 23.59-22.047 40.291-22.924.947-.048 1.905-.074 2.848-.074zm-.428-83.96c6.204 0 12.359 1.11 18.295 3.3 15.687 5.786 27.623 18.613 31.682 33.837-7.938 5.469-17.698 8.456-27.768 8.456-6.204 0-12.36-1.11-18.298-3.302-15.686-5.784-27.621-18.61-31.682-33.835 7.937-5.468 17.699-8.456 27.771-8.456zm204.155-153.189c12.877 9.076 20.78 24.714 20.78 41.435 0 16.72-7.903 32.357-20.78 41.435-12.877-9.077-20.78-24.715-20.78-41.435 0-16.721 7.903-32.359 20.78-41.435zm154.178 190.326c4.06-15.224 15.995-28.051 31.682-33.837 5.937-2.189 12.092-3.3 18.295-3.3 10.071 0 19.833 2.987 27.771 8.457-4.061 15.224-15.996 28.05-31.683 33.834-5.937 2.191-12.092 3.302-18.294 3.302 0 0-.002 0-.003 0-10.071-.001-19.832-2.988-27.768-8.456zm53.069 88.476c-.943 0-1.902-.025-2.849-.074-16.699-.875-31.901-9.585-40.291-22.923 9.199-11.728 23.816-18.655 39.619-18.655.943 0 1.902.025 2.848.074 16.7.877 31.902 9.588 40.291 22.924-9.198 11.726-23.816 18.654-39.618 18.654zm-27.93-201.761c2.28 15.59-3.623 32.087-15.752 43.595-9.751 9.255-22.243 14.352-35.175 14.352-.001 0-.002 0-.003 0-3.11 0-6.188-.304-9.182-.903-2.28-15.59 3.623-32.087 15.751-43.597 9.753-9.254 22.247-14.35 35.179-14.35 3.11 0 6.188.302 9.182.903zm-358.634 0c2.994-.601 6.072-.903 9.181-.903 12.932 0 25.426 5.096 35.179 14.35 12.129 11.51 18.032 28.007 15.752 43.597-2.995.601-6.073.903-9.182.903-12.934 0-25.426-5.097-35.178-14.352-12.129-11.508-18.032-28.005-15.752-43.595zm359.619 222.303c-1.5-.269-3.028.333-3.934 1.561-11.507 15.598-13.991 37.041-6.483 55.962 7.506 18.922 24.015 32.83 43.085 36.299.239.043.479.064.716.064 1.255 0 2.456-.593 3.218-1.625 11.507-15.597 13.992-37.04 6.484-55.964-7.505-18.921-24.014-32.83-43.086-36.297zm-2.981 54.572c-6.167-15.541-4.587-32.99 4.035-46.177 15.318 3.689 28.431 15.311 34.596 30.851 6.167 15.544 4.587 32.994-4.036 46.18-15.317-3.691-28.429-15.312-34.595-30.854zm-276.194-342.204c-1.51-.231-3.017.418-3.889 1.671-11.063 15.914-12.944 37.42-4.909 56.123s24.929 32.142 44.089 35.072c.203.031.405.046.605.046 1.297 0 2.529-.632 3.284-1.717 11.063-15.915 12.944-37.421 4.909-56.124-8.037-18.704-24.931-32.143-44.089-35.071zm-1.447 54.636c-6.601-15.362-5.512-32.85 2.736-46.273 15.415 3.256 28.848 14.504 35.449 29.867 6.6 15.362 5.512 32.85-2.736 46.273-15.415-3.258-28.849-14.505-35.449-29.867zm-69.566 290.519c7.508-18.922 5.024-40.365-6.482-55.963-.907-1.228-2.432-1.831-3.934-1.561-19.071 3.468-35.581 17.376-43.087 36.297-7.507 18.924-5.022 40.367 6.484 55.964.762 1.032 1.962 1.625 3.218 1.625.238 0 .477-.021.716-.064 19.071-3.469 35.58-17.377 43.085-36.298zm-42.031 27.902c-8.623-13.186-10.202-30.636-4.036-46.18 6.165-15.54 19.278-27.161 34.596-30.851 8.623 13.187 10.202 30.636 4.035 46.178-6.165 15.542-19.277 27.163-34.595 30.853z" display="inline" fill="url(#SVGID_2_)"/></g></svg>