<svg height="200" viewBox="0 0 1024 1024" width="200" xmlns="http://www.w3.org/2000/svg" t="1696664737538" p-id="7504"><path d="m170.666667 885.333333a341.333333 53.333333 0 1 0 682.666666 0 341.333333 53.333333 0 1 0 -682.666666 0z" fill="#e2a305" p-id="7505"/><path d="m256 469.333333c0 47.146667-38.186667 85.333333-85.333333 85.333334s-85.333333-38.186667-85.333334-85.333334 38.186667-85.333333 85.333334-85.333333 85.333333 38.186667 85.333333 85.333333m341.717333 0c0 47.146667-38.186667 85.333333-85.333333 85.333334s-85.333333-38.186667-85.333333-85.333334 38.186667-85.333333 85.333333-85.333333 85.333333 38.186667 85.333333 85.333333m340.949334 0c0 47.146667-38.186667 85.333333-85.333334 85.333334s-85.333333-38.186667-85.333333-85.333334 38.186667-85.333333 85.333333-85.333333 85.333333 38.186667 85.333334 85.333333" fill="#2e7d32" p-id="7506"/><path d="m768 469.333333c0 47.146667-38.186667 85.333333-85.333333 85.333334s-85.333333-38.186667-85.333334-85.333334 38.186667-85.333333 85.333334-85.333333 85.333333 38.186667 85.333333 85.333333m-340.949333 0c0-47.146667-38.186667-85.333333-85.333334-85.333333s-85.333333 38.186667-85.333333 85.333333 38.186667 85.333333 85.333333 85.333334 85.333333-38.186667 85.333334-85.333334" fill="#ffa000" p-id="7507"/><path d="m512 127.893333s-1.536.106667-4.224.106667c-401.109333 0-422.442667 341.333333-422.442667 341.333333h853.333334s-21.333334-341.44-426.666667-341.44z" fill="#4caf50" p-id="7508"/><path d="m512.384 127.893333s-85.333333 85.44-85.333333 341.44h-170.666667s-21.333333-256.106667 256-341.44z" fill="#fdd835" p-id="7509"/><path d="m512 127.893333s85.333333 85.44 85.333333 341.44h170.666667s21.333333-256.106666-256-341.44z" fill="#fdd835" p-id="7510"/><path d="m533.333333 128c0 11.797333-42.666667 11.797333-42.666666 0v-21.333333a21.333333 21.333333 0 1 1 42.666666 0zm-21.333333 426.666667c-7.424 0-14.485333-1.258667-21.333333-3.029334v301.696s0 21.333333 21.333333 21.333334 21.333333-21.333333 21.333333-21.333334v-301.696a84.714667 84.714667 0 0 1 -21.333333 3.029334z" fill="#455a64" p-id="7511"/></svg>