<svg clip-rule="evenodd" fill-rule="evenodd" stroke-linejoin="round" stroke-miterlimit="2" viewBox="0 0 510 510" xmlns="http://www.w3.org/2000/svg"><g><g><g><path d="m479.239 294.757c-47.254 0-70.981 57.261-37.56 90.682 6.152 6.151 6.152 16.158 0 22.309l-33.931 33.931c-6.151 6.152-16.158 6.152-22.309 0-33.421-33.421-90.682-9.694-90.682 37.56 0 8.731-7.059 15.761-15.761 15.761h-47.992c-8.702 0-15.761-7.03-15.761-15.761 0-47.311-57.232-71.009-90.682-37.56-6.151 6.152-16.129 6.152-22.281 0l-33.959-33.931c-6.152-6.151-6.152-16.158 0-22.309 33.421-33.421 9.723-90.682-37.56-90.682-8.703 0-15.761-7.059-15.761-15.761v-47.992c0-8.702 7.058-15.761 15.761-15.761 47.283 0 70.981-57.261 37.56-90.682-6.152-6.151-6.152-16.129 0-22.281l33.959-33.959c6.152-6.152 16.13-6.152 22.281 0 33.421 33.421 90.682 9.723 90.682-37.56 0-8.703 7.059-15.761 15.761-15.761h47.992c8.702 0 15.761 7.058 15.761 15.761 0 47.283 57.261 70.981 90.682 37.56 6.151-6.152 16.158-6.152 22.309 0l33.931 33.959c6.152 6.152 6.152 16.13 0 22.281-33.421 33.421-9.694 90.682 37.56 90.682 8.731 0 15.761 7.059 15.761 15.761v47.992c0 8.702-7.03 15.761-15.761 15.761z" fill="#a9b0bb"/><path d="m255.014 398.621c79.075 0 143.607-64.532 143.607-143.607 0-79.11-64.532-143.606-143.607-143.606-79.11 0-143.606 64.496-143.606 143.606 0 79.075 64.496 143.607 143.606 143.607z" fill="#e4e8eb"/></g><path d="m334.307 194.808c.304-2.303-1.018-4.513-3.191-5.333-2.173-.821-4.625-.037-5.919 1.893-12.575 18.756-31.634 47.182-39.431 58.813-.851 1.268-1.075 2.855-.609 4.309.465 1.454 1.57 2.616 2.998 3.154 7.895 2.975 21.718 8.183 28.796 10.85 2.494.94 3.813 3.672 2.997 6.209-2.365 7.356-7.208 22.425-11.517 35.828-.738 2.297.269 4.793 2.394 5.935s4.762.603 6.27-1.28c14.832-18.532 35.272-44.072 43.723-54.63.948-1.185 1.307-2.736.976-4.216-.332-1.481-1.317-2.731-2.68-3.399-7.654-3.75-21.133-10.355-27.287-13.37-1.929-.945-3.038-3.016-2.757-5.146.986-7.456 3.332-25.205 5.237-39.617z" fill="#f5b945"/><g><path d="m234.169 262.881c3.988-31.013-3.972-57.861-30.46-79.823-2.346 16.37-4.929 31.268-17.267 46.167-3.421-6.102-6.521-8.558-14.515-11.652-6.766 17.839-13.998 27.571-17.419 47.254-5.589 32.246 9.84 61.695 45.153 62.137 45.28.569 65.586-38.11 50.31-77.673-6.191 7.173-8.638 9.443-15.802 13.59z" fill="#fdcd56"/><path d="m206.241 258.02c-5.75 8.252-14.608 13.53-17.242 24.757-2.422 10.284 3.515 20.899 14.439 21.044 14.006.187 20.925-12.749 13.413-24.146-4.767-7.241-6.766-10.462-10.61-21.655z" fill="#f5b945"/></g></g><path d="m479.239 301.757c-41.027 0-61.627 49.715-32.61 78.732 8.881 8.881 8.881 23.328 0 32.209l-33.931 33.931c-8.881 8.881-23.328 8.881-32.209 0-29.017-29.017-78.732-8.417-78.732 32.61 0 12.609-10.194 22.761-22.761 22.761h-47.992c-12.567 0-22.761-10.152-22.761-22.761 0-41.077-49.69-61.652-78.732-32.61-8.884 8.884-23.296 8.884-32.178.002l-33.962-33.933c-8.881-8.881-8.881-23.328 0-32.209 29.017-29.017 8.442-78.732-32.61-78.732-12.568 0-22.761-10.194-22.761-22.761v-47.992c0-12.567 10.193-22.761 22.761-22.761 41.052 0 61.627-49.715 32.61-78.732-8.884-8.884-8.884-23.296 0-32.18l33.96-33.96c8.884-8.884 23.296-8.884 32.18 0 29.017 29.017 78.732 8.442 78.732-32.61 0-12.568 10.194-22.761 22.761-22.761h47.992c12.567 0 22.761 10.193 22.761 22.761 0 41.052 49.715 61.627 78.732 32.61 8.881-8.881 23.328-8.881 32.209 0l33.931 33.96c8.884 8.884 8.884 23.296 0 32.18-29.017 29.017-8.417 78.732 32.61 78.732 12.609 0 22.761 10.194 22.761 22.761v47.992c0 12.567-10.152 22.761-22.761 22.761zm0-14c4.853 0 8.761-3.924 8.761-8.761v-47.992c0-4.837-3.908-8.761-8.761-8.761-53.481 0-80.335-64.806-42.509-102.632 3.418-3.418 3.418-8.963 0-12.381l-33.932-33.96c-3.422-3.421-8.988-3.421-12.409 0-37.826 37.826-102.632 11.005-102.632-42.509 0-4.837-3.924-8.761-8.761-8.761h-47.992c-4.837 0-8.761 3.924-8.761 8.761 0 53.514-64.806 80.335-102.632 42.509-3.418-3.418-8.963-3.418-12.381 0l-33.96 33.96c-3.418 3.418-3.418 8.963 0 12.381 37.826 37.826 11.005 102.632-42.509 102.632-4.837 0-8.761 3.924-8.761 8.761v47.992c0 4.837 3.924 8.761 8.761 8.761 53.514 0 80.335 64.806 42.509 102.632-3.421 3.421-3.421 8.987 0 12.409l33.96 33.932c3.418 3.418 8.963 3.418 12.381 0 37.858-37.858 102.632-11.037 102.632 42.509 0 4.853 3.924 8.761 8.761 8.761h47.992c4.837 0 8.761-3.908 8.761-8.761 0-53.481 64.806-80.335 102.632-42.509 3.421 3.421 8.987 3.421 12.409 0l33.932-33.932c3.421-3.422 3.421-8.988 0-12.409-37.826-37.826-10.972-102.632 42.509-102.632zm-224.225 117.864c-82.967 0-150.606-67.677-150.606-150.607 0-82.967 67.639-150.606 150.606-150.606 82.93 0 150.607 67.639 150.607 150.606 0 82.93-67.677 150.607-150.607 150.607zm0-14c75.221 0 136.607-61.386 136.607-136.607 0-75.254-61.386-136.606-136.607-136.606-75.254 0-136.606 61.352-136.606 136.606 0 75.221 61.352 136.607 136.606 136.607zm89.036-217.105-7.852 59.401 31.597 15.483c1.908.935 3.288 2.685 3.751 4.758.464 2.072-.038 4.244-1.365 5.902l-64.601 80.715c-2.11 2.637-5.803 3.391-8.778 1.792-2.975-1.598-4.385-5.093-3.351-8.308l19.25-59.885-32.916-12.404c-2-.753-3.547-2.38-4.199-4.415-.651-2.036-.338-4.258.853-6.033l54.857-81.821c1.811-2.701 5.244-3.799 8.287-2.651 3.043 1.149 4.893 4.242 4.467 7.466zm-17.804 27.858-33.261 49.609 30.888 11.639c3.492 1.316 5.338 5.14 4.195 8.693l-9.646 30.01s35.372-44.195 35.372-44.195l-28.275-13.855c-2.7-1.323-4.254-4.222-3.86-7.203zm-84.094 45.213c.769-.854 1.597-1.801 2.519-2.869 1.607-1.862 4.073-2.744 6.496-2.324s4.448 2.082 5.334 4.376c8.512 22.045 6.845 43.831-2.992 60.039-9.973 16.432-28.358 27.476-53.936 27.154-16.259-.203-28.798-5.898-37.65-14.855-12.985-13.14-18.087-33.696-14.312-55.476v-.003c3.512-20.202 10.827-30.229 17.771-48.538.661-1.744 1.991-3.152 3.694-3.911 1.703-.76 3.639-.808 5.378-.135 5.381 2.082 8.962 3.975 11.788 6.466 6.96-11.395 8.752-22.985 10.537-35.446.36-2.508 2.047-4.626 4.411-5.538 2.364-.911 5.036-.475 6.986 1.143 23.868 19.788 33.841 43.235 33.976 69.917zm-14.926 14.401c3.161-24.578-1.776-46.336-18.761-64.815-2.533 12.611-6.715 24.542-16.632 36.517-1.472 1.777-3.725 2.715-6.023 2.507-2.298-.209-4.346-1.536-5.474-3.549-1.412-2.517-2.784-4.159-4.738-5.515-5.697 13.218-11.343 22.493-14.193 38.891-2.932 16.915.392 33.038 10.476 43.243 6.528 6.606 15.876 10.547 27.868 10.697 19.702.248 34.11-7.762 41.791-20.419 6.172-10.169 8-23.114 5.166-36.733-2.492 2.127-5.138 3.874-9.03 6.127-2.305 1.334-5.167 1.245-7.384-.229-2.217-1.475-3.406-4.081-3.066-6.722zm-14.365-6.242c3.565 10.378 5.416 13.366 9.835 20.077 5.402 8.196 5.311 16.968 1.656 23.635-3.641 6.638-10.977 11.496-21.007 11.362-15.591-.206-24.615-14.968-21.16-29.645 1.604-6.835 5.01-11.911 8.982-16.483 3.1-3.567 6.599-6.754 9.33-10.674 1.507-2.163 4.102-3.296 6.712-2.931 2.611.365 4.796 2.166 5.652 4.659zm-8.919 15.688c-.118.127-.236.254-.354.382-3.26 3.529-6.501 7.132-7.774 12.56l-.001.006c-1.389 5.899 1.451 12.357 7.718 12.44 3.979.053 7.101-1.462 8.545-4.095 1.429-2.606 1.042-5.996-1.069-9.2l-.002-.002c-3.066-4.657-5.065-7.764-7.063-12.091z"/></g></svg>