<svg id="Layer_3" height="512" viewBox="0 0 64 64" width="512" xmlns="http://www.w3.org/2000/svg" data-name="Layer 3"><path d="m2 42h60v10h-60z" fill="#694d43"/><path d="m2 42v6h51a3 3 0 0 0 3-3v-3z" fill="#74574a"/><path d="m36.336 19.042a4.608 4.608 0 0 1 -3.769 6.932c-.187.017-.376.026-.567.026s-.38-.009-.567-.026a4.608 4.608 0 0 1 -3.769-6.932l4.336-7.042z" fill="#4596ec"/><path d="m46.29 26.329a3.556 3.556 0 0 1 -2.758 5.644 5.255 5.255 0 0 1 -1.064 0 3.556 3.556 0 0 1 -2.758-5.644l3.29-4.329z" fill="#4596ec"/><path d="m32 12-4.336 7.042a4.37 4.37 0 0 0 -.341 3.958h3.677a3 3 0 0 0 3-3v-4.752z" fill="#6aabf0"/><path d="m43 22-3.29 4.329a3.358 3.358 0 0 0 -.3 3.671h3.59a2 2 0 0 0 2-2v-3.369z" fill="#6aabf0"/><path d="m24.29 26.329a3.556 3.556 0 0 1 -2.758 5.644 5.255 5.255 0 0 1 -1.064 0 3.556 3.556 0 0 1 -2.758-5.644l3.29-4.329z" fill="#4596ec"/><path d="m21 22-3.29 4.329a3.358 3.358 0 0 0 -.3 3.671h3.59a2 2 0 0 0 2-2v-3.369z" fill="#6aabf0"/><path d="m62 41h-25.606l19.12-9.177-.484 1.934 1.94.486 1-4a1 1 0 0 0 -.727-1.213l-4-1-.486 1.941 1.314.329-22.071 10.591-24.567-11.791-.866 1.8 21.039 10.1h-25.606a1 1 0 0 0 -1 1v10a1 1 0 0 0 1 1h60a1 1 0 0 0 1-1v-10a1 1 0 0 0 -1-1zm-59 10v-4h11v-2h-11v-2h58v4h-10v2h10v2z"/><path d="m22 46h20v2h-20z"/><path d="m31.343 26.97c.216.02.434.03.657.03s.441-.01.657-.03a5.845 5.845 0 0 0 4.76-3.172 5.4 5.4 0 0 0 -.23-5.28l-4.335-7.042a1.04 1.04 0 0 0 -1.7 0l-4.336 7.042a5.4 5.4 0 0 0 -.229 5.28 5.845 5.845 0 0 0 4.756 3.172zm-2.827-7.4 3.484-5.663 3.484 5.659a3.371 3.371 0 0 1 .145 3.338 3.865 3.865 0 0 1 -3.153 2.075 5.405 5.405 0 0 1 -.952 0 3.865 3.865 0 0 1 -3.153-2.079 3.371 3.371 0 0 1 .145-3.334z"/><path d="m42.368 32.968a6.263 6.263 0 0 0 .632.032 6.332 6.332 0 0 0 .634-.032 4.789 4.789 0 0 0 4-2.821 4.358 4.358 0 0 0 -.546-4.423l-3.288-4.324a1.035 1.035 0 0 0 -1.592 0l-3.29 4.329a4.358 4.358 0 0 0 -.546 4.423 4.79 4.79 0 0 0 3.996 2.816zm-1.862-6.034 2.494-3.282 2.494 3.282a2.352 2.352 0 0 1 .3 2.416 2.814 2.814 0 0 1 -2.365 1.628 4.376 4.376 0 0 1 -.864 0 2.817 2.817 0 0 1 -2.365-1.628 2.352 2.352 0 0 1 .306-2.416z"/><path d="m20.368 32.968a6.263 6.263 0 0 0 .632.032 6.332 6.332 0 0 0 .634-.032 4.789 4.789 0 0 0 4-2.821 4.358 4.358 0 0 0 -.546-4.423l-3.288-4.324a1.035 1.035 0 0 0 -1.592 0l-3.29 4.329a4.358 4.358 0 0 0 -.546 4.423 4.79 4.79 0 0 0 3.996 2.816zm-1.862-6.034 2.494-3.282 2.494 3.282a2.352 2.352 0 0 1 .3 2.416 2.814 2.814 0 0 1 -2.365 1.628 4.376 4.376 0 0 1 -.864 0 2.817 2.817 0 0 1 -2.365-1.628 2.352 2.352 0 0 1 .306-2.416z"/><path d="m42 15h2v2h-2z"/><path d="m22 15h2v2h-2z"/><path d="m31 29h2v2h-2z"/><path d="m27 32h2v2h-2z"/><path d="m35 33h2v2h-2z"/></svg>