<?xml version="1.0" encoding="iso-8859-1"?>
<!-- Generator: Adobe Illustrator 19.0.0, SVG Export Plug-In . SVG Version: 6.00 Build 0)  -->
<svg version="1.1" id="Capa_1" xmlns="http://www.w3.org/2000/svg" xmlns:xlink="http://www.w3.org/1999/xlink" x="0px" y="0px"
	 viewBox="0 0 511.999 511.999" style="enable-background:new 0 0 511.999 511.999;" xml:space="preserve">
<path style="fill:#C3C8D1;" d="M349.522,93.597c0,22.067,0,181.667,0,205.512h31.336c0-4.358,0-195.044,0-205.512H349.522z"/>
<path style="fill:#B4B9C1;" d="M349.522,93.597c0,22.067,0,181.667,0,205.512h20.001c0-4.358,0-195.044,0-205.512H349.522z"/>
<path style="fill:#C3C8D1;" d="M132.16,93.597c0,22.067,0,181.667,0,205.512h31.336c0-4.358,0-195.044,0-205.512H132.16z"/>
<path style="fill:#B4B9C1;" d="M132.16,93.597c0,22.067,0,181.667,0,205.512h20.001c0-4.358,0-195.044,0-205.512H132.16z"/>
<rect x="95.455" y="59.614" style="fill:#E4EAF8;" width="319.269" height="39.835"/>
<rect x="95.455" y="79.445" style="fill:#DAE0EA;" width="319.269" height="20"/>
<path style="fill:#707487;" d="M289.182,260.964h-67.326c-2.295,0-4.236-1.7-4.538-3.975l-7.34-55.304
	c-0.364-2.743,1.77-5.18,4.538-5.18h82.317c2.778,0,4.915,2.454,4.534,5.205l-7.651,55.304
	C293.403,259.278,291.467,260.964,289.182,260.964z"/>
<path style="fill:#626777;" d="M237.319,256.989l-7.34-55.304c-0.364-2.743,1.771-5.18,4.538-5.18h-20.001
	c-2.767,0-4.902,2.437-4.538,5.18l7.34,55.304c0.302,2.275,2.242,3.975,4.538,3.975h20.001
	C239.561,260.964,237.621,259.264,237.319,256.989z"/>
<path style="fill:#868B9B;" d="M305.19,204.004h-99.365c-4.142,0-7.5-3.357-7.5-7.5c0-4.143,3.358-7.5,7.5-7.5h99.365
	c4.142,0,7.5,3.357,7.5,7.5C312.69,200.647,309.332,204.004,305.19,204.004z"/>
<path style="fill:#DAE0EA;" d="M86.146,44.768h-5.262c-7.17,0-13.037,5.866-13.037,13.037v43.457c0,7.17,5.866,13.037,13.037,13.037
	h5.262c7.17,0,13.037-5.866,13.037-13.037V57.805C99.183,50.634,93.316,44.768,86.146,44.768z"/>
<path style="fill:#707487;" d="M430.494,7.321h-5.262c-7.17,0-13.037,5.866-13.037,13.037c0,11.301,0,105.027,0,118.348
	c0,7.17,5.866,13.037,13.037,13.037h5.262c7.17,0,13.037-5.866,13.037-13.037c0-11.301,0-105.027,0-118.348
	C443.53,13.188,437.664,7.321,430.494,7.321z"/>
<path style="fill:#C3C8D1;" d="M87.848,101.261V57.805c0-4.44,2.252-8.376,5.667-10.733c-2.1-1.449-4.638-2.304-7.369-2.304h-5.262
	c-7.17,0-13.037,5.866-13.037,13.037v43.457c0,7.17,5.866,13.037,13.037,13.037h5.262c2.73,0,5.269-0.855,7.369-2.304
	C90.1,109.637,87.848,105.7,87.848,101.261z"/>
<path style="fill:#626777;" d="M432.196,138.706c0-13.321,0-107.046,0-118.348c0-4.44,2.252-8.376,5.667-10.733
	c-2.1-1.449-4.639-2.304-7.369-2.304h-5.262c-7.17,0-13.037,5.866-13.037,13.037c0,11.301,0,105.027,0,118.348
	c0,7.17,5.866,13.037,13.037,13.037h5.262c2.73,0,5.269-0.855,7.369-2.304C434.448,147.082,432.196,143.147,432.196,138.706z"/>
<path style="fill:#966653;" d="M435.201,293.556c-7.443,0-348.57,0-358.108,0c-3.866,0-7,3.134-7,7c0,3.815,0,200.48,0,203.764
	c25.963,0,356.467,0,371.191,0c0-9.641,0-195.041,0-204.68C441.284,296.28,438.561,293.556,435.201,293.556z"/>
<path style="fill:#825646;" d="M97.094,293.556c-11.528,0-18.727,0-20.001,0c-3.866,0-7,3.134-7,7c0,3.815,0,200.48,0,203.764
	c2.975,0,9.96,0,20.001,0c0-3.283,0-199.948,0-203.764C90.094,296.69,93.228,293.556,97.094,293.556z"/>
<path d="M455.356,496.999h-6.441c0-1.98,0-195.194,0-197.181c0-7.489-6.094-13.584-13.584-13.584h-46.842v-65.181
	c0-4.143-3.357-7.5-7.5-7.5s-7.5,3.357-7.5,7.5v65.182h-16.336V107.129h16.336v78.922c0,4.142,3.357,7.5,7.5,7.5s7.5-3.358,7.5-7.5
	v-78.922h16.335v31.756c0,11.325,9.214,20.537,20.537,20.537h5.262c11.324,0,20.537-9.213,20.537-20.537V97.213
	c0-4.142-3.357-7.5-7.5-7.5c-4.143,0-7.5,3.358-7.5,7.5v41.673c0,3.053-2.483,5.536-5.536,5.536h-5.262
	c-3.053,0-5.536-2.483-5.536-5.536c0-54.429,0-63.975,0-118.348c0-3.053,2.483-5.536,5.536-5.536h5.262
	c3.053,0,5.536,2.483,5.536,5.536V62.21c0,4.142,3.357,7.5,7.5,7.5c4.143,0,7.5-3.358,7.5-7.5V20.537
	C451.161,9.213,441.947,0,430.624,0h-5.262c-11.324,0-20.537,9.213-20.537,20.537v31.756H263.319v-0.466c0-4.142-3.357-7.5-7.5-7.5
	c-4.143,0-7.5,3.358-7.5,7.5v0.466H105.994c-2.475-8.563-10.37-14.848-19.718-14.848h-5.262c-11.324,0-20.537,9.213-20.537,20.537
	v43.457c0,11.325,9.214,20.537,20.537,20.537h5.262c9.349,0,17.243-6.285,19.718-14.848h18.796v179.105H77.223
	c-7.995,0-14.501,6.505-14.501,14.501c0,26.342,0,194.756,0,196.264h-6.079c-4.143,0-7.5,3.357-7.5,7.5s3.357,7.5,7.5,7.5
	c18.391,0,379.212,0,398.713,0c4.143,0,7.5-3.357,7.5-7.5S459.499,496.999,455.356,496.999z M356.117,444.308v-37.69
	c22.515,0,55.293,0,77.797,0v37.69C411.399,444.308,378.624,444.308,356.117,444.308z M263.319,444.308v-37.69
	c22.514,0,55.289,0,77.797,0v37.69C318.601,444.308,285.823,444.308,263.319,444.308z M170.521,444.308v-37.69
	c22.514,0,55.289,0,77.798,0v37.69C225.804,444.308,193.029,444.308,170.521,444.308z M77.723,444.308v-37.69
	c22.515,0,55.293,0,77.797,0v37.69C133.006,444.308,100.231,444.308,77.723,444.308z M201.919,353.926v37.69
	c-22.515,0-55.293,0-77.797,0v-37.69C146.636,353.926,179.412,353.926,201.919,353.926z M170.521,301.235h77.798v37.69
	c-22.514,0-55.289,0-77.798,0V301.235z M263.319,301.235h77.797v37.69c-22.515,0-55.293,0-77.797,0V301.235z M433.914,353.926v37.69
	h-31.398v-37.69H433.914z M387.515,391.617c-22.514,0-55.289,0-77.798,0v-37.69c22.514,0,55.289,0,77.798,0V391.617z
	 M216.92,391.617v-37.69c22.515,0,55.293,0,77.797,0v37.69C272.203,391.617,239.427,391.617,216.92,391.617z M109.121,391.617
	H77.723v-37.69h31.398C109.121,353.926,109.121,391.617,109.121,391.617z M433.914,301.235v37.69c-22.514,0-55.289,0-77.797,0
	v-37.69C358.951,301.235,431.077,301.235,433.914,301.235z M342.151,286.234c-7.867,0-164.849,0-171.025,0V107.129h77.193v82.052
	c-83.75,0-11.36,0-47.364,0c-4.143,0-7.5,3.357-7.5,7.5c0,4.143,3.357,7.5,7.5,7.5h1.895l7.69,57.946
	c0.494,3.729,3.674,6.514,7.435,6.514H293.3c3.745,0,6.916-2.763,7.43-6.473l8.022-57.987h1.568c4.143,0,7.5-3.357,7.5-7.5
	c0-4.143-3.357-7.5-7.5-7.5c-10.252,0-37.977,0-47.001,0V107.13h78.832L342.151,286.234L342.151,286.234z M293.607,204.182
	l-6.842,49.459h-62.22l-6.563-49.459L293.607,204.182L293.607,204.182z M404.824,67.294v24.835c-20.963,0-124.021,0-141.505,0
	V67.294H404.824z M91.812,101.44c0,3.053-2.483,5.536-5.536,5.536h-5.262c-3.053,0-5.536-2.483-5.536-5.536V57.983
	c0-3.053,2.483-5.536,5.536-5.536h5.262c3.053,0,5.536,2.483,5.536,5.536C91.812,77.283,91.812,81.735,91.812,101.44z
	 M106.813,67.294h141.506v24.835c-19.036,0-126.159,0-141.506,0C106.813,92.129,106.813,67.294,106.813,67.294z M139.79,107.129
	h16.335v179.105H139.79V107.129z M77.723,301.235c5.651,0,75.368,0,77.797,0v37.69c-22.514,0-55.289,0-77.797,0V301.235z
	 M77.723,459.309h31.398v37.69H77.723V459.309z M124.122,459.309c22.514,0,55.289,0,77.797,0v37.69h-77.797V459.309z
	 M216.92,459.309c22.515,0,55.293,0,77.797,0v37.69H216.92L216.92,459.309L216.92,459.309z M309.717,459.309
	c22.514,0,55.289,0,77.798,0v37.69h-77.798V459.309z M402.516,496.999v-37.69h31.398v37.69H402.516z"/>
<g>
</g>
<g>
</g>
<g>
</g>
<g>
</g>
<g>
</g>
<g>
</g>
<g>
</g>
<g>
</g>
<g>
</g>
<g>
</g>
<g>
</g>
<g>
</g>
<g>
</g>
<g>
</g>
<g>
</g>
</svg>
