<svg id="Layer_3" height="512" viewBox="0 0 64 64" width="512" xmlns="http://www.w3.org/2000/svg" data-name="Layer 3"><path d="m6 6h52v46h-52z" fill="#b5b5b5"/><path d="m34 52v-42h20v42" fill="#e2e7f6"/><path d="m51 45v-35h-17v37h15a2 2 0 0 0 2-2z" fill="#f2f2f2"/><path d="m2 2h60v4h-60z" fill="#686868"/><path d="m34 52 14-5v-32l-14-5" fill="#686868"/><path d="m10 52v-42h20v42" fill="#e2e7f6"/><path d="m27 45v-35h-17v37h15a2 2 0 0 0 2-2z" fill="#f2f2f2"/><path d="m2 52h60v4h-60z" fill="#686868"/><path d="m4 56v6h56v-6" fill="#939393"/><path d="m4 56v3h48a2 2 0 0 0 2-2v-1z" fill="#b5b5b5"/><path d="m10 52 14-5v-32l-14-5" fill="#686868"/><g fill="#939393"><path d="m20 30v-12l-6-2v14z"/><path d="m20 34v10l-6 2v-12z"/><path d="m44 30v-12l-6-2v14z"/><path d="m44 34v10l-6 2v-12z"/></g></svg>